<svg xmlns="http://www.w3.org/2000/svg" xmlns:xlink="http://www.w3.org/1999/xlink" width="1080" zoomAndPan="magnify" viewBox="0 0 810 809.999993" height="1080" preserveAspectRatio="xMidYMid meet" version="1.0"><defs><clipPath id="3f66f0bd49"><path d="M 21.589844 151.949219 L 788.089844 151.949219 L 788.089844 658.199219 L 21.589844 658.199219 Z M 21.589844 151.949219 " clip-rule="nonzero"/></clipPath></defs><g clip-path="url(#3f66f0bd49)"><path fill="#cdb076" d="M 788.171875 193.789062 C 788.171875 170.648438 769.320312 151.949219 746.328125 151.949219 C 723.339844 151.949219 704.484375 170.800781 704.484375 193.789062 C 704.484375 216.78125 717.207031 229.195312 735.140625 234.101562 L 735.140625 359.167969 C 725.945312 348.59375 714.753906 341.851562 702.800781 339.703125 L 702.800781 294.335938 C 702.800781 240.539062 659.117188 196.855469 605.320312 196.855469 L 176.472656 196.855469 C 122.671875 196.855469 78.992188 240.539062 78.992188 294.335938 L 78.992188 339.550781 C 63.96875 341.851562 50.175781 351.503906 39.753906 367.140625 C 28.105469 384.457031 21.820312 407.296875 21.820312 431.511719 C 21.820312 455.730469 28.257812 478.566406 39.753906 495.886719 C 50.328125 511.671875 63.96875 521.175781 78.992188 523.476562 L 78.992188 558.265625 C 78.992188 613.289062 123.746094 658.046875 178.769531 658.046875 L 602.714844 658.046875 C 657.738281 658.046875 702.492188 613.289062 702.492188 558.265625 L 702.492188 523.320312 C 717.359375 520.714844 730.847656 511.058594 741.269531 495.425781 C 752.613281 478.261719 758.898438 455.574219 758.898438 431.511719 C 758.898438 407.449219 758.742188 423.234375 758.285156 419.097656 C 758.285156 418.179688 758.128906 417.257812 757.976562 416.492188 L 757.976562 234.101562 C 775.449219 228.890625 788.019531 212.644531 788.019531 193.945312 Z M 718.585938 193.789062 C 718.585938 178.464844 731 166.050781 746.328125 166.050781 C 761.65625 166.050781 774.070312 178.464844 774.070312 193.789062 C 774.070312 209.117188 763.800781 219.386719 750.160156 221.226562 C 749.546875 221.226562 748.933594 221.226562 748.320312 221.378906 C 748.320312 221.378906 748.167969 221.378906 748.015625 221.378906 C 747.554688 221.378906 746.941406 221.378906 746.480469 221.378906 C 746.175781 221.378906 745.867188 221.378906 745.5625 221.378906 C 745.253906 221.378906 745.101562 221.378906 744.796875 221.378906 C 744.183594 221.378906 743.570312 221.378906 742.957031 221.226562 C 729.007812 219.539062 718.585938 207.738281 718.585938 193.789062 Z M 93.246094 294.488281 C 93.246094 248.507812 130.644531 211.265625 176.472656 211.265625 L 605.015625 211.265625 C 650.996094 211.265625 688.238281 248.660156 688.238281 294.488281 L 688.238281 536.503906 C 688.238281 583.710938 649.921875 622.027344 602.714844 622.027344 L 178.769531 622.027344 C 131.5625 622.027344 93.246094 583.710938 93.246094 536.503906 Z M 51.554688 488.070312 C 41.59375 473.050781 35.921875 453.125 35.921875 431.664062 C 35.921875 410.207031 41.441406 390.128906 51.554688 375.261719 C 59.21875 363.765625 68.875 356.5625 78.992188 354.265625 L 78.992188 509.21875 C 68.722656 506.921875 59.21875 499.566406 51.554688 488.222656 Z M 602.714844 643.945312 L 178.769531 643.945312 C 149.800781 643.945312 124.050781 629.539062 108.570312 607.3125 C 108.726562 607.464844 109.03125 607.773438 109.339844 607.925781 C 109.644531 608.234375 109.953125 608.539062 110.105469 608.691406 C 110.410156 609 110.71875 609.304688 111.023438 609.460938 C 111.332031 609.765625 111.636719 609.917969 111.945312 610.226562 C 112.25 610.53125 112.558594 610.839844 112.863281 610.992188 C 113.171875 611.296875 113.476562 611.453125 113.785156 611.757812 C 114.089844 612.066406 114.394531 612.21875 114.703125 612.523438 C 115.007812 612.832031 115.316406 612.984375 115.621094 613.289062 C 115.929688 613.597656 116.234375 613.75 116.542969 614.058594 C 116.847656 614.363281 117.15625 614.515625 117.460938 614.824219 C 117.769531 615.128906 118.074219 615.285156 118.382812 615.589844 C 118.6875 615.898438 118.996094 616.050781 119.300781 616.355469 C 119.609375 616.664062 119.914062 616.816406 120.375 617.121094 C 120.679688 617.277344 120.988281 617.582031 121.292969 617.734375 C 121.601562 618.042969 122.058594 618.195312 122.367188 618.503906 C 122.671875 618.65625 122.980469 618.960938 123.285156 619.113281 C 123.59375 619.421875 124.050781 619.574219 124.359375 619.882812 C 124.664062 620.035156 124.972656 620.339844 125.277344 620.496094 C 125.585938 620.648438 126.042969 620.953125 126.351562 621.109375 C 126.65625 621.261719 126.964844 621.566406 127.269531 621.722656 C 127.578125 621.875 128.039062 622.179688 128.34375 622.332031 C 128.652344 622.488281 128.957031 622.640625 129.261719 622.945312 C 129.570312 623.101562 130.03125 623.40625 130.335938 623.558594 C 130.644531 623.714844 130.949219 623.867188 131.257812 624.171875 C 131.5625 624.328125 132.023438 624.632812 132.328125 624.785156 C 132.636719 624.9375 132.941406 625.09375 133.25 625.246094 C 133.554688 625.398438 134.015625 625.550781 134.320312 625.859375 C 134.628906 626.011719 134.933594 626.164062 135.394531 626.320312 C 135.855469 626.472656 136.160156 626.625 136.621094 626.933594 C 136.925781 627.085938 137.234375 627.238281 137.695312 627.390625 C 138.152344 627.542969 138.460938 627.699219 138.917969 627.851562 C 139.226562 627.851562 139.53125 628.15625 139.992188 628.3125 C 140.453125 628.464844 140.757812 628.617188 141.21875 628.769531 C 141.523438 628.769531 141.984375 629.078125 142.292969 629.230469 C 142.75 629.382812 143.058594 629.539062 143.519531 629.691406 C 143.824219 629.691406 144.285156 629.996094 144.589844 630.148438 C 145.050781 630.148438 145.355469 630.457031 145.816406 630.609375 C 146.125 630.609375 146.582031 630.917969 146.890625 630.917969 C 147.347656 630.917969 147.65625 631.222656 148.117188 631.375 C 148.421875 631.375 148.882812 631.683594 149.1875 631.683594 C 149.648438 631.683594 149.953125 631.988281 150.414062 631.988281 C 150.722656 631.988281 151.179688 632.144531 151.488281 632.296875 C 151.949219 632.296875 152.40625 632.601562 152.714844 632.601562 C 153.019531 632.601562 153.480469 632.757812 153.785156 632.910156 C 154.246094 632.910156 154.707031 633.0625 155.011719 633.214844 C 155.320312 633.214844 155.777344 633.371094 156.085938 633.523438 C 156.546875 633.523438 157.003906 633.675781 157.464844 633.828125 C 157.773438 633.828125 158.230469 633.980469 158.539062 634.136719 C 158.996094 634.136719 159.457031 634.289062 159.917969 634.441406 C 160.222656 634.441406 160.683594 634.441406 160.992188 634.59375 C 161.449219 634.59375 161.910156 634.59375 162.371094 634.75 C 162.675781 634.75 163.136719 634.75 163.441406 634.902344 C 163.902344 634.902344 164.363281 634.902344 164.820312 635.054688 C 165.128906 635.054688 165.589844 635.054688 165.894531 635.207031 C 166.355469 635.207031 166.816406 635.207031 167.273438 635.363281 C 167.582031 635.363281 168.039062 635.363281 168.347656 635.363281 C 168.808594 635.363281 169.265625 635.363281 169.878906 635.363281 C 170.1875 635.363281 170.644531 635.363281 170.953125 635.363281 C 171.414062 635.363281 172.027344 635.363281 172.484375 635.363281 C 172.792969 635.363281 173.097656 635.363281 173.558594 635.363281 C 174.171875 635.363281 174.632812 635.363281 175.246094 635.363281 C 175.550781 635.363281 175.859375 635.363281 176.164062 635.363281 C 177.082031 635.363281 177.851562 635.363281 178.769531 635.363281 L 602.714844 635.363281 C 603.632812 635.363281 604.402344 635.363281 605.320312 635.363281 C 605.625 635.363281 605.933594 635.363281 606.238281 635.363281 C 606.851562 635.363281 607.3125 635.363281 607.925781 635.363281 C 608.230469 635.363281 608.539062 635.363281 609 635.363281 C 609.457031 635.363281 610.070312 635.363281 610.53125 635.363281 C 610.839844 635.363281 611.296875 635.363281 611.605469 635.363281 C 612.0625 635.363281 612.523438 635.363281 613.136719 635.363281 C 613.445312 635.363281 613.902344 635.363281 614.210938 635.363281 C 614.667969 635.363281 615.128906 635.363281 615.589844 635.207031 C 615.894531 635.207031 616.355469 635.207031 616.664062 635.054688 C 617.121094 635.054688 617.582031 635.054688 618.042969 634.902344 C 618.347656 634.902344 618.808594 634.902344 619.113281 634.75 C 619.574219 634.75 620.035156 634.75 620.492188 634.59375 C 620.800781 634.59375 621.261719 634.59375 621.566406 634.441406 C 622.027344 634.441406 622.488281 634.289062 622.945312 634.136719 C 623.253906 634.136719 623.710938 633.980469 624.019531 633.828125 C 624.480469 633.828125 624.9375 633.675781 625.398438 633.523438 C 625.707031 633.523438 626.164062 633.371094 626.472656 633.214844 C 626.929688 633.214844 627.390625 633.0625 627.699219 632.910156 C 628.003906 632.910156 628.464844 632.757812 628.769531 632.601562 C 629.230469 632.601562 629.691406 632.449219 629.996094 632.296875 C 630.304688 632.296875 630.761719 632.144531 631.070312 631.988281 C 631.53125 631.988281 631.835938 631.683594 632.296875 631.683594 C 632.601562 631.683594 633.0625 631.375 633.367188 631.375 C 633.828125 631.375 634.136719 631.070312 634.59375 630.917969 C 634.902344 630.917969 635.359375 630.609375 635.667969 630.609375 C 636.128906 630.609375 636.433594 630.304688 636.894531 630.148438 C 637.199219 630.148438 637.660156 629.84375 637.96875 629.691406 C 638.425781 629.691406 638.734375 629.382812 639.191406 629.230469 C 639.5 629.230469 639.960938 628.925781 640.265625 628.769531 C 640.726562 628.617188 641.03125 628.464844 641.492188 628.3125 C 641.796875 628.3125 642.105469 628.003906 642.566406 627.851562 C 643.023438 627.699219 643.332031 627.542969 643.792969 627.390625 C 644.097656 627.238281 644.402344 627.085938 644.863281 626.933594 C 645.324219 626.777344 645.628906 626.625 646.089844 626.320312 C 646.398438 626.164062 646.703125 626.011719 647.164062 625.859375 C 647.621094 625.707031 647.929688 625.550781 648.234375 625.246094 C 648.542969 625.09375 648.847656 624.9375 649.15625 624.785156 C 649.460938 624.632812 649.921875 624.328125 650.226562 624.171875 C 650.535156 624.019531 650.839844 623.867188 651.148438 623.558594 C 651.453125 623.40625 651.914062 623.101562 652.222656 622.945312 C 652.527344 622.792969 652.835938 622.640625 653.140625 622.332031 C 653.445312 622.179688 653.90625 621.875 654.214844 621.722656 C 654.519531 621.566406 654.828125 621.261719 655.132812 621.109375 C 655.441406 620.953125 655.898438 620.648438 656.207031 620.496094 C 656.511719 620.339844 656.820312 620.035156 657.125 619.882812 C 657.433594 619.574219 657.890625 619.421875 658.199219 619.113281 C 658.503906 618.960938 658.8125 618.65625 659.117188 618.503906 C 659.425781 618.195312 659.882812 618.042969 660.191406 617.734375 C 660.496094 617.582031 660.804688 617.277344 661.109375 617.121094 C 661.417969 616.816406 661.722656 616.664062 662.183594 616.355469 C 662.492188 616.203125 662.796875 615.898438 663.101562 615.589844 C 663.410156 615.285156 663.714844 615.128906 664.023438 614.824219 C 664.328125 614.515625 664.636719 614.363281 664.941406 614.058594 C 665.25 613.75 665.554688 613.597656 665.863281 613.289062 C 666.167969 612.984375 666.476562 612.832031 666.78125 612.523438 C 667.089844 612.21875 667.394531 612.066406 667.703125 611.757812 C 668.007812 611.453125 668.316406 611.296875 668.621094 610.992188 C 668.925781 610.683594 669.234375 610.378906 669.539062 610.226562 C 669.847656 609.917969 670.152344 609.765625 670.460938 609.460938 C 670.765625 609.152344 671.074219 608.847656 671.378906 608.691406 C 671.6875 608.386719 671.992188 608.078125 672.144531 607.925781 C 672.300781 607.773438 672.605469 607.464844 672.914062 607.3125 C 657.433594 629.382812 631.683594 643.945312 602.714844 643.945312 Z M 702.492188 508.914062 L 702.492188 354.265625 C 715.675781 357.636719 727.476562 368.980469 735.445312 386.296875 C 735.753906 386.910156 736.058594 387.675781 736.367188 388.289062 C 740.503906 398.101562 743.261719 408.828125 744.335938 420.324219 C 744.644531 424.003906 744.796875 427.835938 744.796875 431.511719 C 744.796875 470.289062 726.402344 502.785156 702.492188 508.761719 Z M 702.492188 508.914062 " fill-opacity="1" fill-rule="nonzero"/></g><path fill="#cdb076" d="M 195.78125 595.816406 L 585.855469 595.816406 C 616.96875 595.816406 642.257812 570.527344 642.257812 539.414062 L 642.257812 315.640625 C 642.257812 284.527344 616.96875 259.238281 585.855469 259.238281 L 195.78125 259.238281 C 164.667969 259.238281 139.378906 284.527344 139.378906 315.640625 L 139.378906 539.566406 C 139.378906 570.683594 164.667969 595.972656 195.78125 595.972656 Z M 153.632812 315.640625 C 153.632812 292.34375 172.484375 273.492188 195.78125 273.492188 L 585.855469 273.492188 C 609.152344 273.492188 628.003906 292.34375 628.003906 315.640625 L 628.003906 539.566406 C 628.003906 562.863281 609.152344 581.71875 585.855469 581.71875 L 195.78125 581.71875 C 172.484375 581.71875 153.632812 562.863281 153.632812 539.566406 Z M 153.632812 315.640625 " fill-opacity="1" fill-rule="nonzero"/><path fill="#cdb076" d="M 200.226562 434.882812 C 200.535156 434.882812 200.839844 434.882812 201.148438 434.882812 C 205.59375 434.882812 209.882812 433.199219 213.253906 430.132812 C 216.933594 426.914062 219.078125 422.316406 219.234375 417.410156 C 220.304688 393.960938 240.230469 374.957031 263.679688 374.957031 C 287.132812 374.957031 307.058594 393.960938 308.128906 417.410156 C 308.589844 427.222656 316.558594 434.730469 326.367188 434.730469 C 336.179688 434.730469 326.980469 434.730469 327.289062 434.730469 C 332.191406 434.578125 336.636719 432.433594 339.855469 428.753906 C 343.074219 425.230469 344.761719 420.476562 344.609375 415.574219 C 342.617188 372.351562 307.058594 338.476562 263.835938 338.476562 C 220.613281 338.476562 185.054688 372.351562 183.0625 415.574219 C 182.90625 420.476562 184.59375 425.074219 187.8125 428.753906 C 191.03125 432.277344 195.628906 434.425781 200.382812 434.730469 Z M 263.679688 352.886719 C 299.394531 352.886719 328.667969 380.78125 330.355469 416.492188 C 330.355469 417.566406 330.046875 418.636719 329.28125 419.40625 C 328.515625 420.171875 327.59375 420.628906 326.367188 420.785156 C 324.222656 420.785156 322.382812 419.097656 322.382812 416.953125 C 321.003906 386.144531 294.640625 361.007812 263.835938 361.007812 C 233.027344 361.007812 206.664062 386.144531 205.285156 416.953125 C 205.285156 418.023438 204.824219 419.097656 203.90625 419.710938 C 203.445312 420.171875 202.527344 420.785156 200.992188 420.785156 C 199.921875 420.785156 199 420.324219 198.234375 419.40625 C 197.46875 418.484375 197.164062 417.566406 197.164062 416.492188 C 198.847656 380.78125 228.121094 352.886719 263.835938 352.886719 Z M 263.679688 352.886719 " fill-opacity="1" fill-rule="nonzero"/><path fill="#cdb076" d="M 454.347656 434.882812 C 454.65625 434.882812 454.960938 434.882812 455.269531 434.882812 C 459.714844 434.882812 464.003906 433.199219 467.378906 430.132812 C 471.054688 426.914062 473.203125 422.316406 473.355469 417.410156 C 474.425781 393.960938 494.351562 374.957031 517.804688 374.957031 C 541.253906 374.957031 561.179688 393.960938 562.25 417.410156 C 562.710938 427.222656 570.679688 434.730469 580.492188 434.730469 C 590.300781 434.730469 581.105469 434.730469 581.410156 434.730469 C 586.316406 434.578125 590.757812 432.433594 593.976562 428.753906 C 597.195312 425.230469 598.882812 420.476562 598.730469 415.574219 C 596.738281 372.351562 561.179688 338.476562 517.957031 338.476562 C 474.734375 338.476562 439.175781 372.351562 437.183594 415.574219 C 437.03125 420.476562 438.714844 425.074219 441.933594 428.753906 C 445.152344 432.277344 449.75 434.425781 454.503906 434.730469 Z M 517.804688 352.886719 C 553.515625 352.886719 582.789062 380.78125 584.476562 416.492188 C 584.476562 417.566406 584.167969 418.636719 583.402344 419.40625 C 582.636719 420.171875 581.714844 420.628906 580.492188 420.785156 C 578.34375 420.785156 576.503906 419.097656 576.503906 416.953125 C 575.125 386.144531 548.761719 361.007812 517.957031 361.007812 C 487.148438 361.007812 460.785156 386.144531 459.40625 416.953125 C 459.40625 418.023438 458.949219 419.097656 458.027344 419.710938 C 457.566406 420.171875 456.648438 420.785156 455.117188 420.785156 C 454.042969 420.785156 453.125 420.324219 452.355469 419.40625 C 451.589844 418.636719 451.285156 417.566406 451.285156 416.492188 C 452.96875 380.78125 482.246094 352.886719 517.957031 352.886719 Z M 517.804688 352.886719 " fill-opacity="1" fill-rule="nonzero"/><path fill="#cdb076" d="M 310.121094 468.449219 C 305.675781 470.289062 302.152344 473.816406 300.160156 478.261719 C 298.320312 482.703125 298.320312 487.761719 300.160156 492.207031 C 315.332031 529.300781 350.890625 553.210938 390.894531 553.210938 C 430.898438 553.210938 466.457031 529.300781 481.632812 492.207031 C 483.46875 487.761719 483.46875 482.703125 481.632812 478.261719 C 479.792969 473.816406 476.265625 470.289062 471.667969 468.449219 C 462.320312 464.617188 451.742188 469.0625 447.910156 478.414062 C 438.410156 501.710938 416.03125 516.730469 390.894531 516.730469 C 365.757812 516.730469 343.382812 501.710938 333.878906 478.414062 C 330.046875 469.0625 319.472656 464.617188 310.121094 468.449219 Z M 390.742188 530.832031 C 421.703125 530.832031 449.136719 512.285156 460.941406 483.777344 C 461.707031 481.785156 464.160156 480.710938 466.152344 481.632812 C 467.222656 482.09375 467.992188 482.859375 468.296875 483.777344 C 468.757812 484.699219 468.757812 485.921875 468.296875 486.84375 C 455.421875 518.570312 424.921875 538.953125 390.742188 538.953125 C 356.5625 538.953125 326.0625 518.570312 313.1875 486.84375 C 312.726562 485.921875 312.726562 484.699219 313.1875 483.777344 C 313.648438 482.859375 314.414062 482.09375 315.332031 481.632812 C 315.792969 481.480469 316.40625 481.324219 316.867188 481.324219 C 318.398438 481.324219 319.929688 482.246094 320.542969 483.777344 C 332.191406 512.4375 359.78125 530.832031 390.742188 530.832031 Z M 390.742188 530.832031 " fill-opacity="1" fill-rule="nonzero"/></svg>