<svg xmlns="http://www.w3.org/2000/svg" xmlns:xlink="http://www.w3.org/1999/xlink" width="1080" zoomAndPan="magnify" viewBox="0 0 810 1012.49997" height="1350" preserveAspectRatio="xMidYMid meet" version="1.0"><defs><clipPath id="8603658ccf"><path d="M 40.03125 178 L 770.171875 178 L 770.171875 833 L 40.03125 833 Z M 40.03125 178 " clip-rule="nonzero"/></clipPath><clipPath id="cb7644e944"><path d="M 0.03125 1 L 509 1 L 509 654.867188 L 0.03125 654.867188 Z M 0.03125 1 " clip-rule="nonzero"/></clipPath><clipPath id="db080ed58e"><rect x="0" width="731" y="0" height="655"/></clipPath></defs><g clip-path="url(#8603658ccf)"><g transform="matrix(1, 0, 0, 1, 40, 178)"><g clip-path="url(#db080ed58e)"><path fill="#8e2a25" d="M 690.015625 291.679688 L 254.234375 291.679688 L 254.234375 364.3125 L 690.015625 364.3125 Z M 690.015625 291.679688 " fill-opacity="1" fill-rule="evenodd"/><path fill="#8e2a25" d="M 588.59375 175.214844 L 715.695312 302.316406 C 729.878906 316.5 729.878906 339.492188 715.695312 353.675781 L 588.59375 480.777344 L 537.238281 429.417969 L 638.660156 327.996094 L 537.238281 226.574219 Z M 588.59375 175.214844 " fill-opacity="1" fill-rule="evenodd"/><g clip-path="url(#cb7644e944)"><path fill="#8e2a25" d="M 508.441406 37.476562 C 508.441406 17.421875 492.179688 1.164062 472.125 1.164062 L 36.347656 1.164062 C 16.289062 1.164062 0.03125 17.421875 0.03125 37.476562 L 0.03125 618.515625 C 0.03125 638.570312 16.289062 654.828125 36.347656 654.828125 L 472.125 654.828125 C 492.179688 654.828125 508.441406 638.570312 508.441406 618.515625 L 508.441406 509.570312 L 435.8125 509.570312 L 435.8125 582.199219 L 72.660156 582.199219 L 72.660156 73.792969 L 435.8125 73.792969 L 435.8125 146.421875 L 508.441406 146.421875 Z M 508.441406 37.476562 " fill-opacity="1" fill-rule="evenodd"/></g></g></g></g></svg>