<svg xmlns="http://www.w3.org/2000/svg" xmlns:xlink="http://www.w3.org/1999/xlink" width="1080" zoomAndPan="magnify" viewBox="0 0 810 817.92" height="1080" preserveAspectRatio="xMidYMid meet" version="1.0"><path fill="#8e2a25" d="M 737.273438 421.5 L 706.699219 421.5 L 706.699219 734.976562 C 706.636719 736.03125 706.519531 737.078125 706.351562 738.121094 C 706.183594 739.164062 705.964844 740.195312 705.695312 741.21875 C 705.429688 742.238281 705.109375 743.246094 704.746094 744.238281 C 704.378906 745.226562 703.964844 746.199219 703.503906 747.148438 C 703.042969 748.097656 702.535156 749.023438 701.984375 749.925781 C 701.433594 750.824219 700.839844 751.699219 700.203125 752.539062 C 699.566406 753.382812 698.890625 754.195312 698.171875 754.972656 C 697.457031 755.746094 696.707031 756.488281 695.917969 757.191406 C 695.132812 757.894531 694.3125 758.558594 693.457031 759.183594 C 692.605469 759.808594 691.726562 760.386719 690.816406 760.925781 C 689.90625 761.464844 688.972656 761.957031 688.015625 762.402344 C 687.058594 762.851562 686.082031 763.25 685.085938 763.601562 C 684.089844 763.953125 683.082031 764.253906 682.054688 764.507812 C 681.027344 764.761719 679.992188 764.964844 678.949219 765.117188 C 677.902344 765.269531 676.851562 765.367188 675.796875 765.417969 C 674.742188 765.46875 673.6875 765.464844 672.632812 765.414062 L 492.039062 765.414062 L 492.039062 551.671875 C 492.039062 550.941406 492.003906 550.210938 491.929688 549.484375 C 491.859375 548.757812 491.753906 548.035156 491.609375 547.316406 C 491.46875 546.597656 491.289062 545.890625 491.078125 545.191406 C 490.867188 544.492188 490.621094 543.804688 490.339844 543.128906 C 490.0625 542.453125 489.75 541.792969 489.402344 541.148438 C 489.058594 540.503906 488.683594 539.875 488.277344 539.269531 C 487.871094 538.660156 487.4375 538.074219 486.972656 537.507812 C 486.507812 536.941406 486.019531 536.402344 485.503906 535.882812 C 484.984375 535.367188 484.445312 534.875 483.878906 534.414062 C 483.3125 533.949219 482.726562 533.511719 482.121094 533.105469 C 481.511719 532.699219 480.886719 532.324219 480.242188 531.980469 C 479.597656 531.632812 478.9375 531.320312 478.261719 531.042969 C 477.585938 530.761719 476.898438 530.515625 476.199219 530.304688 C 475.5 530.089844 474.789062 529.914062 474.074219 529.769531 C 473.355469 529.625 472.632812 529.519531 471.90625 529.445312 C 471.179688 529.375 470.449219 529.339844 469.71875 529.339844 L 338.691406 529.339844 C 337.960938 529.339844 337.230469 529.375 336.503906 529.445312 C 335.773438 529.515625 335.054688 529.625 334.335938 529.765625 C 333.617188 529.910156 332.910156 530.085938 332.210938 530.300781 C 331.511719 530.511719 330.824219 530.757812 330.148438 531.039062 C 329.472656 531.316406 328.8125 531.628906 328.167969 531.976562 C 327.519531 532.320312 326.894531 532.695312 326.285156 533.101562 C 325.679688 533.507812 325.09375 533.945312 324.527344 534.410156 C 323.960938 534.871094 323.421875 535.363281 322.902344 535.878906 C 322.386719 536.398438 321.898438 536.9375 321.433594 537.503906 C 320.96875 538.070312 320.535156 538.65625 320.128906 539.265625 C 319.722656 539.875 319.347656 540.5 319.003906 541.144531 C 318.65625 541.789062 318.347656 542.449219 318.066406 543.125 C 317.785156 543.800781 317.542969 544.488281 317.328125 545.191406 C 317.117188 545.890625 316.941406 546.597656 316.796875 547.316406 C 316.65625 548.03125 316.546875 548.753906 316.476562 549.484375 C 316.40625 550.210938 316.371094 550.941406 316.371094 551.671875 L 316.371094 765.398438 L 135.765625 765.398438 C 134.710938 765.457031 133.660156 765.460938 132.609375 765.414062 C 131.558594 765.367188 130.511719 765.265625 129.46875 765.117188 C 128.425781 764.96875 127.394531 764.769531 126.371094 764.519531 C 125.347656 764.265625 124.339844 763.96875 123.347656 763.617188 C 122.351562 763.269531 121.378906 762.871094 120.425781 762.429688 C 119.46875 761.984375 118.539062 761.492188 117.632812 760.957031 C 116.726562 760.421875 115.847656 759.84375 115 759.222656 C 114.148438 758.601562 113.332031 757.9375 112.546875 757.238281 C 111.761719 756.535156 111.011719 755.796875 110.296875 755.023438 C 109.585938 754.25 108.914062 753.441406 108.277344 752.601562 C 107.644531 751.757812 107.054688 750.890625 106.503906 749.992188 C 105.957031 749.09375 105.453125 748.167969 104.992188 747.222656 C 104.535156 746.273438 104.125 745.304688 103.761719 744.316406 C 103.394531 743.328125 103.082031 742.324219 102.816406 741.308594 C 102.550781 740.289062 102.335938 739.257812 102.171875 738.21875 C 102.003906 737.179688 101.890625 736.132812 101.828125 735.082031 L 101.828125 421.5 L 71.125 421.5 C 37.097656 421.5 18.660156 389.460938 40.953125 368.902344 L 376.964844 58.269531 C 378.015625 57.382812 379.101562 56.542969 380.222656 55.75 C 381.347656 54.957031 382.5 54.214844 383.691406 53.523438 C 384.878906 52.835938 386.09375 52.195312 387.339844 51.613281 C 388.582031 51.03125 389.851562 50.503906 391.140625 50.03125 C 392.433594 49.558594 393.742188 49.144531 395.070312 48.789062 C 396.398438 48.433594 397.738281 48.136719 399.089844 47.898438 C 400.445312 47.660156 401.804688 47.480469 403.175781 47.363281 C 404.542969 47.246094 405.917969 47.1875 407.289062 47.191406 C 408.664062 47.191406 410.035156 47.257812 411.40625 47.378906 C 412.773438 47.503906 414.136719 47.6875 415.488281 47.929688 C 416.839844 48.175781 418.179688 48.476562 419.503906 48.839844 C 420.832031 49.199219 422.140625 49.617188 423.429688 50.09375 C 424.71875 50.570312 425.984375 51.105469 427.226562 51.691406 C 428.46875 52.28125 429.679688 52.921875 430.867188 53.617188 C 432.050781 54.3125 433.203125 55.058594 434.324219 55.855469 C 435.445312 56.652344 436.527344 57.496094 437.574219 58.390625 C 547.574219 161.929688 657.625 265.46875 767.722656 369.007812 C 789.601562 389.769531 771.179688 421.5 737.273438 421.5 Z M 737.273438 421.5 " fill-opacity="1" fill-rule="nonzero"/></svg>