<svg xmlns="http://www.w3.org/2000/svg" xmlns:xlink="http://www.w3.org/1999/xlink" width="1080" zoomAndPan="magnify" viewBox="0 0 810 817.92" height="1080" preserveAspectRatio="xMidYMid meet" version="1.0"><defs><clipPath id="c5f18c60e7"><path d="M 37 106 L 676 106 L 676 763.894531 L 37 763.894531 Z M 37 106 " clip-rule="nonzero"/></clipPath><clipPath id="1e9c81f276"><path d="M 445 46.214844 L 773 46.214844 L 773 290 L 445 290 Z M 445 46.214844 " clip-rule="nonzero"/></clipPath></defs><g clip-path="url(#c5f18c60e7)"><path fill="#c9b583" d="M 291.660156 302.53125 C 284.863281 297.824219 278.289062 293.265625 271.707031 288.726562 C 228.289062 258.808594 184.863281 228.898438 141.441406 198.980469 C 111.328125 178.230469 81.21875 157.46875 51.105469 136.707031 C 48.554688 134.945312 46.085938 133.054688 43.460938 131.40625 C 36.097656 126.773438 35.175781 113.824219 44.878906 108.433594 C 50.589844 105.261719 56.121094 105.875 61.378906 109.839844 C 73.460938 118.933594 85.679688 127.84375 97.847656 136.816406 C 116.679688 150.695312 135.515625 164.566406 154.351562 178.429688 C 203.171875 214.355469 251.996094 250.269531 300.816406 286.191406 C 306.542969 290.402344 312.304688 294.570312 317.949219 298.882812 C 320.042969 300.484375 322.214844 301.03125 324.796875 300.816406 C 339.089844 299.621094 353.40625 298.988281 367.730469 298.398438 C 392.394531 297.386719 417.066406 296.746094 441.742188 297.15625 C 458.789062 297.433594 475.839844 297.980469 492.867188 298.828125 C 509.503906 299.65625 526.125 300.832031 542.699219 302.527344 C 572.023438 305.523438 601.21875 309.34375 629.734375 317.136719 C 640.589844 320.105469 651.28125 323.585938 661.042969 329.410156 C 664.285156 331.351562 667.203125 333.675781 669.71875 336.488281 C 672.480469 339.574219 673.792969 343.128906 674.175781 347.347656 C 675.269531 359.347656 674.902344 371.363281 675.019531 383.371094 C 675.085938 389.875 673.59375 395.929688 669.738281 401.269531 C 668.855469 402.496094 668.648438 403.792969 668.648438 405.269531 C 668.636719 417.9375 668.84375 430.613281 668.445312 443.265625 C 667.707031 466.65625 668.304688 490.054688 667.652344 513.429688 C 667.015625 536.175781 667.523438 558.921875 666.878906 581.652344 C 666.433594 597.15625 666.625 612.664062 666.214844 628.160156 C 666.109375 632.027344 665.71875 635.898438 664.980469 639.710938 C 664.5625 641.871094 664.792969 643.714844 666.558594 645.339844 C 670.664062 649.109375 672.265625 653.769531 672.71875 659.429688 C 673.6875 671.449219 673.425781 683.449219 673.40625 695.460938 C 673.394531 703.105469 670.808594 709.984375 665.292969 715.410156 C 661.59375 719.046875 657.074219 721.660156 652.507812 724.101562 C 640.59375 730.46875 627.925781 734.925781 614.972656 738.597656 C 592.304688 745.019531 569.203125 749.320312 545.921875 752.761719 C 526.359375 755.65625 506.714844 757.75 487.027344 759.390625 C 477.25 760.207031 467.453125 760.804688 457.644531 761.316406 C 441.125 762.183594 424.59375 762.367188 408.074219 762.972656 C 388.800781 763.679688 369.574219 762.722656 350.335938 762.453125 C 336.402344 762.261719 322.460938 761.292969 308.558594 760.230469 C 274.660156 757.640625 240.910156 753.855469 207.6875 746.386719 C 191.527344 742.753906 175.609375 738.351562 160.417969 731.566406 C 154.371094 728.863281 149.046875 724.925781 143.152344 721.980469 C 141.398438 721.105469 140.296875 719.40625 139.140625 717.835938 C 133.460938 710.148438 131.273438 701.34375 131.019531 691.988281 C 130.800781 684.109375 131.035156 676.214844 130.730469 668.339844 C 130.453125 661.082031 133.371094 655.460938 139.007812 651.328125 C 141.882812 649.222656 142.710938 646.828125 142.703125 643.453125 C 142.632812 620.703125 142.480469 597.953125 142.792969 575.210938 C 143.527344 521.964844 142.996094 468.71875 143.320312 415.46875 C 143.339844 412.242188 142.703125 409.605469 140.632812 406.925781 C 134.894531 399.492188 132.851562 390.6875 132.578125 381.476562 C 132.332031 373.339844 132.472656 365.191406 132.316406 357.050781 C 132.207031 351.25 134.316406 346.527344 138.476562 342.542969 C 144.777344 336.503906 152.488281 332.859375 160.394531 329.636719 C 175.886719 323.320312 192.054688 319.234375 208.386719 315.816406 C 230.273438 311.230469 252.359375 307.835938 274.589844 305.429688 C 279.214844 304.929688 283.832031 304.414062 288.449219 303.898438 C 289.457031 303.808594 290.535156 303.882812 291.660156 302.53125 Z M 382.648438 693.417969 C 395.183594 693.753906 406.933594 693.765625 418.679688 693.492188 C 422.152344 693.410156 422.480469 693.085938 422.558594 689.714844 C 422.675781 684.289062 422.988281 678.867188 423.070312 673.457031 C 423.445312 648.652344 423.964844 623.859375 424.726562 599.066406 C 425.058594 588.21875 424.898438 577.367188 425.382812 566.519531 C 425.960938 553.488281 425.828125 540.433594 426.21875 527.386719 C 426.832031 507.113281 426.980469 486.828125 427.347656 466.546875 C 427.371094 465.257812 427.5625 463.972656 427.609375 462.683594 C 427.703125 460.105469 427.761719 457.523438 427.8125 454.9375 C 427.847656 453.175781 426.910156 452.34375 425.183594 452.324219 C 424.535156 452.316406 423.890625 452.3125 423.242188 452.316406 C 398.4375 452.542969 373.628906 452.789062 348.832031 451.703125 C 341.476562 451.378906 334.109375 451.25 326.769531 450.753906 C 309.765625 449.601562 292.773438 448.34375 275.828125 446.433594 C 258.496094 444.484375 241.230469 442.117188 224.09375 438.847656 C 221.050781 438.265625 218.019531 437.566406 214.960938 437.105469 C 212.734375 436.765625 212.207031 437.300781 211.980469 439.519531 C 211.914062 440.160156 211.941406 440.8125 211.929688 441.457031 C 211.632812 454.757812 211.5625 468.066406 211.359375 481.371094 C 210.984375 505.269531 210.683594 529.171875 210.328125 553.070312 C 210.152344 564.824219 209.949219 576.582031 209.824219 588.332031 C 209.527344 615.855469 208.828125 643.367188 208.726562 670.890625 C 208.710938 675.496094 208.757812 675.570312 213.261719 676.421875 C 237.382812 680.992188 261.652344 684.5625 286.046875 687.324219 C 306.328125 689.617188 326.660156 691.277344 347.027344 692.386719 C 359.140625 693.035156 371.277344 693.785156 382.648438 693.417969 Z M 430.429688 674.003906 C 430.429688 678.785156 430.429688 683.566406 430.429688 688.347656 C 430.429688 688.996094 430.386719 689.640625 430.433594 690.285156 C 430.609375 692.792969 430.980469 693.167969 433.4375 693.3125 C 434.210938 693.359375 434.988281 693.335938 435.765625 693.292969 C 443.886719 692.847656 452.003906 692.304688 460.128906 691.96875 C 474.203125 691.378906 488.21875 690.066406 502.203125 688.523438 C 527.378906 685.742188 552.382812 681.816406 577.085938 676.144531 C 593.839844 672.296875 610.414062 667.78125 626.613281 661.96875 C 631.304688 660.285156 631.695312 659.855469 631.761719 655.050781 C 632.0625 634 632.648438 612.953125 633.378906 591.910156 C 633.683594 583.261719 633.757812 574.609375 634 565.960938 C 634.582031 545.300781 635.039062 524.644531 635.667969 503.988281 C 636.175781 487.332031 636.390625 470.667969 636.742188 454.007812 C 636.761719 453.105469 636.824219 452.203125 636.898438 451.300781 C 637.605469 442.402344 637.316406 433.484375 637.460938 424.570312 C 637.507812 421.699219 636.890625 421.320312 634.21875 422.285156 C 613.105469 429.859375 591.316406 434.730469 569.285156 438.648438 C 545.496094 442.878906 521.539062 445.828125 497.472656 447.976562 C 478.050781 449.707031 458.59375 450.871094 439.117188 451.683594 C 435.65625 451.824219 435.417969 452.039062 435.320312 455.507812 C 435.058594 464.546875 435.117188 473.585938 434.679688 482.628906 C 434.105469 494.496094 434.496094 506.386719 433.894531 518.269531 C 433.304688 530.003906 433.71875 541.769531 433.132812 553.523438 C 432.53125 565.644531 432.949219 577.800781 432.332031 589.941406 C 431.753906 601.289062 431.933594 612.664062 431.632812 624.03125 C 431.179688 640.675781 430.921875 657.34375 430.429688 674.003906 Z M 357.683594 322.347656 C 359.210938 324.078125 360.988281 325.75 362.246094 327.808594 C 365.910156 333.78125 366.019531 343.4375 357.214844 347.71875 C 351.835938 350.335938 346.46875 350.226562 341.476562 346.515625 C 336.148438 342.554688 331.414062 338.015625 327.851562 332.347656 C 326.472656 330.160156 324.984375 328.042969 323.597656 325.863281 C 322.597656 324.292969 321.25 323.542969 319.378906 323.699219 C 316.417969 323.945312 313.460938 324.191406 310.492188 324.367188 C 293.214844 325.390625 275.992188 327.046875 258.804688 329.074219 C 239.292969 331.378906 219.863281 334.183594 200.726562 338.699219 C 192.050781 340.746094 183.429688 343.078125 175.425781 347.1875 C 173.816406 348.011719 172.199219 348.839844 170.949219 350.207031 C 169.703125 351.582031 169.691406 352.972656 170.9375 354.347656 C 172.09375 355.613281 173.589844 356.394531 175.089844 357.160156 C 181.113281 360.25 187.578125 362.09375 194.121094 363.660156 C 216.542969 369.027344 239.375 371.691406 262.28125 373.800781 C 274.5 374.925781 286.75 375.628906 298.992188 376.402344 C 315.113281 377.421875 331.246094 378.046875 347.378906 378.316406 C 386.011719 378.957031 424.648438 378.832031 463.257812 376.890625 C 474.730469 376.316406 486.214844 375.785156 497.667969 374.804688 C 506.546875 374.050781 515.457031 373.65625 524.324219 372.804688 C 537.179688 371.574219 550.019531 370.21875 562.820312 368.484375 C 578.832031 366.316406 594.777344 363.761719 610.460938 359.851562 C 618.484375 357.851562 626.472656 355.671875 633.851562 351.765625 C 635.453125 350.917969 637.015625 350.019531 638.296875 348.699219 C 639.507812 347.460938 639.597656 346.265625 638.359375 344.992188 C 637.355469 343.960938 636.191406 343.15625 634.933594 342.480469 C 631.96875 340.890625 628.90625 339.527344 625.703125 338.46875 C 612.886719 334.234375 599.636719 332.019531 586.359375 329.929688 C 575.894531 328.28125 565.363281 327.207031 554.820312 326.167969 C 549.296875 325.625 543.78125 324.964844 538.242188 324.558594 C 528.972656 323.886719 519.6875 323.332031 510.410156 322.699219 C 495.585938 321.691406 480.738281 321.226562 465.898438 320.847656 C 446.777344 320.363281 427.644531 320.695312 408.515625 320.539062 C 392.355469 320.40625 376.222656 321.300781 360.078125 321.53125 C 359.359375 321.542969 358.511719 321.269531 357.683594 322.347656 Z M 150.714844 536.476562 C 150.644531 536.476562 150.574219 536.476562 150.503906 536.476562 C 150.503906 574.988281 150.503906 613.503906 150.503906 652.015625 C 150.503906 653.179688 150.570312 654.347656 150.503906 655.503906 C 150.371094 657.679688 151.316406 659.171875 153.125 660.3125 C 155.863281 662.039062 158.667969 663.609375 161.742188 664.683594 C 169.699219 667.464844 177.992188 668.890625 186.15625 670.84375 C 190.171875 671.804688 194.246094 672.542969 198.285156 673.421875 C 199.902344 673.769531 200.765625 673.246094 200.867188 671.539062 C 201.007812 669.222656 201.292969 666.902344 201.335938 664.582031 C 201.671875 646.496094 201.398438 628.410156 202.054688 610.320312 C 202.707031 592.246094 202.367188 574.148438 202.804688 556.058594 C 203.515625 526.222656 203.5625 496.367188 203.910156 466.523438 C 203.972656 460.96875 203.941406 455.421875 204.367188 449.867188 C 204.671875 445.882812 204.519531 441.859375 204.480469 437.851562 C 204.449219 434.933594 204.246094 434.742188 201.277344 433.921875 C 199.28125 433.371094 197.261719 432.929688 195.269531 432.378906 C 181.675781 428.621094 168.183594 424.558594 155.734375 417.75 C 150.960938 415.140625 150.699219 414.296875 150.703125 420.933594 C 150.730469 459.449219 150.714844 497.960938 150.714844 536.476562 Z M 310.5 316.429688 C 310.507812 316.164062 310.519531 315.902344 310.527344 315.636719 C 309.496094 314.871094 308.40625 314.175781 307.449219 313.328125 C 304.527344 310.75 301.175781 310.027344 297.371094 310.566406 C 294.175781 311.019531 290.941406 311.164062 287.734375 311.523438 C 267.578125 313.757812 247.460938 316.304688 227.488281 319.878906 C 207.371094 323.480469 187.425781 327.785156 168.140625 334.691406 C 161.304688 337.140625 154.695312 340.050781 148.589844 344.023438 C 146.414062 345.4375 144.378906 347.023438 142.679688 349.003906 C 139.527344 352.679688 139.550781 356.507812 142.785156 360.152344 C 144.515625 362.101562 146.652344 363.566406 148.839844 364.957031 C 154.335938 368.441406 160.363281 370.785156 166.472656 372.910156 C 188.6875 380.636719 211.796875 384.300781 234.953125 387.628906 C 255.796875 390.628906 276.773438 392.484375 297.785156 393.78125 C 315.828125 394.894531 333.902344 395.785156 351.976562 396.121094 C 382.722656 396.683594 413.472656 396.503906 444.207031 394.953125 C 457.621094 394.273438 471.027344 393.53125 484.425781 392.589844 C 500.789062 391.4375 517.105469 389.84375 533.398438 387.941406 C 557.410156 385.136719 581.28125 381.515625 604.863281 376.136719 C 620.003906 372.679688 634.925781 368.515625 649.125 362.085938 C 654.09375 359.835938 658.804688 357.121094 662.796875 353.371094 C 667.40625 349.046875 667.34375 344.265625 662.726562 339.996094 C 660.347656 337.792969 657.625 336.0625 654.75 334.539062 C 644.617188 329.171875 633.730469 325.921875 622.699219 323.082031 C 606.414062 318.894531 589.847656 316.125 573.210938 313.765625 C 559.652344 311.839844 546.035156 310.425781 532.402344 309.195312 C 523.273438 308.375 514.101562 308.019531 504.964844 307.273438 C 490.535156 306.09375 476.074219 305.488281 461.625 305.3125 C 432.941406 304.964844 404.253906 304.554688 375.570312 305.707031 C 366.148438 306.085938 356.726562 306.550781 347.300781 306.871094 C 343.050781 307.015625 338.796875 307.402344 334.539062 307.589844 C 333.578125 307.632812 332.40625 307.464844 332.082031 308.820312 C 332.257812 309.089844 332.351562 309.355469 332.539062 309.507812 C 336.289062 312.527344 341.015625 313.117188 345.371094 314.625 C 345.710938 314.742188 346.144531 314.644531 346.527344 314.601562 C 354.242188 313.730469 362.011719 313.988281 369.75 313.601562 C 381.875 312.992188 394.03125 312.984375 406.171875 312.78125 C 432.144531 312.351562 458.105469 312.945312 484.066406 313.929688 C 498.910156 314.492188 513.734375 315.289062 528.550781 316.28125 C 545.179688 317.394531 561.769531 318.839844 578.277344 321.140625 C 593.132812 323.207031 607.933594 325.546875 622.394531 329.625 C 629.25 331.558594 636.015625 333.761719 641.878906 338 C 648.648438 342.894531 648.832031 349.902344 642.378906 355.152344 C 641.378906 355.96875 640.328125 356.726562 639.234375 357.417969 C 635.492188 359.777344 631.40625 361.398438 627.257812 362.847656 C 616.613281 366.550781 605.636719 369.007812 594.582031 371.066406 C 562.539062 377.039062 530.136719 380.117188 497.675781 382.5625 C 484.542969 383.550781 471.386719 384.320312 458.226562 384.824219 C 439.765625 385.527344 421.300781 386.070312 402.832031 386.359375 C 377.117188 386.757812 351.414062 386.15625 325.714844 385.21875 C 316.679688 384.890625 307.652344 384.320312 298.609375 384.109375 C 293.964844 384 289.324219 383.652344 284.691406 383.273438 C 268.859375 381.972656 253.023438 380.765625 237.253906 378.785156 C 224.433594 377.175781 211.628906 375.445312 199.015625 372.609375 C 190.191406 370.621094 181.378906 368.535156 173.148438 364.59375 C 170.699219 363.421875 168.277344 362.171875 166.183594 360.417969 C 160.746094 355.859375 160.523438 349.976562 165.558594 345.027344 C 166.949219 343.664062 168.460938 342.457031 170.179688 341.527344 C 173.019531 339.984375 175.902344 338.523438 178.925781 337.367188 C 191.667969 332.507812 204.949219 329.71875 218.308594 327.332031 C 247.328125 322.15625 276.609375 319.117188 306.003906 317.082031 C 307.511719 316.972656 309.003906 316.648438 310.5 316.429688 Z M 218.703125 393.039062 C 218.628906 393.851562 218.527344 394.125 218.59375 394.355469 C 221.863281 405.65625 222.0625 416.761719 216.5625 427.519531 C 215.941406 428.738281 216.292969 429.480469 217.613281 429.796875 C 218.242188 429.945312 218.859375 430.148438 219.488281 430.273438 C 234.074219 433.117188 248.730469 435.542969 263.476562 437.359375 C 280.78125 439.492188 298.125 441.167969 315.535156 442.273438 C 332.164062 443.328125 348.789062 444.335938 365.453125 444.492188 C 369.460938 444.53125 373.480469 444.386719 377.46875 444.691406 C 391.425781 445.742188 405.363281 444.542969 419.308594 444.476562 C 422.261719 444.460938 422.351562 444.1875 421.371094 441.222656 C 417.667969 430.058594 417.800781 418.875 421.265625 407.691406 C 422.515625 403.664062 422.488281 403.597656 418.3125 403.566406 C 417.796875 403.5625 417.273438 403.574219 416.757812 403.574219 C 400.742188 403.621094 384.734375 403.921875 368.714844 403.808594 C 352.433594 403.695312 336.152344 403.425781 319.898438 402.648438 C 305.582031 401.96875 291.277344 401.089844 276.996094 399.824219 C 263.355469 398.617188 249.746094 397.222656 236.171875 395.445312 C 230.429688 394.699219 224.699219 393.871094 218.703125 393.039062 Z M 213.3125 739.558594 C 214.386719 739.921875 215.203125 740.304688 216.0625 740.472656 C 220.367188 741.335938 224.675781 742.199219 229 742.964844 C 246.554688 746.058594 264.207031 748.4375 281.949219 750.234375 C 296.722656 751.730469 311.523438 752.839844 326.34375 753.757812 C 337.554688 754.445312 348.78125 754.960938 360.011719 755.21875 C 378.226562 755.636719 396.445312 755.570312 414.664062 755.339844 C 417.546875 755.304688 417.644531 755.089844 416.578125 752.5 C 412.207031 741.910156 412.296875 731.125 415.066406 720.195312 C 415.535156 718.351562 417.402344 716.273438 416.351562 714.777344 C 415.074219 712.964844 412.515625 714.476562 410.539062 714.492188 C 380.953125 714.6875 351.382812 714.738281 321.816406 713.3125 C 305.046875 712.507812 288.300781 711.5 271.574219 710.078125 C 257.933594 708.917969 244.335938 707.414062 230.773438 705.546875 C 225.566406 704.828125 220.363281 704.074219 214.699219 703.273438 C 218.449219 715.75 219.007812 727.730469 213.3125 739.558594 Z M 626.710938 689.140625 C 625.523438 688.460938 624.6875 689.03125 623.871094 689.265625 C 610.953125 693.042969 597.824219 695.894531 584.609375 698.355469 C 564.789062 702.042969 544.835938 704.8125 524.796875 707.066406 C 509.007812 708.84375 493.1875 710.261719 477.339844 711.339844 C 465.230469 712.160156 453.113281 713.113281 440.964844 713.21875 C 439.679688 713.230469 438.378906 713.359375 437.113281 713.597656 C 434.8125 714.023438 434.628906 714.265625 435.375 716.367188 C 439.613281 728.339844 439.15625 740.195312 434.628906 751.988281 C 433.8125 754.125 434.097656 754.515625 436.265625 754.660156 C 437.164062 754.71875 438.078125 754.683594 438.980469 754.632812 C 447.492188 754.171875 456 753.644531 464.511719 753.238281 C 480.386719 752.476562 496.199219 751 512 749.359375 C 531.027344 747.382812 549.964844 744.8125 568.785156 741.398438 C 588.640625 737.789062 608.292969 733.367188 627.378906 726.6875 C 628.671875 726.238281 630.199219 726.171875 631.128906 724.789062 C 623.8125 713.613281 623.972656 701.457031 626.710938 689.140625 Z M 632.433594 376.59375 C 631.625 376.820312 631.007812 376.96875 630.402344 377.15625 C 601.996094 385.777344 572.824219 390.515625 543.472656 394.375 C 531.183594 395.992188 518.875 397.433594 506.519531 398.402344 C 495.324219 399.28125 484.140625 400.363281 472.941406 401.160156 C 463.414062 401.839844 453.867188 402.234375 444.328125 402.757812 C 440.792969 402.953125 440.601562 403.121094 441.761719 406.332031 C 443.804688 412.003906 444.574219 417.855469 444.511719 423.84375 C 444.449219 429.558594 443.664062 435.160156 441.777344 440.585938 C 440.792969 443.402344 441.011719 443.648438 444.015625 443.71875 C 445.179688 443.746094 446.34375 443.738281 447.503906 443.675781 C 456.140625 443.179688 464.769531 442.613281 473.40625 442.179688 C 484.503906 441.628906 495.558594 440.601562 506.601562 439.515625 C 522.148438 437.988281 537.648438 436.042969 553.089844 433.652344 C 573.660156 430.46875 594.050781 426.472656 614.09375 420.816406 C 618.820312 419.484375 623.480469 417.9375 628.140625 416.402344 C 632.054688 415.109375 632.003906 415.0625 630.855469 411.28125 C 630.371094 409.679688 629.925781 408.046875 629.667969 406.398438 C 628.289062 397.414062 629.492188 388.648438 631.976562 379.992188 C 632.246094 379.019531 632.945312 378.132812 632.433594 376.59375 Z M 659.71875 515.972656 C 659.59375 496.59375 660.707031 477.230469 660.621094 457.851562 C 660.566406 445.707031 660.714844 433.558594 660.824219 421.417969 C 660.847656 418.710938 661.113281 416.003906 661.191406 413.292969 C 661.21875 412.316406 661.679688 411.097656 660.574219 410.457031 C 659.664062 409.929688 658.886719 410.769531 658.113281 411.175781 C 654.800781 412.925781 651.554688 414.808594 648.179688 416.421875 C 646.144531 417.390625 645.335938 418.742188 645.355469 420.957031 C 645.40625 426.25 644.96875 431.542969 644.859375 436.824219 C 644.449219 457.097656 643.976562 477.371094 643.230469 497.632812 C 642.882812 507.050781 642.835938 516.480469 642.566406 525.90625 C 642 546.042969 641.554688 566.183594 640.925781 586.324219 C 640.398438 603.234375 640.207031 620.15625 639.84375 637.074219 C 639.8125 638.492188 639.609375 639.90625 639.566406 641.324219 C 639.4375 645.714844 639.28125 650.101562 639.277344 654.492188 C 639.277344 656.460938 639.8125 656.785156 641.707031 656.070312 C 644.242188 655.113281 646.652344 653.804688 649.222656 652.964844 C 652.636719 651.847656 654.570312 649.535156 655.550781 646.234375 C 655.953125 644.871094 656.304688 643.496094 656.710938 642.132812 C 659.121094 633.949219 658.5625 625.457031 658.816406 617.121094 C 659.492188 594.65625 658.867188 572.171875 659.644531 549.699219 C 660.039062 538.464844 659.71875 527.214844 659.71875 515.972656 Z M 52.398438 113.410156 C 48.4375 113.441406 45.691406 115.34375 44.769531 118.519531 C 43.90625 121.515625 45.039062 124.355469 48.089844 126.464844 C 59.886719 134.625 71.703125 142.753906 83.519531 150.890625 C 108.316406 167.96875 133.128906 185.027344 157.921875 202.113281 C 194.097656 227.050781 230.253906 252.007812 266.429688 276.945312 C 283.558594 288.753906 300.613281 300.675781 317.878906 312.277344 C 324.101562 316.460938 329.453125 321.097656 333 327.863281 C 335.855469 333.3125 340.382812 337.476562 345.421875 340.992188 C 348.925781 343.433594 353.523438 343.125 356.09375 340.402344 C 358.265625 338.097656 358.046875 333.050781 355.578125 329.992188 C 354.273438 328.378906 352.734375 327.003906 351.039062 325.792969 C 345.945312 322.148438 340.394531 319.445312 334.398438 317.671875 C 332.019531 316.972656 329.851562 315.953125 327.835938 314.464844 C 294.871094 290.144531 261.886719 265.847656 228.894531 241.566406 C 180.082031 205.640625 131.257812 169.730469 82.441406 133.804688 C 74.21875 127.753906 66.011719 121.679688 57.800781 115.613281 C 56.117188 114.378906 54.414062 113.203125 52.398438 113.410156 Z M 197.253906 424.425781 C 197.074219 423.597656 196.984375 422.96875 196.800781 422.367188 C 193.628906 412.011719 193.703125 401.792969 198.027344 391.726562 C 198.929688 389.621094 198.789062 389.363281 196.535156 388.847656 C 189.238281 387.175781 181.925781 385.589844 174.742188 383.457031 C 163.085938 379.996094 151.554688 376.246094 141.464844 369.128906 C 141.039062 368.832031 140.542969 368.671875 139.6875 369.261719 C 140 377.765625 139.707031 386.542969 142.667969 394.980469 C 143.222656 396.554688 144.019531 398.046875 144.753906 399.550781 C 145.207031 400.480469 145.785156 401.335938 146.601562 402.007812 C 149.582031 404.476562 152.46875 407.050781 155.8125 409.0625 C 168.335938 416.609375 182.128906 420.875 196.089844 424.71875 C 196.292969 424.777344 196.5625 424.605469 197.253906 424.425781 Z M 138.28125 679.136719 C 137.859375 686 138.574219 692.546875 139.386719 699.0625 C 140.347656 706.75 143.9375 712.972656 150.585938 717.238281 C 152.105469 718.214844 153.5625 719.304688 155.121094 720.21875 C 166.484375 726.875 178.847656 730.984375 191.445312 734.511719 C 195.105469 735.535156 195.1875 735.375 194.195312 731.550781 C 191.695312 721.917969 191.699219 712.398438 195.546875 703.0625 C 196.828125 699.957031 196.789062 699.816406 193.335938 699.078125 C 187.019531 697.722656 180.742188 696.210938 174.527344 694.441406 C 162.191406 690.917969 150.03125 686.988281 139.464844 679.355469 C 139.28125 679.222656 138.988281 679.257812 138.28125 679.136719 Z M 380.296875 706.746094 C 385.460938 706.746094 390.621094 706.765625 395.789062 706.742188 C 402.894531 706.703125 410.003906 706.625 417.113281 706.554688 C 418.144531 706.542969 419.179688 706.511719 420.210938 706.429688 C 421.832031 706.300781 422.390625 705.269531 422.359375 703.777344 C 422.324219 701.976562 421.71875 701.421875 419.207031 701.398438 C 414.039062 701.34375 408.867188 701.335938 403.699219 701.417969 C 387.539062 701.679688 371.390625 701.183594 355.261719 700.40625 C 338.503906 699.601562 321.746094 698.527344 305.03125 696.894531 C 292.050781 695.625 279.078125 694.277344 266.148438 692.578125 C 248.859375 690.308594 231.636719 687.574219 214.488281 684.40625 C 209.738281 683.53125 208.492188 681.898438 208.578125 689.589844 C 208.632812 694.148438 208.714844 694.304688 213.144531 695.085938 C 239.25 699.691406 265.597656 702.265625 292.015625 704.109375 C 306.441406 705.121094 320.894531 705.808594 335.34375 706.371094 C 350.320312 706.945312 365.324219 706.378906 380.296875 706.746094 Z M 439.539062 705.878906 C 439.539062 705.78125 439.539062 705.683594 439.539062 705.589844 C 441.863281 705.589844 444.195312 705.71875 446.511719 705.566406 C 460.9375 704.601562 475.390625 704.050781 489.792969 702.726562 C 499.566406 701.828125 509.351562 701.121094 519.109375 700.078125 C 532.589844 698.632812 546.042969 696.933594 559.453125 694.917969 C 578.238281 692.089844 596.902344 688.625 615.296875 683.832031 C 619.671875 682.691406 623.980469 681.308594 628.332031 680.074219 C 630.179688 679.550781 631.234375 678.515625 631.109375 676.480469 C 631.058594 675.710938 631.132812 674.929688 631.144531 674.15625 C 631.242188 668.441406 631.21875 668.410156 625.964844 670.214844 C 601.46875 678.625 576.382812 684.695312 550.898438 689.175781 C 529.136719 693.003906 507.257812 695.890625 485.238281 697.769531 C 468.511719 699.199219 451.777344 700.4375 434.984375 700.773438 C 434.339844 700.785156 433.695312 700.808594 433.046875 700.804688 C 431.308594 700.796875 429.960938 701.222656 429.941406 703.339844 C 429.925781 705.1875 430.558594 705.796875 432.957031 705.871094 C 435.144531 705.933594 437.34375 705.878906 439.539062 705.878906 Z M 200.769531 687.363281 C 200.867188 680.582031 200.347656 681.78125 195.324219 680.601562 C 185.136719 678.214844 174.929688 675.890625 164.726562 673.5625 C 160.015625 672.484375 155.644531 670.554688 151.511719 668.125 C 148.285156 666.222656 145.160156 664.148438 143.1875 660.765625 C 142.203125 659.074219 141.648438 659.125 140.40625 660.683594 C 138.09375 663.585938 138.320312 667.464844 141.132812 670.554688 C 144.773438 674.558594 149.417969 677.113281 154.269531 679.300781 C 167.429688 685.226562 181.3125 688.785156 195.363281 691.777344 C 200.734375 692.914062 200.746094 692.855469 200.769531 687.363281 Z M 665.390625 670.703125 C 659.15625 675.449219 652.488281 678.976562 645.496094 681.933594 C 643.832031 682.636719 644.167969 683.792969 644.84375 685.109375 C 649.644531 694.480469 650.148438 704.339844 648.097656 714.484375 C 647.886719 715.515625 647.230469 716.605469 648.070312 717.929688 C 652.542969 715.539062 656.710938 713.015625 660.304688 709.648438 C 662.121094 707.953125 663.441406 705.890625 664.242188 703.519531 C 665.320312 700.328125 666.085938 697.09375 666.078125 693.683594 C 666.066406 687.234375 666.132812 680.789062 666.144531 674.339844 C 666.148438 673.324219 666.296875 672.269531 665.390625 670.703125 Z M 666.941406 360.054688 C 662.304688 363.484375 657.453125 366.558594 652.265625 369.054688 C 651.054688 369.636719 651.191406 370.671875 651.695312 371.699219 C 652.835938 374.039062 653.492188 376.523438 653.875 379.082031 C 655.027344 386.710938 654.179688 394.21875 652.535156 401.6875 C 652.273438 402.894531 651.386719 404.039062 651.980469 405.371094 C 652.265625 405.40625 652.554688 405.542969 652.738281 405.453125 C 662.3125 400.699219 667.9375 393.449219 667.664062 382.285156 C 667.515625 376.238281 667.710938 370.179688 667.691406 364.121094 C 667.683594 362.890625 668.066406 361.5625 666.941406 360.054688 Z M 436.816406 423.292969 C 436.621094 420.46875 436.558594 417.625 436.191406 414.824219 C 435.945312 412.921875 435.3125 411.066406 434.757812 409.21875 C 434.390625 407.988281 433.898438 406.785156 433.023438 405.792969 C 432.148438 404.804688 431.300781 404.785156 430.492188 405.882812 C 429.40625 407.359375 428.710938 409.019531 428.230469 410.765625 C 425.816406 419.527344 425.886719 428.316406 427.976562 437.117188 C 428.332031 438.617188 428.886719 440.082031 429.78125 441.367188 C 430.8125 442.84375 431.726562 442.90625 432.84375 441.546875 C 433.921875 440.230469 434.488281 438.644531 435.003906 437.042969 C 436.449219 432.570312 436.730469 427.957031 436.816406 423.292969 Z M 202.617188 408.4375 C 202.617188 410.246094 202.453125 412.074219 202.652344 413.859375 C 203.046875 417.480469 203.871094 421.023438 205.984375 424.078125 C 207.226562 425.878906 208.355469 425.863281 209.664062 424.167969 C 210.785156 422.714844 211.433594 421.007812 211.894531 419.25 C 213.707031 412.355469 213.695312 405.449219 211.875 398.558594 C 211.445312 396.929688 210.847656 395.347656 209.894531 393.945312 C 208.253906 391.523438 206.808594 391.582031 205.28125 394.15625 C 204.824219 394.929688 204.484375 395.777344 204.164062 396.625 C 202.726562 400.429688 202.308594 404.394531 202.617188 408.4375 Z M 638.625 673.039062 C 638.53125 675.957031 638.996094 676.375 641.679688 675.277344 C 646.691406 673.226562 651.621094 670.972656 656.164062 667.972656 C 658.640625 666.335938 660.996094 664.519531 662.855469 662.164062 C 664.789062 659.722656 665.238281 657.042969 663.90625 654.199219 C 662.875 651.984375 661.859375 651.859375 660.40625 653.847656 C 658.429688 656.554688 655.824219 658.324219 652.796875 659.597656 C 650.417969 660.597656 648.074219 661.667969 645.707031 662.691406 C 638.859375 665.648438 638.859375 665.644531 638.625 673.039062 Z M 430.398438 732.925781 C 430.539062 728.640625 430.15625 724.289062 428.6875 720.109375 C 428.15625 718.585938 427.882812 716.316406 426.039062 716.253906 C 424.175781 716.191406 423.691406 718.449219 423.167969 719.953125 C 420.011719 729.113281 419.832031 738.355469 422.8125 747.605469 C 423.269531 749.023438 423.605469 751.039062 425.355469 751.125 C 427.152344 751.207031 427.566406 749.207031 428.121094 747.820312 C 430.015625 743.082031 430.554688 738.109375 430.398438 732.925781 Z M 646.722656 386.964844 C 646.832031 383.332031 646.550781 379.753906 645.441406 376.285156 C 645.207031 375.550781 644.867188 374.761719 644.015625 374.601562 C 643.125 374.429688 642.632812 375.125 642.207031 375.78125 C 641.855469 376.320312 641.519531 376.871094 641.25 377.449219 C 636.851562 386.980469 635.804688 396.929688 637.617188 407.210938 C 637.871094 408.640625 637.882812 410.804688 639.632812 410.917969 C 641.296875 411.027344 641.765625 408.902344 642.394531 407.558594 C 645.46875 401.046875 646.648438 394.113281 646.722656 386.964844 Z M 200.207031 718.980469 C 200.046875 723.195312 200.644531 727.246094 202.003906 731.179688 C 202.464844 732.515625 203.023438 733.835938 203.984375 734.90625 C 204.96875 735.996094 205.976562 736.003906 206.859375 734.777344 C 207.929688 733.289062 208.511719 731.570312 208.9375 729.820312 C 210.175781 724.765625 210.375 719.65625 209.578125 714.503906 C 209.105469 711.433594 208.445312 708.429688 206.914062 705.6875 C 206.421875 704.804688 206.042969 703.632812 204.867188 703.585938 C 203.457031 703.535156 203.007812 704.839844 202.570312 705.867188 C 201.96875 707.28125 201.472656 708.753906 201.089844 710.238281 C 200.351562 713.113281 200.066406 716.054688 200.207031 718.980469 Z M 641.378906 703.691406 C 641.558594 700.148438 641.097656 695.796875 639.53125 691.628906 C 638.96875 690.136719 638.75 687.902344 636.679688 687.992188 C 634.890625 688.066406 634.628906 690.160156 634.242188 691.578125 C 632.125 699.347656 632.160156 707.132812 634.5 714.859375 C 634.835938 715.960938 635.324219 717.046875 635.929688 718.023438 C 636.921875 719.636719 637.855469 719.671875 638.800781 718.09375 C 639.457031 717 639.898438 715.765625 640.292969 714.542969 C 641.335938 711.304688 641.398438 707.941406 641.378906 703.691406 Z M 641.378906 703.691406 " fill-opacity="1" fill-rule="nonzero"/></g><g clip-path="url(#1e9c81f276)"><path fill="#c9b583" d="M 756.941406 46.472656 C 760.140625 46.296875 762.851562 47.019531 765.386719 48.457031 C 773.761719 53.191406 774.867188 64.660156 767.355469 70.671875 C 763.628906 73.65625 759.566406 76.21875 755.628906 78.929688 C 722.203125 101.9375 688.761719 124.925781 655.34375 147.945312 C 617.882812 173.75 580.4375 199.582031 542.988281 225.40625 C 526.074219 237.070312 509.199219 248.792969 492.226562 260.375 C 489.148438 262.476562 486.796875 265.078125 484.824219 268.15625 C 481.6875 273.050781 478.613281 277.992188 474.15625 281.878906 C 472.007812 283.753906 469.800781 285.53125 467.460938 287.148438 C 460.644531 291.855469 451.460938 288.667969 447.757812 283.296875 C 444.613281 278.726562 445.011719 273.734375 447.25 268.894531 C 448.570312 266.046875 450.699219 263.753906 453.191406 261.839844 C 458.464844 257.785156 464.253906 254.625 470.613281 252.703125 C 473.914062 251.707031 476.761719 250.105469 479.476562 248.09375 C 490.804688 239.71875 502.140625 231.359375 513.484375 223.003906 C 563.007812 186.519531 612.527344 150.023438 662.070312 113.550781 C 690.378906 92.710938 718.710938 71.90625 747.03125 51.082031 C 747.757812 50.546875 748.546875 50.050781 749.148438 49.390625 C 751.332031 46.976562 754.097656 46.242188 756.941406 46.472656 Z M 765.386719 60.371094 C 765.519531 57.472656 764.191406 55.429688 761.640625 54.136719 C 758.421875 52.5 755.628906 53.003906 752.667969 55.1875 C 709.109375 87.359375 665.488281 119.453125 621.878906 151.558594 C 576.707031 184.8125 531.515625 218.039062 486.375 251.335938 C 482.1875 254.429688 477.996094 257.210938 472.851562 258.589844 C 467.703125 259.964844 463.09375 262.691406 458.792969 265.84375 C 456.378906 267.613281 454.175781 269.625 453 272.480469 C 450.859375 277.660156 453.507812 281.941406 459.054688 282.382812 C 461.507812 282.578125 463.519531 281.785156 465.523438 280.359375 C 472.128906 275.65625 476.5625 269.15625 480.574219 262.347656 C 482.003906 259.917969 483.796875 258.078125 486.070312 256.515625 C 511.09375 239.300781 536.089844 222.050781 561.105469 204.820312 C 582.179688 190.304688 603.273438 175.820312 624.34375 161.300781 C 665.421875 132.996094 706.496094 104.671875 747.570312 76.359375 C 752.359375 73.058594 757.128906 69.726562 761.945312 66.472656 C 764.136719 64.988281 765.472656 63.105469 765.386719 60.371094 Z M 765.386719 60.371094 " fill-opacity="1" fill-rule="nonzero"/></g><path fill="#c9b583" d="M 407.835938 565.613281 C 407.355469 549.722656 408.441406 533.863281 408.855469 517.992188 C 409.117188 508.070312 408.925781 498.105469 410.039062 488.203125 C 410.199219 486.800781 410.039062 485.34375 410.789062 484.054688 C 411.207031 483.332031 411.84375 482.910156 412.691406 482.964844 C 413.726562 483.03125 414.363281 483.65625 414.546875 484.632812 C 414.660156 485.25 414.585938 485.910156 414.566406 486.546875 C 414.203125 500.230469 413.984375 513.914062 413.441406 527.589844 C 412.632812 547.855469 412.378906 568.117188 412.648438 588.394531 C 412.664062 589.542969 412.550781 590.71875 412.304688 591.839844 C 412.101562 592.773438 411.414062 593.421875 410.367188 593.4375 C 409.320312 593.453125 408.738281 592.789062 408.359375 591.898438 C 407.839844 590.679688 407.835938 589.375 407.835938 588.085938 C 407.828125 580.597656 407.835938 573.105469 407.835938 565.613281 Z M 407.835938 565.613281 " fill-opacity="1" fill-rule="nonzero"/><path fill="#c9b583" d="M 619.4375 560.84375 C 619.4375 554.515625 619.429688 548.1875 619.445312 541.859375 C 619.449219 540.699219 619.46875 539.53125 619.632812 538.386719 C 619.773438 537.414062 620.417969 536.742188 621.464844 536.710938 C 622.519531 536.679688 623.117188 537.363281 623.421875 538.277344 C 623.625 538.878906 623.722656 539.53125 623.757812 540.171875 C 624.472656 553.457031 624.765625 566.746094 623.964844 580.042969 C 623.808594 582.617188 623.816406 585.203125 623.804688 587.785156 C 623.734375 604.191406 622.414062 620.535156 621.257812 636.882812 C 621.050781 639.800781 620.136719 641.113281 618.6875 641.035156 C 617.238281 640.960938 616.433594 639.578125 616.539062 636.667969 C 616.703125 632.023438 616.964844 627.382812 617.328125 622.753906 C 618.933594 602.148438 619.300781 581.503906 619.4375 560.84375 Z M 619.4375 560.84375 " fill-opacity="1" fill-rule="nonzero"/><path fill="#c9b583" d="M 375.550781 337.402344 C 375.621094 340.136719 375.195312 341.875 374.4375 343.542969 C 372.878906 346.964844 370.914062 350.140625 368.449219 352.980469 C 367.546875 354.019531 366.390625 354.792969 365.070312 353.890625 C 363.519531 352.828125 364.058594 351.414062 364.894531 350.15625 C 366.183594 348.226562 367.578125 346.371094 368.839844 344.421875 C 370.488281 341.882812 371.632812 339.191406 371.027344 336.039062 C 370.765625 334.660156 370.921875 333.320312 372.570312 333.007812 C 374.199219 332.695312 374.859375 333.941406 375.214844 335.234375 C 375.484375 336.222656 375.53125 337.265625 375.550781 337.402344 Z M 375.550781 337.402344 " fill-opacity="1" fill-rule="nonzero"/><path fill="#c9b583" d="M 387.207031 340.6875 C 387 344.96875 385 348.535156 382.589844 351.90625 C 381.890625 352.890625 380.851562 353.589844 379.601562 352.929688 C 378.089844 352.132812 378.40625 350.8125 378.988281 349.585938 C 379.535156 348.425781 380.222656 347.332031 380.808594 346.191406 C 381.988281 343.894531 383.058594 341.578125 382.945312 338.886719 C 382.882812 337.457031 382.875 335.765625 384.867188 335.761719 C 386.652344 335.757812 387.046875 337.289062 387.199219 338.765625 C 387.261719 339.402344 387.207031 340.046875 387.207031 340.6875 Z M 387.207031 340.6875 " fill-opacity="1" fill-rule="nonzero"/><path fill="#c9b583" d="M 191.628906 568.058594 C 192.925781 587.097656 193.019531 607.378906 193.488281 627.652344 C 193.652344 634.746094 194.039062 641.847656 194.113281 648.949219 C 194.125 650.097656 194.019531 651.269531 193.796875 652.394531 C 193.636719 653.195312 192.964844 653.707031 192.113281 653.773438 C 191.242188 653.835938 190.589844 653.367188 190.285156 652.609375 C 190.003906 651.90625 189.828125 651.128906 189.78125 650.371094 C 189.554688 646.636719 189.203125 642.910156 189.0625 639.164062 C 188.527344 624.574219 188.296875 609.980469 188.097656 595.386719 C 187.953125 584.675781 187.246094 573.972656 186.832031 563.261719 C 186.777344 561.851562 186.816406 560.402344 187.066406 559.019531 C 187.335938 557.546875 188.140625 556.230469 189.914062 556.484375 C 191.574219 556.71875 191.640625 558.128906 191.628906 559.488281 C 191.617188 561.941406 191.628906 564.398438 191.628906 568.058594 Z M 191.628906 568.058594 " fill-opacity="1" fill-rule="nonzero"/><path fill="#c9b583" d="M 48.683594 121.339844 C 49 119.753906 49.359375 118.113281 50.613281 116.894531 C 51.511719 116.027344 52.632812 115.675781 53.761719 116.386719 C 54.980469 117.148438 54.882812 118.25 54.277344 119.402344 C 53.742188 120.417969 53.253906 121.457031 52.734375 122.480469 C 52.1875 123.5625 51.480469 124.558594 50.097656 124.195312 C 48.710938 123.832031 48.648438 122.597656 48.683594 121.339844 Z M 48.683594 121.339844 " fill-opacity="1" fill-rule="nonzero"/><path fill="#c9b583" d="M 759.609375 62.496094 C 759.515625 63.476562 759.507812 64.648438 759.273438 65.765625 C 759.070312 66.730469 758.335938 67.308594 757.296875 67.265625 C 756.429688 67.226562 755.75 66.679688 755.605469 65.902344 C 755.175781 63.632812 754.839844 61.34375 754.605469 59.046875 C 754.523438 58.25 755.085938 57.542969 755.90625 57.324219 C 757.183594 56.988281 758.179688 57.542969 758.90625 58.566406 C 759.710938 59.699219 759.398438 61.050781 759.609375 62.496094 Z M 759.609375 62.496094 " fill-opacity="1" fill-rule="nonzero"/></svg>