<svg xmlns="http://www.w3.org/2000/svg" xmlns:xlink="http://www.w3.org/1999/xlink" width="1080" zoomAndPan="magnify" viewBox="0 0 810 817.92" height="1080" preserveAspectRatio="xMidYMid meet" version="1.0"><defs><clipPath id="1e6fcdad7a"><path d="M 33 48 L 777 48 L 777 762.5625 L 33 762.5625 Z M 33 48 " clip-rule="nonzero"/></clipPath></defs><g clip-path="url(#1e6fcdad7a)"><path fill="#8e2a25" d="M 593.5625 605.699219 C 584.808594 589.375 574.453125 569.910156 562.929688 548.21875 C 506.472656 441.992188 421.160156 281.460938 376.996094 217.957031 L 375.640625 216.011719 C 373.234375 212.585938 368.863281 206.394531 362.648438 200.25 C 382.601562 164.46875 386.648438 120.988281 373.394531 83.386719 C 370.789062 76.011719 366.835938 66.59375 359.3125 59.167969 C 350.914062 50.867188 339.363281 47.058594 329.164062 49.257812 C 314.652344 52.363281 304.574219 65.613281 300.019531 87.570312 C 293.222656 120.34375 293.917969 154.886719 301.964844 187.753906 C 289.210938 194.1875 280.496094 204.800781 275.988281 210.308594 C 259.535156 230.375 243.429688 253.75 226.765625 281.765625 C 211.765625 306.96875 198.019531 332.941406 184.722656 358.054688 C 176.605469 373.398438 167.402344 390.789062 158.207031 407.257812 C 118.96875 477.53125 78.390625 550.199219 46.84375 629.710938 C 45.980469 631.886719 45.121094 634.070312 44.261719 636.265625 C 38.3125 651.558594 30.910156 670.589844 33.667969 691.925781 C 37.414062 721.011719 57.714844 745.792969 83.027344 752.191406 C 99.476562 756.347656 115.375 757.011719 131.09375 757.660156 C 135.742188 757.855469 140.152344 758.039062 144.570312 758.324219 C 190.296875 761.261719 237.355469 762.75 284.425781 762.75 C 296.464844 762.75 308.902344 762.644531 321.394531 762.441406 C 354.648438 761.898438 391.933594 761.351562 428.171875 760.816406 L 439.921875 760.644531 C 474.390625 760.136719 509.597656 759.617188 541.164062 759.101562 C 547.25 759.003906 552.929688 756.539062 557.164062 752.167969 C 561.394531 747.792969 563.671875 742.035156 563.574219 735.953125 C 563.433594 727.378906 558.570312 719.6875 550.882812 715.890625 C 547.722656 714.328125 544.328125 713.53125 540.796875 713.53125 L 540.425781 713.53125 C 506.308594 714.089844 467.949219 714.660156 430.84375 715.203125 L 413.925781 715.453125 C 382.019531 715.917969 349.800781 716.394531 320.648438 716.867188 C 317.578125 716.921875 314.511719 716.964844 311.421875 716.992188 C 308.488281 717.035156 305.546875 717.070312 302.402344 717.089844 L 284.453125 717.164062 C 280.46875 717.164062 276.488281 717.152344 272.503906 717.132812 C 269.011719 717.109375 265.511719 717.089844 262.023438 717.046875 L 260.652344 717.035156 C 257.929688 717.003906 255.207031 716.976562 252.480469 716.933594 C 248.6875 716.878906 244.886719 716.816406 241.089844 716.742188 L 235.167969 716.617188 C 230.554688 716.511719 225.9375 716.394531 221.300781 716.257812 L 215.550781 716.09375 C 208.808594 715.871094 202.074219 715.628906 195.464844 715.359375 L 194.898438 715.332031 C 180.890625 714.769531 166.917969 714.050781 153.351562 713.210938 L 147.492188 712.847656 C 142.488281 712.527344 137.5 712.3125 132.335938 712.101562 C 128.976562 711.957031 125.667969 711.8125 122.410156 711.644531 C 113.742188 711.183594 103.609375 710.390625 94.15625 708 C 93.882812 707.933594 93.617188 707.847656 93.316406 707.742188 C 89.257812 706.324219 85.128906 702.222656 82.273438 696.777344 C 80.515625 693.421875 79.335938 689.726562 78.871094 686.132812 C 78.789062 685.457031 78.722656 684.777344 78.695312 684.054688 C 78.261719 674.601562 82.765625 663.015625 86.738281 652.78125 C 117.453125 573.773438 158.355469 500.496094 198 429.472656 C 207.300781 412.820312 216.707031 395.058594 224.996094 379.386719 C 250.726562 330.785156 277.332031 280.53125 311.226562 239.207031 C 317.808594 231.175781 321.386719 228.726562 323.175781 228.109375 C 323.523438 227.996094 323.726562 227.96875 323.761719 227.964844 C 324.25 227.972656 328.605469 228.183594 339.582031 243.984375 C 341.558594 246.824219 343.621094 249.863281 345.769531 253.121094 C 390.125 320.136719 469.960938 470.378906 522.789062 569.800781 C 538.5625 599.488281 553.460938 627.53125 564.378906 647.601562 C 564.605469 648.003906 564.835938 648.40625 564.960938 648.570312 C 571.285156 658.90625 584.601562 662.441406 595.25 656.65625 C 595.253906 656.652344 595.253906 656.652344 595.253906 656.652344 C 600.601562 653.742188 604.492188 648.925781 606.210938 643.089844 C 607.933594 637.246094 607.28125 631.089844 604.367188 625.742188 C 601.125 619.765625 597.503906 613.0625 593.5625 605.699219 Z M 319.097656 182.640625 C 311.878906 152.609375 311.308594 121.085938 317.519531 91.203125 C 318.894531 84.539062 323.152344 68.816406 332.914062 66.726562 C 337.285156 65.792969 342.582031 67.765625 346.746094 71.882812 C 350.601562 75.683594 353.621094 81.070312 356.542969 89.332031 C 367.804688 121.296875 364.664062 158.273438 348.304688 189.152344 C 340.707031 184.796875 331.707031 181.90625 321.378906 182.457031 C 320.609375 182.496094 319.851562 182.5625 319.097656 182.640625 Z M 305.148438 88.632812 C 309.25 68.859375 317.933594 57.015625 330.261719 54.375 C 331.816406 54.042969 333.414062 53.882812 335.03125 53.882812 C 342.230469 53.882812 349.785156 57.113281 355.628906 62.890625 C 362.394531 69.570312 366.035156 78.28125 368.457031 85.128906 C 381.078125 120.9375 377.390625 162.308594 358.691406 196.582031 C 356.839844 194.980469 354.859375 193.429688 352.75 191.96875 C 369.953125 159.738281 373.269531 121.042969 361.476562 87.585938 C 358.28125 78.535156 354.871094 72.542969 350.425781 68.152344 C 345.027344 62.8125 337.898438 60.292969 331.816406 61.605469 C 319.5 64.242188 314.355469 80.617188 312.386719 90.140625 C 305.75 122.113281 306.648438 155.914062 314.996094 187.894531 C 317.835938 198.742188 321.554688 209.355469 326.011719 219.511719 C 325.082031 219.304688 324.171875 219.207031 323.273438 219.242188 C 322.355469 219.300781 321.429688 219.484375 320.378906 219.832031 C 319.734375 220.054688 319.089844 220.34375 318.445312 220.671875 C 314.25 210.859375 310.71875 200.652344 307.980469 190.246094 C 299.226562 157.035156 298.25 121.894531 305.148438 88.632812 Z M 304.472656 233.667969 C 270.023438 275.667969 243.210938 326.316406 217.28125 375.296875 C 209.007812 390.929688 199.628906 408.648438 190.289062 425.375 C 150.585938 496.5 109.53125 570.039062 78.597656 649.628906 C 74.308594 660.65625 69.453125 673.15625 69.96875 684.414062 C 70.003906 685.347656 70.089844 686.265625 70.203125 687.21875 C 70.8125 691.863281 72.308594 696.570312 74.539062 700.824219 C 78.457031 708.296875 84.246094 713.820312 90.398438 715.972656 C 90.964844 716.175781 91.519531 716.34375 92.050781 716.472656 C 102.195312 719.039062 112.851562 719.878906 121.945312 720.359375 C 125.234375 720.535156 128.570312 720.675781 132.289062 720.835938 C 137.070312 721.035156 141.996094 721.242188 147.042969 721.566406 L 152.820312 721.925781 C 166.4375 722.769531 180.472656 723.484375 194.410156 724.050781 L 194.976562 724.074219 C 201.734375 724.351562 208.496094 724.59375 215.261719 724.816406 L 221.046875 724.980469 C 225.691406 725.121094 230.332031 725.238281 234.976562 725.34375 L 240.90625 725.46875 C 244.726562 725.542969 248.542969 725.605469 252.34375 725.660156 C 255.074219 725.703125 257.816406 725.734375 260.558594 725.761719 L 261.921875 725.777344 C 265.425781 725.816406 268.9375 725.839844 272.453125 725.859375 C 276.457031 725.878906 280.453125 725.890625 284.449219 725.890625 L 302.667969 725.816406 C 305.625 725.796875 308.585938 725.761719 311.523438 725.71875 C 314.621094 725.691406 317.703125 725.648438 320.796875 725.59375 C 349.933594 725.121094 382.152344 724.644531 414.054688 724.179688 L 430.972656 723.929688 C 468.082031 723.386719 506.441406 722.816406 540.796875 722.257812 C 542.972656 722.257812 545.0625 722.746094 547.011719 723.714844 C 551.757812 726.054688 554.757812 730.800781 554.84375 736.09375 C 554.972656 743.839844 548.769531 750.246094 541.019531 750.371094 C 509.453125 750.890625 474.257812 751.40625 439.792969 751.914062 L 428.042969 752.085938 C 391.796875 752.621094 354.503906 753.167969 321.25 753.710938 C 308.808594 753.914062 296.414062 754.019531 284.425781 754.019531 C 237.535156 754.019531 190.671875 752.539062 145.132812 749.617188 C 140.648438 749.320312 136.175781 749.136719 131.109375 748.925781 C 116.175781 748.304688 100.734375 747.660156 85.164062 743.726562 C 63.238281 738.1875 45.621094 716.425781 42.316406 690.808594 C 39.847656 671.679688 46.804688 653.800781 52.390625 639.4375 C 53.238281 637.269531 54.089844 635.097656 54.953125 632.933594 C 86.296875 553.949219 126.726562 481.539062 165.832031 411.511719 C 175.070312 394.957031 184.296875 377.519531 192.4375 362.140625 C 205.683594 337.117188 219.382812 311.246094 234.269531 286.230469 C 250.707031 258.589844 266.5625 235.570312 282.742188 215.84375 C 286.609375 211.117188 293.964844 202.171875 304.300781 196.441406 C 306.984375 205.765625 310.25 214.894531 314.042969 223.636719 C 310.5625 226.484375 307.246094 230.28125 304.472656 233.667969 Z M 597.84375 640.617188 C 596.777344 644.21875 594.378906 647.1875 591.085938 648.980469 C 584.507812 652.558594 576.304688 650.375 572.261719 643.789062 C 572.164062 643.65625 572.09375 643.507812 572.011719 643.363281 C 561.148438 623.398438 546.257812 595.375 530.492188 565.699219 C 477.585938 466.136719 397.632812 315.671875 353.050781 248.304688 C 350.863281 244.992188 348.757812 241.890625 346.75 239 C 341.324219 231.195312 336.671875 225.875 332.488281 222.734375 C 332.429688 221.636719 332.179688 220.550781 331.71875 219.535156 C 327.609375 210.449219 324.167969 200.929688 321.386719 191.214844 C 321.539062 191.207031 321.683594 191.179688 321.835938 191.171875 C 322.539062 191.132812 323.230469 191.117188 323.917969 191.117188 C 344.988281 191.117188 359.398438 208.078125 368.507812 221.042969 L 369.835938 222.949219 C 413.695312 286.019531 498.863281 446.273438 555.324219 552.515625 C 566.753906 574.015625 577.109375 593.496094 585.867188 609.828125 C 589.820312 617.203125 593.445312 623.925781 596.703125 629.917969 C 598.5 633.214844 598.902344 637.011719 597.84375 640.617188 Z M 774.9375 660.53125 C 774.652344 659.765625 774.363281 659.007812 774.0625 658.25 C 774.058594 658.25 774.058594 658.246094 774.058594 658.242188 C 770.414062 649.117188 765.359375 640.316406 760.472656 631.804688 C 758.578125 628.503906 756.703125 625.234375 754.933594 621.988281 C 741.191406 596.789062 726.902344 572.660156 712.460938 550.285156 C 709.921875 546.355469 707.488281 542.441406 705.066406 538.546875 C 700.675781 531.488281 696.136719 524.195312 691.136719 517.066406 C 690.3125 515.890625 689.039062 515.089844 687.632812 514.863281 C 686.328125 514.65625 684.996094 514.945312 683.894531 515.664062 L 492.875 193.777344 L 489.121094 196.003906 L 492.648438 193.40625 L 492.15625 192.570312 C 491.382812 191.320312 490.121094 190.429688 488.8125 190.144531 C 488.011719 189.953125 487.167969 189.945312 486.34375 190.132812 C 485.976562 190.207031 485.617188 190.332031 485.277344 190.503906 C 484.984375 190.640625 484.695312 190.796875 484.496094 190.929688 L 465.125 204.105469 C 462.777344 205.722656 462.082031 208.902344 463.535156 211.335938 L 654.679688 533.453125 C 654.574219 533.523438 654.46875 533.589844 654.371094 533.664062 C 652.277344 535.261719 651.636719 538.195312 652.871094 540.488281 C 676.371094 584.292969 700.351562 622.851562 729.125 667.277344 C 734.160156 675.058594 741.777344 686.816406 753.453125 691.105469 C 755.59375 691.894531 757.75 692.285156 759.832031 692.285156 C 761.886719 692.285156 763.863281 691.902344 765.664062 691.132812 C 777.222656 686.203125 779.066406 671.6875 774.9375 660.53125 Z M 486.496094 200.128906 L 676.4375 520.203125 L 662.132812 528.914062 L 472.628906 209.554688 Z M 762.242188 683.105469 C 760.695312 683.765625 758.589844 683.691406 756.464844 682.914062 C 748.203125 679.878906 742.28125 671.542969 736.449219 662.53125 C 709.070312 620.261719 686.058594 583.320312 663.6875 542.128906 C 664.574219 542.003906 665.382812 541.703125 665.992188 541.261719 L 685.355469 528.09375 C 685.371094 528.082031 685.382812 528.070312 685.402344 528.0625 C 686.046875 527.609375 686.550781 527.03125 686.929688 526.386719 C 690.625 531.878906 694.066406 537.386719 697.65625 543.15625 C 700.101562 547.089844 702.5625 551.046875 705.128906 555.019531 C 719.453125 577.214844 733.628906 601.152344 747.269531 626.167969 C 749.070312 629.46875 750.976562 632.792969 752.902344 636.148438 C 757.636719 644.398438 762.53125 652.925781 765.949219 661.476562 C 766.226562 662.175781 766.496094 662.871094 766.753906 663.5625 C 769.089844 669.882812 769.238281 680.121094 762.242188 683.105469 Z M 762.242188 683.105469 " fill-opacity="1" fill-rule="nonzero"/></g></svg>