<svg xmlns="http://www.w3.org/2000/svg" xmlns:xlink="http://www.w3.org/1999/xlink" width="1080" zoomAndPan="magnify" viewBox="0 0 810 817.92" height="1080" preserveAspectRatio="xMidYMid meet" version="1.0"><defs><clipPath id="17b47f684e"><path d="M 26.417969 304 L 783.84375 304 L 783.84375 783.804688 L 26.417969 783.804688 Z M 26.417969 304 " clip-rule="nonzero"/></clipPath><clipPath id="8aba77e692"><path d="M 177 26.378906 L 633 26.378906 L 633 304 L 177 304 Z M 177 26.378906 " clip-rule="nonzero"/></clipPath></defs><g clip-path="url(#17b47f684e)"><path fill="#c9b583" d="M 772.792969 694.828125 C 750.535156 691.5625 733.097656 664.007812 733.097656 632.101562 C 733.097656 600.195312 750.535156 572.640625 772.792969 569.375 C 778.980469 568.464844 783.574219 562.644531 783.574219 556.386719 C 783.574219 549.410156 777.929688 543.765625 770.957031 543.765625 L 675.691406 543.765625 C 672.835938 514.761719 660.167969 487.933594 639.304688 467.1875 C 632.539062 460.441406 625.101562 454.667969 617.191406 449.691406 C 630.824219 433.898438 638.453125 413.816406 638.453125 392.335938 C 638.453125 343.632812 598.820312 304 550.121094 304 C 501.417969 304 461.785156 343.632812 461.785156 392.335938 C 461.785156 413.84375 469.4375 433.953125 483.035156 449.699219 C 475.136719 454.667969 467.703125 460.4375 460.957031 467.175781 C 440.074219 487.929688 427.402344 514.761719 424.546875 543.765625 L 385.449219 543.765625 C 382.59375 514.761719 369.921875 487.933594 349.0625 467.1875 C 342.296875 460.441406 334.859375 454.667969 326.949219 449.691406 C 340.578125 433.898438 348.210938 413.816406 348.210938 392.335938 C 348.210938 343.632812 308.578125 304 259.875 304 C 211.171875 304 171.539062 343.632812 171.539062 392.335938 C 171.539062 413.84375 179.195312 433.953125 192.792969 449.699219 C 184.890625 454.667969 177.460938 460.4375 170.714844 467.175781 C 149.832031 487.929688 137.160156 514.761719 134.304688 543.765625 L 114.753906 543.765625 C 91.042969 543.765625 68.863281 552.984375 52.359375 569.632812 C 35.636719 586.210938 26.417969 608.390625 26.417969 632.101562 C 26.417969 680.804688 66.050781 720.4375 114.753906 720.4375 L 152.613281 720.4375 L 152.613281 770.914062 C 152.613281 775.695312 155.3125 780.058594 159.585938 782.203125 C 163.863281 784.320312 168.988281 783.890625 172.796875 781.007812 L 215.707031 748.828125 L 258.617188 781.007812 C 260.835938 782.683594 263.511719 783.53125 266.1875 783.53125 C 268.109375 783.53125 270.042969 783.089844 271.828125 782.203125 C 276.105469 780.058594 278.804688 775.695312 278.804688 770.914062 L 278.804688 720.4375 L 770.957031 720.4375 C 777.929688 720.4375 783.574219 714.289062 783.574219 707.3125 C 783.574219 701.050781 778.980469 695.742188 772.792969 694.828125 Z M 650.296875 543.765625 L 562.738281 543.765625 L 562.738281 479.660156 C 566.128906 479.183594 569.402344 478.375 572.667969 477.519531 C 573.582031 477.285156 574.5 477.101562 575.40625 476.839844 C 578.050781 476.054688 580.609375 475.09375 583.15625 474.0625 C 585.011719 473.324219 586.832031 472.546875 588.628906 471.679688 C 590.527344 470.75 592.382812 469.757812 594.210938 468.683594 C 595.175781 468.121094 596.21875 467.703125 597.15625 467.101562 C 606.03125 471.761719 614.1875 477.773438 621.484375 485.070312 C 637.566406 501.054688 647.546875 521.546875 650.296875 543.765625 Z M 550.121094 329.238281 C 584.910156 329.238281 613.214844 357.546875 613.214844 392.335938 C 613.214844 412.214844 604.132812 430.488281 588.160156 442.578125 C 571.988281 455.183594 549.40625 458.335938 530.03125 452.035156 C 523.542969 449.910156 517.394531 446.71875 511.929688 442.457031 C 496.105469 430.488281 487.023438 412.214844 487.023438 392.335938 C 487.023438 357.546875 515.328125 329.238281 550.121094 329.238281 Z M 478.777344 485.058594 C 486.0625 477.773438 494.207031 471.761719 503.082031 467.101562 C 504.058594 467.730469 505.144531 468.164062 506.152344 468.75 C 507.875 469.757812 509.621094 470.691406 511.40625 471.570312 C 513.324219 472.503906 515.265625 473.339844 517.25 474.121094 C 519.71875 475.117188 522.195312 476.046875 524.753906 476.8125 C 525.734375 477.097656 526.730469 477.300781 527.722656 477.550781 C 530.945312 478.390625 534.167969 479.1875 537.5 479.65625 L 537.5 543.765625 L 449.941406 543.765625 C 452.691406 521.546875 462.683594 501.054688 478.777344 485.058594 Z M 360.054688 543.765625 L 272.496094 543.765625 L 272.496094 479.660156 C 275.882812 479.183594 279.15625 478.375 282.425781 477.519531 C 283.339844 477.285156 284.257812 477.101562 285.164062 476.839844 C 287.808594 476.054688 290.367188 475.09375 292.914062 474.0625 C 294.769531 473.324219 296.589844 472.546875 298.382812 471.679688 C 300.285156 470.75 302.140625 469.757812 303.96875 468.683594 C 304.933594 468.121094 305.972656 467.703125 306.914062 467.101562 C 315.789062 471.761719 323.945312 477.773438 331.242188 485.070312 C 347.324219 501.054688 357.304688 521.546875 360.054688 543.765625 Z M 259.875 329.238281 C 294.664062 329.238281 322.972656 357.546875 322.972656 392.335938 C 322.972656 412.214844 313.890625 430.488281 297.917969 442.578125 C 281.742188 455.183594 259.164062 458.335938 239.785156 452.035156 C 233.300781 449.910156 227.152344 446.71875 221.683594 442.457031 C 205.863281 430.488281 196.78125 412.214844 196.78125 392.335938 C 196.78125 357.546875 225.085938 329.238281 259.875 329.238281 Z M 188.535156 485.058594 C 195.816406 477.773438 203.964844 471.761719 212.835938 467.101562 C 213.816406 467.730469 214.902344 468.164062 215.90625 468.75 C 217.632812 469.757812 219.378906 470.691406 221.164062 471.570312 C 223.082031 472.503906 225.023438 473.339844 227.007812 474.121094 C 229.476562 475.117188 231.953125 476.046875 234.507812 476.8125 C 235.492188 477.097656 236.488281 477.300781 237.480469 477.550781 C 240.699219 478.390625 243.921875 479.1875 247.257812 479.65625 L 247.257812 543.765625 L 159.699219 543.765625 C 162.445312 521.546875 172.441406 501.054688 188.535156 485.058594 Z M 253.566406 745.675781 L 223.273438 722.964844 C 221.03125 721.273438 218.371094 720.4375 215.707031 720.4375 C 213.046875 720.4375 210.382812 721.273438 208.140625 722.964844 L 177.851562 745.675781 L 177.851562 644.722656 L 253.566406 644.722656 Z M 728.636719 695.199219 L 278.804688 695.199219 L 278.804688 644.722656 L 379.757812 644.722656 C 386.734375 644.722656 392.378906 639.078125 392.378906 632.101562 C 392.378906 625.125 386.734375 619.484375 379.757812 619.484375 L 165.230469 619.484375 C 158.257812 619.484375 152.613281 625.125 152.613281 632.101562 L 152.613281 695.199219 L 114.753906 695.199219 C 79.964844 695.199219 51.65625 666.890625 51.65625 632.101562 C 51.65625 615.179688 58.214844 599.359375 70.203125 587.476562 C 82.011719 575.5625 97.835938 569.003906 114.753906 569.003906 L 728.636719 569.003906 C 715.757812 585.101562 707.859375 607.527344 707.859375 632.101562 C 707.859375 656.675781 715.757812 679.105469 728.636719 695.199219 Z M 728.636719 695.199219 " fill-opacity="1" fill-rule="nonzero"/></g><g clip-path="url(#8aba77e692)"><path fill="#c9b583" d="M 185.332031 146.246094 L 231.484375 166.84375 L 231.484375 269.1875 C 231.484375 274.558594 234.882812 279.339844 239.960938 281.105469 C 281.824219 295.65625 341.976562 304 404.996094 304 C 468.019531 304 528.171875 295.65625 570.035156 281.105469 C 575.109375 279.339844 578.511719 274.558594 578.511719 269.1875 L 578.511719 166.84375 L 624.664062 146.246094 C 629.210938 144.214844 632.144531 139.703125 632.144531 134.726562 C 632.144531 129.746094 629.210938 125.234375 624.664062 123.203125 L 410.136719 27.472656 C 406.859375 26.019531 403.136719 26.019531 399.859375 27.472656 L 185.332031 123.203125 C 180.785156 125.234375 177.851562 129.746094 177.851562 134.726562 C 177.851562 139.703125 180.785156 144.214844 185.332031 146.246094 Z M 553.273438 260.042969 C 514.46875 271.984375 461.105469 278.761719 404.996094 278.761719 C 348.886719 278.761719 295.527344 271.984375 256.722656 260.042969 L 256.722656 178.109375 L 399.859375 241.988281 C 401.484375 242.714844 403.246094 243.085938 404.996094 243.085938 C 406.746094 243.085938 408.507812 242.714844 410.136719 241.988281 L 553.273438 178.109375 Z M 404.996094 52.8125 L 588.554688 134.726562 L 404.996094 216.652344 L 221.4375 134.726562 Z M 404.996094 52.8125 " fill-opacity="1" fill-rule="nonzero"/></g></svg>