<svg xmlns="http://www.w3.org/2000/svg" xmlns:xlink="http://www.w3.org/1999/xlink" width="1080" zoomAndPan="magnify" viewBox="0 0 810 817.92" height="1080" preserveAspectRatio="xMidYMid meet" version="1.0"><defs><clipPath id="c94155985c"><path d="M 67.492188 59.832031 L 742.425781 59.832031 L 742.425781 749.761719 L 67.492188 749.761719 Z M 67.492188 59.832031 " clip-rule="nonzero"/></clipPath></defs><g clip-path="url(#c94155985c)"><path fill="#c9b583" d="M 362.257812 186.648438 C 330.453125 186.648438 304.585938 212.515625 304.585938 244.320312 C 304.585938 276.125 330.453125 301.992188 362.257812 301.992188 C 394.0625 301.992188 419.929688 276.125 419.929688 244.320312 C 419.929688 212.515625 394.0625 186.648438 362.257812 186.648438 Z M 362.257812 280.402344 C 342.351562 280.402344 326.175781 264.210938 326.175781 244.320312 C 326.175781 224.429688 342.367188 208.238281 362.257812 208.238281 C 382.148438 208.238281 398.339844 224.429688 398.339844 244.320312 C 398.339844 264.210938 382.148438 280.402344 362.257812 280.402344 Z M 404.800781 532.351562 C 404.800781 551.964844 391.273438 568.488281 373.050781 573.058594 L 373.050781 591.417969 C 373.050781 597.378906 368.222656 602.210938 362.257812 602.210938 C 356.292969 602.210938 351.464844 597.378906 351.464844 591.417969 L 351.464844 574.09375 C 339.769531 572.917969 328.921875 566.816406 321.839844 557.265625 C 318.292969 552.476562 319.300781 545.710938 324.089844 542.164062 C 328.878906 538.617188 335.644531 539.625 339.191406 544.414062 C 343.113281 549.703125 349.101562 552.738281 355.617188 552.738281 L 362.835938 552.738281 C 374.074219 552.738281 383.226562 543.601562 383.226562 532.351562 C 383.226562 521.113281 374.085938 511.960938 362.835938 511.960938 L 359.207031 511.960938 C 358.335938 511.960938 357.496094 511.851562 356.679688 511.660156 C 335.890625 509.171875 319.714844 491.4375 319.714844 470 C 319.714844 450.382812 333.242188 433.859375 351.464844 429.292969 L 351.464844 410.890625 C 351.464844 404.929688 356.292969 400.097656 362.257812 400.097656 C 368.222656 400.097656 373.050781 404.929688 373.050781 410.890625 L 373.050781 428.257812 C 384.742188 429.429688 395.59375 435.53125 402.6875 445.082031 C 406.238281 449.871094 405.230469 456.636719 400.4375 460.183594 C 395.648438 463.730469 388.886719 462.722656 385.335938 457.933594 C 381.417969 452.648438 375.425781 449.609375 368.910156 449.609375 L 361.691406 449.609375 C 350.457031 449.609375 341.304688 458.75 341.304688 470 C 341.304688 481.25 350.441406 490.386719 361.691406 490.386719 L 365.320312 490.386719 C 366.191406 490.386719 367.035156 490.496094 367.847656 490.691406 C 388.621094 493.175781 404.800781 510.898438 404.800781 532.351562 Z M 78.273438 380.027344 L 117.984375 380.027344 L 117.984375 400.910156 C 117.984375 412.988281 126.863281 422.996094 138.429688 424.832031 L 138.429688 581.726562 C 126.863281 583.5625 117.984375 593.554688 117.984375 605.605469 L 117.984375 627.332031 C 107.648438 630.09375 99.984375 639.523438 99.984375 650.730469 L 99.984375 673.976562 L 97.488281 673.976562 C 84.125 673.976562 73.25 684.855469 73.25 698.214844 L 73.25 725.835938 C 73.25 739.1875 84.125 750.050781 97.488281 750.050781 L 627 750.050781 C 640.363281 750.050781 651.238281 739.1875 651.238281 725.835938 L 651.238281 698.214844 C 651.238281 684.855469 640.363281 673.976562 627 673.976562 L 624.5 673.976562 L 624.5 650.730469 C 624.5 639.523438 616.855469 630.09375 606.5 627.332031 L 606.5 605.605469 C 606.5 593.554688 597.625 583.5625 586.058594 581.726562 L 586.058594 424.820312 C 597.625 422.984375 606.5 412.976562 606.5 400.898438 L 606.5 380.011719 L 646.214844 380.011719 C 652.179688 380.011719 657.007812 375.179688 657.007812 369.21875 L 657.007812 336.390625 L 668.34375 344.109375 C 670.191406 345.363281 672.304688 345.972656 674.417969 345.972656 C 677.203125 345.972656 679.964844 344.894531 682.050781 342.8125 L 710.746094 314.113281 C 714.417969 310.441406 714.957031 304.699219 712.046875 300.40625 L 693.394531 272.992188 C 696.488281 267 699.082031 260.746094 701.140625 254.289062 L 733.71875 248.117188 C 738.8125 247.152344 742.496094 242.691406 742.496094 237.515625 L 742.496094 196.933594 C 742.496094 191.757812 738.8125 187.296875 733.71875 186.332031 L 701.125 180.121094 C 699.054688 173.671875 696.472656 167.421875 693.382812 161.414062 L 712.046875 134 C 714.957031 129.722656 714.417969 123.964844 710.746094 120.292969 L 682.0625 91.609375 C 678.390625 87.953125 672.648438 87.398438 668.355469 90.3125 L 640.941406 108.960938 C 634.949219 105.867188 628.699219 103.273438 622.238281 101.203125 L 616.027344 68.625 C 615.058594 63.546875 610.601562 59.859375 605.425781 59.859375 L 564.84375 59.859375 C 559.652344 59.859375 555.207031 63.546875 554.242188 68.640625 L 548.070312 101.21875 C 541.609375 103.289062 535.34375 105.867188 529.367188 108.960938 L 501.953125 90.3125 C 497.660156 87.398438 491.917969 87.9375 488.246094 91.609375 L 459.546875 120.308594 C 455.875 123.980469 455.335938 129.722656 458.25 134.015625 L 476.910156 161.429688 C 474.191406 166.703125 471.886719 172.140625 469.980469 177.703125 L 368.164062 111.113281 C 364.578125 108.769531 359.9375 108.769531 356.351562 111.113281 L 72.363281 296.84375 C 69.3125 298.832031 67.476562 302.242188 67.476562 305.871094 L 67.476562 369.230469 C 67.476562 375.195312 72.324219 380.027344 78.273438 380.027344 Z M 627.015625 695.566406 C 628.449219 695.566406 629.664062 696.78125 629.664062 698.214844 L 629.664062 725.835938 C 629.664062 727.257812 628.449219 728.460938 627.015625 728.460938 L 97.5 728.460938 C 96.066406 728.460938 94.851562 727.257812 94.851562 725.835938 L 94.851562 698.214844 C 94.851562 696.78125 96.066406 695.566406 97.5 695.566406 Z M 600.261719 648.066406 C 601.699219 648.066406 602.914062 649.28125 602.914062 650.71875 L 602.914062 673.964844 L 121.589844 673.964844 L 121.589844 650.71875 C 121.589844 649.28125 122.804688 648.066406 124.238281 648.066406 Z M 142.238281 403.5625 C 140.804688 403.5625 139.589844 402.347656 139.589844 400.910156 L 139.589844 380.027344 L 233.054688 380.027344 L 233.054688 400.910156 C 233.054688 402.320312 231.824219 403.5625 230.433594 403.5625 Z M 212.640625 425.148438 L 212.640625 581.394531 L 160.03125 581.394531 L 160.03125 425.148438 Z M 142.238281 602.984375 L 230.433594 602.984375 C 231.855469 602.984375 233.054688 604.183594 233.054688 605.605469 L 233.054688 626.492188 L 139.589844 626.492188 L 139.589844 605.605469 C 139.589844 604.171875 140.804688 602.984375 142.238281 602.984375 Z M 490.273438 424.820312 L 490.273438 581.710938 C 478.707031 583.546875 469.832031 593.542969 469.832031 605.59375 L 469.832031 626.476562 L 254.628906 626.476562 L 254.628906 605.59375 C 254.628906 593.542969 245.769531 583.546875 234.226562 581.710938 L 234.226562 424.820312 C 245.769531 422.984375 254.628906 412.976562 254.628906 400.910156 L 254.628906 380.027344 L 469.832031 380.027344 L 469.832031 400.910156 C 469.832031 412.976562 478.71875 422.984375 490.273438 424.820312 Z M 494.082031 403.5625 C 492.675781 403.5625 491.433594 402.320312 491.433594 400.910156 L 491.433594 380.027344 L 584.941406 380.027344 L 584.941406 400.910156 C 584.941406 402.347656 583.726562 403.5625 582.289062 403.5625 Z M 564.484375 425.148438 L 564.484375 581.394531 L 511.863281 581.394531 L 511.863281 425.148438 Z M 494.082031 602.984375 L 582.277344 602.984375 C 583.710938 602.984375 584.925781 604.183594 584.925781 605.605469 L 584.925781 626.492188 L 491.417969 626.492188 L 491.417969 605.605469 C 491.417969 604.199219 492.660156 602.984375 494.082031 602.984375 Z M 498.5 154.761719 L 481.136719 129.253906 L 497.191406 113.199219 L 522.699219 130.5625 C 526.164062 132.925781 530.675781 133.0625 534.28125 130.921875 C 542.285156 126.175781 550.984375 122.570312 560.136719 120.210938 C 564.179688 119.160156 567.257812 115.875 568.042969 111.777344 L 573.785156 81.464844 L 596.492188 81.464844 L 602.277344 111.777344 C 603.066406 115.875 606.144531 119.160156 610.171875 120.210938 C 619.324219 122.570312 628.023438 126.1875 636.027344 130.921875 C 639.628906 133.0625 644.144531 132.925781 647.609375 130.5625 L 673.117188 113.199219 L 689.171875 129.253906 L 671.808594 154.761719 C 669.460938 158.214844 669.308594 162.726562 671.433594 166.328125 C 676.183594 174.378906 679.800781 183.085938 682.160156 192.210938 C 683.210938 196.257812 686.496094 199.320312 690.59375 200.105469 L 720.90625 205.890625 L 720.90625 228.597656 L 690.59375 234.339844 C 686.496094 235.113281 683.195312 238.207031 682.160156 242.25 C 679.800781 251.402344 676.195312 260.097656 671.449219 268.105469 C 669.308594 271.707031 669.445312 276.222656 671.808594 279.6875 L 689.171875 305.195312 L 673.117188 321.25 L 657.023438 310.304688 L 657.023438 305.886719 C 657.023438 302.242188 655.1875 298.847656 652.136719 296.859375 L 627.964844 281.050781 C 648.878906 267.042969 661.992188 243.3125 661.992188 217.25 C 661.992188 174.875 627.511719 140.390625 585.132812 140.390625 C 547.433594 140.390625 516.003906 167.710938 509.542969 203.601562 L 488.742188 189.988281 C 491.046875 181.777344 494.441406 173.824219 498.859375 166.34375 C 501 162.726562 500.847656 158.214844 498.5 154.761719 Z M 529.917969 216.894531 C 530.097656 186.566406 554.792969 161.953125 585.148438 161.953125 C 615.625 161.953125 640.417969 186.746094 640.417969 217.222656 C 640.417969 239.226562 627.414062 258.910156 607.605469 267.703125 Z M 89.066406 311.710938 L 362.242188 133.035156 L 513.132812 231.730469 C 513.1875 231.773438 513.230469 231.800781 513.285156 231.828125 L 635.421875 311.710938 L 635.421875 315.933594 C 635.421875 315.949219 635.421875 315.960938 635.421875 315.976562 L 635.421875 358.421875 L 89.066406 358.421875 Z M 89.066406 311.710938 " fill-opacity="1" fill-rule="nonzero"/></g></svg>