<svg width="37" height="42" viewBox="0 0 37 42" fill="none" xmlns="http://www.w3.org/2000/svg">
<path d="M2.29167 41.25C1.64236 41.25 1.09809 41.0304 0.658854 40.5911C0.219618 40.1519 0 39.6076 0 38.9583V29.7917C0 28.5312 0.448785 27.4523 1.34635 26.5547C2.24392 25.6571 3.32292 25.2083 4.58333 25.2083H32.0833C33.3438 25.2083 34.4227 25.6571 35.3203 26.5547C36.2179 27.4523 36.6667 28.5312 36.6667 29.7917V38.9583C36.6667 39.6076 36.447 40.1519 36.0078 40.5911C35.5686 41.0304 35.0243 41.25 34.375 41.25H2.29167ZM11.4583 22.9167C8.28819 22.9167 5.58594 21.7995 3.35156 19.5651C1.11719 17.3307 0 14.6285 0 11.4583C0 8.28819 1.11719 5.58594 3.35156 3.35156C5.58594 1.11719 8.28819 0 11.4583 0H25.2083C28.3785 0 31.0807 1.11719 33.3151 3.35156C35.5495 5.58594 36.6667 8.28819 36.6667 11.4583C36.6667 14.6285 35.5495 17.3307 33.3151 19.5651C31.0807 21.7995 28.3785 22.9167 25.2083 22.9167H11.4583ZM11.4583 13.75C12.1076 13.75 12.6519 13.5304 13.0911 13.0911C13.5304 12.6519 13.75 12.1076 13.75 11.4583C13.75 10.809 13.5304 10.2648 13.0911 9.82552C12.6519 9.38628 12.1076 9.16667 11.4583 9.16667C10.809 9.16667 10.2648 9.38628 9.82552 9.82552C9.38628 10.2648 9.16667 10.809 9.16667 11.4583C9.16667 12.1076 9.38628 12.6519 9.82552 13.0911C10.2648 13.5304 10.809 13.75 11.4583 13.75ZM25.2083 13.75C25.8576 13.75 26.4019 13.5304 26.8411 13.0911C27.2804 12.6519 27.5 12.1076 27.5 11.4583C27.5 10.809 27.2804 10.2648 26.8411 9.82552C26.4019 9.38628 25.8576 9.16667 25.2083 9.16667C24.559 9.16667 24.0148 9.38628 23.5755 9.82552C23.1363 10.2648 22.9167 10.809 22.9167 11.4583C22.9167 12.1076 23.1363 12.6519 23.5755 13.0911C24.0148 13.5304 24.559 13.75 25.2083 13.75Z" fill="#8E2A25"/>
</svg>
