<svg xmlns="http://www.w3.org/2000/svg" xmlns:xlink="http://www.w3.org/1999/xlink" width="1080" zoomAndPan="magnify" viewBox="0 0 810 817.92" height="1080" preserveAspectRatio="xMidYMid meet" version="1.0"><defs><clipPath id="dc6e4ac202"><path d="M 83.421875 25.140625 L 612 25.140625 L 612 784.816406 L 83.421875 784.816406 Z M 83.421875 25.140625 " clip-rule="nonzero"/></clipPath><clipPath id="2f792e1df3"><path d="M 438 268 L 726.859375 268 L 726.859375 688 L 438 688 Z M 438 268 " clip-rule="nonzero"/></clipPath></defs><g clip-path="url(#dc6e4ac202)"><path fill="#c9b583" d="M 215.320312 146.773438 L 135.773438 146.773438 C 128.46875 146.773438 121.460938 149.675781 116.296875 154.839844 C 111.132812 160.007812 108.230469 167.015625 108.230469 174.320312 L 108.230469 732.71875 C 108.230469 740.027344 111.132812 747.035156 116.296875 752.199219 C 121.460938 757.363281 128.46875 760.265625 135.773438 760.265625 L 559.390625 760.265625 C 566.695312 760.265625 573.703125 757.363281 578.871094 752.199219 C 584.035156 747.035156 586.9375 740.027344 586.9375 732.71875 L 586.9375 554.867188 C 586.9375 548.105469 592.429688 542.613281 599.191406 542.613281 C 605.953125 542.613281 611.441406 548.105469 611.441406 554.867188 L 611.441406 732.71875 C 611.441406 746.523438 605.957031 759.765625 596.195312 769.527344 C 586.433594 779.285156 573.195312 784.769531 559.390625 784.769531 L 135.773438 784.769531 C 121.972656 784.769531 108.730469 779.285156 98.96875 769.527344 C 89.207031 759.765625 83.726562 746.523438 83.726562 732.71875 L 83.726562 174.320312 C 83.726562 160.515625 89.207031 147.277344 98.96875 137.515625 C 108.730469 127.753906 121.972656 122.269531 135.773438 122.269531 L 215.320312 122.269531 L 215.320312 116.273438 C 215.320312 88.632812 237.761719 66.1875 265.40625 66.1875 C 265.40625 66.1875 290.074219 66.1875 290.070312 66.1875 C 298.183594 42.347656 320.867188 25.140625 347.582031 25.140625 C 374.300781 25.140625 396.984375 42.347656 405.09375 66.1875 L 429.761719 66.1875 C 457.402344 66.1875 479.847656 88.632812 479.847656 116.273438 L 479.847656 122.269531 L 559.390625 122.269531 C 573.195312 122.269531 586.433594 127.753906 596.195312 137.515625 C 605.957031 147.277344 611.441406 160.515625 611.441406 174.320312 L 611.441406 267.671875 C 611.441406 274.433594 605.953125 279.925781 599.191406 279.925781 C 592.429688 279.925781 586.9375 274.433594 586.9375 267.671875 L 586.9375 174.320312 C 586.9375 167.015625 584.035156 160.007812 578.871094 154.839844 C 573.703125 149.675781 566.695312 146.773438 559.390625 146.773438 L 479.847656 146.773438 L 479.847656 160.671875 C 479.847656 188.316406 457.402344 210.757812 429.761719 210.757812 L 265.40625 210.757812 C 237.761719 210.757812 215.320312 188.316406 215.320312 160.671875 Z M 455.34375 160.671875 L 455.34375 116.273438 C 455.34375 102.15625 443.878906 90.691406 429.761719 90.691406 L 395.507812 90.691406 C 389.4375 90.691406 384.285156 86.25 383.390625 80.242188 C 380.8125 62.917969 365.730469 49.648438 347.582031 49.648438 C 329.433594 49.648438 314.355469 62.917969 311.777344 80.242188 C 310.882812 86.25 305.726562 90.691406 299.660156 90.691406 L 265.40625 90.691406 C 251.285156 90.691406 239.824219 102.15625 239.824219 116.273438 L 239.824219 160.671875 C 239.824219 174.789062 251.285156 186.253906 265.40625 186.253906 L 429.761719 186.253906 C 443.878906 186.253906 455.34375 174.789062 455.34375 160.671875 Z M 316.90625 293.84375 C 310.144531 293.84375 304.65625 288.351562 304.65625 281.589844 C 304.65625 274.828125 310.144531 269.339844 316.90625 269.339844 L 521.054688 269.339844 C 527.816406 269.339844 533.304688 274.828125 533.304688 281.589844 C 533.304688 288.351562 527.816406 293.84375 521.054688 293.84375 Z M 316.90625 417.207031 C 310.144531 417.207031 304.65625 411.71875 304.65625 404.957031 C 304.65625 398.195312 310.144531 392.703125 316.90625 392.703125 L 521.054688 392.703125 C 527.816406 392.703125 533.304688 398.195312 533.304688 404.957031 C 533.304688 411.71875 527.816406 417.207031 521.054688 417.207031 Z M 316.90625 540.574219 C 310.144531 540.574219 304.65625 535.085938 304.65625 528.324219 C 304.65625 521.5625 310.144531 516.070312 316.90625 516.070312 L 450.765625 516.070312 C 457.527344 516.070312 463.015625 521.5625 463.015625 528.324219 C 463.015625 535.085938 457.527344 540.574219 450.765625 540.574219 Z M 174.113281 663.941406 C 167.351562 663.941406 161.863281 658.449219 161.863281 651.6875 C 161.863281 644.925781 167.351562 639.4375 174.113281 639.4375 L 403.824219 639.4375 C 410.585938 639.4375 416.074219 644.925781 416.074219 651.6875 C 416.074219 658.449219 410.585938 663.941406 403.824219 663.941406 Z M 165.359375 288.617188 C 160.628906 283.785156 160.710938 276.023438 165.542969 271.292969 C 170.375 266.558594 178.136719 266.640625 182.867188 271.472656 C 182.867188 271.472656 200.445312 289.425781 200.445312 289.425781 L 241.320312 247.671875 C 246.050781 242.84375 253.816406 242.757812 258.648438 247.488281 C 263.480469 252.222656 263.5625 259.984375 258.832031 264.816406 L 209.199219 315.507812 C 206.894531 317.863281 203.738281 319.1875 200.445312 319.1875 C 197.148438 319.1875 193.992188 317.863281 191.6875 315.507812 Z M 165.359375 411.984375 C 160.628906 407.152344 160.710938 399.386719 165.542969 394.65625 C 170.375 389.925781 178.136719 390.007812 182.867188 394.839844 C 182.867188 394.839844 200.445312 412.789062 200.445312 412.789062 L 241.320312 371.039062 C 246.050781 366.207031 253.816406 366.125 258.648438 370.855469 C 263.480469 375.585938 263.5625 383.351562 258.832031 388.183594 L 209.199219 438.875 C 206.894531 441.226562 203.738281 442.554688 200.445312 442.554688 C 197.148438 442.554688 193.992188 441.226562 191.6875 438.875 Z M 165.359375 535.347656 C 160.628906 530.515625 160.710938 522.753906 165.542969 518.023438 C 170.375 513.292969 178.136719 513.375 182.867188 518.207031 C 182.867188 518.207031 200.445312 536.15625 200.445312 536.15625 L 241.320312 494.40625 C 246.050781 489.574219 253.816406 489.492188 258.648438 494.222656 C 263.480469 498.953125 263.5625 506.714844 258.832031 511.546875 L 209.199219 562.242188 C 206.894531 564.59375 203.738281 565.921875 200.445312 565.921875 C 197.148438 565.921875 193.992188 564.59375 191.6875 562.242188 Z M 165.359375 535.347656 " fill-opacity="1" fill-rule="evenodd"/></g><g clip-path="url(#2f792e1df3)"><path fill="#c9b583" d="M 590.667969 516.226562 L 517.261719 643.367188 C 516.972656 643.867188 516.648438 644.347656 516.292969 644.800781 C 495.691406 671.085938 464.398438 682.0625 458.933594 685.785156 C 455.046875 688.4375 449.984375 688.628906 445.90625 686.273438 C 441.832031 683.921875 439.464844 679.441406 439.816406 674.75 C 440.308594 668.152344 434.171875 635.566406 446.632812 604.578125 C 446.847656 604.046875 447.101562 603.527344 447.386719 603.027344 L 520.792969 475.886719 C 517.996094 472.085938 517.539062 466.839844 520.046875 462.492188 L 618.964844 291.164062 C 631.53125 269.394531 659.660156 261.972656 681.847656 274.78125 L 684.300781 276.199219 C 706.484375 289.007812 714.125 317.082031 701.554688 338.847656 L 688.246094 361.898438 L 695.277344 365.957031 L 703.410156 351.871094 C 706.792969 346.015625 714.289062 344.003906 720.148438 347.386719 C 726.003906 350.769531 728.011719 358.265625 724.628906 364.125 L 639.210938 512.078125 C 635.828125 517.933594 628.328125 519.945312 622.472656 516.5625 C 616.617188 513.183594 614.605469 505.683594 617.988281 499.824219 L 683.023438 387.179688 L 675.996094 383.121094 L 602.640625 510.175781 C 600.128906 514.523438 595.355469 516.75 590.667969 516.226562 Z M 587.546875 487.3125 L 680.335938 326.59375 C 686.199219 316.433594 682.402344 303.398438 672.050781 297.421875 L 669.59375 296.003906 C 659.238281 290.027344 646.050781 293.257812 640.1875 303.414062 L 547.394531 464.132812 C 547.394531 464.132812 587.546875 487.3125 587.546875 487.3125 Z M 541.503906 489.023438 C 523.015625 521.039062 469.058594 614.5 469.054688 614.507812 C 463.179688 629.574219 462.433594 645.019531 462.886719 656.863281 C 473.371094 651.332031 486.375 642.964844 496.488281 630.339844 L 568.933594 504.863281 Z M 541.503906 489.023438 " fill-opacity="1" fill-rule="evenodd"/></g></svg>