<svg xmlns="http://www.w3.org/2000/svg" xmlns:xlink="http://www.w3.org/1999/xlink" width="1080" zoomAndPan="magnify" viewBox="0 0 810 817.92" height="1080" preserveAspectRatio="xMidYMid meet" version="1.0"><defs><clipPath id="ecc14a3dfc"><path d="M 83 63 L 727 63 L 727 746.890625 L 83 746.890625 Z M 83 63 " clip-rule="nonzero"/></clipPath></defs><g clip-path="url(#ecc14a3dfc)"><path fill="#c9b583" d="M 726.878906 465.308594 L 726.878906 407.828125 C 726.878906 382.683594 706.761719 363.285156 681.613281 363.285156 L 496.964844 363.285156 C 526.421875 351.070312 558.753906 319.457031 560.191406 254.074219 C 561.628906 162.828125 512.054688 152.050781 490.5 147.738281 L 489.0625 147.019531 C 471.101562 144.867188 453.136719 147.019531 435.894531 154.207031 C 435.175781 145.585938 437.332031 136.246094 440.925781 128.339844 C 453.136719 108.941406 481.878906 89.542969 482.59375 89.542969 C 484.75 88.105469 485.46875 84.515625 484.03125 82.359375 C 482.59375 80.203125 479.003906 79.484375 476.847656 80.921875 C 463.195312 90.261719 450.984375 100.320312 440.207031 112.535156 C 438.050781 98.882812 432.300781 85.949219 423.679688 75.890625 C 415.058594 67.269531 399.253906 62.960938 378.417969 63.679688 L 376.261719 63.679688 C 374.824219 63.679688 373.386719 64.394531 372.667969 65.113281 C 371.949219 65.832031 371.230469 67.269531 371.230469 69.425781 C 371.230469 70.863281 373.386719 101.039062 389.195312 116.84375 C 398.535156 125.46875 411.464844 129.058594 423.679688 129.058594 L 428.710938 129.058594 C 425.835938 137.679688 424.398438 146.304688 424.398438 155.644531 C 411.464844 149.894531 390.628906 142.710938 371.949219 146.304688 L 370.511719 146.304688 C 348.957031 150.613281 298.664062 160.671875 300.820312 252.636719 C 302.257812 320.894531 337.464844 352.507812 368.359375 363.285156 L 159.28125 363.285156 C 134.851562 363.285156 114.734375 383.402344 114.734375 407.828125 L 114.734375 463.152344 C 114.734375 464.589844 115.453125 466.027344 116.890625 467.460938 C 96.773438 472.492188 83.121094 490.453125 83.121094 511.289062 L 83.121094 566.613281 C 83.121094 591.757812 103.238281 611.160156 127.667969 611.878906 L 130.542969 611.878906 C 120.484375 620.5 114.734375 632.714844 114.734375 646.363281 L 114.734375 701.6875 C 114.734375 726.832031 134.851562 746.234375 159.28125 746.949219 L 681.613281 746.949219 C 706.761719 746.949219 726.878906 726.832031 726.878906 701.6875 L 726.878906 646.363281 C 726.878906 621.21875 706.761719 601.816406 681.613281 601.816406 L 678.742188 601.816406 C 688.800781 593.195312 694.546875 580.984375 694.546875 567.332031 L 694.546875 512.007812 C 694.546875 510.570312 694.546875 509.132812 694.546875 507.699219 C 724.003906 505.542969 726.878906 482.550781 726.878906 465.308594 Z M 396.378906 108.941406 C 388.476562 98.882812 383.445312 86.667969 382.007812 73.738281 C 402.84375 73.738281 411.464844 79.484375 414.339844 82.359375 C 422.960938 92.417969 427.992188 103.914062 428.710938 116.84375 C 421.523438 117.5625 405.71875 117.5625 396.378906 108.941406 Z M 311.597656 251.917969 C 310.160156 169.292969 352.550781 159.953125 372.667969 155.644531 L 374.105469 155.644531 C 389.910156 152.050781 407.875 159.234375 418.652344 163.546875 C 412.902344 167.140625 407.15625 170.730469 402.125 174.324219 C 397.816406 177.914062 394.222656 180.070312 392.066406 181.507812 C 387.757812 185.101562 388.476562 186.539062 390.628906 189.410156 C 391.347656 190.847656 393.503906 191.566406 394.941406 191.566406 C 396.378906 191.566406 397.097656 191.566406 397.816406 190.847656 L 398.535156 190.128906 C 399.253906 189.410156 402.125 187.257812 407.875 182.945312 C 418.652344 175.761719 429.429688 169.292969 440.925781 163.546875 C 440.925781 163.546875 441.640625 162.828125 441.640625 162.828125 C 455.292969 157.078125 470.382812 154.925781 485.46875 157.078125 L 487.625 157.078125 C 507.742188 161.390625 550.132812 170.730469 548.695312 252.636719 C 547.976562 289.28125 530.734375 353.226562 469.664062 357.535156 C 461.042969 358.253906 452.417969 356.097656 444.515625 351.789062 C 439.488281 348.914062 433.738281 346.757812 427.992188 346.039062 C 423.679688 346.757812 420.089844 348.195312 416.496094 350.351562 C 408.59375 354.660156 399.96875 356.816406 391.347656 356.097656 C 330.277344 351.789062 312.316406 288.5625 311.597656 251.917969 Z M 420.804688 361.128906 C 426.554688 357.535156 434.457031 358.253906 439.488281 362.566406 L 417.214844 362.566406 C 418.652344 361.847656 420.089844 361.128906 420.804688 361.128906 Z M 684.488281 565.894531 C 684.488281 584.574219 669.398438 600.382812 650 600.382812 L 594.679688 600.382812 C 591.804688 600.382812 589.648438 602.535156 589.648438 605.410156 C 589.648438 608.285156 591.804688 610.441406 594.679688 610.441406 L 681.613281 610.441406 C 700.292969 610.441406 716.101562 625.527344 716.101562 644.925781 L 716.101562 700.25 C 716.101562 718.929688 701.011719 734.738281 681.613281 734.738281 L 267.769531 734.738281 L 267.769531 629.121094 C 267.050781 626.246094 264.898438 624.089844 262.023438 624.089844 C 259.867188 624.089844 257.710938 626.246094 256.992188 629.121094 L 256.992188 734.738281 L 220.351562 734.738281 L 220.351562 629.121094 C 219.632812 626.246094 217.476562 624.089844 214.601562 624.089844 C 212.449219 624.089844 210.292969 626.246094 209.574219 629.121094 L 209.574219 734.738281 L 159.28125 734.738281 C 140.601562 734.738281 124.792969 719.648438 124.792969 700.25 L 124.792969 644.925781 C 124.792969 626.246094 139.882812 610.441406 159.28125 610.441406 L 484.03125 610.441406 C 486.90625 610.441406 489.0625 608.285156 489.0625 605.410156 C 489.0625 602.535156 486.90625 600.382812 484.03125 600.382812 L 127.667969 600.382812 C 108.988281 600.382812 93.179688 585.292969 93.179688 565.894531 L 93.179688 510.570312 C 93.179688 491.890625 108.269531 476.085938 127.667969 476.085938 L 511.335938 476.085938 C 510.617188 476.804688 510.617188 477.523438 510.617188 478.957031 L 510.617188 683.007812 C 510.617188 685.160156 512.054688 687.316406 514.207031 688.035156 C 514.925781 688.035156 515.644531 688.035156 515.644531 688.035156 C 517.082031 688.035156 519.238281 687.316406 519.957031 685.878906 L 544.386719 654.265625 L 566.65625 684.441406 C 568.8125 686.597656 571.6875 687.316406 574.5625 685.160156 C 575.996094 684.441406 576.714844 682.289062 576.714844 680.851562 L 576.714844 478.957031 C 576.714844 478.238281 576.714844 477.523438 575.996094 476.085938 L 650.71875 476.085938 C 669.398438 476.085938 685.207031 491.171875 685.207031 510.570312 L 685.207031 565.894531 Z M 520.675781 476.085938 L 566.65625 476.085938 C 565.9375 476.804688 565.9375 477.523438 565.9375 478.957031 L 565.9375 665.042969 L 549.414062 642.054688 C 548.695312 640.617188 546.539062 639.898438 545.101562 639.898438 C 543.667969 639.898438 541.511719 640.617188 540.792969 642.054688 L 521.394531 667.199219 L 521.394531 478.957031 C 521.394531 478.238281 520.675781 476.804688 520.675781 476.085938 Z M 716.101562 465.308594 C 716.101562 487.582031 710.351562 495.484375 693.828125 495.484375 C 693.109375 495.484375 693.109375 495.484375 692.390625 495.484375 C 685.925781 477.523438 669.398438 465.308594 650 465.308594 L 124.074219 465.308594 C 124.792969 464.589844 124.792969 463.871094 124.792969 462.433594 L 124.792969 407.109375 C 124.792969 388.429688 139.882812 372.625 159.28125 372.625 L 201.671875 372.625 L 201.671875 438.722656 C 200.953125 441.597656 203.109375 444.472656 206.699219 444.472656 C 209.574219 445.191406 212.449219 443.035156 212.449219 439.441406 C 212.449219 438.722656 212.449219 438.722656 212.449219 438.003906 L 212.449219 372.625 L 621.261719 372.625 L 621.261719 438.722656 C 620.542969 441.597656 622.699219 444.472656 626.292969 444.472656 C 629.164062 445.191406 632.039062 443.035156 632.039062 439.441406 C 632.039062 438.722656 632.039062 438.722656 632.039062 438.003906 L 632.039062 371.90625 L 682.332031 371.90625 C 701.011719 371.90625 716.820312 386.992188 716.820312 406.390625 L 716.820312 465.308594 Z M 716.101562 465.308594 " fill-opacity="1" fill-rule="nonzero"/></g><path fill="#c9b583" d="M 278.546875 489.015625 C 275.675781 489.015625 273.519531 491.171875 273.519531 494.046875 L 273.519531 557.273438 C 272.800781 560.148438 274.957031 563.019531 278.546875 563.019531 C 281.421875 563.738281 284.296875 561.582031 284.296875 557.992188 C 284.296875 557.273438 284.296875 557.273438 284.296875 556.554688 L 284.296875 493.328125 C 283.578125 491.890625 281.421875 489.015625 278.546875 489.015625 Z M 278.546875 489.015625 " fill-opacity="1" fill-rule="nonzero"/><path fill="#c9b583" d="M 318.0625 489.015625 C 315.191406 489.015625 313.035156 491.171875 313.035156 494.046875 L 313.035156 557.273438 C 312.316406 560.148438 314.472656 563.019531 318.0625 563.019531 C 320.9375 563.738281 323.8125 561.582031 323.8125 557.992188 C 323.8125 557.273438 323.8125 557.273438 323.8125 556.554688 L 323.8125 493.328125 C 323.09375 491.890625 320.9375 489.015625 318.0625 489.015625 Z M 318.0625 489.015625 " fill-opacity="1" fill-rule="nonzero"/><path fill="#c9b583" d="M 365.484375 489.015625 C 362.609375 489.015625 360.453125 491.171875 360.453125 494.046875 L 360.453125 557.273438 C 359.734375 560.148438 361.890625 563.019531 365.484375 563.019531 C 368.359375 563.738281 371.230469 561.582031 371.230469 557.992188 C 371.230469 557.273438 371.230469 557.273438 371.230469 556.554688 L 371.230469 493.328125 C 370.511719 491.890625 368.359375 489.015625 365.484375 489.015625 Z M 365.484375 489.015625 " fill-opacity="1" fill-rule="nonzero"/><path fill="#c9b583" d="M 455.292969 325.921875 C 459.605469 328.078125 463.914062 328.796875 468.226562 328.796875 C 476.128906 328.796875 484.03125 325.921875 490.5 320.894531 C 508.460938 307.242188 522.832031 290.71875 533.609375 271.316406 C 535.042969 268.445312 534.324219 265.570312 531.453125 264.132812 C 528.578125 262.695312 525.703125 263.414062 524.265625 266.289062 C 514.207031 284.25 501.277344 300.058594 484.75 312.269531 C 478.285156 318.019531 468.226562 319.457031 460.324219 316.582031 C 457.449219 315.144531 454.574219 315.863281 453.136719 318.019531 C 451.699219 320.894531 452.417969 324.484375 455.292969 325.921875 Z M 455.292969 325.921875 " fill-opacity="1" fill-rule="nonzero"/></svg>