<svg xmlns="http://www.w3.org/2000/svg" xmlns:xlink="http://www.w3.org/1999/xlink" width="1080" zoomAndPan="magnify" viewBox="0 0 810 817.92" height="1080" preserveAspectRatio="xMidYMid meet" version="1.0"><defs><clipPath id="020f501ee1"><path d="M 33.476562 117.03125 L 612 117.03125 L 612 692.972656 L 33.476562 692.972656 Z M 33.476562 117.03125 " clip-rule="nonzero"/></clipPath><clipPath id="392ad927c9"><path d="M 354 127 L 776.652344 127 L 776.652344 557 L 354 557 Z M 354 127 " clip-rule="nonzero"/></clipPath><clipPath id="70f09df8d5"><path d="M 99 495 L 119 495 L 119 692.972656 L 99 692.972656 Z M 99 495 " clip-rule="nonzero"/></clipPath></defs><g clip-path="url(#020f501ee1)"><path fill="#c9b583" d="M 527.089844 461.832031 C 525.910156 459.519531 524.566406 457.320312 523.042969 455.207031 C 541.796875 434.136719 561.667969 408.152344 579.410156 385.96875 L 599.214844 361.210938 C 602.507812 357.082031 606 352.753906 609.066406 348.636719 C 614.132812 341.847656 608.789062 334.273438 601.542969 334.554688 C 596.984375 334.734375 588.851562 346.816406 585.933594 350.539062 C 580.851562 357.015625 575.734375 363.472656 570.589844 369.902344 C 550.652344 394.886719 529.632812 421.808594 508.972656 446.15625 C 487.464844 437.566406 470.855469 458.140625 456.363281 471.09375 C 450.082031 476.667969 443.769531 482.191406 437.390625 487.636719 C 429.160156 494.71875 417.949219 503.457031 410.371094 510.476562 C 403.4375 494.882812 396.730469 479.191406 390.253906 463.402344 C 376.285156 429.726562 368.089844 407.101562 330.199219 392.902344 C 322.28125 389.921875 314.015625 387.921875 305.621094 386.917969 C 320.492188 382.445312 339.332031 376.507812 347.25 361.6875 C 350.53125 355.671875 351.183594 348.585938 349.070312 342.078125 C 347.578125 337.355469 344.726562 332.734375 342.628906 328.222656 C 339.21875 320.914062 337.070312 312.765625 335.921875 304.8125 C 328.394531 252.988281 345.839844 207.324219 310.492188 161.613281 C 299.984375 148.039062 286.605469 136.957031 271.324219 129.167969 C 255.714844 121.28125 236.171875 116.871094 218.597656 117.234375 C 182.542969 120.019531 157.917969 131.742188 133.570312 158.828125 C 102.042969 193.898438 104.699219 231.359375 105.042969 274.726562 C 105.15625 289.039062 105.007812 306.15625 100.402344 319.796875 C 96.960938 329.996094 90.730469 339.308594 92.039062 350.621094 C 94.105469 372.113281 120.585938 382.96875 138.734375 386.886719 C 107.730469 393.675781 79.582031 404.085938 61.660156 432.136719 C 43.167969 461.058594 44.25 503.917969 42.25 537.363281 L 36.050781 640.917969 L 34.363281 667.917969 C 34 673.640625 32.871094 680.394531 33.953125 686.054688 C 34.378906 688.25 35.476562 689.726562 37.328125 690.972656 C 39.429688 692.398438 41.984375 692.875 44.460938 692.234375 C 46.542969 691.691406 48.460938 690.136719 49.445312 688.199219 C 51.378906 684.429688 52.28125 656.640625 52.691406 650.097656 L 59.511719 538.789062 L 61.710938 505.148438 C 62.988281 485.570312 63.757812 465.929688 72.449219 447.945312 C 81.433594 429.367188 97.976562 416.808594 117.078125 409.855469 C 125.226562 406.9375 133.621094 404.789062 142.179688 403.480469 C 149.636719 423.972656 156.949219 444.582031 164.050781 465.207031 C 164.542969 466.617188 167.410156 468.519531 168.738281 469.273438 C 170.425781 469.339844 173.917969 469.617188 175.3125 468.996094 C 181.066406 466.4375 187.609375 461.648438 192.921875 458.109375 L 219.972656 440.105469 C 235.121094 448.417969 251.074219 461.027344 266.714844 468.78125 C 272.109375 471.453125 276.554688 467.75 279.09375 462.996094 C 283.242188 455.238281 297.410156 407.003906 302.3125 403.429688 C 305.804688 402.609375 311.214844 404.511719 314.691406 405.464844 C 329.988281 409.59375 346.496094 417.792969 355.726562 431.1875 C 363.039062 441.777344 368.023438 455.417969 373.089844 467.371094 L 391.828125 511.671875 C 394.191406 517.179688 397.027344 526.625 401.078125 531.003906 C 402.765625 532.839844 406.550781 533.460938 408.878906 532.886719 C 413.472656 531.738281 447.015625 502.097656 452.195312 496.964844 C 459.855469 503.308594 473.675781 514.277344 481.808594 519.917969 C 472.921875 530.558594 463.476562 540.90625 454.28125 551.28125 C 445.769531 560.890625 437.574219 571.582031 427.964844 580.089844 C 405.289062 600.191406 385.5 593.648438 370.417969 570.105469 C 361.464844 555.59375 354.25 539.480469 346.511719 524.246094 C 343.660156 518.625 341.464844 511.902344 338.085938 506.820312 C 336.871094 505 333.90625 504.113281 331.839844 503.523438 C 328.773438 504.210938 325.773438 504.753906 323.804688 507.539062 C 322.757812 509.015625 322.347656 513.589844 322.246094 515.082031 C 321.148438 532.085938 310.132812 682.25 311.441406 686.757812 C 312.082031 688.9375 313.589844 690.773438 315.625 691.808594 C 317.609375 692.824219 320.019531 693.085938 322.132812 692.316406 C 324.246094 691.546875 325.609375 689.90625 326.460938 687.871094 C 328.578125 682.757812 331.363281 627.128906 332.035156 617.570312 L 335.5625 568.253906 C 336.085938 560.398438 337.035156 550.199219 337.003906 542.527344 C 347.347656 565.253906 361.105469 596.453125 385.351562 605.632812 C 397.453125 610.304688 410.945312 609.863281 422.71875 604.421875 C 441.03125 595.976562 466.527344 563.105469 480.378906 547.382812 L 506.316406 518.015625 C 519.894531 502.589844 538.289062 484.324219 527.089844 461.878906 Z M 114.535156 358.410156 C 102.042969 349.242188 113.238281 336.453125 116.601562 325.914062 C 126.667969 293.710938 119.878906 259.5625 122.929688 226.230469 C 126.308594 185.027344 155.769531 149.238281 195.429688 137.742188 C 204.382812 135.152344 212.53125 134.496094 221.777344 133.941406 C 264.421875 133.742188 303.328125 164.699219 313.035156 206.128906 C 314.65625 213.082031 315.707031 219.800781 316.871094 226.835938 C 312.589844 227 307.785156 226.902344 303.476562 226.917969 C 296.128906 220.835938 289.359375 214.097656 283.242188 206.769531 C 278.570312 201.292969 270.964844 190.042969 265.734375 186.535156 C 263.765625 186.339844 261.257812 186.273438 259.488281 187.308594 C 255.796875 189.472656 253.09375 193.800781 249.945312 196.636719 C 244.386719 201.621094 238.371094 205.964844 231.976562 209.785156 C 210.59375 222.523438 187.117188 226.292969 162.738281 228.460938 C 158.261719 228.851562 144.539062 229.359375 141.242188 230.328125 C 139.0625 230.96875 137.242188 232.507812 136.242188 234.558594 C 134.40625 238.296875 134.734375 244.296875 134.734375 248.429688 C 134.734375 265.9375 136.226562 281.203125 141.769531 297.875 C 149.0625 318.632812 159.769531 333.601562 177.082031 347.046875 C 171.050781 353.113281 173.199219 364.835938 170.460938 372.378906 C 168.246094 374.640625 159.539062 373.246094 156.507812 372.820312 C 141.585938 370.722656 126.816406 367.785156 114.535156 358.410156 Z M 292.34375 255.855469 C 292.195312 275.757812 288.898438 294.710938 278.421875 311.960938 C 259.027344 343.867188 222.957031 355.390625 190.414062 335.832031 C 167.296875 320.648438 154.308594 292.992188 152.210938 265.90625 C 151.71875 259.59375 151.410156 253.394531 151.328125 247.066406 C 153.949219 247.101562 156.71875 246.855469 159.375 246.625 C 191.101562 243.804688 224.007812 237.476562 250.273438 218.375 C 254.519531 215.277344 258.863281 211.882812 262.191406 207.933594 C 263.242188 208.800781 270.898438 218.472656 272.339844 220.210938 C 279.113281 228.3125 284.503906 233.507812 292.410156 240.445312 C 292.210938 245.066406 292.375 251.050781 292.34375 255.871094 Z M 187.804688 440.648438 C 184.691406 442.730469 178.492188 447.089844 175.445312 448.679688 C 174.589844 445.976562 173.707031 443.023438 172.96875 440.285156 C 168.917969 425.1875 162.082031 410.855469 157.425781 396.003906 C 158.328125 392.199219 158.71875 391.757812 162.3125 390.167969 C 163.3125 390.085938 164.296875 390.035156 165.296875 390.019531 C 166.96875 389.984375 168.820312 390.066406 169.953125 391.445312 C 173.609375 395.921875 176.445312 401.609375 179.835938 406.414062 C 186.460938 415.824219 193.480469 423.480469 201.726562 431.417969 C 197.183594 434.121094 192.25 437.648438 187.824219 440.679688 Z M 222.910156 424.417969 L 222.480469 424.253906 C 209.742188 419.269531 191.921875 394.839844 184.445312 383.230469 C 186.101562 378.296875 187.183594 374.246094 187.96875 369.082031 C 188.625 364.835938 188.953125 359.261719 189.988281 355.210938 C 190.558594 355.488281 191.132812 355.734375 191.722656 355.980469 C 212.546875 364.820312 233.222656 364.03125 253.894531 355.671875 C 253.894531 362.769531 255.765625 378.296875 259.863281 383.953125 C 254.8125 391.574219 249.632812 398.691406 243.550781 405.546875 C 237.238281 412.496094 231.007812 419.613281 222.925781 424.398438 Z M 283.539062 401.414062 C 276.898438 416.941406 272.273438 433.21875 266.4375 448.976562 C 262.488281 446.664062 259.125 444.632812 255.304688 442.074219 L 240.417969 432.464844 C 249.519531 425.007812 257.304688 416.695312 264.304688 407.199219 C 267.734375 402.542969 270.832031 396.609375 274.703125 392.3125 C 275.867188 391.019531 278.785156 390.476562 280.488281 390.117188 C 282.816406 390.117188 284.882812 391.804688 286.785156 393.085938 C 285.882812 395.773438 284.652344 398.789062 283.523438 401.429688 Z M 291.261719 371.917969 C 287.882812 372.394531 274.980469 374.230469 273.882812 372.492188 C 271.765625 369.113281 270.109375 351.160156 269.226562 346.667969 C 270.980469 345.421875 272.683594 344.078125 274.292969 342.652344 C 303.851562 316.714844 310.277344 284.089844 309.523438 246.59375 C 309.492188 245.363281 309.476562 245.363281 310.296875 244.675781 C 312.410156 244.59375 314.789062 244.625 316.9375 244.609375 C 316.671875 250.921875 316.804688 257.824219 316.835938 264.035156 C 316.9375 287.285156 316.835938 311.617188 326.347656 333.289062 C 329.003906 339.355469 336.214844 348.585938 331.035156 354.621094 C 321.476562 365.738281 305.195312 369.621094 291.261719 371.902344 Z M 492.875 507.128906 C 491.101562 505.539062 489.152344 504.113281 487.25 502.6875 C 480.890625 497.457031 471.839844 490.523438 465.214844 485.652344 C 473.152344 478.816406 488.152344 463.175781 497.398438 460.566406 C 505.992188 459.519531 513.074219 466.667969 513.433594 474.765625 C 513.957031 486.539062 500.316406 498.917969 492.875 507.128906 Z M 492.875 507.128906 " fill-opacity="1" fill-rule="nonzero"/></g><g clip-path="url(#392ad927c9)"><path fill="#c9b583" d="M 776.398438 425.957031 L 776.398438 262.398438 C 776.398438 231.132812 776.710938 199.40625 776.347656 168.171875 C 776.234375 148.644531 760.824219 130.136719 740.984375 127.957031 C 728.984375 126.644531 714.933594 127.332031 702.734375 127.316406 L 623.035156 127.316406 C 623.035156 127.316406 421.847656 127.316406 421.847656 127.316406 C 403.242188 127.367188 384.617188 127.414062 365.992188 127.167969 C 362.582031 127.121094 359.171875 127.921875 356.695312 130.382812 C 353.414062 133.644531 353.59375 138.890625 357.070312 141.941406 C 359.136719 143.761719 362.121094 144.746094 364.910156 144.808594 C 374.976562 144.628906 385.109375 144.628906 395.175781 144.628906 L 464.511719 144.628906 C 464.511719 144.628906 670.46875 144.628906 670.46875 144.628906 L 714.605469 144.628906 C 719.523438 144.613281 736.722656 144.300781 740.117188 145.21875 C 750.625 148.074219 758.234375 157.1875 759.152344 168.027344 C 759.789062 175.222656 759.578125 184.371094 759.578125 191.734375 L 759.542969 227.425781 L 759.542969 339.652344 C 759.542969 339.652344 759.542969 458.386719 759.542969 458.386719 L 759.59375 494.242188 C 759.59375 501.523438 759.691406 508.523438 759.332031 515.804688 C 758.707031 528.394531 749.9375 538.542969 737 538.871094 C 730.523438 539.035156 724.097656 539.003906 717.605469 539.019531 L 682.648438 539.019531 C 682.648438 539.019531 575.324219 539.019531 575.324219 539.019531 L 540.519531 539.019531 C 534.648438 538.988281 524.042969 537.363281 520.007812 541.789062 C 518.351562 543.625 517.515625 546.035156 517.695312 548.511719 C 518.074219 553.957031 522.925781 556.429688 527.878906 556.480469 C 543.863281 556.644531 559.847656 556.578125 575.835938 556.5625 L 667.171875 556.5625 C 667.171875 556.5625 717.226562 556.546875 717.226562 556.546875 C 737.410156 556.546875 755.707031 558.839844 769.183594 540.152344 C 773.019531 534.886719 775.382812 528.691406 775.988281 522.199219 C 776.757812 518.460938 776.316406 501.179688 776.332031 496.292969 L 776.367188 425.957031 Z M 776.398438 425.957031 " fill-opacity="1" fill-rule="nonzero"/></g><path fill="#c9b583" d="M 687.160156 225.34375 C 679.910156 224.558594 671.714844 224.886719 664.253906 224.886719 L 612.96875 224.917969 L 489.085938 224.917969 C 469.527344 224.902344 447.148438 224.34375 427.851562 224.867188 C 425.324219 225.867188 423.570312 226.949219 422.375 229.523438 C 421.308594 231.820312 421.292969 234.460938 422.308594 236.789062 C 423.210938 238.855469 424.390625 239.9375 426.128906 241.28125 C 433.488281 242.671875 449.164062 242.164062 457.164062 242.164062 L 511.15625 242.164062 C 511.15625 242.164062 625.398438 242.164062 625.398438 242.164062 C 645.1875 242.164062 666.617188 242.625 686.242188 242.050781 C 689.898438 240.230469 690.421875 239.820312 692.226562 235.917969 C 693.832031 232.394531 691.0625 225.785156 687.175781 225.375 Z M 687.160156 225.34375 " fill-opacity="1" fill-rule="nonzero"/><path fill="#c9b583" d="M 687.816406 288.285156 C 686.011719 287.417969 682.929688 287.433594 680.914062 287.335938 C 668.566406 287.285156 656.171875 287.367188 643.808594 287.382812 L 573.554688 287.382812 C 573.554688 287.382812 509.546875 287.382812 509.546875 287.382812 C 498.90625 287.382812 486.855469 287.105469 476.316406 287.433594 C 473.578125 287.859375 471.394531 288.546875 469.738281 290.890625 C 466.789062 295.074219 468.003906 301.105469 472.414062 303.730469 C 474.214844 304.796875 476.347656 304.894531 478.378906 304.992188 C 488.855469 305.042969 499.382812 304.992188 509.84375 304.992188 L 570.980469 304.992188 C 570.980469 304.992188 645.054688 304.992188 645.054688 304.992188 C 658.285156 304.992188 672.253906 305.222656 685.421875 304.910156 C 688.453125 303.859375 690.242188 302.796875 691.816406 299.84375 C 693.914062 295.925781 691.699219 290.15625 687.78125 288.285156 Z M 687.816406 288.285156 " fill-opacity="1" fill-rule="nonzero"/><g clip-path="url(#70f09df8d5)"><path fill="#c9b583" d="M 117.4375 551.085938 C 117.273438 541.25 117.175781 531.410156 117.125 521.574219 C 117.09375 517.820312 117.140625 503.882812 116.339844 500.835938 C 115.78125 498.703125 114.320312 496.933594 112.355469 495.949219 C 110.714844 495.160156 109.15625 495.128906 107.371094 495.03125 C 103.863281 495.589844 102.304688 496.441406 99.960938 499.277344 C 98.714844 504.472656 99.453125 517.820312 99.5 524 C 99.5 543.972656 99.78125 563.941406 100.269531 583.910156 L 101.15625 657.589844 C 101.289062 664.738281 101.1875 671.921875 101.402344 679.085938 C 101.632812 687.21875 101.992188 691.644531 111.320312 692.628906 C 116.355469 691.675781 118.878906 688.9375 118.847656 683.773438 C 118.765625 669.59375 118.453125 655.425781 118.324219 641.246094 Z M 117.4375 551.085938 " fill-opacity="1" fill-rule="nonzero"/></g></svg>