<svg xmlns="http://www.w3.org/2000/svg" xmlns:xlink="http://www.w3.org/1999/xlink" width="1080" zoomAndPan="magnify" viewBox="0 0 810 817.92" height="1080" preserveAspectRatio="xMidYMid meet" version="1.0"><defs><clipPath id="0f924f8670"><path d="M 98.847656 48.101562 L 710.785156 48.101562 L 710.785156 762 L 98.847656 762 Z M 98.847656 48.101562 " clip-rule="nonzero"/></clipPath></defs><g clip-path="url(#0f924f8670)"><path fill="#c9b583" d="M 405.773438 48.207031 C 403.664062 48.125 401.613281 48.441406 399.628906 49.160156 L 172.589844 130.242188 C 171.851562 130.507812 171.132812 130.820312 170.441406 131.1875 C 169.746094 131.554688 169.085938 131.96875 168.453125 132.433594 C 167.820312 132.894531 167.222656 133.402344 166.664062 133.953125 C 166.101562 134.5 165.585938 135.089844 165.113281 135.710938 C 164.636719 136.335938 164.210938 136.992188 163.832031 137.679688 C 163.453125 138.367188 163.125 139.074219 162.847656 139.808594 C 162.570312 140.542969 162.347656 141.292969 162.179688 142.058594 C 162.015625 142.828125 161.902344 143.601562 161.847656 144.382812 C 161.792969 145.164062 161.792969 145.949219 161.851562 146.730469 C 161.910156 147.511719 162.023438 148.285156 162.195312 149.050781 C 162.367188 149.816406 162.589844 150.566406 162.871094 151.300781 C 163.148438 152.03125 163.480469 152.742188 163.863281 153.425781 C 164.246094 154.109375 164.675781 154.765625 165.152344 155.386719 C 165.628906 156.011719 166.148438 156.59375 166.710938 157.140625 C 167.269531 157.691406 167.871094 158.195312 168.503906 158.652344 C 169.140625 159.113281 169.804688 159.527344 170.5 159.890625 L 259.121094 206.292969 L 259.121094 275.246094 C 259.121094 363.632812 323.539062 437.417969 405.074219 437.417969 C 486.613281 437.417969 551.027344 363.632812 551.027344 275.246094 L 551.027344 263.71875 C 551.871094 260.761719 551.871094 257.804688 551.027344 254.847656 L 551.027344 207.90625 L 573.136719 200.019531 C 573.636719 199.84375 574.128906 199.640625 574.609375 199.414062 C 575.089844 199.1875 575.558594 198.9375 576.015625 198.664062 C 576.472656 198.394531 576.914062 198.097656 577.34375 197.785156 C 577.769531 197.46875 578.179688 197.132812 578.574219 196.773438 C 578.96875 196.417969 579.347656 196.042969 579.703125 195.648438 C 580.0625 195.257812 580.398438 194.847656 580.714844 194.421875 C 581.03125 193.996094 581.328125 193.554688 581.601562 193.097656 C 581.875 192.640625 582.128906 192.175781 582.355469 191.695312 C 582.582031 191.214844 582.789062 190.722656 582.96875 190.222656 C 583.148438 189.722656 583.300781 189.214844 583.433594 188.699219 C 583.5625 188.183594 583.664062 187.664062 583.746094 187.136719 C 583.824219 186.613281 583.875 186.082031 583.902344 185.554688 C 583.929688 185.023438 583.929688 184.492188 583.90625 183.960938 C 583.878906 183.429688 583.828125 182.902344 583.75 182.375 C 583.671875 181.847656 583.570312 181.328125 583.441406 180.8125 C 583.3125 180.296875 583.160156 179.789062 582.980469 179.289062 C 582.804688 178.785156 582.601562 178.296875 582.375 177.816406 C 582.148438 177.335938 581.898438 176.867188 581.625 176.410156 C 581.351562 175.953125 581.058594 175.511719 580.742188 175.085938 C 580.425781 174.65625 580.089844 174.246094 579.730469 173.851562 C 579.375 173.457031 579 173.082031 578.605469 172.722656 C 578.214844 172.367188 577.804688 172.03125 577.375 171.710938 C 576.949219 171.394531 576.507812 171.101562 576.054688 170.828125 C 575.597656 170.554688 575.128906 170.300781 574.648438 170.074219 C 574.167969 169.847656 573.679688 169.644531 573.175781 169.464844 C 572.675781 169.285156 572.167969 169.128906 571.652344 169 C 571.136719 168.871094 570.617188 168.765625 570.09375 168.6875 C 569.566406 168.609375 569.039062 168.558594 568.507812 168.53125 C 567.976562 168.503906 567.445312 168.503906 566.914062 168.53125 C 566.382812 168.554688 565.855469 168.605469 565.328125 168.683594 C 564.804688 168.761719 564.28125 168.867188 563.765625 168.996094 C 563.25 169.125 562.742188 169.277344 562.242188 169.457031 L 529.363281 181.207031 C 528.582031 181.484375 527.824219 181.824219 527.09375 182.21875 C 526.363281 182.613281 525.667969 183.0625 525.003906 183.566406 C 524.34375 184.070312 523.722656 184.621094 523.144531 185.21875 C 522.566406 185.816406 522.039062 186.453125 521.5625 187.132812 C 521.082031 187.8125 520.65625 188.523438 520.289062 189.269531 C 519.917969 190.015625 519.605469 190.78125 519.355469 191.574219 C 519.105469 192.367188 518.914062 193.171875 518.785156 193.996094 C 518.660156 194.816406 518.59375 195.644531 518.59375 196.472656 L 518.59375 238.15625 C 496.941406 233.109375 459.910156 226.597656 405.074219 226.597656 C 379.65625 226.597656 357.726562 227.992188 339.382812 229.984375 C 338.851562 230.035156 338.324219 230.113281 337.796875 230.21875 C 337.273438 230.324219 336.753906 230.453125 336.242188 230.609375 C 335.730469 230.765625 335.226562 230.945312 334.734375 231.148438 C 334.238281 231.355469 333.757812 231.585938 333.285156 231.835938 C 332.8125 232.089844 332.355469 232.367188 331.910156 232.664062 C 331.46875 232.960938 331.039062 233.28125 330.625 233.621094 C 330.214844 233.964844 329.820312 234.324219 329.441406 234.703125 C 329.066406 235.082031 328.707031 235.480469 328.371094 235.898438 C 328.035156 236.3125 327.71875 236.742188 327.421875 237.1875 C 327.128906 237.636719 326.855469 238.09375 326.605469 238.570312 C 326.355469 239.042969 326.132812 239.527344 325.929688 240.023438 C 325.726562 240.519531 325.550781 241.023438 325.402344 241.535156 C 325.25 242.050781 325.125 242.570312 325.023438 243.09375 C 324.921875 243.621094 324.847656 244.148438 324.800781 244.683594 C 324.753906 245.214844 324.734375 245.75 324.738281 246.285156 C 324.742188 246.820312 324.773438 247.351562 324.832031 247.886719 C 324.890625 248.417969 324.976562 248.945312 325.085938 249.46875 C 325.195312 249.992188 325.332031 250.507812 325.492188 251.019531 C 325.652344 251.53125 325.839844 252.03125 326.050781 252.523438 C 326.261719 253.015625 326.496094 253.492188 326.753906 253.960938 C 327.015625 254.429688 327.292969 254.886719 327.597656 255.328125 C 327.902344 255.765625 328.226562 256.191406 328.570312 256.601562 C 328.917969 257.007812 329.28125 257.398438 329.667969 257.773438 C 330.050781 258.144531 330.453125 258.496094 330.871094 258.828125 C 331.289062 259.164062 331.726562 259.472656 332.175781 259.761719 C 332.625 260.054688 333.085938 260.320312 333.5625 260.5625 C 334.039062 260.808594 334.527344 261.027344 335.027344 261.222656 C 335.523438 261.417969 336.03125 261.589844 336.546875 261.734375 C 337.058594 261.878906 337.582031 262 338.109375 262.09375 C 338.632812 262.1875 339.164062 262.253906 339.699219 262.296875 C 340.230469 262.339844 340.765625 262.351562 341.300781 262.34375 C 341.835938 262.332031 342.367188 262.292969 342.898438 262.230469 C 360.105469 260.359375 380.839844 259.03125 405.074219 259.03125 C 465.15625 259.03125 502.050781 266.769531 518.59375 271.191406 L 518.59375 275.246094 C 518.59375 348.058594 466.898438 404.984375 405.074219 404.984375 C 343.253906 404.984375 291.558594 348.058594 291.558594 275.246094 L 291.558594 196.472656 C 291.554688 194.996094 291.355469 193.546875 290.957031 192.121094 C 290.5625 190.699219 289.980469 189.355469 289.214844 188.089844 C 288.449219 186.828125 287.53125 185.6875 286.453125 184.675781 C 285.378906 183.664062 284.1875 182.8125 282.878906 182.125 L 218.390625 148.328125 L 405.074219 81.65625 L 615.898438 156.945312 L 615.898438 307.679688 C 615.890625 308.21875 615.910156 308.75 615.953125 309.285156 C 616 309.820312 616.070312 310.351562 616.167969 310.878906 C 616.265625 311.40625 616.390625 311.925781 616.539062 312.441406 C 616.691406 312.953125 616.867188 313.460938 617.066406 313.957031 C 617.265625 314.457031 617.488281 314.941406 617.738281 315.417969 C 617.984375 315.890625 618.257812 316.355469 618.550781 316.800781 C 618.84375 317.25 619.160156 317.683594 619.496094 318.101562 C 619.832031 318.515625 620.1875 318.917969 620.566406 319.296875 C 620.941406 319.679688 621.335938 320.042969 621.746094 320.382812 C 622.160156 320.726562 622.589844 321.046875 623.03125 321.347656 C 623.476562 321.648438 623.933594 321.925781 624.40625 322.179688 C 624.878906 322.4375 625.359375 322.667969 625.855469 322.875 C 626.347656 323.082031 626.851562 323.261719 627.363281 323.417969 C 627.878906 323.574219 628.398438 323.707031 628.921875 323.8125 C 629.449219 323.917969 629.976562 323.996094 630.511719 324.050781 C 631.042969 324.105469 631.578125 324.128906 632.113281 324.128906 C 632.652344 324.128906 633.183594 324.105469 633.71875 324.050781 C 634.25 323.996094 634.78125 323.917969 635.308594 323.8125 C 635.832031 323.707031 636.351562 323.574219 636.863281 323.417969 C 637.375 323.261719 637.878906 323.082031 638.375 322.875 C 638.867188 322.667969 639.351562 322.4375 639.824219 322.179688 C 640.296875 321.925781 640.753906 321.648438 641.195312 321.347656 C 641.640625 321.046875 642.070312 320.726562 642.480469 320.382812 C 642.894531 320.042969 643.289062 319.679688 643.664062 319.296875 C 644.039062 318.917969 644.398438 318.515625 644.734375 318.101562 C 645.070312 317.683594 645.386719 317.25 645.679688 316.800781 C 645.972656 316.355469 646.242188 315.890625 646.492188 315.417969 C 646.738281 314.941406 646.964844 314.457031 647.164062 313.957031 C 647.363281 313.460938 647.539062 312.953125 647.6875 312.441406 C 647.835938 311.925781 647.960938 311.40625 648.058594 310.878906 C 648.15625 310.351562 648.230469 309.820312 648.273438 309.285156 C 648.320312 308.75 648.339844 308.21875 648.332031 307.679688 L 648.332031 149.753906 C 648.527344 149 648.664062 148.234375 648.75 147.457031 C 648.832031 146.679688 648.859375 145.902344 648.832031 145.125 C 648.804688 144.34375 648.71875 143.570312 648.578125 142.800781 C 648.441406 142.035156 648.246094 141.28125 647.996094 140.542969 C 647.746094 139.800781 647.445312 139.082031 647.09375 138.386719 C 646.742188 137.691406 646.339844 137.023438 645.890625 136.386719 C 645.441406 135.746094 644.949219 135.144531 644.414062 134.578125 C 643.878906 134.007812 643.304688 133.484375 642.695312 133 C 642.464844 132.8125 642.234375 132.632812 641.996094 132.460938 C 639.945312 130.875 637.640625 129.839844 635.089844 129.355469 C 635.082031 129.355469 635.070312 129.355469 635.058594 129.355469 L 410.523438 49.160156 C 408.988281 48.601562 407.40625 48.285156 405.773438 48.207031 Z M 405.074219 469.851562 C 385.371094 469.851562 334.046875 469.953125 276.101562 495.0625 C 218.152344 520.171875 153.269531 570.710938 105.378906 668.351562 C 84.523438 710.851562 116.460938 761.757812 163.753906 761.757812 L 646.398438 761.757812 C 693.699219 761.757812 725.597656 710.851562 704.742188 668.351562 C 656.742188 570.480469 591.710938 519.917969 533.703125 494.875 C 475.695312 469.828125 424.375 469.851562 405.074219 469.851562 Z M 405.074219 502.285156 C 424.371094 502.285156 469.167969 502.332031 520.84375 524.648438 C 572.519531 546.960938 630.746094 591.109375 675.632812 682.636719 C 686.433594 704.648438 670.941406 729.324219 646.398438 729.324219 L 163.753906 729.324219 C 139.203125 729.324219 123.71875 704.644531 134.515625 682.636719 C 179.304688 591.332031 237.363281 547.175781 288.992188 524.804688 C 340.617188 502.433594 385.503906 502.285156 405.074219 502.285156 Z M 405.074219 502.285156 " fill-opacity="1" fill-rule="nonzero"/></g></svg>