<svg width="190" height="190" viewBox="0 0 190 190" fill="none" xmlns="http://www.w3.org/2000/svg">
<mask id="mask0_5_85" style="mask-type:luminance" maskUnits="userSpaceOnUse" x="68" y="14" width="112" height="112">
<path d="M68.4938 14.2124H179.647V125.259H68.4938V14.2124Z" fill="white"/>
</mask>
<g mask="url(#mask0_5_85)">
<path d="M177.123 51.7368C176.819 50.1965 175.883 48.8313 174.556 47.992C173.233 47.1526 171.599 46.8906 170.079 47.2736C168.227 47.74 166.21 48.2375 164.067 48.7589C162.292 45.3631 160.095 42.2194 157.508 39.3762L160.779 34.1809C162.451 31.5273 161.719 28.0793 159.114 26.3347L148.964 19.5359C147.658 18.6618 146.031 18.3585 144.5 18.7003C142.97 19.0421 141.63 20.0133 140.825 21.3603C139.84 23.0077 138.766 24.7871 137.619 26.6701C133.954 25.5165 130.174 24.843 126.35 24.6598L124.992 18.6829C124.298 15.6252 121.344 13.7047 118.266 14.3131L106.282 16.6826C104.741 16.9868 103.377 17.9233 102.537 19.2491C101.697 20.5723 101.435 22.2069 101.818 23.727C102.288 25.599 102.786 27.613 103.301 29.7241C99.8453 31.5236 96.6502 33.7621 93.7694 36.4019C91.6858 35.044 89.9339 33.9005 88.5906 33.0236C87.3023 32.1806 85.7648 31.8902 84.2584 32.2081C82.752 32.5261 81.4601 33.4103 80.6208 34.7022L73.7661 45.2495C72.9204 46.5516 72.6372 48.1028 72.9717 49.6193C73.307 51.1357 74.2123 52.4249 75.5253 53.2532L81.0075 56.7085C79.9327 60.2701 79.3114 63.9352 79.1456 67.6425C76.7275 68.1501 74.6924 68.579 73.1274 68.907C71.6211 69.2213 70.3291 70.1055 69.4861 71.3938C68.6468 72.683 68.36 74.2232 68.678 75.7296L71.2894 88.0353C71.611 89.5517 72.5089 90.851 73.8183 91.6866C75.124 92.5223 76.6789 92.7926 78.1917 92.4499L84.4866 91.0196C86.2486 94.298 88.4037 97.3318 90.9189 100.078C89.5747 102.14 88.4385 103.878 87.568 105.212C86.725 106.5 86.4346 108.038 86.7525 109.544C87.0705 111.05 87.9547 112.342 89.2466 113.182L99.794 120.035C101.096 120.882 102.647 121.162 104.164 120.83C105.681 120.498 106.969 119.59 107.799 118.277L111.236 112.819C114.804 113.89 118.473 114.511 122.191 114.671C122.698 117.082 123.123 119.11 123.451 120.671C123.766 122.178 124.65 123.47 125.939 124.313C126.886 124.931 127.967 125.249 129.068 125.249C129.47 125.249 129.874 125.207 130.274 125.121L142.58 122.509C144.096 122.188 145.395 121.29 146.231 119.984C147.068 118.675 147.341 117.124 146.995 115.61L145.561 109.302C148.777 107.568 151.763 105.45 154.468 102.983L159.618 106.227C162.271 107.899 165.719 107.167 167.464 104.562L174.263 94.4126C175.136 93.1069 175.44 91.4796 175.095 89.9494C174.753 88.4183 173.782 87.0778 172.435 86.2733C170.794 85.2919 169.022 84.2208 167.149 83.0846C168.3 79.4121 168.969 75.6297 169.149 71.7951L175.112 70.4408C178.17 69.7463 180.09 66.7922 179.482 63.7144L177.123 51.7368ZM174.203 66.4055L166.676 68.1153C165.74 68.3297 165.073 69.1553 165.062 70.1156C165.018 74.6136 164.227 79.053 162.717 83.3091C162.389 84.2318 162.755 85.2608 163.591 85.772C165.995 87.2409 168.261 88.6089 170.317 89.8385C170.698 90.0667 170.963 90.4295 171.06 90.8647C171.157 91.3 171.074 91.7416 170.825 92.1118L164.026 102.261C163.539 102.99 162.576 103.194 161.833 102.728L155.321 98.6275C154.509 98.1162 153.451 98.2298 152.764 98.8996C149.675 101.93 146.145 104.434 142.273 106.342C141.412 106.766 140.956 107.723 141.167 108.66L142.953 116.533C143.05 116.954 142.974 117.389 142.739 117.756C142.504 118.121 142.144 118.371 141.719 118.46L129.414 121.072C128.989 121.162 128.561 121.083 128.201 120.847C127.842 120.613 127.597 120.254 127.507 119.832C127.11 117.935 126.568 115.344 125.908 112.218C125.707 111.264 124.868 110.577 123.89 110.573C119.502 110.549 115.167 109.817 111.005 108.401C110.783 108.324 110.558 108.29 110.338 108.29C109.639 108.29 108.97 108.642 108.583 109.257L104.288 116.076C104.056 116.443 103.697 116.695 103.273 116.788C102.852 116.882 102.416 116.802 102.054 116.567L91.5062 109.713C91.147 109.478 90.8978 109.119 90.808 108.697C90.7182 108.276 90.8016 107.848 91.0361 107.488C92.0972 105.864 93.544 103.651 95.2859 100.976C95.8173 100.158 95.7073 99.0829 95.0229 98.3883C91.9341 95.262 89.3887 91.6802 87.4507 87.7384C87.0292 86.8743 86.0681 86.4153 85.1325 86.6288L77.2727 88.4155C76.8512 88.5117 76.416 88.4357 76.0504 88.2011C75.6839 87.9656 75.4355 87.6037 75.3448 87.1822L72.7334 74.8766C72.6436 74.4551 72.7234 74.0235 72.9579 73.6634C73.1934 73.3042 73.5526 73.0559 73.9741 72.9698C75.8735 72.5721 78.4684 72.026 81.6012 71.3663C82.555 71.1656 83.2395 70.3263 83.2459 69.3523C83.2771 64.9688 84.0129 60.6394 85.4294 56.484C85.74 55.5751 85.3845 54.5736 84.5727 54.0587L77.729 49.7476C77.3625 49.5157 77.1105 49.1566 77.017 48.7314C76.9245 48.3062 77.0033 47.8747 77.2388 47.5118L84.0926 36.9645C84.3271 36.6026 84.6863 36.357 85.1078 36.2672C85.5293 36.1774 85.9581 36.2599 86.3173 36.4954C87.9483 37.5628 90.1794 39.017 92.8705 40.7717C93.686 41.304 94.7636 41.1968 95.4581 40.5133C98.7192 37.2962 102.464 34.6784 106.585 32.7231C107.473 32.3016 107.943 31.3166 107.712 30.3627C107.055 27.6478 106.423 25.0776 105.83 22.7218C105.722 22.2894 105.791 21.8477 106.029 21.4711C106.267 21.0945 106.641 20.8389 107.077 20.7518L119.061 18.3823C119.921 18.2128 120.747 18.7489 120.94 19.6019L122.653 27.1438C122.868 28.0793 123.693 28.7464 124.65 28.7565C129.142 28.8087 133.574 29.6031 137.822 31.1159C138.745 31.4448 139.775 31.082 140.286 30.2418C141.761 27.8237 143.136 25.5504 144.369 23.4888C144.597 23.1085 144.96 22.8428 145.395 22.7457C145.831 22.6485 146.273 22.7319 146.642 22.9802L156.792 29.779C157.521 30.2665 157.725 31.2304 157.259 31.9699L153.131 38.5231C152.619 39.3349 152.729 40.3923 153.403 41.0795C156.558 44.303 159.134 47.992 161.066 52.0511C161.487 52.9362 162.471 53.4053 163.425 53.1744C166.182 52.5074 168.756 51.8715 171.077 51.2878C171.509 51.1806 171.951 51.2503 172.328 51.4885C172.704 51.7267 172.956 52.0996 173.046 52.5349L175.416 64.5189C175.596 65.3866 175.06 66.2122 174.203 66.4055Z" fill="#C9B583"/>
</g>
<path d="M137.84 47.2113C131.843 43.5562 124.778 42.4549 117.955 44.1124C111.128 45.7672 105.356 49.9858 101.701 55.9828C98.0458 61.9799 96.9435 69.0417 98.602 75.868C100.257 82.6943 104.475 88.4668 110.472 92.1219C114.649 94.6682 119.34 95.9739 124.108 95.9739C126.188 95.9739 128.285 95.7256 130.357 95.2207C144.449 91.8003 153.131 77.5576 149.71 63.4652C148.052 56.6389 143.837 50.8663 137.84 47.2113ZM129.38 91.1928C123.631 92.5883 117.683 91.6628 112.628 88.5814C107.577 85.5027 104.026 80.639 102.63 74.8903C101.234 69.1415 102.161 63.193 105.242 58.1388C108.32 53.0874 113.185 49.5368 118.932 48.1404C120.681 47.7161 122.443 47.5081 124.197 47.5081C128.215 47.5081 132.167 48.6104 135.685 50.7527C140.735 53.8305 144.287 58.695 145.682 64.4429C148.559 76.3133 141.25 88.3111 129.38 91.1928Z" fill="#C9B583"/>
<mask id="mask1_5_85" style="mask-type:luminance" maskUnits="userSpaceOnUse" x="10" y="91" width="85" height="85">
<path d="M10.4062 91.9507H94.2963V175.713H10.4062V91.9507Z" fill="white"/>
</mask>
<g mask="url(#mask1_5_85)">
<path d="M92.3254 120.381C92.0697 119.093 91.2882 117.949 90.1795 117.248C89.0708 116.546 87.7064 116.325 86.431 116.646C85.1637 116.964 83.7985 117.303 82.3581 117.655C81.1147 115.344 79.6083 113.192 77.8601 111.223L80.0848 107.696C81.484 105.474 80.8728 102.59 78.6893 101.132L71.1309 96.0674C70.0387 95.3353 68.678 95.0797 67.3961 95.3692C66.1143 95.656 64.9955 96.4678 64.3211 97.5939C63.655 98.71 62.9256 99.9158 62.1523 101.194C59.6334 100.433 57.0458 99.9744 54.4243 99.8159L53.5017 95.7531C52.9207 93.193 50.4477 91.5905 47.8739 92.0981L38.9474 93.8628C37.6582 94.1185 36.5147 94.8992 35.8138 96.0088C35.1128 97.1175 34.8911 98.4818 35.2127 99.7573C35.5306 101.018 35.8651 102.379 36.2178 103.819C33.8648 105.084 31.6749 106.617 29.6784 108.401C28.2755 107.488 27.0908 106.711 26.1644 106.106C25.0869 105.402 23.7986 105.16 22.5378 105.426C21.277 105.692 20.1948 106.435 19.4939 107.513L14.3948 115.365C13.6865 116.453 13.4519 117.752 13.7277 119.02C14.0081 120.287 14.764 121.369 15.8627 122.06L19.6075 124.42C18.9029 126.858 18.4786 129.363 18.3366 131.896C16.7093 132.238 15.3312 132.528 14.2528 132.753C12.992 133.015 11.9107 133.754 11.2098 134.835C10.5052 135.913 10.2669 137.202 10.5327 138.463L12.4779 147.625C12.7473 148.896 13.4968 149.98 14.5918 150.679C15.6867 151.376 16.986 151.604 18.2505 151.317L22.5479 150.343C23.7775 152.568 25.249 154.641 26.946 156.534C26.0407 157.923 25.2738 159.097 24.6727 160.016C23.9681 161.094 23.7262 162.383 23.9919 163.644C24.2576 164.905 25.0007 165.986 26.0783 166.687L33.9345 171.79C35.023 172.498 36.3214 172.733 37.5895 172.457C38.8577 172.176 39.9389 171.421 40.6297 170.322L42.9754 166.594C45.421 167.295 47.9288 167.721 50.4651 167.862C50.8069 169.482 51.0937 170.857 51.3182 171.932C51.5811 173.193 52.3197 174.274 53.4018 174.975C54.1925 175.49 55.0978 175.759 56.0196 175.759C56.355 175.759 56.694 175.724 57.0284 175.652L66.1903 173.708C67.4621 173.437 68.547 172.688 69.2443 171.593C69.9452 170.498 70.1706 169.199 69.8838 167.934L68.9062 163.627C71.086 162.417 73.1238 160.969 74.9894 159.312L78.4859 161.516C80.7069 162.915 83.5877 162.304 85.0492 160.12L90.1144 152.562C90.8465 151.469 91.0985 150.109 90.8117 148.827C90.5249 147.545 89.7131 146.425 88.587 145.752C87.4709 145.086 86.2724 144.36 85.0043 143.593C85.7612 141.068 86.2202 138.477 86.376 135.851L90.425 134.932C92.9851 134.351 94.5914 131.878 94.0801 129.305L92.3254 120.381ZM89.5161 130.89L83.9093 132.162C82.9729 132.376 82.3068 133.202 82.2958 134.162C82.2619 137.45 81.6846 140.698 80.5787 143.814C80.2506 144.737 80.6172 145.766 81.4528 146.277C83.2496 147.373 84.9356 148.392 86.4658 149.311C86.6802 149.438 86.7489 149.631 86.7736 149.735C86.7975 149.839 86.8149 150.046 86.6765 150.254L81.6122 157.812C81.4079 158.116 81.0075 158.2 80.6996 158.006L75.8534 154.952C75.0416 154.441 73.9805 154.555 73.297 155.224C71.0374 157.443 68.4535 159.273 65.6204 160.669C64.76 161.094 64.3046 162.052 64.5154 162.987L65.8449 168.85C65.8998 169.089 65.8137 169.272 65.7551 169.358C65.7001 169.444 65.5691 169.6 65.3299 169.651L56.1689 171.596C55.9298 171.645 55.7502 171.558 55.6641 171.503C55.5569 171.434 55.4222 171.306 55.3773 171.081C55.0804 169.669 54.6763 167.738 54.1852 165.412C53.9855 164.459 53.1461 163.771 52.1685 163.768C48.9587 163.751 45.7875 163.215 42.7399 162.179C42.5191 162.103 42.2946 162.068 42.0738 162.068C41.3756 162.068 40.7058 162.421 40.3182 163.036L37.1195 168.114C36.9884 168.318 36.7979 168.387 36.698 168.411C36.5944 168.435 36.3938 168.453 36.1904 168.318L28.3415 163.212C28.1372 163.081 28.0721 162.891 28.051 162.79C28.03 162.69 28.0135 162.49 28.1445 162.29C28.9352 161.08 30.0137 159.433 31.3084 157.439C31.8408 156.623 31.7299 155.546 31.0464 154.851C28.7868 152.564 26.9213 149.943 25.5047 147.061C25.0832 146.198 24.1193 145.742 23.1865 145.952L17.3351 147.283C17.0996 147.334 16.9164 147.252 16.8266 147.192C16.7405 147.137 16.5847 147.006 16.5334 146.768L14.5881 137.606C14.5396 137.372 14.6266 137.188 14.6816 137.101C14.7366 137.015 14.8685 136.863 15.1031 136.815C16.5196 136.518 18.4502 136.113 20.7822 135.62C21.736 135.419 22.4196 134.58 22.4269 133.606C22.448 130.396 22.9867 127.232 24.0267 124.192C24.3373 123.283 23.9818 122.281 23.17 121.766L18.0737 118.557C17.8666 118.426 17.8015 118.24 17.7768 118.136C17.7566 118.035 17.7355 117.832 17.8702 117.628L22.973 109.772C23.104 109.568 23.2937 109.503 23.3945 109.482C23.4944 109.461 23.695 109.443 23.8948 109.575C25.1116 110.37 26.7692 111.455 28.7767 112.76C29.5922 113.293 30.6698 113.185 31.3643 112.501C33.7476 110.149 36.4872 108.231 39.5064 106.801C40.3943 106.379 40.8643 105.395 40.6325 104.441C40.1359 102.393 39.6658 100.476 39.2306 98.7485C39.1683 98.5066 39.2544 98.3196 39.313 98.2298C39.3717 98.14 39.5036 97.9815 39.7483 97.933L48.6756 96.1673C49.0348 96.0986 49.3766 96.3194 49.4563 96.6749L50.7308 102.293C50.9452 103.229 51.7708 103.895 52.7274 103.906C56.0132 103.944 59.2568 104.525 62.3658 105.633C63.2921 105.961 64.3183 105.599 64.8296 104.759C65.9383 102.946 66.9609 101.253 67.8726 99.7261C68.0009 99.5117 68.1942 99.4421 68.2978 99.4183C68.4013 99.3944 68.6084 99.377 68.8164 99.5154L76.3748 104.58C76.679 104.783 76.7614 105.181 76.5681 105.491L73.494 110.37C72.9827 111.181 73.0963 112.239 73.7661 112.926C76.0742 115.282 77.9609 117.984 79.3738 120.955C79.7952 121.839 80.7793 122.309 81.7332 122.077C83.7783 121.583 85.6952 121.11 87.437 120.671C87.678 120.613 87.8649 120.695 87.9547 120.754C88.0445 120.813 88.204 120.944 88.2516 121.189L90.0173 130.116C90.097 130.466 89.8725 130.811 89.5161 130.89Z" fill="#C9B583"/>
</g>
<path d="M47.6219 114.29C36.8464 116.906 30.2071 127.802 32.8221 138.576C35.0533 147.766 43.3035 153.946 52.3646 153.946C53.9296 153.946 55.5193 153.764 57.1082 153.376C67.8836 150.761 74.523 139.866 71.9079 129.09C69.2929 118.316 58.4001 111.675 47.6219 114.29ZM56.1305 149.352C47.577 151.428 38.9264 146.156 36.8501 137.602C34.7738 129.049 40.0461 120.398 48.5996 118.322C57.1531 116.246 65.8037 121.518 67.88 130.072C69.9562 138.625 64.684 147.276 56.1305 149.352Z" fill="#C9B583"/>
</svg>
