<svg xmlns="http://www.w3.org/2000/svg" xmlns:xlink="http://www.w3.org/1999/xlink" width="1080" zoomAndPan="magnify" viewBox="0 0 810 817.92" height="1080" preserveAspectRatio="xMidYMid meet" version="1.0"><defs><clipPath id="07ae26f732"><path d="M 285 80.992188 L 744.097656 80.992188 L 744.097656 540 L 285 540 Z M 285 80.992188 " clip-rule="nonzero"/></clipPath><clipPath id="9c4e50b7ba"><path d="M 45.167969 402 L 392 402 L 392 748.425781 L 45.167969 748.425781 Z M 45.167969 402 " clip-rule="nonzero"/></clipPath></defs><g clip-path="url(#07ae26f732)"><path fill="#8e2a25" d="M 734.019531 236.039062 C 732.765625 229.671875 728.894531 224.03125 723.414062 220.5625 C 717.949219 217.09375 711.195312 216.011719 704.914062 217.59375 C 697.265625 219.523438 688.929688 221.578125 680.078125 223.734375 C 672.742188 209.703125 663.664062 196.710938 652.972656 184.964844 L 666.488281 163.496094 C 673.398438 152.535156 670.371094 138.289062 659.609375 131.078125 L 617.671875 102.988281 C 612.277344 99.378906 605.554688 98.121094 599.230469 99.535156 C 592.90625 100.949219 587.367188 104.957031 584.042969 110.523438 C 579.972656 117.332031 575.535156 124.683594 570.796875 132.464844 C 555.652344 127.695312 540.035156 124.914062 524.234375 124.15625 L 518.625 99.460938 C 515.753906 86.832031 503.550781 78.894531 490.832031 81.40625 L 441.316406 91.199219 C 434.949219 92.453125 429.3125 96.324219 425.84375 101.804688 C 422.375 107.269531 421.289062 114.023438 422.875 120.304688 C 424.816406 128.039062 426.871094 136.359375 428.996094 145.082031 C 414.722656 152.519531 401.519531 161.769531 389.613281 172.675781 C 381.007812 167.066406 373.769531 162.339844 368.21875 158.714844 C 362.894531 155.230469 356.542969 154.03125 350.320312 155.347656 C 344.09375 156.660156 338.757812 160.3125 335.289062 165.652344 L 306.96875 209.230469 C 303.472656 214.613281 302.300781 221.019531 303.683594 227.289062 C 305.070312 233.554688 308.808594 238.878906 314.234375 242.304688 L 336.886719 256.578125 C 332.449219 271.292969 329.878906 286.4375 329.191406 301.753906 C 319.199219 303.851562 310.792969 305.625 304.328125 306.980469 C 298.105469 308.277344 292.765625 311.933594 289.28125 317.257812 C 285.8125 322.582031 284.628906 328.945312 285.941406 335.171875 L 296.734375 386.015625 C 298.0625 392.28125 301.773438 397.648438 307.183594 401.101562 C 312.578125 404.558594 319 405.671875 325.253906 404.257812 L 351.261719 398.347656 C 358.539062 411.894531 367.449219 424.425781 377.839844 435.773438 C 372.285156 444.296875 367.589844 451.476562 363.992188 456.984375 C 360.511719 462.308594 359.3125 468.660156 360.625 474.886719 C 361.9375 481.109375 365.589844 486.449219 370.929688 489.914062 L 414.507812 518.234375 C 419.890625 521.734375 426.300781 522.890625 432.566406 521.519531 C 438.832031 520.148438 444.15625 516.394531 447.582031 510.96875 L 461.785156 488.417969 C 476.53125 492.84375 491.6875 495.410156 507.046875 496.066406 C 509.144531 506.03125 510.902344 514.410156 512.257812 520.863281 C 513.558594 527.085938 517.210938 532.425781 522.535156 535.90625 C 526.445312 538.460938 530.914062 539.773438 535.46875 539.773438 C 537.125 539.773438 538.792969 539.605469 540.449219 539.246094 L 591.292969 528.457031 C 597.558594 527.128906 602.925781 523.417969 606.382812 518.023438 C 609.835938 512.613281 610.964844 506.203125 609.535156 499.949219 L 603.613281 473.886719 C 616.902344 466.71875 629.234375 457.96875 640.410156 447.777344 L 661.691406 461.183594 C 672.65625 468.089844 686.902344 465.066406 694.109375 454.300781 L 722.199219 412.363281 C 725.8125 406.96875 727.070312 400.246094 725.640625 393.921875 C 724.226562 387.597656 720.21875 382.0625 714.648438 378.734375 C 707.871094 374.679688 700.546875 370.257812 692.8125 365.558594 C 697.5625 350.386719 700.332031 334.757812 701.074219 318.914062 L 725.710938 313.316406 C 738.34375 310.449219 746.28125 298.242188 743.769531 285.523438 Z M 721.957031 296.644531 L 690.855469 303.710938 C 686.988281 304.59375 684.230469 308.007812 684.1875 311.976562 C 684.003906 330.558594 680.734375 348.902344 674.496094 366.488281 C 673.140625 370.300781 674.652344 374.554688 678.109375 376.664062 C 688.042969 382.730469 697.40625 388.382812 705.898438 393.464844 C 707.46875 394.40625 708.570312 395.90625 708.96875 397.707031 C 709.367188 399.503906 709.027344 401.332031 708 402.859375 L 679.90625 444.796875 C 677.894531 447.808594 673.910156 448.648438 670.84375 446.722656 L 643.9375 429.777344 C 640.582031 427.667969 636.214844 428.136719 633.375 430.90625 C 620.613281 443.425781 606.023438 453.773438 590.023438 461.652344 C 586.46875 463.410156 584.585938 467.363281 585.457031 471.230469 L 592.835938 503.761719 C 593.234375 505.503906 592.921875 507.300781 591.949219 508.816406 C 590.980469 510.328125 589.496094 511.355469 587.738281 511.726562 L 536.894531 522.519531 C 535.140625 522.890625 533.371094 522.5625 531.882812 521.589844 C 530.398438 520.621094 529.386719 519.136719 529.015625 517.394531 C 527.375 509.558594 525.132812 498.851562 522.40625 485.933594 C 521.578125 481.992188 518.109375 479.152344 514.070312 479.140625 C 495.941406 479.039062 478.027344 476.011719 460.828125 470.160156 C 459.914062 469.847656 458.988281 469.703125 458.074219 469.703125 C 455.191406 469.703125 452.421875 471.160156 450.820312 473.699219 L 433.078125 501.878906 C 432.125 503.390625 430.636719 504.433594 428.882812 504.816406 C 427.140625 505.203125 425.34375 504.875 423.84375 503.90625 L 380.265625 475.585938 C 378.78125 474.613281 377.753906 473.128906 377.382812 471.386719 C 377.011719 469.648438 377.351562 467.875 378.324219 466.390625 C 382.707031 459.683594 388.6875 450.535156 395.882812 439.484375 C 398.078125 436.101562 397.621094 431.664062 394.796875 428.792969 C 382.035156 415.875 371.515625 401.074219 363.507812 384.789062 C 361.765625 381.21875 357.796875 379.320312 353.929688 380.207031 L 321.457031 387.585938 C 319.714844 387.984375 317.917969 387.671875 316.402344 386.699219 C 314.890625 385.730469 313.863281 384.230469 313.492188 382.488281 L 302.699219 331.644531 C 302.328125 329.902344 302.65625 328.121094 303.628906 326.632812 C 304.597656 325.148438 306.082031 324.121094 307.824219 323.765625 C 315.675781 322.125 326.394531 319.867188 339.339844 317.140625 C 343.28125 316.316406 346.109375 312.847656 346.136719 308.820312 C 346.265625 290.707031 349.304688 272.820312 355.15625 255.648438 C 356.441406 251.894531 354.972656 247.757812 351.617188 245.628906 L 323.339844 227.816406 C 321.828125 226.859375 320.785156 225.375 320.398438 223.617188 C 320.015625 221.863281 320.34375 220.078125 321.3125 218.578125 L 349.632812 175 C 350.605469 173.503906 352.089844 172.488281 353.828125 172.117188 C 355.570312 171.746094 357.339844 172.089844 358.824219 173.058594 C 365.5625 177.46875 374.785156 183.480469 385.902344 190.730469 C 389.273438 192.929688 393.726562 192.488281 396.59375 189.660156 C 410.070312 176.371094 425.542969 165.550781 442.570312 157.472656 C 446.238281 155.730469 448.179688 151.664062 447.226562 147.722656 C 444.511719 136.503906 441.902344 125.882812 439.445312 116.148438 C 439.003906 114.363281 439.289062 112.539062 440.273438 110.980469 C 441.257812 109.425781 442.800781 108.371094 444.597656 108.011719 L 494.117188 98.222656 C 497.667969 97.519531 501.082031 99.734375 501.878906 103.257812 L 508.960938 134.421875 C 509.84375 138.289062 513.257812 141.042969 517.210938 141.085938 C 535.765625 141.300781 554.082031 144.582031 571.636719 150.835938 C 575.449219 152.191406 579.703125 150.691406 581.816406 147.222656 C 587.910156 137.230469 593.589844 127.839844 598.6875 119.316406 C 599.628906 117.746094 601.128906 116.648438 602.925781 116.25 C 604.726562 115.847656 606.550781 116.191406 608.078125 117.21875 L 650.015625 145.3125 C 653.027344 147.324219 653.871094 151.304688 651.945312 154.359375 L 634.886719 181.4375 C 632.773438 184.792969 633.230469 189.160156 636.015625 192 C 649.046875 205.320312 659.695312 220.5625 667.675781 237.335938 C 669.414062 240.992188 673.484375 242.929688 677.421875 241.976562 C 688.8125 239.21875 699.449219 236.59375 709.039062 234.179688 C 710.824219 233.738281 712.652344 234.023438 714.207031 235.007812 C 715.761719 235.996094 716.804688 237.535156 717.175781 239.335938 L 726.96875 288.851562 C 727.710938 292.433594 725.5 295.84375 721.957031 296.644531 Z M 721.957031 296.644531 " fill-opacity="1" fill-rule="nonzero"/></g><path fill="#8e2a25" d="M 571.710938 217.339844 C 546.929688 202.234375 517.738281 197.683594 489.546875 204.535156 C 461.34375 211.371094 437.488281 228.800781 422.386719 253.578125 C 407.285156 278.359375 402.734375 307.535156 409.585938 335.742188 C 416.421875 363.945312 433.851562 387.800781 458.628906 402.902344 C 475.886719 413.421875 495.273438 418.816406 514.96875 418.816406 C 523.5625 418.816406 532.226562 417.789062 540.792969 415.703125 C 599.015625 401.574219 634.886719 342.722656 620.753906 284.496094 C 613.902344 256.292969 596.488281 232.441406 571.710938 217.339844 Z M 536.753906 399.0625 C 513 404.828125 488.421875 401.003906 467.539062 388.269531 C 446.667969 375.550781 431.996094 355.453125 426.226562 331.703125 C 420.460938 307.949219 424.285156 283.371094 437.019531 262.488281 C 449.738281 241.617188 469.835938 226.945312 493.585938 221.179688 C 500.808594 219.421875 508.089844 218.566406 515.339844 218.566406 C 531.941406 218.566406 548.269531 223.117188 562.800781 231.96875 C 583.671875 244.6875 598.34375 264.785156 604.113281 288.539062 C 616 337.582031 585.796875 387.15625 536.753906 399.0625 Z M 536.753906 399.0625 " fill-opacity="1" fill-rule="nonzero"/><g clip-path="url(#9c4e50b7ba)"><path fill="#8e2a25" d="M 383.648438 519.664062 C 382.59375 514.339844 379.367188 509.613281 374.785156 506.714844 C 370.203125 503.820312 364.5625 502.90625 359.296875 504.234375 C 354.058594 505.546875 348.421875 506.945312 342.46875 508.402344 C 337.328125 498.851562 331.105469 489.957031 323.882812 481.824219 L 333.074219 467.25 C 338.855469 458.070312 336.328125 446.152344 327.308594 440.128906 L 296.078125 419.203125 C 291.566406 416.175781 285.941406 415.121094 280.648438 416.320312 C 275.351562 417.503906 270.726562 420.859375 267.941406 425.511719 C 265.1875 430.121094 262.175781 435.101562 258.980469 440.386719 C 248.574219 437.246094 237.882812 435.347656 227.046875 434.691406 L 223.234375 417.902344 C 220.839844 407.324219 210.617188 400.703125 199.984375 402.800781 L 163.097656 410.09375 C 157.773438 411.152344 153.050781 414.378906 150.152344 418.960938 C 147.253906 423.542969 146.34375 429.179688 147.667969 434.445312 C 148.984375 439.65625 150.367188 445.28125 151.824219 451.234375 C 142.101562 456.457031 133.050781 462.796875 124.800781 470.160156 C 119.007812 466.390625 114.109375 463.179688 110.285156 460.683594 C 105.832031 457.769531 100.507812 456.773438 95.296875 457.871094 C 90.085938 458.96875 85.621094 462.039062 82.722656 466.492188 L 61.652344 498.9375 C 58.726562 503.433594 57.757812 508.800781 58.898438 514.039062 C 60.054688 519.277344 63.179688 523.746094 67.71875 526.601562 L 83.191406 536.347656 C 80.28125 546.425781 78.527344 556.777344 77.941406 567.238281 C 71.21875 568.652344 65.523438 569.851562 61.070312 570.777344 C 55.859375 571.863281 51.390625 574.917969 48.492188 579.386719 C 45.582031 583.839844 44.597656 589.164062 45.695312 594.375 L 53.730469 632.226562 C 54.84375 637.480469 57.941406 641.964844 62.46875 644.847656 C 66.992188 647.730469 72.359375 648.671875 77.582031 647.488281 L 95.339844 643.460938 C 100.421875 652.65625 106.503906 661.21875 113.511719 669.042969 C 109.773438 674.78125 106.601562 679.632812 104.117188 683.429688 C 101.207031 687.882812 100.207031 693.207031 101.308594 698.417969 C 102.40625 703.628906 105.476562 708.09375 109.929688 710.992188 L 142.386719 732.074219 C 146.882812 735 152.25 735.972656 157.488281 734.832031 C 162.726562 733.675781 167.195312 730.546875 170.050781 726.007812 L 179.742188 710.605469 C 189.847656 713.503906 200.210938 715.261719 210.6875 715.847656 C 212.101562 722.539062 213.289062 728.222656 214.214844 732.660156 C 215.300781 737.871094 218.355469 742.339844 222.824219 745.238281 C 226.089844 747.363281 229.832031 748.476562 233.640625 748.476562 C 235.027344 748.476562 236.425781 748.332031 237.808594 748.035156 L 275.664062 739.996094 C 280.917969 738.882812 285.398438 735.785156 288.285156 731.261719 C 291.179688 726.738281 292.109375 721.371094 290.925781 716.144531 L 286.882812 698.347656 C 295.890625 693.351562 304.3125 687.371094 312.019531 680.519531 L 326.464844 689.625 C 335.644531 695.40625 347.550781 692.878906 353.585938 683.859375 L 374.511719 652.625 C 377.539062 648.117188 378.582031 642.492188 377.394531 637.195312 C 376.210938 631.898438 372.855469 627.273438 368.203125 624.492188 C 363.59375 621.738281 358.640625 618.738281 353.402344 615.570312 C 356.527344 605.136719 358.425781 594.429688 359.070312 583.582031 L 375.796875 579.785156 C 386.375 577.386719 393.011719 567.167969 390.898438 556.53125 Z M 372.042969 563.085938 L 348.875 568.335938 C 345.007812 569.222656 342.253906 572.632812 342.210938 576.601562 C 342.066406 590.191406 339.683594 603.609375 335.117188 616.484375 C 333.761719 620.296875 335.273438 624.550781 338.726562 626.660156 C 346.148438 631.1875 353.117188 635.398438 359.441406 639.195312 C 360.324219 639.722656 360.609375 640.523438 360.710938 640.949219 C 360.808594 641.378906 360.882812 642.234375 360.308594 643.089844 L 339.382812 674.324219 C 338.542969 675.578125 336.886719 675.921875 335.617188 675.121094 L 315.589844 662.503906 C 312.234375 660.390625 307.851562 660.863281 305.027344 663.632812 C 295.691406 672.796875 285.015625 680.359375 273.308594 686.128906 C 269.753906 687.882812 267.871094 691.835938 268.742188 695.707031 L 274.238281 719.929688 C 274.464844 720.914062 274.109375 721.671875 273.867188 722.027344 C 273.636719 722.382812 273.09375 723.027344 272.109375 723.238281 L 234.257812 731.277344 C 233.269531 731.476562 232.527344 731.121094 232.171875 730.890625 C 231.730469 730.605469 231.171875 730.078125 230.988281 729.148438 C 229.757812 723.3125 228.089844 715.332031 226.0625 705.726562 C 225.234375 701.785156 221.765625 698.945312 217.726562 698.929688 C 204.464844 698.859375 191.363281 696.648438 178.773438 692.367188 C 177.859375 692.050781 176.929688 691.910156 176.019531 691.910156 C 173.132812 691.910156 170.363281 693.363281 168.765625 695.90625 L 155.546875 716.886719 C 155.007812 717.730469 154.222656 718.015625 153.808594 718.117188 C 153.378906 718.214844 152.550781 718.285156 151.707031 717.730469 L 119.277344 696.632812 C 118.4375 696.089844 118.164062 695.304688 118.078125 694.890625 C 117.992188 694.476562 117.921875 693.648438 118.464844 692.820312 C 121.734375 687.824219 126.1875 681.015625 131.539062 672.78125 C 133.738281 669.414062 133.28125 664.957031 130.453125 662.089844 C 121.121094 652.640625 113.410156 641.804688 107.558594 629.902344 C 105.816406 626.332031 101.835938 624.449219 97.980469 625.320312 L 73.800781 630.816406 C 72.832031 631.03125 72.074219 630.6875 71.703125 630.445312 C 71.347656 630.214844 70.703125 629.671875 70.488281 628.6875 L 62.453125 590.832031 C 62.253906 589.863281 62.609375 589.105469 62.839844 588.75 C 63.066406 588.394531 63.609375 587.765625 64.578125 587.566406 C 70.433594 586.335938 78.410156 584.667969 88.046875 582.625 C 91.984375 581.796875 94.8125 578.328125 94.839844 574.304688 C 94.925781 561.042969 97.152344 547.96875 101.449219 535.40625 C 102.734375 531.652344 101.265625 527.515625 97.910156 525.386719 L 76.855469 512.125 C 76 511.585938 75.726562 510.8125 75.628906 510.386719 C 75.542969 509.972656 75.457031 509.128906 76.011719 508.285156 L 97.097656 475.828125 C 97.636719 474.984375 98.421875 474.714844 98.835938 474.628906 C 99.25 474.542969 100.078125 474.472656 100.90625 475.015625 C 105.933594 478.296875 112.785156 482.777344 121.078125 488.175781 C 124.445312 490.371094 128.898438 489.929688 131.769531 487.105469 C 141.617188 477.382812 152.9375 469.460938 165.410156 463.550781 C 169.082031 461.808594 171.023438 457.742188 170.066406 453.800781 C 168.011719 445.339844 166.070312 437.414062 164.269531 430.277344 C 164.011719 429.28125 164.371094 428.507812 164.613281 428.136719 C 164.855469 427.765625 165.398438 427.109375 166.410156 426.910156 L 203.296875 419.617188 C 204.78125 419.332031 206.191406 420.246094 206.519531 421.714844 L 211.789062 444.925781 C 212.671875 448.792969 216.085938 451.546875 220.039062 451.589844 C 233.613281 451.746094 247.015625 454.144531 259.863281 458.726562 C 263.6875 460.082031 267.929688 458.585938 270.039062 455.117188 C 274.621094 447.621094 278.847656 440.628906 282.617188 434.320312 C 283.144531 433.433594 283.945312 433.148438 284.371094 433.046875 C 284.800781 432.949219 285.65625 432.875 286.511719 433.449219 L 317.746094 454.375 C 319 455.214844 319.34375 456.855469 318.542969 458.140625 L 305.839844 478.296875 C 303.726562 481.652344 304.199219 486.019531 306.96875 488.859375 C 316.503906 498.59375 324.296875 509.757812 330.136719 522.03125 C 331.875 525.6875 335.945312 527.628906 339.882812 526.671875 C 348.335938 524.628906 356.257812 522.675781 363.449219 520.863281 C 364.449219 520.621094 365.21875 520.960938 365.589844 521.203125 C 365.960938 521.449219 366.621094 521.988281 366.820312 523.003906 L 374.113281 559.886719 C 374.441406 561.328125 373.515625 562.757812 372.042969 563.085938 Z M 372.042969 563.085938 " fill-opacity="1" fill-rule="nonzero"/></g><path fill="#8e2a25" d="M 198.941406 494.496094 C 154.421875 505.304688 126.984375 550.324219 137.792969 594.84375 C 147.011719 632.8125 181.097656 658.351562 218.539062 658.351562 C 225.007812 658.351562 231.574219 657.59375 238.136719 655.996094 C 282.660156 645.1875 310.09375 600.167969 299.289062 555.648438 C 288.484375 511.128906 243.476562 483.691406 198.941406 494.496094 Z M 234.097656 639.367188 C 198.757812 647.945312 163.015625 626.160156 154.433594 590.820312 C 145.855469 555.476562 167.640625 519.734375 202.980469 511.15625 C 238.324219 502.578125 274.066406 524.359375 282.644531 559.703125 C 291.222656 595.042969 269.441406 630.785156 234.097656 639.367188 Z M 234.097656 639.367188 " fill-opacity="1" fill-rule="nonzero"/></svg>