<svg xmlns="http://www.w3.org/2000/svg" xmlns:xlink="http://www.w3.org/1999/xlink" width="1080" zoomAndPan="magnify" viewBox="0 0 810 809.999993" height="1080" preserveAspectRatio="xMidYMid meet" version="1.0"><path fill="#c9b583" d="M 739.53125 512.242188 C 736.144531 482.871094 731.445312 456.355469 725.574219 433.515625 C 721.640625 417.652344 711.992188 403.558594 698.421875 393.832031 C 667.183594 371.328125 634.671875 356.433594 613.125 347.953125 C 635.976562 323.277344 650.683594 287.8125 650.683594 249.019531 C 650.683594 180.300781 601.738281 126.46875 539.257812 126.46875 C 479.453125 126.46875 432.171875 175.832031 428.226562 240.320312 C 420.929688 238.726562 413.339844 237.878906 405.554688 237.878906 C 397.765625 237.878906 390.191406 238.714844 382.882812 240.320312 C 378.925781 175.832031 331.65625 126.46875 271.847656 126.46875 C 209.371094 126.46875 160.425781 180.300781 160.425781 249.019531 C 160.425781 287.8125 175.132812 323.277344 197.984375 347.953125 C 176.4375 356.433594 143.9375 371.328125 112.707031 393.820312 C 99.117188 403.546875 89.46875 417.652344 85.558594 433.417969 C 79.664062 456.367188 74.960938 482.871094 71.574219 512.253906 C 69.4375 531.113281 80.867188 549.242188 98.835938 555.378906 C 123.335938 563.558594 161.941406 568.738281 213.390625 570.921875 C 210.59375 585.003906 207.6875 602.484375 205.257812 623.664062 C 203.109375 642.558594 214.582031 660.6875 232.554688 666.78125 C 265.476562 677.886719 323.675781 683.523438 405.53125 683.523438 C 487.386719 683.523438 545.585938 677.886719 578.53125 666.78125 C 596.480469 660.6875 607.964844 642.558594 605.804688 623.652344 C 603.375 602.472656 600.46875 584.980469 597.683594 570.921875 C 649.132812 568.738281 687.738281 563.558594 712.316406 555.355469 C 730.207031 549.242188 741.648438 531.113281 739.5 512.242188 Z M 539.257812 148.75 C 590.085938 148.75 628.398438 191.855469 628.398438 249.019531 C 628.398438 308.367188 586.742188 360.429688 539.257812 360.429688 C 531.726562 360.429688 524.207031 359.128906 516.796875 356.585938 C 515.460938 307.144531 488.8125 265.921875 450.175781 247.804688 C 450.71875 191.253906 488.8125 148.75 539.257812 148.75 Z M 494.683594 360.429688 C 494.683594 419.78125 453.039062 471.84375 405.554688 471.84375 C 358.070312 471.84375 316.425781 419.78125 316.425781 360.429688 C 316.425781 303.265625 354.738281 260.160156 405.554688 260.160156 C 456.367188 260.160156 494.683594 303.265625 494.683594 360.429688 Z M 271.847656 148.75 C 322.308594 148.75 360.398438 191.253906 360.933594 247.804688 C 322.296875 265.921875 295.644531 307.144531 294.308594 356.585938 C 286.902344 359.128906 279.371094 360.429688 271.847656 360.429688 C 224.363281 360.429688 182.707031 308.367188 182.707031 249.019531 C 182.707031 191.855469 221.023438 148.75 271.847656 148.75 Z M 105.96875 534.277344 C 97.890625 531.527344 92.730469 523.328125 93.703125 514.792969 C 96.976562 486.4375 101.488281 460.9375 107.160156 438.875 C 109.8125 428.160156 116.386719 418.597656 125.6875 411.925781 C 161.117188 386.414062 198.183594 371.328125 216.96875 364.644531 C 233.289062 376.050781 252.027344 382.726562 271.835938 382.726562 C 279.769531 382.726562 287.660156 381.542969 295.445312 379.4375 C 299.34375 410.710938 312.625 438.796875 331.6875 459.375 C 310.140625 467.867188 277.621094 482.773438 246.414062 505.246094 C 232.855469 514.96875 223.230469 529.074219 219.339844 544.773438 C 219.007812 546.019531 218.660156 547.457031 218.304688 548.851562 C 154.53125 546.378906 121.988281 539.625 105.957031 534.277344 Z M 571.414062 645.679688 C 550.355469 652.785156 504.488281 661.242188 405.542969 661.242188 C 306.597656 661.242188 260.730469 652.777344 239.695312 645.679688 C 231.597656 642.9375 226.425781 634.738281 227.394531 626.203125 C 231.527344 590.261719 237.011719 565.160156 240.933594 550.289062 C 243.582031 539.558594 250.144531 530 259.414062 523.335938 C 294.8125 497.859375 331.878906 482.761719 350.683594 476.054688 C 367.003906 487.453125 385.746094 494.136719 405.542969 494.136719 C 425.339844 494.136719 444.089844 487.464844 460.402344 476.054688 C 479.207031 482.761719 516.285156 497.859375 551.679688 523.347656 C 560.941406 530 567.503906 539.558594 570.199219 550.457031 C 574.074219 565.171875 579.558594 590.273438 583.691406 626.203125 C 584.660156 634.75 579.480469 642.949219 571.402344 645.691406 Z M 705.207031 534.257812 C 689.097656 539.625 656.566406 546.378906 592.78125 548.851562 C 592.445312 547.515625 592.101562 546.132812 591.789062 544.929688 C 587.855469 529.0625 578.230469 514.96875 564.683594 505.246094 C 533.464844 482.773438 500.945312 467.855469 479.398438 459.375 C 498.449219 438.796875 511.730469 410.710938 515.640625 379.4375 C 523.425781 381.53125 531.316406 382.726562 539.25 382.726562 C 559.058594 382.726562 577.796875 376.050781 594.117188 364.644531 C 612.902344 371.339844 649.980469 386.425781 685.421875 411.9375 C 694.699219 418.597656 701.273438 428.160156 703.949219 438.976562 C 709.597656 460.945312 714.109375 486.449219 717.382812 514.792969 C 718.351562 523.335938 713.195312 531.539062 705.195312 534.265625 Z M 705.207031 534.257812 " fill-opacity="1" fill-rule="nonzero"/></svg>