<svg width="262" height="265" viewBox="0 0 262 265" fill="none" xmlns="http://www.w3.org/2000/svg">
<mask id="mask0_533_459" style="mask-type:luminance" maskUnits="userSpaceOnUse" x="6" y="49" width="249" height="167">
<path d="M6.98242 49.7118H254.912V215.337H6.98242V49.7118Z" fill="white"/>
</mask>
<g mask="url(#mask0_533_459)">
<path d="M254.938 63.4001C254.938 55.8294 248.841 49.7118 241.404 49.7118C233.968 49.7118 227.869 55.8793 227.869 63.4001C227.869 70.9223 231.984 74.9837 237.785 76.5888V117.506C234.811 114.046 231.191 111.84 227.324 111.137V96.2951C227.324 78.6949 213.195 64.4033 195.794 64.4033H57.08C39.6778 64.4033 25.5493 78.6949 25.5493 96.2951V111.088C20.6898 111.84 16.2284 114.998 12.8574 120.114C9.08962 125.779 7.05664 133.251 7.05664 141.174C7.05664 149.097 9.13889 156.568 12.8574 162.235C16.2777 167.399 20.6898 170.508 25.5493 171.261V182.642C25.5493 200.644 40.0252 215.287 57.8229 215.287H194.951C212.749 215.287 227.225 200.644 227.225 182.642V171.21C232.033 170.357 236.396 167.198 239.767 162.084C243.437 156.468 245.47 149.046 245.47 141.174C245.47 133.301 245.419 138.466 245.271 137.112C245.271 136.812 245.221 136.51 245.171 136.26V76.5888C250.823 74.884 254.889 69.5689 254.889 63.4513L254.938 63.4001ZM232.43 63.4001C232.43 58.3867 236.446 54.3253 241.404 54.3253C246.362 54.3253 250.377 58.3867 250.377 63.4001C250.377 68.4149 247.055 71.7747 242.643 72.3766C242.445 72.3766 242.246 72.3766 242.048 72.4264C242.048 72.4264 241.999 72.4264 241.949 72.4264C241.8 72.4264 241.602 72.4264 241.453 72.4264C241.354 72.4264 241.255 72.4264 241.156 72.4264C241.056 72.4264 241.007 72.4264 240.908 72.4264C240.71 72.4264 240.512 72.4264 240.313 72.3766C235.801 71.8245 232.43 67.9638 232.43 63.4001ZM30.1598 96.3449C30.1598 81.302 42.2566 69.1178 57.08 69.1178H195.695C210.568 69.1178 222.614 81.3518 222.614 96.3449V175.523C222.614 190.967 210.22 203.503 194.951 203.503H57.8229C42.5535 203.503 30.1598 190.967 30.1598 175.523V96.3449ZM16.6744 159.677C13.4525 154.764 11.6179 148.245 11.6179 141.223C11.6179 134.204 13.4032 127.635 16.6744 122.771C19.1534 119.01 22.2768 116.653 25.5493 115.902V166.596C22.2275 165.845 19.1534 163.438 16.6744 159.727V159.677ZM194.951 210.673H57.8229C48.4528 210.673 40.1238 205.96 35.1165 198.689C35.1671 198.739 35.2656 198.839 35.3654 198.889C35.464 198.99 35.5638 199.09 35.6131 199.14C35.7116 199.241 35.8114 199.34 35.91 199.392C36.0098 199.491 36.1084 199.541 36.2082 199.642C36.3067 199.742 36.4066 199.843 36.5051 199.893C36.6049 199.992 36.7035 200.043 36.8033 200.143C36.9018 200.244 37.0004 200.294 37.1002 200.393C37.1988 200.494 37.2986 200.544 37.3971 200.644C37.497 200.745 37.5955 200.795 37.6953 200.896C37.7939 200.995 37.8937 201.045 37.9923 201.146C38.0921 201.246 38.1906 201.297 38.2904 201.397C38.389 201.498 38.4888 201.548 38.5874 201.647C38.6872 201.748 38.7857 201.798 38.9348 201.898C39.0334 201.949 39.1332 202.048 39.2318 202.098C39.3316 202.199 39.4794 202.249 39.5792 202.35C39.6778 202.4 39.7776 202.5 39.8761 202.549C39.976 202.65 40.1238 202.7 40.2236 202.801C40.3222 202.851 40.422 202.951 40.5205 203.002C40.6203 203.052 40.7682 203.151 40.868 203.202C40.9665 203.252 41.0664 203.352 41.1649 203.403C41.2647 203.453 41.4138 203.553 41.5124 203.602C41.6122 203.654 41.7107 203.703 41.8093 203.803C41.9091 203.854 42.0582 203.954 42.1568 204.004C42.2566 204.055 42.3551 204.105 42.4549 204.204C42.5535 204.256 42.7026 204.355 42.8011 204.405C42.901 204.455 42.9995 204.506 43.0993 204.556C43.1979 204.606 43.347 204.656 43.4455 204.756C43.5453 204.806 43.6439 204.856 43.793 204.907C43.9421 204.957 44.0406 205.007 44.1897 205.108C44.2883 205.158 44.3881 205.208 44.5372 205.257C44.685 205.307 44.7848 205.358 44.9327 205.408C45.0325 205.408 45.131 205.508 45.2801 205.559C45.4292 205.609 45.5278 205.659 45.6769 205.709C45.7754 205.709 45.9245 205.81 46.0243 205.859C46.1722 205.909 46.272 205.96 46.4211 206.01C46.5196 206.01 46.6687 206.11 46.7673 206.16C46.9164 206.16 47.0149 206.261 47.164 206.31C47.2638 206.31 47.4117 206.411 47.5115 206.411C47.6593 206.411 47.7591 206.511 47.9082 206.561C48.0068 206.561 48.1559 206.662 48.2544 206.662C48.4035 206.662 48.5021 206.762 48.6512 206.762C48.751 206.762 48.8988 206.813 48.9986 206.863C49.1477 206.863 49.2956 206.962 49.3954 206.962C49.4939 206.962 49.643 207.013 49.7416 207.063C49.8907 207.063 50.0398 207.113 50.1383 207.163C50.2381 207.163 50.386 207.214 50.4858 207.264C50.6349 207.264 50.7827 207.314 50.9318 207.364C51.0316 207.364 51.1794 207.413 51.2793 207.464C51.4271 207.464 51.5762 207.514 51.7253 207.564C51.8238 207.564 51.9729 207.564 52.0727 207.614C52.2206 207.614 52.3697 207.614 52.5187 207.665C52.6173 207.665 52.7664 207.665 52.8649 207.715C53.014 207.715 53.1631 207.715 53.311 207.765C53.4108 207.765 53.5599 207.765 53.6584 207.815C53.8075 207.815 53.9566 207.815 54.1044 207.866C54.2043 207.866 54.3521 207.866 54.4519 207.866C54.601 207.866 54.7488 207.866 54.9472 207.866C55.047 207.866 55.1949 207.866 55.2947 207.866C55.4438 207.866 55.6421 207.866 55.79 207.866C55.8898 207.866 55.9883 207.866 56.1374 207.866C56.3358 207.866 56.4849 207.866 56.6833 207.866C56.7818 207.866 56.8816 207.866 56.9802 207.866C57.2771 207.866 57.526 207.866 57.8229 207.866H194.951C195.248 207.866 195.497 207.866 195.794 207.866C195.892 207.866 195.992 207.866 196.091 207.866C196.289 207.866 196.438 207.866 196.636 207.866C196.735 207.866 196.835 207.866 196.984 207.866C197.132 207.866 197.33 207.866 197.479 207.866C197.579 207.866 197.727 207.866 197.827 207.866C197.975 207.866 198.124 207.866 198.322 207.866C198.422 207.866 198.57 207.866 198.669 207.866C198.817 207.866 198.966 207.866 199.115 207.815C199.214 207.815 199.363 207.815 199.463 207.765C199.611 207.765 199.76 207.765 199.909 207.715C200.007 207.715 200.157 207.715 200.255 207.665C200.404 207.665 200.553 207.665 200.701 207.614C200.801 207.614 200.95 207.614 201.049 207.564C201.198 207.564 201.347 207.514 201.495 207.464C201.594 207.464 201.742 207.413 201.842 207.364C201.991 207.364 202.139 207.314 202.288 207.264C202.388 207.264 202.536 207.214 202.636 207.163C202.783 207.163 202.932 207.113 203.032 207.063C203.131 207.063 203.28 207.013 203.379 206.962C203.528 206.962 203.677 206.912 203.775 206.863C203.875 206.863 204.023 206.813 204.123 206.762C204.272 206.762 204.37 206.662 204.519 206.662C204.618 206.662 204.767 206.561 204.866 206.561C205.015 206.561 205.115 206.461 205.262 206.411C205.362 206.411 205.51 206.31 205.61 206.31C205.759 206.31 205.857 206.211 206.007 206.16C206.105 206.16 206.254 206.06 206.354 206.01C206.502 206.01 206.602 205.909 206.75 205.859C206.849 205.859 206.998 205.76 207.097 205.709C207.246 205.659 207.345 205.609 207.494 205.559C207.592 205.559 207.692 205.458 207.841 205.408C207.989 205.358 208.089 205.307 208.238 205.257C208.336 205.208 208.435 205.158 208.584 205.108C208.733 205.057 208.832 205.007 208.981 204.907C209.081 204.856 209.179 204.806 209.328 204.756C209.476 204.707 209.576 204.656 209.675 204.556C209.774 204.506 209.873 204.455 209.973 204.405C210.071 204.355 210.22 204.256 210.319 204.204C210.419 204.155 210.517 204.105 210.617 204.004C210.716 203.954 210.865 203.854 210.965 203.803C211.063 203.753 211.163 203.703 211.262 203.602C211.36 203.553 211.509 203.453 211.609 203.403C211.708 203.352 211.807 203.252 211.906 203.202C212.006 203.151 212.154 203.052 212.253 203.002C212.352 202.951 212.452 202.851 212.55 202.801C212.65 202.7 212.798 202.65 212.898 202.549C212.996 202.5 213.096 202.4 213.195 202.35C213.294 202.249 213.442 202.199 213.542 202.098C213.641 202.048 213.74 201.949 213.839 201.898C213.939 201.798 214.037 201.748 214.187 201.647C214.286 201.597 214.385 201.498 214.483 201.397C214.583 201.297 214.682 201.246 214.782 201.146C214.88 201.045 214.98 200.995 215.079 200.896C215.178 200.795 215.277 200.745 215.377 200.644C215.475 200.544 215.575 200.494 215.674 200.393C215.773 200.294 215.872 200.244 215.972 200.143C216.07 200.043 216.17 199.992 216.269 199.893C216.367 199.792 216.467 199.692 216.566 199.642C216.666 199.541 216.764 199.491 216.864 199.392C216.962 199.291 217.062 199.191 217.161 199.14C217.261 199.04 217.359 198.939 217.408 198.889C217.459 198.839 217.558 198.739 217.657 198.689C212.65 205.909 204.321 210.673 194.951 210.673ZM227.225 166.497V115.902C231.489 117.005 235.306 120.716 237.884 126.381C237.983 126.582 238.082 126.832 238.182 127.033C239.52 130.243 240.412 133.752 240.759 137.513C240.859 138.717 240.908 139.971 240.908 141.174C240.908 153.86 234.959 164.491 227.225 166.447V166.497Z" fill="#CDB076"/>
</g>
<path d="M63.3277 194.928H189.5C199.564 194.928 207.744 186.654 207.744 176.475V103.265C207.744 93.0861 199.564 84.8125 189.5 84.8125H63.3277C53.2639 84.8125 45.084 93.0861 45.084 103.265V176.525C45.084 186.705 53.2639 194.979 63.3277 194.979V194.928ZM49.6945 103.265C49.6945 95.6433 55.7922 89.4758 63.3277 89.4758H189.5C197.035 89.4758 203.133 95.6433 203.133 103.265V176.525C203.133 184.147 197.035 190.315 189.5 190.315H63.3277C55.7922 190.315 49.6945 184.147 49.6945 176.525V103.265Z" fill="#CDB076"/>
<path d="M64.764 142.277C64.8639 142.277 64.9624 142.277 65.0622 142.277C66.5001 142.277 67.8874 141.726 68.9778 140.723C70.168 139.669 70.8617 138.165 70.9122 136.56C71.2584 128.889 77.7036 122.671 85.2884 122.671C92.8745 122.671 99.3196 128.889 99.6658 136.56C99.8149 139.77 102.392 142.227 105.565 142.227C108.739 142.227 105.763 142.227 105.863 142.227C107.449 142.177 108.887 141.475 109.928 140.271C110.969 139.119 111.515 137.563 111.466 135.96C110.821 121.819 99.3196 110.736 85.3389 110.736C71.3583 110.736 59.8566 121.819 59.2122 135.96C59.1617 137.563 59.7075 139.068 60.7486 140.271C61.7898 141.424 63.2769 142.127 64.8146 142.227L64.764 142.277ZM85.2884 115.451C96.8406 115.451 106.309 124.577 106.855 136.26C106.855 136.611 106.755 136.961 106.508 137.213C106.26 137.464 105.962 137.613 105.565 137.664C104.871 137.664 104.276 137.112 104.276 136.411C103.83 126.331 95.3029 118.108 85.3389 118.108C75.3737 118.108 66.8463 126.331 66.4003 136.411C66.4003 136.761 66.2512 137.112 65.9543 137.313C65.8052 137.464 65.5082 137.664 65.0117 137.664C64.6655 137.664 64.3673 137.514 64.1197 137.213C63.872 136.912 63.7735 136.611 63.7735 136.26C64.318 124.577 73.7867 115.451 85.3389 115.451H85.2884Z" fill="#CDB076"/>
<path d="M146.961 142.277C147.061 142.277 147.16 142.277 147.259 142.277C148.697 142.277 150.085 141.726 151.176 140.723C152.365 139.669 153.06 138.165 153.109 136.56C153.456 128.889 159.901 122.671 167.487 122.671C175.072 122.671 181.517 128.889 181.863 136.56C182.012 139.77 184.59 142.227 187.763 142.227C190.936 142.227 187.962 142.227 188.06 142.227C189.647 142.177 191.084 141.475 192.125 140.271C193.166 139.119 193.712 137.563 193.663 135.96C193.018 121.819 181.517 110.736 167.536 110.736C153.555 110.736 142.054 121.819 141.409 135.96C141.36 137.563 141.905 139.068 142.946 140.271C143.987 141.424 145.474 142.127 147.012 142.227L146.961 142.277ZM167.487 115.451C179.038 115.451 188.506 124.577 189.052 136.26C189.052 136.611 188.952 136.961 188.705 137.213C188.457 137.464 188.159 137.613 187.763 137.664C187.069 137.664 186.473 137.112 186.473 136.411C186.027 126.331 177.5 118.108 167.536 118.108C157.571 118.108 149.043 126.331 148.597 136.411C148.597 136.761 148.45 137.112 148.151 137.313C148.002 137.464 147.705 137.664 147.21 137.664C146.863 137.664 146.566 137.514 146.317 137.213C146.069 136.961 145.971 136.611 145.971 136.26C146.515 124.577 155.985 115.451 167.536 115.451H167.487Z" fill="#CDB076"/>
<path d="M100.311 153.258C98.873 153.86 97.7333 155.014 97.0889 156.468C96.4938 157.921 96.4938 159.576 97.0889 161.031C101.996 173.166 113.498 180.989 126.438 180.989C139.377 180.989 150.879 173.166 155.787 161.031C156.381 159.576 156.381 157.921 155.787 156.468C155.192 155.014 154.051 153.86 152.564 153.258C149.541 152.004 146.119 153.459 144.88 156.518C141.807 164.14 134.568 169.054 126.438 169.054C118.307 169.054 111.07 164.14 107.995 156.518C106.756 153.459 103.336 152.004 100.311 153.258ZM126.388 173.667C136.403 173.667 145.276 167.6 149.095 158.273C149.342 157.621 150.136 157.27 150.78 157.571C151.126 157.722 151.375 157.973 151.474 158.273C151.623 158.575 151.623 158.975 151.474 159.276C147.309 169.656 137.444 176.324 126.388 176.324C115.333 176.324 105.467 169.656 101.303 159.276C101.154 158.975 101.154 158.575 101.303 158.273C101.452 157.973 101.699 157.722 101.996 157.571C102.145 157.521 102.344 157.47 102.493 157.47C102.988 157.47 103.484 157.772 103.682 158.273C107.45 167.649 116.374 173.667 126.388 173.667Z" fill="#CDB076"/>
</svg>
