<svg xmlns="http://www.w3.org/2000/svg" xmlns:xlink="http://www.w3.org/1999/xlink" width="1080" zoomAndPan="magnify" viewBox="0 0 810 817.92" height="1080" preserveAspectRatio="xMidYMid meet" version="1.0"><defs><clipPath id="51457d12df"><path d="M 55.183594 202 L 677 202 L 677 650.515625 L 55.183594 650.515625 Z M 55.183594 202 " clip-rule="nonzero"/></clipPath></defs><path fill="#c9b583" d="M 309.886719 391.175781 C 235.101562 360.199219 169.421875 357.410156 109.117188 382.464844 L 105.402344 373.316406 C 168.242188 347.28125 236.480469 350.167969 313.707031 382.082031 Z M 309.886719 391.175781 " fill-opacity="1" fill-rule="nonzero"/><path fill="#c9b583" d="M 313.707031 441.890625 C 236.570312 410.023438 168.242188 407.136719 105.402344 433.125 L 109.125 442.230469 C 169.617188 417.269531 235.203125 420.113281 309.894531 450.996094 Z M 313.707031 441.890625 " fill-opacity="1" fill-rule="nonzero"/><path fill="#c9b583" d="M 313.707031 322.265625 C 236.570312 290.402344 168.242188 287.511719 105.402344 313.453125 L 109.125 322.609375 C 169.617188 297.597656 235.203125 300.433594 309.894531 331.375 Z M 313.707031 322.265625 " fill-opacity="1" fill-rule="nonzero"/><g clip-path="url(#51457d12df)"><path fill="#c9b583" d="M 646.429688 440.273438 L 646.429688 605.707031 C 507.625 517.796875 387.613281 598.308594 387.613281 612.058594 L 387.613281 319.136719 C 387.613281 267.105469 456.429688 239.015625 541.203125 239.015625 C 564.597656 239.015625 586.519531 242.539062 606.300781 248.261719 L 634.882812 219.679688 C 492.84375 176.210938 383.800781 240.425781 368.820312 254.28125 C 347.378906 233.527344 224.039062 161.628906 55.183594 234.945312 C 55.183594 236.074219 55.183594 256.335938 55.183594 287.316406 L 55.183594 637.121094 L 311.746094 637.121094 C 320.554688 644.707031 341.402344 650.097656 365.78125 650.097656 C 390.152344 650.097656 411.007812 644.707031 419.914062 637.121094 L 676.386719 637.121094 L 676.386719 410.273438 Z M 345.914062 612.058594 C 345.914062 598.308594 225.804688 517.796875 87.195312 605.699219 L 87.195312 264.613281 C 114.605469 248.757812 151.605469 239.015625 192.328125 239.015625 C 277.097656 239.015625 345.914062 267.105469 345.914062 319.136719 Z M 345.914062 612.058594 " fill-opacity="1" fill-rule="nonzero"/></g><path fill="#c9b583" d="M 407.089844 382.074219 L 410.8125 391.175781 C 440.273438 378.945312 470.621094 372.339844 500.472656 368.8125 L 504.78125 358.4375 C 472.285156 361.714844 439.199219 368.8125 407.089844 382.074219 Z M 407.089844 382.074219 " fill-opacity="1" fill-rule="nonzero"/><path fill="#c9b583" d="M 407.089844 441.890625 L 410.8125 450.996094 C 431.855469 442.335938 453.292969 436.359375 474.832031 432.097656 L 479.042969 421.617188 C 454.964844 425.976562 430.679688 432.148438 407.089844 441.890625 Z M 407.089844 441.890625 " fill-opacity="1" fill-rule="nonzero"/><path fill="#c9b583" d="M 407.089844 322.265625 L 410.8125 331.367188 C 456.039062 312.671875 503.21875 305.28125 547.460938 307.136719 L 556.757812 297.839844 C 508.601562 294.417969 456.625 301.761719 407.089844 322.265625 Z M 407.089844 322.265625 " fill-opacity="1" fill-rule="nonzero"/><path fill="#c9b583" d="M 802.5625 224.671875 L 745.984375 168.09375 C 738.253906 160.261719 722.6875 163.054688 711.53125 174.257812 L 529.453125 356.378906 L 510.261719 403.214844 C 505.960938 413.835938 499.886719 429.058594 494.601562 441.929688 C 493.136719 445.507812 491.46875 449.613281 490.199219 452.5 L 481.289062 474.667969 C 475.710938 488.28125 482.363281 494.835938 495.867188 489.402344 L 518.089844 480.296875 C 520.929688 479.125 525.140625 477.457031 528.65625 475.992188 C 541.582031 470.8125 556.660156 464.585938 567.417969 460.332031 L 614.214844 441.191406 L 796.382812 259.070312 C 807.554688 247.914062 810.296875 232.453125 802.5625 224.671875 Z M 561.757812 446.144531 L 532.296875 458.136719 L 512.519531 438.3125 L 518.390625 423.820312 L 524.464844 408.996094 L 534.835938 383.34375 L 587.210938 435.765625 Z M 561.757812 446.144531 " fill-opacity="1" fill-rule="nonzero"/></svg>