<svg xmlns="http://www.w3.org/2000/svg" xmlns:xlink="http://www.w3.org/1999/xlink" width="1080" zoomAndPan="magnify" viewBox="0 0 810 817.92" height="1080" preserveAspectRatio="xMidYMid meet" version="1.0"><defs><clipPath id="e778c39131"><path d="M 39.816406 108.46875 L 770.242188 108.46875 L 770.242188 674.660156 L 39.816406 674.660156 Z M 39.816406 108.46875 " clip-rule="nonzero"/></clipPath></defs><g clip-path="url(#e778c39131)"><path fill="#8e2a25" d="M 733.34375 168.28125 L 701.398438 168.28125 L 701.398438 138.609375 C 701.398438 122.304688 688.085938 108.878906 671.773438 108.726562 L 661.738281 108.632812 C 569.851562 107.929688 466.203125 107.070312 405.03125 161.355469 C 343.859375 107.039062 240.125 107.929688 148.320312 108.632812 L 138.285156 108.726562 C 122.003906 108.878906 108.664062 122.210938 108.664062 138.609375 L 108.664062 168.28125 L 76.71875 168.28125 C 56.429688 168.28125 39.90625 184.832031 39.90625 205.15625 L 39.90625 577.175781 C 39.90625 587.136719 43.730469 596.398438 50.707031 603.386719 C 57.683594 610.371094 67.078125 614.144531 76.960938 614.050781 L 87 613.960938 C 192.140625 613.101562 311.269531 612.152344 382.625 666.773438 C 389.359375 671.894531 397.191406 674.496094 405.023438 674.496094 C 412.859375 674.496094 420.691406 671.921875 427.363281 666.804688 C 498.722656 612.183594 617.878906 613.132812 722.992188 613.988281 L 733.027344 614.082031 C 742.910156 614.175781 752.304688 610.402344 759.28125 603.414062 C 766.261719 596.425781 770.085938 587.167969 770.085938 577.207031 L 770.085938 205.09375 C 770.144531 184.769531 753.621094 168.277344 733.332031 168.277344 Z M 661.585938 126.472656 L 671.621094 126.5625 C 678.199219 126.65625 683.523438 131.988281 683.523438 138.578125 L 683.523438 535.25 C 683.523438 538.558594 682.269531 541.53125 680.003906 543.800781 C 677.742188 546.070312 674.679688 547.324219 671.375 547.265625 L 661.675781 547.171875 C 574.09375 546.46875 475.867188 545.824219 413.808594 592.75 L 413.808594 177.539062 C 469.410156 125.0625 571.402344 125.765625 661.585938 126.472656 Z M 126.476562 138.550781 C 126.476562 131.960938 131.800781 126.535156 138.378906 126.535156 L 148.414062 126.441406 C 238.59375 125.738281 340.582031 125.03125 396.121094 177.539062 L 396.121094 592.71875 C 341.683594 551.523438 259.433594 546.988281 180.851562 546.988281 C 169.898438 546.988281 159.003906 547.078125 148.265625 547.140625 L 138.5625 547.230469 C 135.257812 547.324219 132.230469 546.066406 129.933594 543.769531 C 127.667969 541.5 126.414062 538.433594 126.414062 535.214844 L 126.382812 138.546875 Z M 752.367188 577.207031 C 752.367188 582.386719 750.410156 587.167969 746.800781 590.785156 C 743.28125 594.3125 738.507812 596.273438 733.398438 596.273438 L 733.246094 596.273438 L 723.207031 596.179688 C 615.1875 595.324219 492.820312 594.371094 416.589844 652.671875 C 409.613281 658.003906 400.523438 658.003906 393.546875 652.671875 C 317.324219 594.371094 194.894531 595.320312 86.929688 596.179688 L 76.894531 596.273438 C 71.8125 596.273438 66.949219 594.402344 63.339844 590.785156 C 59.726562 587.167969 57.769531 582.386719 57.769531 577.207031 L 57.828125 205.089844 C 57.828125 194.578125 66.367188 186.085938 76.800781 186.085938 L 108.75 186.085938 L 108.75 535.273438 C 108.75 543.367188 111.871094 550.875 117.53125 556.546875 C 123.160156 562.125 130.628906 565.191406 138.523438 565.191406 L 138.769531 565.191406 L 148.46875 565.097656 C 240.050781 564.394531 343.847656 563.535156 398.746094 618.523438 C 400.460938 620.242188 402.753906 621.097656 405.019531 621.097656 C 407.285156 621.097656 409.546875 620.242188 411.292969 618.523438 C 466.21875 563.503906 570.015625 564.394531 661.570312 565.097656 L 671.269531 565.191406 L 671.515625 565.191406 C 679.5 565.191406 686.9375 562.125 692.507812 556.546875 C 698.136719 550.90625 701.289062 543.367188 701.289062 535.273438 L 701.289062 186.085938 L 733.234375 186.085938 C 743.730469 186.085938 752.207031 194.636719 752.207031 205.089844 L 752.207031 577.207031 Z M 453.277344 364.234375 C 451.320312 359.699219 453.433594 354.425781 457.992188 352.554688 C 508.757812 330.824219 573.632812 327.757812 636.050781 327.757812 C 640.976562 327.757812 644.984375 331.773438 644.984375 336.707031 C 644.984375 341.644531 640.976562 345.660156 636.050781 345.660156 C 575.492188 345.660156 512.828125 348.570312 464.964844 369.046875 C 463.800781 369.503906 462.609375 369.75 461.445312 369.75 C 457.988281 369.71875 454.6875 367.667969 453.277344 364.234375 Z M 453.277344 432.035156 C 451.320312 427.5 453.433594 422.226562 457.992188 420.359375 C 508.757812 398.625 573.632812 395.558594 636.050781 395.558594 C 640.976562 395.558594 644.984375 399.574219 644.984375 404.511719 C 644.984375 409.445312 640.976562 413.460938 636.050781 413.460938 C 575.492188 413.460938 512.828125 416.371094 464.964844 436.847656 C 463.800781 437.308594 462.609375 437.554688 461.445312 437.554688 C 457.988281 437.429688 454.6875 435.410156 453.277344 432.035156 Z M 453.277344 296.496094 C 451.320312 291.960938 453.433594 286.6875 457.992188 284.816406 C 508.757812 263.085938 573.632812 260.019531 636.050781 260.019531 C 640.976562 260.019531 644.984375 264.035156 644.984375 268.96875 C 644.984375 273.90625 640.976562 277.921875 636.050781 277.921875 C 575.492188 277.921875 512.828125 280.832031 464.964844 301.308594 C 463.800781 301.769531 462.609375 302.011719 461.445312 302.011719 C 457.988281 301.921875 454.6875 299.867188 453.277344 296.496094 Z M 453.277344 228.785156 C 451.320312 224.25 453.433594 218.976562 457.992188 217.109375 C 508.757812 195.375 573.632812 192.308594 636.050781 192.308594 C 640.976562 192.308594 644.984375 196.324219 644.984375 201.261719 C 644.984375 206.195312 640.976562 210.210938 636.050781 210.210938 C 575.492188 210.210938 512.828125 213.121094 464.964844 233.597656 C 463.800781 234.058594 462.609375 234.304688 461.445312 234.304688 C 457.988281 234.210938 454.6875 232.15625 453.277344 228.785156 Z M 644.960938 472.132812 C 644.960938 477.070312 640.953125 481.085938 636.027344 481.085938 C 575.46875 481.085938 512.804688 483.996094 464.941406 504.472656 C 463.777344 504.933594 462.582031 505.175781 461.417969 505.175781 C 457.960938 505.175781 454.6875 503.125 453.1875 499.753906 C 451.230469 495.214844 453.339844 489.941406 457.902344 488.074219 C 508.667969 466.34375 573.542969 463.277344 635.960938 463.277344 C 640.976562 463.246094 644.960938 467.261719 644.960938 472.132812 Z M 165.085938 201.257812 C 165.085938 196.324219 169.09375 192.308594 174.023438 192.308594 C 236.539062 192.308594 301.320312 195.375 352.082031 217.105469 C 356.609375 219.070312 358.753906 224.25 356.792969 228.785156 C 355.386719 232.15625 352.082031 234.210938 348.5625 234.210938 C 347.398438 234.210938 346.207031 233.964844 345.042969 233.507812 C 297.183594 213.03125 234.515625 210.210938 173.957031 210.117188 C 169.058594 210.117188 165.085938 206.101562 165.085938 201.257812 Z M 165.085938 268.96875 C 165.085938 264.035156 169.09375 260.019531 174.023438 260.019531 C 236.539062 260.019531 301.320312 263.085938 352.082031 284.816406 C 356.609375 286.777344 358.753906 291.960938 356.792969 296.496094 C 355.386719 299.867188 352.082031 301.921875 348.5625 301.921875 C 347.398438 301.921875 346.207031 301.675781 345.042969 301.214844 C 297.183594 280.742188 234.515625 277.921875 173.957031 277.828125 C 169.058594 277.828125 165.085938 273.90625 165.085938 268.96875 Z M 165.085938 336.679688 C 165.085938 331.746094 169.09375 327.730469 174.023438 327.730469 C 236.539062 327.730469 301.320312 330.792969 352.082031 352.527344 C 356.609375 354.488281 358.753906 359.671875 356.792969 364.207031 C 355.386719 367.578125 352.082031 369.632812 348.5625 369.632812 C 347.398438 369.632812 346.207031 369.386719 345.042969 368.925781 C 297.183594 348.453125 234.515625 345.628906 173.957031 345.539062 C 169.058594 345.628906 165.085938 341.613281 165.085938 336.679688 Z M 165.085938 472.132812 C 165.085938 467.199219 169.09375 463.183594 174.023438 463.183594 C 236.539062 463.183594 301.320312 466.246094 352.082031 487.980469 C 356.609375 489.941406 358.753906 495.121094 356.792969 499.660156 C 355.386719 503.03125 352.082031 505.085938 348.5625 505.085938 C 347.398438 505.085938 346.207031 504.839844 345.042969 504.378906 C 297.183594 483.902344 234.515625 481.082031 173.957031 480.992188 C 169.058594 481.082031 165.085938 477.066406 165.085938 472.132812 Z M 165.085938 404.390625 C 165.085938 399.457031 169.09375 395.441406 174.023438 395.441406 C 236.539062 395.441406 301.320312 398.507812 352.082031 420.238281 C 356.609375 422.203125 358.753906 427.382812 356.792969 431.917969 C 355.386719 435.289062 352.082031 437.34375 348.5625 437.34375 C 347.398438 437.34375 346.207031 437.097656 345.042969 436.640625 C 297.183594 416.164062 234.515625 413.34375 173.957031 413.25 C 169.058594 413.34375 165.085938 409.359375 165.085938 404.390625 Z M 165.085938 404.390625 " fill-opacity="1" fill-rule="nonzero"/></g></svg>