<svg xmlns="http://www.w3.org/2000/svg" xmlns:xlink="http://www.w3.org/1999/xlink" width="1080" zoomAndPan="magnify" viewBox="0 0 810 817.92" height="1080" preserveAspectRatio="xMidYMid meet" version="1.0"><defs><clipPath id="1c5f5589e9"><path d="M 129.425781 30.722656 L 679 30.722656 L 679 779.148438 L 129.425781 779.148438 Z M 129.425781 30.722656 " clip-rule="nonzero"/></clipPath></defs><g clip-path="url(#1c5f5589e9)"><path fill="#c9b583" d="M 677.667969 477.488281 C 680.492188 450.457031 678.480469 420.84375 660.585938 399.195312 C 645.582031 381.042969 623.496094 372.625 600.378906 372.582031 C 595.289062 372.570312 590.199219 372.578125 585.109375 372.582031 L 584.824219 370.355469 C 581.460938 344.121094 578.097656 317.882812 574.734375 291.648438 C 589.699219 284.015625 602.683594 272.585938 612.246094 258.035156 C 625.40625 238.003906 627.835938 215.757812 627.835938 192.53125 L 627.835938 132.386719 C 627.835938 105.644531 619.503906 80.480469 600.839844 60.839844 C 582.257812 41.292969 556.355469 31.003906 529.582031 30.777344 C 519.488281 30.691406 509.390625 30.777344 499.296875 30.777344 L 370.875 30.777344 C 340.132812 30.777344 309.386719 30.652344 278.644531 30.777344 C 222.832031 31.003906 180.023438 75.601562 179.882812 130.90625 C 179.835938 150.578125 179.882812 170.25 179.882812 189.917969 C 179.882812 212.566406 181.347656 234.140625 193.175781 254.328125 C 202.664062 270.527344 216.636719 283.359375 232.976562 291.707031 C 230.546875 310.648438 228.121094 329.589844 225.691406 348.53125 C 224.667969 356.527344 223.640625 364.523438 222.617188 372.519531 C 216.8125 372.527344 211.007812 372.542969 205.203125 372.582031 C 176.71875 372.765625 149.429688 388.375 137.136719 414.589844 C 130.945312 427.789062 129.671875 441.296875 129.671875 455.621094 C 129.671875 464.882812 129.496094 474.101562 130.894531 483.144531 C 130.121094 484.757812 129.671875 486.542969 129.671875 488.414062 L 129.671875 561.320312 C 129.671875 568.101562 135.421875 573.867188 142.222656 573.867188 L 196.804688 573.867188 C 192.023438 611.171875 187.242188 648.472656 182.460938 685.773438 L 177.019531 728.242188 C 175.15625 742.753906 175.683594 755.792969 187.332031 767.4375 C 194.308594 774.414062 203.988281 778.648438 213.847656 779.105469 C 214.433594 779.132812 215.019531 779.148438 215.605469 779.148438 C 216.171875 779.125 216.726562 779.085938 217.285156 779.046875 C 239.664062 777.382812 253.46875 760.910156 255.597656 739.121094 C 255.777344 737.296875 256.066406 735.472656 256.300781 733.652344 C 257.828125 721.742188 259.355469 709.828125 260.882812 697.917969 L 276.78125 573.867188 L 530.9375 573.867188 C 535.71875 611.171875 540.5 648.472656 545.28125 685.773438 L 550.726562 728.242188 C 552.527344 742.292969 553.082031 756.679688 563.835938 767.4375 C 570.816406 774.414062 580.496094 778.648438 590.355469 779.105469 C 590.941406 779.132812 591.527344 779.148438 592.113281 779.148438 C 592.699219 779.125 593.28125 779.082031 593.859375 779.035156 C 617.34375 777.164062 634.402344 757.113281 631.394531 733.652344 C 629.867188 721.742188 628.339844 709.828125 626.8125 697.917969 L 610.914062 573.867188 L 665.496094 573.867188 C 669.34375 573.867188 672.265625 572.4375 674.28125 570.265625 C 676.546875 568.246094 678.046875 565.269531 678.046875 561.320312 L 678.046875 488.414062 C 678.046875 486.554688 677.605469 484.78125 676.839844 483.171875 C 677.175781 481.300781 677.46875 479.410156 677.667969 477.488281 Z M 592.113281 754.050781 C 577.9375 754.050781 577.339844 740.066406 576.003906 729.644531 C 574.316406 716.472656 572.628906 703.300781 570.941406 690.125 C 565.972656 651.375 561.003906 612.621094 556.035156 573.867188 L 585.8125 573.867188 C 590.136719 607.589844 594.457031 641.308594 598.78125 675.027344 C 600.789062 690.699219 602.796875 706.371094 604.804688 722.042969 C 605.519531 727.589844 606.980469 733.550781 607 739.160156 C 607.035156 747.546875 600.222656 753.722656 592.113281 754.050781 Z M 607.695312 548.769531 L 154.769531 548.769531 L 154.769531 500.960938 L 652.949219 500.960938 L 652.949219 548.769531 Z M 215.605469 754.050781 C 200.089844 754.050781 200.585938 740.199219 201.9375 729.644531 C 203.625 716.472656 205.316406 703.300781 207.003906 690.125 C 211.972656 651.375 216.9375 612.621094 221.90625 573.867188 L 251.683594 573.867188 C 247.359375 607.589844 243.039062 641.308594 238.714844 675.027344 C 235.976562 696.402344 233.433594 717.8125 230.492188 739.160156 C 229.347656 747.488281 224.597656 753.6875 215.605469 754.050781 Z M 182.386719 402.675781 C 192.648438 397.585938 203.171875 397.679688 214.171875 397.679688 L 525.191406 397.679688 C 527.945312 397.679688 530.699219 397.675781 533.449219 397.671875 C 543.375 397.664062 553.296875 397.644531 563.222656 397.632812 C 567.40625 397.625 571.585938 397.628906 575.769531 397.625 C 579.953125 397.625 584.136719 397.632812 588.324219 397.640625 C 592.910156 397.648438 597.496094 397.65625 602.085938 397.679688 C 624.570312 397.800781 644.84375 411.402344 651.078125 433.542969 C 654.027344 444.019531 652.949219 455.503906 652.949219 466.289062 C 652.949219 469.535156 652.789062 472.730469 652.417969 475.863281 L 155.390625 475.863281 C 154.996094 473.132812 154.777344 470.339844 154.769531 467.496094 C 154.742188 457.578125 153.609375 446.527344 155.816406 436.78125 C 159.164062 421.972656 168.722656 409.453125 182.386719 402.675781 Z M 204.984375 166.660156 C 204.984375 150.691406 203.335938 133.582031 205.644531 117.699219 C 209.605469 90.496094 229.558594 67.074219 255.878906 59.078125 C 266.933594 55.71875 277.886719 55.878906 289.226562 55.878906 L 334.183594 55.878906 C 399.605469 55.878906 465.078125 55.09375 530.496094 55.878906 C 559.078125 56.222656 585.445312 72.984375 596.902344 99.433594 C 603.976562 115.769531 602.734375 133.253906 602.734375 150.589844 C 602.734375 168.417969 602.820312 186.25 602.734375 204.078125 C 602.617188 228.226562 591.429688 251.152344 571.292969 264.796875 C 570.773438 265.148438 570.273438 265.523438 569.742188 265.863281 C 566.457031 267.960938 563.0625 269.757812 559.574219 271.28125 C 555.675781 272.984375 551.660156 274.328125 547.542969 275.320312 C 542.023438 276.652344 536.324219 277.359375 530.496094 277.441406 L 289.226562 277.441406 C 279.359375 277.441406 269.773438 277.554688 260.167969 275.371094 C 258.738281 275.046875 257.308594 274.675781 255.878906 274.238281 C 253.226562 273.433594 250.644531 272.464844 248.132812 271.359375 C 244.015625 269.546875 240.101562 267.339844 236.425781 264.800781 C 219.921875 253.398438 208.316406 235.226562 205.5625 215.027344 C 203.421875 199.292969 204.984375 182.46875 204.984375 166.660156 Z M 555.902344 340.539062 C 557.273438 351.222656 558.640625 361.902344 560.011719 372.582031 L 530.234375 372.582031 C 529.828125 369.402344 529.417969 366.222656 529.011719 363.042969 C 526.425781 342.875 523.839844 322.707031 521.257812 302.539062 L 530.496094 302.539062 C 537.378906 302.445312 544.152344 301.652344 550.734375 300.214844 Z M 302.871094 370.355469 C 305.769531 347.75 308.664062 325.144531 311.5625 302.539062 L 496.15625 302.539062 C 498.121094 317.871094 500.085938 333.199219 502.050781 348.53125 C 503.078125 356.546875 504.105469 364.5625 505.132812 372.582031 L 302.585938 372.582031 Z M 248.929688 363.042969 C 251.613281 342.128906 254.292969 321.210938 256.976562 300.296875 C 262.078125 301.410156 267.292969 302.128906 272.574219 302.414062 C 277.179688 302.664062 281.816406 302.671875 286.453125 302.628906 C 284.832031 315.265625 283.210938 327.902344 281.589844 340.539062 C 280.222656 351.21875 278.855469 361.894531 277.484375 372.570312 C 267.5625 372.558594 257.640625 372.535156 247.71875 372.519531 C 248.121094 369.359375 248.527344 366.203125 248.929688 363.042969 Z M 248.929688 363.042969 " fill-opacity="1" fill-rule="nonzero"/></g></svg>