<svg xmlns="http://www.w3.org/2000/svg" xmlns:xlink="http://www.w3.org/1999/xlink" width="1080" zoomAndPan="magnify" viewBox="0 0 810 817.92" height="1080" preserveAspectRatio="xMidYMid meet" version="1.0"><defs><clipPath id="a474e5779a"><path d="M 51.839844 54.59375 L 758.269531 54.59375 L 758.269531 755.027344 L 51.839844 755.027344 Z M 51.839844 54.59375 " clip-rule="nonzero"/></clipPath></defs><g clip-path="url(#a474e5779a)"><path fill="#c9b583" d="M 556.691406 361.769531 C 562.21875 361.769531 566.699219 366.25 566.699219 371.78125 L 566.699219 375.660156 C 577.921875 378.898438 587.058594 387.476562 590.808594 398.996094 C 592.519531 404.253906 589.644531 409.902344 584.390625 411.613281 C 579.132812 413.328125 573.484375 410.453125 571.773438 405.195312 C 569.644531 398.660156 563.585938 394.273438 556.691406 394.273438 C 547.953125 394.273438 540.84375 401.382812 540.84375 410.121094 C 540.84375 418.882812 547.953125 426.007812 556.691406 426.007812 C 576.46875 426.007812 592.558594 442.097656 592.558594 461.875 C 592.558594 478.183594 581.621094 491.980469 566.699219 496.324219 L 566.699219 500.988281 C 566.699219 506.515625 562.21875 510.996094 556.691406 510.996094 C 551.160156 510.996094 546.679688 506.515625 546.679688 500.988281 L 546.679688 496.320312 C 535.632812 493.105469 526.554688 484.679688 522.695312 473.378906 C 520.910156 468.144531 523.703125 462.457031 528.9375 460.671875 C 534.171875 458.886719 539.855469 461.679688 541.644531 466.910156 C 543.851562 473.378906 549.898438 477.722656 556.691406 477.722656 C 565.429688 477.722656 572.535156 470.613281 572.535156 461.875 C 572.535156 453.136719 565.429688 446.03125 556.691406 446.03125 C 536.910156 446.03125 520.820312 429.921875 520.820312 410.121094 C 520.820312 393.816406 531.757812 380.015625 546.679688 375.671875 L 546.679688 371.78125 C 546.679688 366.25 551.160156 361.769531 556.691406 361.769531 Z M 55.707031 588.863281 C 48.980469 579.308594 51.265625 566.011719 60.800781 559.21875 L 99.269531 532.152344 C 107.421875 526.414062 118.238281 527.242188 125.445312 533.5 C 137.664062 525.246094 159.917969 510.238281 163.375 508.089844 C 210.496094 478.894531 239.539062 460.902344 261.289062 451.769531 L 197.046875 340.507812 L 106.367188 350.289062 L 106.367188 384.019531 L 113.300781 384.019531 C 118.34375 384.019531 122.597656 387.773438 123.230469 392.777344 L 132.59375 466.902344 C 133.609375 474.894531 131.335938 482.335938 126.019531 488.410156 C 120.554688 494.519531 113.460938 497.703125 105.4375 497.703125 L 85.617188 497.703125 C 77.519531 497.703125 70.15625 494.316406 64.886719 488.171875 C 59.613281 482.082031 57.34375 474.308594 58.53125 466.324219 L 69.351562 392.578125 C 70.070312 387.664062 74.289062 384.019531 79.253906 384.019531 L 86.347656 384.019531 L 86.347656 341.300781 C 86.347656 341.203125 86.363281 341.105469 86.367188 341.007812 C 86.371094 340.816406 86.386719 340.628906 86.402344 340.4375 C 86.425781 340.171875 86.457031 339.910156 86.5 339.648438 C 86.53125 339.464844 86.566406 339.28125 86.609375 339.097656 C 86.667969 338.832031 86.742188 338.570312 86.824219 338.308594 C 86.878906 338.136719 86.929688 337.964844 86.992188 337.796875 C 87.097656 337.515625 87.222656 337.242188 87.351562 336.972656 C 87.417969 336.835938 87.476562 336.695312 87.546875 336.5625 C 87.765625 336.160156 88.003906 335.769531 88.273438 335.398438 C 88.273438 335.398438 88.273438 335.394531 88.277344 335.394531 L 266.644531 91.328125 C 268.308594 89.050781 270.851562 87.582031 273.652344 87.28125 L 574.21875 54.855469 C 578.160156 54.441406 581.980469 56.371094 583.960938 59.804688 C 585.945312 63.238281 585.714844 67.515625 583.375 70.71875 L 519.539062 158.0625 L 600.660156 298.5625 C 602.371094 301.542969 603.746094 304.636719 604.777344 307.808594 C 656.820312 327.339844 693.964844 377.601562 693.964844 436.382812 C 693.964844 445 693.140625 453.53125 691.5625 461.910156 C 719.265625 454.917969 738.914062 466.589844 749.054688 482.527344 C 763.507812 505.242188 760.347656 536.34375 742.289062 549.089844 C 737.296875 552.597656 726.210938 560.632812 712.175781 570.800781 C 666.5625 603.855469 581.65625 665.382812 531.550781 698 C 512.191406 710.59375 491.320312 716.921875 469.28125 716.921875 C 462.496094 716.921875 455.601562 716.324219 448.605469 715.121094 L 271.980469 684.804688 C 263.566406 683.363281 255.976562 685.417969 249.429688 690.914062 L 241.488281 697.589844 C 243.449219 701.554688 244.140625 706.042969 243.375 710.523438 C 242.410156 716.152344 239.3125 721.0625 234.652344 724.34375 L 196.277344 751.410156 C 192.558594 754.007812 188.285156 755.257812 184.050781 755.257812 C 177.359375 755.257812 170.769531 752.140625 166.628906 746.324219 L 55.710938 588.863281 C 55.710938 588.863281 55.710938 588.863281 55.707031 588.863281 Z M 112.730469 469.421875 L 104.472656 404.039062 L 87.902344 404.039062 L 78.335938 469.246094 C 77.996094 471.539062 78.527344 473.339844 80.054688 475.101562 C 81.59375 476.898438 83.300781 477.683594 85.617188 477.683594 L 105.4375 477.683594 C 107.730469 477.683594 109.453125 476.898438 111.027344 475.140625 C 112.472656 473.488281 113.019531 471.699219 112.730469 469.421875 Z M 556.691406 319.132812 C 492.039062 319.132812 439.4375 371.730469 439.4375 436.382812 C 439.4375 450.179688 441.824219 463.65625 446.515625 476.523438 C 460.683594 478.730469 476.359375 480.867188 493.789062 482.855469 C 512.003906 484.929688 525.945312 496.171875 532.03125 513.703125 C 535.785156 524.519531 536.296875 536.625 533.992188 548.074219 L 667.074219 472.109375 C 667.609375 471.804688 668.132812 471.53125 668.664062 471.238281 C 672.15625 459.984375 673.941406 448.28125 673.941406 436.382812 C 673.941406 371.730469 621.34375 319.132812 556.691406 319.132812 Z M 135.308594 304.96875 L 302.902344 199.535156 C 302.585938 197.6875 302.410156 195.792969 302.410156 193.855469 C 302.410156 175.53125 317.300781 160.621094 335.601562 160.621094 C 353.929688 160.621094 368.835938 175.53125 368.835938 193.855469 C 368.835938 212.183594 353.929688 227.089844 335.601562 227.089844 C 326.460938 227.089844 318.171875 223.371094 312.164062 217.363281 L 138.367188 326.699219 L 391.453125 299.398438 L 499.558594 151.476562 C 499.589844 151.429688 499.625 151.382812 499.660156 151.335938 L 553.84375 77.195312 L 280.199219 106.714844 Z M 335.601562 207.070312 C 342.886719 207.070312 348.816406 201.140625 348.816406 193.855469 C 348.816406 186.570312 342.886719 180.644531 335.601562 180.644531 C 328.339844 180.644531 322.429688 186.570312 322.429688 193.855469 C 322.429688 201.140625 328.339844 207.070312 335.601562 207.070312 Z M 218.808594 338.160156 L 280.789062 445.5 C 300.378906 441.445312 315.84375 445.859375 341.277344 453.125 C 360.28125 458.554688 385.753906 465.828125 424.320312 472.792969 C 421.066406 460.980469 419.417969 448.792969 419.417969 436.382812 C 419.417969 360.691406 480.996094 299.109375 556.691406 299.109375 C 564.25 299.109375 571.667969 299.734375 578.898438 300.917969 L 506.625 175.738281 L 405.007812 314.785156 C 403.34375 317.058594 400.800781 318.53125 397.996094 318.832031 Z M 137.511719 549.515625 L 230.125 680.988281 L 236.550781 675.585938 C 247.664062 666.257812 261.085938 662.621094 275.367188 665.074219 L 451.996094 695.386719 C 476.933594 699.675781 499.382812 695.039062 520.632812 681.21875 C 570.316406 648.878906 654.957031 587.542969 700.425781 554.589844 C 715.078125 543.972656 725.664062 536.300781 730.761719 532.71875 C 739.984375 526.210938 740.683594 506.667969 732.160156 493.273438 C 722.324219 477.8125 703.960938 475.675781 681.359375 487.148438 C 681.335938 487.160156 681.316406 487.171875 681.296875 487.179688 C 679.878906 487.902344 678.449219 488.667969 677 489.496094 L 516.410156 581.164062 C 510.015625 587.285156 498.453125 597.207031 475.226562 593.207031 L 368.179688 574.644531 C 362.730469 573.699219 359.082031 568.515625 360.027344 563.070312 C 360.972656 557.621094 366.15625 553.972656 371.601562 554.917969 L 478.636719 573.480469 C 492.945312 575.941406 498.25 570.875 503.355469 565.941406 C 514.03125 555.296875 518.320312 535.253906 513.117188 520.273438 C 509.503906 509.863281 502.238281 503.96875 491.519531 502.746094 C 409.246094 493.367188 365.03125 480.734375 335.777344 472.378906 C 308.710938 464.644531 296.359375 461.113281 277.925781 466.921875 C 257.398438 473.386719 227.753906 491.757812 173.933594 525.101562 C 171.085938 526.871094 151.101562 540.335938 137.511719 549.515625 Z M 72.078125 577.335938 L 182.964844 734.75 C 183.363281 735.308594 184.171875 735.445312 184.773438 735.023438 L 223.117188 707.976562 C 223.476562 707.726562 223.597656 707.390625 223.636719 707.148438 C 223.695312 706.824219 223.628906 706.53125 223.449219 706.28125 L 115.5 553.035156 C 115.378906 552.878906 115.253906 552.726562 115.140625 552.558594 C 115.089844 552.480469 115.046875 552.398438 114.996094 552.320312 L 112.53125 548.820312 C 112.148438 548.28125 111.339844 548.140625 110.792969 548.527344 L 72.371094 575.5625 C 71.835938 575.941406 71.679688 576.769531 72.078125 577.335938 Z M 72.078125 577.335938 " fill-opacity="1" fill-rule="nonzero"/></g></svg>