<svg xmlns="http://www.w3.org/2000/svg" xmlns:xlink="http://www.w3.org/1999/xlink" width="1080" zoomAndPan="magnify" viewBox="0 0 810 817.92" height="1080" preserveAspectRatio="xMidYMid meet" version="1.0"><defs><clipPath id="6062ec6433"><path d="M 39 84.902344 L 770 84.902344 L 770 725 L 39 725 Z M 39 84.902344 " clip-rule="nonzero"/></clipPath></defs><g clip-path="url(#6062ec6433)"><path fill="#8e2a25" d="M 127.707031 725 C 113.855469 725 100.40625 722.773438 87.730469 718.386719 L 58.851562 708.394531 L 81.042969 687.382812 C 110.414062 659.570312 117.828125 627.492188 118.308594 603.464844 C 67.535156 547.1875 39.667969 476.980469 39.667969 404.957031 C 39.667969 228.480469 203.359375 84.902344 404.558594 84.902344 C 605.757812 84.902344 769.457031 228.480469 769.457031 404.957031 C 769.457031 581.421875 605.757812 724.992188 404.558594 724.992188 C 344.648438 724.992188 285.5625 712.011719 232.898438 687.355469 C 213.046875 701.398438 172.941406 725 127.707031 725 Z M 228.554688 643.78125 L 239.207031 649.171875 C 289.273438 674.488281 346.457031 687.882812 404.558594 687.882812 C 585.300781 687.882812 732.351562 560.957031 732.351562 404.957031 C 732.351562 248.933594 585.300781 122.007812 404.558594 122.007812 C 223.816406 122.007812 76.777344 248.933594 76.777344 404.957031 C 76.777344 469.800781 102.882812 533.179688 150.296875 583.425781 L 155.121094 588.546875 L 155.34375 595.570312 C 156.160156 620.792969 151.632812 654.996094 129.199219 687.882812 C 172.152344 687.195312 211.671875 657.289062 219.222656 651.238281 Z M 228.554688 643.78125 " fill-opacity="1" fill-rule="nonzero"/></g><path fill="#8e2a25" d="M 602.734375 404.957031 C 602.734375 406.234375 602.671875 407.507812 602.542969 408.78125 C 602.417969 410.050781 602.230469 411.3125 601.984375 412.566406 C 601.734375 413.820312 601.421875 415.058594 601.050781 416.28125 C 600.679688 417.503906 600.25 418.707031 599.761719 419.886719 C 599.273438 421.066406 598.726562 422.222656 598.125 423.347656 C 597.523438 424.476562 596.867188 425.570312 596.15625 426.632812 C 595.445312 427.695312 594.6875 428.71875 593.875 429.707031 C 593.066406 430.695312 592.207031 431.640625 591.304688 432.546875 C 590.402344 433.449219 589.453125 434.304688 588.46875 435.117188 C 587.480469 435.925781 586.453125 436.6875 585.390625 437.398438 C 584.328125 438.109375 583.234375 438.765625 582.105469 439.367188 C 580.980469 439.96875 579.828125 440.515625 578.644531 441.003906 C 577.464844 441.492188 576.261719 441.921875 575.039062 442.292969 C 573.816406 442.664062 572.578125 442.976562 571.324219 443.222656 C 570.074219 443.472656 568.808594 443.660156 567.539062 443.785156 C 566.265625 443.910156 564.992188 443.972656 563.714844 443.972656 C 562.4375 443.972656 561.160156 443.910156 559.890625 443.785156 C 558.617188 443.660156 557.355469 443.472656 556.101562 443.222656 C 554.847656 442.976562 553.609375 442.664062 552.386719 442.292969 C 551.164062 441.921875 549.960938 441.492188 548.78125 441.003906 C 547.601562 440.515625 546.449219 439.96875 545.320312 439.367188 C 544.195312 438.765625 543.097656 438.109375 542.035156 437.398438 C 540.972656 436.6875 539.949219 435.925781 538.960938 435.117188 C 537.972656 434.304688 537.027344 433.449219 536.125 432.546875 C 535.21875 431.640625 534.363281 430.695312 533.550781 429.707031 C 532.742188 428.71875 531.980469 427.695312 531.269531 426.632812 C 530.5625 425.570312 529.90625 424.476562 529.300781 423.347656 C 528.699219 422.222656 528.152344 421.066406 527.664062 419.886719 C 527.175781 418.707031 526.746094 417.503906 526.375 416.28125 C 526.003906 415.058594 525.695312 413.820312 525.445312 412.566406 C 525.195312 411.3125 525.007812 410.050781 524.882812 408.78125 C 524.757812 407.507812 524.695312 406.234375 524.695312 404.957031 C 524.695312 403.675781 524.757812 402.402344 524.882812 401.128906 C 525.007812 399.859375 525.195312 398.597656 525.445312 397.34375 C 525.695312 396.089844 526.003906 394.851562 526.375 393.628906 C 526.746094 392.40625 527.175781 391.203125 527.664062 390.023438 C 528.152344 388.84375 528.699219 387.6875 529.300781 386.5625 C 529.90625 385.433594 530.5625 384.339844 531.269531 383.277344 C 531.980469 382.214844 532.742188 381.191406 533.550781 380.203125 C 534.363281 379.214844 535.21875 378.269531 536.125 377.363281 C 537.027344 376.460938 537.972656 375.605469 538.960938 374.792969 C 539.949219 373.984375 540.972656 373.222656 542.035156 372.511719 C 543.097656 371.800781 544.195312 371.144531 545.320312 370.542969 C 546.449219 369.941406 547.601562 369.394531 548.78125 368.90625 C 549.960938 368.417969 551.164062 367.988281 552.386719 367.617188 C 553.609375 367.246094 554.847656 366.933594 556.101562 366.6875 C 557.355469 366.4375 558.617188 366.25 559.890625 366.125 C 561.160156 366 562.4375 365.9375 563.714844 365.9375 C 564.992188 365.9375 566.265625 366 567.539062 366.125 C 568.808594 366.25 570.074219 366.4375 571.324219 366.6875 C 572.578125 366.933594 573.816406 367.246094 575.039062 367.617188 C 576.261719 367.988281 577.464844 368.417969 578.644531 368.90625 C 579.828125 369.394531 580.980469 369.941406 582.105469 370.542969 C 583.234375 371.144531 584.328125 371.800781 585.390625 372.511719 C 586.453125 373.222656 587.480469 373.984375 588.46875 374.792969 C 589.453125 375.605469 590.402344 376.460938 591.304688 377.363281 C 592.207031 378.269531 593.066406 379.214844 593.875 380.203125 C 594.6875 381.191406 595.445312 382.214844 596.15625 383.277344 C 596.867188 384.339844 597.523438 385.433594 598.125 386.5625 C 598.726562 387.6875 599.273438 388.84375 599.761719 390.023438 C 600.25 391.203125 600.679688 392.40625 601.050781 393.628906 C 601.421875 394.851562 601.734375 396.089844 601.984375 397.34375 C 602.230469 398.597656 602.417969 399.859375 602.542969 401.128906 C 602.671875 402.402344 602.734375 403.675781 602.734375 404.957031 Z M 602.734375 404.957031 " fill-opacity="1" fill-rule="nonzero"/><path fill="#8e2a25" d="M 443.597656 404.957031 C 443.597656 406.234375 443.535156 407.507812 443.40625 408.78125 C 443.28125 410.050781 443.09375 411.3125 442.847656 412.566406 C 442.597656 413.820312 442.285156 415.058594 441.914062 416.28125 C 441.542969 417.503906 441.113281 418.707031 440.625 419.886719 C 440.136719 421.066406 439.589844 422.222656 438.988281 423.347656 C 438.386719 424.476562 437.730469 425.570312 437.019531 426.632812 C 436.308594 427.695312 435.550781 428.71875 434.738281 429.707031 C 433.929688 430.695312 433.070312 431.640625 432.167969 432.546875 C 431.265625 433.449219 430.316406 434.304688 429.332031 435.117188 C 428.34375 435.925781 427.316406 436.6875 426.253906 437.398438 C 425.191406 438.109375 424.097656 438.765625 422.96875 439.367188 C 421.84375 439.96875 420.691406 440.515625 419.507812 441.003906 C 418.328125 441.492188 417.125 441.921875 415.902344 442.292969 C 414.679688 442.664062 413.441406 442.976562 412.1875 443.222656 C 410.9375 443.472656 409.671875 443.660156 408.402344 443.785156 C 407.128906 443.910156 405.855469 443.972656 404.578125 443.972656 C 403.300781 443.972656 402.023438 443.910156 400.753906 443.785156 C 399.480469 443.660156 398.21875 443.472656 396.964844 443.222656 C 395.710938 442.976562 394.472656 442.664062 393.25 442.292969 C 392.027344 441.921875 390.824219 441.492188 389.644531 441.003906 C 388.464844 440.515625 387.3125 439.96875 386.183594 439.367188 C 385.058594 438.765625 383.960938 438.109375 382.898438 437.398438 C 381.835938 436.6875 380.8125 435.925781 379.824219 435.117188 C 378.835938 434.304688 377.890625 433.449219 376.988281 432.546875 C 376.082031 431.640625 375.226562 430.695312 374.414062 429.707031 C 373.605469 428.71875 372.84375 427.695312 372.132812 426.632812 C 371.425781 425.570312 370.769531 424.476562 370.164062 423.347656 C 369.5625 422.222656 369.015625 421.066406 368.527344 419.886719 C 368.039062 418.707031 367.609375 417.503906 367.238281 416.28125 C 366.867188 415.058594 366.558594 413.820312 366.308594 412.566406 C 366.058594 411.3125 365.871094 410.050781 365.746094 408.78125 C 365.621094 407.507812 365.558594 406.234375 365.558594 404.957031 C 365.558594 403.675781 365.621094 402.402344 365.746094 401.128906 C 365.871094 399.859375 366.058594 398.597656 366.308594 397.34375 C 366.558594 396.089844 366.867188 394.851562 367.238281 393.628906 C 367.609375 392.40625 368.039062 391.203125 368.527344 390.023438 C 369.015625 388.84375 369.5625 387.6875 370.164062 386.5625 C 370.769531 385.433594 371.425781 384.339844 372.132812 383.277344 C 372.84375 382.214844 373.605469 381.191406 374.414062 380.203125 C 375.226562 379.214844 376.082031 378.269531 376.988281 377.363281 C 377.890625 376.460938 378.835938 375.605469 379.824219 374.792969 C 380.8125 373.984375 381.835938 373.222656 382.898438 372.511719 C 383.960938 371.800781 385.058594 371.144531 386.183594 370.542969 C 387.3125 369.941406 388.464844 369.394531 389.644531 368.90625 C 390.824219 368.417969 392.027344 367.988281 393.25 367.617188 C 394.472656 367.246094 395.710938 366.933594 396.964844 366.6875 C 398.21875 366.4375 399.480469 366.25 400.753906 366.125 C 402.023438 366 403.300781 365.9375 404.578125 365.9375 C 405.855469 365.9375 407.128906 366 408.402344 366.125 C 409.671875 366.25 410.9375 366.4375 412.1875 366.6875 C 413.441406 366.933594 414.679688 367.246094 415.902344 367.617188 C 417.125 367.988281 418.328125 368.417969 419.507812 368.90625 C 420.691406 369.394531 421.84375 369.941406 422.96875 370.542969 C 424.097656 371.144531 425.191406 371.800781 426.253906 372.511719 C 427.316406 373.222656 428.34375 373.984375 429.332031 374.792969 C 430.316406 375.605469 431.265625 376.460938 432.167969 377.363281 C 433.070312 378.269531 433.929688 379.214844 434.738281 380.203125 C 435.550781 381.191406 436.308594 382.214844 437.019531 383.277344 C 437.730469 384.339844 438.386719 385.433594 438.988281 386.5625 C 439.589844 387.6875 440.136719 388.84375 440.625 390.023438 C 441.113281 391.203125 441.542969 392.40625 441.914062 393.628906 C 442.285156 394.851562 442.597656 396.089844 442.847656 397.34375 C 443.09375 398.597656 443.28125 399.859375 443.40625 401.128906 C 443.535156 402.402344 443.597656 403.675781 443.597656 404.957031 Z M 443.597656 404.957031 " fill-opacity="1" fill-rule="nonzero"/><path fill="#8e2a25" d="M 284.421875 404.957031 C 284.421875 406.234375 284.359375 407.507812 284.234375 408.78125 C 284.109375 410.050781 283.921875 411.3125 283.671875 412.566406 C 283.421875 413.820312 283.113281 415.058594 282.742188 416.28125 C 282.371094 417.503906 281.941406 418.707031 281.453125 419.886719 C 280.960938 421.066406 280.417969 422.222656 279.816406 423.347656 C 279.210938 424.476562 278.554688 425.570312 277.847656 426.632812 C 277.136719 427.695312 276.375 428.71875 275.566406 429.707031 C 274.753906 430.695312 273.898438 431.640625 272.992188 432.546875 C 272.089844 433.449219 271.144531 434.304688 270.15625 435.117188 C 269.167969 435.925781 268.144531 436.6875 267.082031 437.398438 C 266.019531 438.109375 264.921875 438.765625 263.796875 439.367188 C 262.667969 439.96875 261.515625 440.515625 260.335938 441.003906 C 259.15625 441.492188 257.953125 441.921875 256.730469 442.292969 C 255.507812 442.664062 254.269531 442.976562 253.015625 443.222656 C 251.761719 443.472656 250.5 443.660156 249.226562 443.785156 C 247.957031 443.910156 246.679688 443.972656 245.402344 443.972656 C 244.125 443.972656 242.851562 443.910156 241.578125 443.785156 C 240.308594 443.660156 239.042969 443.472656 237.792969 443.222656 C 236.539062 442.976562 235.300781 442.664062 234.078125 442.292969 C 232.855469 441.921875 231.652344 441.492188 230.472656 441.003906 C 229.289062 440.515625 228.136719 439.96875 227.011719 439.367188 C 225.882812 438.765625 224.789062 438.109375 223.726562 437.398438 C 222.664062 436.6875 221.636719 435.925781 220.648438 435.117188 C 219.664062 434.304688 218.714844 433.449219 217.8125 432.546875 C 216.910156 431.640625 216.050781 430.695312 215.242188 429.707031 C 214.429688 428.71875 213.671875 427.695312 212.960938 426.632812 C 212.25 425.570312 211.59375 424.476562 210.992188 423.347656 C 210.390625 422.222656 209.84375 421.066406 209.355469 419.886719 C 208.867188 418.707031 208.433594 417.503906 208.066406 416.28125 C 207.695312 415.058594 207.382812 413.820312 207.132812 412.566406 C 206.886719 411.3125 206.699219 410.050781 206.574219 408.78125 C 206.445312 407.507812 206.382812 406.234375 206.382812 404.957031 C 206.382812 403.675781 206.445312 402.402344 206.574219 401.128906 C 206.699219 399.859375 206.886719 398.597656 207.132812 397.34375 C 207.382812 396.089844 207.695312 394.851562 208.066406 393.628906 C 208.433594 392.40625 208.867188 391.203125 209.355469 390.023438 C 209.84375 388.84375 210.390625 387.6875 210.992188 386.5625 C 211.59375 385.433594 212.25 384.339844 212.960938 383.277344 C 213.671875 382.214844 214.429688 381.191406 215.242188 380.203125 C 216.050781 379.214844 216.910156 378.269531 217.8125 377.363281 C 218.714844 376.460938 219.664062 375.605469 220.648438 374.792969 C 221.636719 373.984375 222.664062 373.222656 223.726562 372.511719 C 224.789062 371.800781 225.882812 371.144531 227.011719 370.542969 C 228.136719 369.941406 229.289062 369.394531 230.472656 368.90625 C 231.652344 368.417969 232.855469 367.988281 234.078125 367.617188 C 235.300781 367.246094 236.539062 366.933594 237.792969 366.6875 C 239.042969 366.4375 240.308594 366.25 241.578125 366.125 C 242.851562 366 244.125 365.9375 245.402344 365.9375 C 246.679688 365.9375 247.957031 366 249.226562 366.125 C 250.5 366.25 251.761719 366.4375 253.015625 366.6875 C 254.269531 366.933594 255.507812 367.246094 256.730469 367.617188 C 257.953125 367.988281 259.15625 368.417969 260.335938 368.90625 C 261.515625 369.394531 262.667969 369.941406 263.796875 370.542969 C 264.921875 371.144531 266.019531 371.800781 267.082031 372.511719 C 268.144531 373.222656 269.167969 373.984375 270.15625 374.792969 C 271.144531 375.605469 272.089844 376.460938 272.992188 377.363281 C 273.898438 378.269531 274.753906 379.214844 275.566406 380.203125 C 276.375 381.191406 277.136719 382.214844 277.847656 383.277344 C 278.554688 384.339844 279.210938 385.433594 279.816406 386.5625 C 280.417969 387.6875 280.960938 388.84375 281.453125 390.023438 C 281.941406 391.203125 282.371094 392.40625 282.742188 393.628906 C 283.113281 394.851562 283.421875 396.089844 283.671875 397.34375 C 283.921875 398.597656 284.109375 399.859375 284.234375 401.128906 C 284.359375 402.402344 284.421875 403.675781 284.421875 404.957031 Z M 284.421875 404.957031 " fill-opacity="1" fill-rule="nonzero"/></svg>