<svg xmlns="http://www.w3.org/2000/svg" xmlns:xlink="http://www.w3.org/1999/xlink" width="1080" zoomAndPan="magnify" viewBox="0 0 810 817.92" height="1080" preserveAspectRatio="xMidYMid meet" version="1.0"><defs><clipPath id="fdef2d4e5f"><path d="M 43 61.535156 L 766 61.535156 L 766 748.46875 L 43 748.46875 Z M 43 61.535156 " clip-rule="nonzero"/></clipPath></defs><g clip-path="url(#fdef2d4e5f)"><path fill="#c9b583" d="M 593.839844 453.554688 L 705.773438 259.683594 C 707.5 256.699219 711.410156 255.660156 714.394531 257.375 L 726.898438 264.597656 C 729.886719 266.324219 730.929688 270.222656 729.207031 273.21875 L 625.082031 453.554688 Z M 655.667969 705.53125 C 655.667969 717.140625 646.21875 726.585938 634.605469 726.585938 L 367.855469 726.585938 C 356.242188 726.585938 346.796875 717.140625 346.796875 705.53125 L 346.796875 475.457031 L 655.667969 475.457031 Z M 335.847656 453.554688 L 356.074219 453.554688 L 265.355469 296.425781 C 264.8125 295.496094 264.429688 294.503906 264.191406 293.503906 L 264.1875 293.503906 L 264.148438 293.335938 L 236.980469 179.847656 C 234.457031 169.308594 247.296875 161.902344 255.15625 169.347656 L 339.855469 249.621094 L 339.984375 249.746094 L 339.980469 249.746094 C 340.730469 250.457031 341.390625 251.28125 341.933594 252.222656 L 440.914062 423.648438 L 440.914062 252.371094 C 440.914062 232.960938 456.699219 217.171875 476.105469 217.171875 L 502.421875 217.171875 L 502.421875 101.007812 C 502.421875 91.351562 494.566406 83.503906 484.914062 83.503906 L 184.414062 83.503906 L 184.414062 672.917969 L 324.898438 672.917969 L 324.898438 464.511719 C 324.898438 458.464844 329.800781 453.554688 335.847656 453.554688 Z M 282.066406 274.140625 L 266.859375 210.613281 L 314.273438 255.539062 Z M 381.355469 453.554688 L 289.789062 294.960938 L 328.441406 272.648438 L 432.894531 453.554688 Z M 563.925781 252.371094 L 563.925781 453.554688 L 462.804688 453.554688 L 462.804688 419.832031 L 489.941406 419.832031 C 495.988281 419.832031 500.890625 414.933594 500.890625 408.886719 C 500.890625 402.839844 495.988281 397.929688 489.941406 397.929688 L 462.804688 397.929688 L 462.804688 359.574219 L 514.101562 359.574219 C 520.152344 359.574219 525.050781 354.675781 525.050781 348.625 C 525.050781 342.578125 520.152344 337.679688 514.101562 337.679688 L 462.804688 337.679688 L 462.804688 299.320312 L 489.941406 299.320312 C 495.988281 299.320312 500.890625 294.425781 500.890625 288.375 C 500.890625 282.328125 495.988281 277.421875 489.941406 277.421875 L 462.804688 277.421875 L 462.804688 252.367188 C 462.804688 245.03125 468.769531 239.070312 476.105469 239.070312 L 550.628906 239.070312 C 557.960938 239.074219 563.925781 245.03125 563.925781 252.371094 Z M 100.460938 655.417969 L 100.460938 618.875 L 108.339844 618.875 C 123.546875 618.875 135.921875 606.507812 135.921875 591.296875 L 135.921875 572.773438 C 135.921875 557.574219 123.546875 545.203125 108.339844 545.203125 L 100.460938 545.203125 L 100.460938 482.996094 L 108.339844 482.996094 C 123.546875 482.996094 135.921875 470.621094 135.921875 455.414062 L 135.921875 436.894531 C 135.921875 421.691406 123.546875 409.316406 108.339844 409.316406 L 100.460938 409.316406 L 100.460938 347.109375 L 108.339844 347.109375 C 123.546875 347.109375 135.921875 334.730469 135.921875 319.527344 L 135.921875 301.015625 C 135.921875 285.804688 123.546875 273.429688 108.339844 273.429688 L 100.460938 273.429688 L 100.460938 211.230469 L 108.339844 211.230469 C 123.546875 211.230469 135.921875 198.851562 135.921875 183.640625 L 135.921875 165.128906 C 135.921875 149.917969 123.546875 137.550781 108.339844 137.550781 L 100.460938 137.550781 L 100.460938 101.007812 C 100.460938 91.351562 108.3125 83.503906 117.96875 83.503906 L 162.515625 83.503906 L 162.515625 672.917969 L 117.96875 672.917969 C 108.3125 672.921875 100.460938 665.074219 100.460938 655.417969 Z M 65 591.296875 C 65 594.375 67.601562 596.984375 70.683594 596.984375 L 108.339844 596.984375 C 111.425781 596.984375 114.027344 594.375 114.027344 591.296875 L 114.027344 572.773438 C 114.027344 569.703125 111.425781 567.09375 108.339844 567.09375 L 70.683594 567.09375 C 67.597656 567.09375 64.996094 569.703125 64.996094 572.773438 L 64.996094 591.296875 Z M 65 455.417969 C 65 458.5 67.601562 461.097656 70.683594 461.097656 L 108.339844 461.097656 C 111.425781 461.097656 114.027344 458.5 114.027344 455.417969 L 114.027344 436.898438 C 114.027344 433.816406 111.425781 431.21875 108.339844 431.21875 L 70.683594 431.21875 C 67.597656 431.21875 64.996094 433.816406 64.996094 436.898438 L 64.996094 455.417969 Z M 65 319.527344 C 65 322.609375 67.601562 325.21875 70.683594 325.21875 L 108.339844 325.21875 C 111.425781 325.21875 114.027344 322.609375 114.027344 319.527344 L 114.027344 301.015625 C 114.027344 297.925781 111.425781 295.328125 108.339844 295.328125 L 70.683594 295.328125 C 67.597656 295.328125 64.996094 297.925781 64.996094 301.015625 L 64.996094 319.527344 Z M 65 183.640625 C 65 186.730469 67.601562 189.328125 70.683594 189.328125 L 108.339844 189.328125 C 111.425781 189.328125 114.027344 186.730469 114.027344 183.640625 L 114.027344 165.128906 C 114.027344 162.046875 111.425781 159.441406 108.339844 159.441406 L 70.683594 159.441406 C 67.597656 159.441406 64.996094 162.046875 64.996094 165.128906 L 64.996094 183.640625 Z M 761.394531 314.507812 L 740.054688 298.226562 L 748.167969 284.164062 C 755.945312 270.695312 751.3125 253.410156 737.847656 245.628906 L 725.34375 238.414062 C 711.871094 230.636719 694.585938 235.265625 686.8125 248.734375 L 585.828125 423.648438 L 585.828125 252.371094 C 585.828125 232.960938 570.035156 217.171875 550.628906 217.171875 L 524.316406 217.171875 L 524.316406 101.007812 C 524.316406 79.28125 506.636719 61.601562 484.910156 61.601562 C 362.597656 61.601562 240.28125 61.601562 117.96875 61.601562 C 96.242188 61.601562 78.5625 79.28125 78.5625 101.007812 L 78.5625 137.550781 L 70.683594 137.550781 C 55.472656 137.550781 43.101562 149.917969 43.101562 165.128906 L 43.101562 183.640625 C 43.101562 198.851562 55.472656 211.226562 70.683594 211.226562 L 78.5625 211.226562 L 78.5625 273.429688 L 70.683594 273.429688 C 55.472656 273.429688 43.101562 285.804688 43.101562 301.015625 L 43.101562 319.527344 C 43.101562 334.730469 55.472656 347.105469 70.683594 347.105469 L 78.5625 347.105469 L 78.5625 409.316406 L 70.683594 409.316406 C 55.472656 409.316406 43.101562 421.691406 43.101562 436.894531 L 43.101562 455.414062 C 43.101562 470.617188 55.472656 482.996094 70.683594 482.996094 L 78.5625 482.996094 L 78.5625 545.203125 L 70.683594 545.203125 C 55.472656 545.203125 43.101562 557.570312 43.101562 572.773438 L 43.101562 591.292969 C 43.101562 606.503906 55.472656 618.871094 70.683594 618.871094 L 78.5625 618.871094 L 78.5625 655.414062 C 78.5625 677.140625 96.242188 694.816406 117.96875 694.816406 L 324.898438 694.816406 L 324.898438 705.527344 C 324.898438 729.210938 344.167969 748.476562 367.855469 748.476562 L 634.605469 748.476562 C 658.292969 748.476562 677.5625 729.210938 677.5625 705.527344 L 677.5625 464.511719 C 677.5625 458.464844 672.660156 453.554688 666.617188 453.554688 L 650.371094 453.554688 L 729.019531 317.34375 L 740.464844 326.074219 L 693.65625 407.144531 C 689.417969 414.480469 694.785156 423.570312 703.125 423.570312 C 706.910156 423.570312 710.589844 421.613281 712.613281 418.09375 L 764.238281 328.683594 C 766.988281 323.917969 765.773438 317.84375 761.394531 314.507812 Z M 761.394531 314.507812 " fill-opacity="1" fill-rule="evenodd"/></g></svg>