<svg xmlns="http://www.w3.org/2000/svg" xmlns:xlink="http://www.w3.org/1999/xlink" width="1080" zoomAndPan="magnify" viewBox="0 0 810 817.92" height="1080" preserveAspectRatio="xMidYMid meet" version="1.0"><defs><clipPath id="97278cd600"><path d="M 93 100.664062 L 750 100.664062 L 750 389 L 93 389 Z M 93 100.664062 " clip-rule="nonzero"/></clipPath><clipPath id="9d92305e5d"><path d="M 60.1875 421 L 717 421 L 717 709.605469 L 60.1875 709.605469 Z M 60.1875 421 " clip-rule="nonzero"/></clipPath></defs><path fill="#8e2a25" d="M 405.074219 574.441406 C 403.359375 574.441406 401.800781 573.972656 400.242188 573.191406 C 397.4375 571.476562 395.722656 568.515625 395.722656 565.089844 L 395.722656 395.527344 C 395.722656 392.101562 397.59375 388.984375 400.710938 387.269531 L 538.164062 313.242188 C 541.125 311.683594 544.554688 311.683594 547.359375 313.398438 C 550.164062 315.113281 551.878906 318.074219 551.878906 321.503906 L 551.878906 491.0625 C 551.878906 494.492188 550.007812 497.609375 546.890625 499.320312 L 409.4375 573.347656 C 408.191406 574.128906 406.632812 574.441406 405.074219 574.441406 Z M 414.425781 401.140625 L 414.425781 549.503906 L 533.179688 485.453125 L 533.179688 337.085938 Z M 542.527344 491.0625 Z M 542.527344 491.0625 " fill-opacity="1" fill-rule="nonzero"/><path fill="#8e2a25" d="M 542.527344 330.851562 C 540.96875 330.851562 539.410156 330.386719 537.855469 329.605469 L 400.398438 251.058594 C 395.878906 248.566406 394.320312 242.800781 396.96875 238.28125 C 399.460938 233.761719 405.230469 232.203125 409.75 234.851562 L 547.203125 313.398438 C 551.722656 315.890625 553.28125 321.65625 550.632812 326.175781 C 548.917969 329.140625 545.800781 330.851562 542.527344 330.851562 Z M 542.527344 330.851562 " fill-opacity="1" fill-rule="nonzero"/><path fill="#8e2a25" d="M 405.074219 574.441406 C 403.515625 574.441406 401.957031 574.128906 400.710938 573.347656 L 263.253906 499.167969 C 260.292969 497.609375 258.265625 494.335938 258.265625 490.90625 L 258.265625 321.503906 C 258.265625 318.230469 259.980469 315.113281 262.785156 313.398438 C 265.589844 311.683594 269.175781 311.683594 271.980469 313.242188 L 409.4375 387.269531 C 412.398438 388.828125 414.425781 392.101562 414.425781 395.527344 L 414.425781 565.089844 C 414.425781 568.363281 412.710938 571.476562 409.90625 573.191406 C 408.347656 573.972656 406.789062 574.441406 405.074219 574.441406 Z M 276.96875 485.453125 L 395.722656 549.503906 L 395.722656 401.140625 L 276.96875 337.085938 Z M 276.96875 485.453125 " fill-opacity="1" fill-rule="nonzero"/><path fill="#8e2a25" d="M 267.617188 330.851562 C 264.34375 330.851562 261.226562 329.140625 259.511719 326.175781 C 257.019531 321.65625 258.578125 316.046875 262.941406 313.398438 L 400.398438 234.851562 C 404.917969 232.359375 410.527344 233.917969 413.175781 238.28125 C 415.671875 242.800781 414.113281 248.410156 409.75 251.058594 L 272.292969 329.605469 C 270.890625 330.386719 269.175781 330.851562 267.617188 330.851562 Z M 267.617188 330.851562 " fill-opacity="1" fill-rule="nonzero"/><g clip-path="url(#97278cd600)"><path fill="#8e2a25" d="M 696.660156 388.671875 C 694.632812 388.671875 692.609375 388.046875 691.050781 386.800781 L 558.269531 285.96875 C 555.464844 283.789062 554.0625 280.359375 554.683594 276.929688 C 555.308594 273.5 557.800781 270.695312 561.074219 269.605469 L 611.257812 254.019531 C 596.917969 241.710938 575.101562 225.035156 547.828125 210.074219 C 481.75 173.761719 414.425781 162.539062 347.566406 176.722656 C 235.203125 200.566406 174.421875 287.527344 158.371094 313.554688 C 151.980469 323.996094 140.757812 330.386719 128.449219 330.386719 C 122.058594 330.386719 115.667969 328.671875 110.214844 325.242188 C 93.695312 315.113281 88.550781 293.605469 98.523438 277.085938 C 110.679688 257.136719 132.1875 226.902344 165.226562 196.359375 C 214.164062 151.164062 270.578125 121.398438 332.917969 108.148438 C 415.515625 90.539062 501.542969 104.566406 581.644531 148.667969 C 644.917969 183.578125 682.476562 224.722656 684.035156 226.59375 C 685.128906 227.839844 686.21875 229.242188 687.308594 230.644531 L 736.402344 207.269531 C 739.671875 205.710938 743.570312 206.175781 746.375 208.515625 C 749.179688 210.851562 750.425781 214.59375 749.492188 218.175781 L 705.699219 381.96875 C 704.917969 384.929688 702.582031 387.425781 699.621094 388.359375 C 698.84375 388.515625 697.75 388.671875 696.660156 388.671875 Z M 583.984375 282.074219 L 691.207031 363.582031 L 726.113281 232.828125 L 686.839844 251.527344 C 684.347656 252.773438 681.386719 252.773438 678.894531 251.527344 C 676.398438 250.28125 674.53125 248.253906 673.75 245.605469 C 673.128906 243.113281 671.878906 240.929688 670.167969 239.058594 C 669.699219 238.59375 633.230469 198.382812 572.605469 165.035156 C 496.554688 123.109375 415.046875 109.707031 336.8125 126.382812 C 277.746094 139.007812 224.292969 167.214844 177.851562 210.074219 C 146.527344 239.058594 126.109375 267.734375 114.578125 286.75 C 109.902344 294.386719 112.238281 304.515625 120.03125 309.191406 C 122.679688 310.75 125.488281 311.527344 128.601562 311.527344 C 134.371094 311.527344 139.511719 308.566406 142.628906 303.734375 C 159.617188 275.996094 224.136719 183.734375 343.824219 158.175781 C 415.203125 142.902344 486.890625 154.746094 557.023438 193.398438 C 595.515625 214.59375 623.257812 238.59375 636.347656 251.058594 C 638.683594 253.398438 639.777344 256.671875 638.996094 259.941406 C 638.21875 263.214844 635.878906 265.710938 632.609375 266.800781 Z M 583.984375 282.074219 " fill-opacity="1" fill-rule="nonzero"/></g><g clip-path="url(#9d92305e5d)"><path fill="#8e2a25" d="M 406.941406 709.089844 C 346.632812 709.089844 286.007812 692.882812 228.34375 661.246094 C 165.070312 626.335938 127.511719 585.191406 125.953125 583.324219 C 124.863281 582.074219 123.773438 580.671875 122.679688 579.269531 L 73.589844 602.648438 C 70.316406 604.207031 66.421875 603.738281 63.617188 601.402344 C 60.8125 599.0625 59.5625 595.324219 60.5 591.738281 L 104.136719 427.945312 C 104.914062 424.984375 107.253906 422.488281 110.214844 421.554688 C 113.175781 420.621094 116.449219 421.085938 118.941406 422.957031 L 251.722656 523.789062 C 254.527344 525.972656 255.929688 529.398438 255.304688 532.828125 C 254.683594 536.257812 252.1875 539.0625 248.917969 540.152344 L 198.734375 555.738281 C 213.070312 568.050781 234.890625 584.726562 262.164062 599.6875 C 328.242188 636 395.566406 647.21875 462.425781 633.039062 C 574.945312 609.039062 635.722656 522.074219 651.621094 496.050781 C 658.011719 485.609375 669.230469 479.21875 681.542969 479.21875 C 687.933594 479.21875 694.324219 480.933594 699.777344 484.359375 C 716.296875 494.492188 721.441406 515.996094 711.464844 532.515625 C 699.308594 552.464844 677.804688 582.699219 644.761719 613.246094 C 595.828125 658.441406 539.410156 688.207031 477.074219 701.453125 C 454.007812 706.753906 430.476562 709.089844 406.941406 709.089844 Z M 127.355469 557.453125 C 128.601562 557.453125 130.007812 557.765625 131.253906 558.230469 C 133.746094 559.324219 135.617188 561.503906 136.394531 564.152344 C 137.019531 566.648438 138.265625 568.828125 139.980469 570.699219 C 140.449219 571.167969 176.914062 611.375 237.539062 644.726562 C 313.59375 686.648438 395.097656 700.050781 473.332031 683.375 C 532.398438 670.75 585.855469 642.699219 632.296875 599.6875 C 663.777344 570.542969 684.191406 541.867188 695.726562 523.011719 C 700.398438 515.375 698.0625 505.242188 690.269531 500.570312 C 687.621094 499.011719 684.816406 498.230469 681.699219 498.230469 C 675.933594 498.230469 670.789062 501.191406 667.671875 506.023438 C 650.6875 533.765625 586.164062 626.023438 466.476562 651.582031 C 395.097656 666.855469 323.410156 655.011719 253.28125 616.363281 C 214.785156 595.167969 187.046875 571.167969 173.953125 558.699219 C 171.617188 556.363281 170.527344 553.089844 171.304688 549.816406 C 172.085938 546.542969 174.421875 544.050781 177.695312 542.957031 L 226.164062 527.839844 L 118.941406 446.335938 L 84.03125 577.089844 L 123.304688 558.386719 C 124.550781 557.765625 125.953125 557.453125 127.355469 557.453125 Z M 127.355469 557.453125 " fill-opacity="1" fill-rule="nonzero"/></g></svg>