<svg xmlns="http://www.w3.org/2000/svg" xmlns:xlink="http://www.w3.org/1999/xlink" width="1080" zoomAndPan="magnify" viewBox="0 0 810 817.92" height="1080" preserveAspectRatio="xMidYMid meet" version="1.0"><defs><clipPath id="dab8e53ed3"><path d="M 94.132812 44.710938 L 715.824219 44.710938 L 715.824219 765.390625 L 94.132812 765.390625 Z M 94.132812 44.710938 " clip-rule="nonzero"/></clipPath></defs><g clip-path="url(#dab8e53ed3)"><path fill="#c9b583" d="M 649.21875 591.863281 L 584.414062 656.664062 C 579.800781 661.339844 572.207031 661.324219 567.53125 656.679688 L 532.554688 621.699219 C 531.460938 620.59375 530.910156 619.191406 530.910156 617.636719 C 530.96875 615.785156 531.941406 613.839844 533.585938 612.183594 C 535.347656 610.417969 537.410156 609.523438 539.230469 609.523438 C 540.695312 609.523438 542.027344 610.046875 543.117188 611.136719 L 569.652344 637.65625 C 573.121094 641.152344 578.828125 641.152344 582.28125 637.65625 L 638.640625 581.296875 C 639.789062 580.191406 641.195312 579.652344 642.703125 579.683594 C 644.585938 579.742188 646.527344 580.683594 648.171875 582.34375 C 649.816406 584.003906 650.785156 585.945312 650.847656 587.796875 C 650.90625 589.351562 650.355469 590.757812 649.203125 591.863281 Z M 643.332031 561.769531 C 636.773438 561.574219 630.628906 563.996094 626.027344 568.628906 L 575.988281 618.652344 L 555.832031 598.464844 C 546.359375 588.976562 531 589.441406 520.972656 599.511719 C 510.886719 609.582031 510.410156 624.898438 519.882812 634.386719 L 554.859375 669.363281 C 560.6875 675.191406 568.339844 678.105469 576.003906 678.105469 C 583.667969 678.105469 591.304688 675.191406 597.144531 669.363281 L 661.949219 604.546875 C 671.421875 595.074219 671.003906 579.757812 660.917969 569.671875 C 656 564.789062 649.800781 561.976562 643.359375 561.769531 Z M 697.867188 622.34375 L 697.867188 540.460938 L 697.628906 540.460938 C 669.507812 540.460938 646.125 519.753906 641.808594 492.738281 L 539.949219 492.738281 C 535.632812 519.753906 512.246094 540.460938 484.128906 540.460938 L 483.886719 540.460938 L 483.886719 622.34375 C 483.886719 669.304688 511.949219 729.847656 590.902344 746.898438 C 669.792969 729.847656 697.851562 669.304688 697.851562 622.34375 Z M 112.019531 663.433594 L 112.019531 164.335938 C 112.019531 135.542969 135.460938 112.128906 164.253906 112.128906 L 251.828125 112.128906 C 242.714844 119.089844 232.148438 124.15625 220.554688 124.15625 L 203.671875 124.15625 C 192.792969 124.15625 183.933594 133 183.933594 143.878906 L 183.933594 153.949219 L 164.253906 153.949219 C 150.285156 153.949219 138.871094 165.320312 138.871094 179.304688 L 138.871094 663.449219 C 138.871094 677.433594 150.285156 688.804688 164.253906 688.804688 L 482.378906 688.804688 C 485.84375 695.40625 489.789062 701.726562 494.289062 707.703125 C 496.347656 710.453125 498.546875 713.082031 500.726562 715.652344 L 164.253906 715.652344 C 135.460938 715.652344 112.019531 692.238281 112.019531 663.449219 Z M 292.710938 93.300781 C 271.640625 124.753906 246 142.070312 220.554688 142.070312 L 203.671875 142.070312 C 202.699219 142.070312 201.847656 142.894531 201.847656 143.863281 L 201.847656 181.9375 C 201.847656 182.90625 202.699219 183.730469 203.671875 183.730469 L 490.28125 183.730469 C 491.253906 183.730469 492.105469 182.90625 492.105469 181.9375 L 492.105469 143.863281 C 492.105469 142.894531 491.253906 142.070312 490.28125 142.070312 L 473.398438 142.070312 C 447.953125 142.070312 422.328125 124.753906 401.246094 93.300781 C 386.125 70.769531 362.5625 62.761719 347.007812 62.761719 C 331.453125 62.761719 307.828125 70.753906 292.710938 93.300781 Z M 474.550781 670.859375 C 468.960938 655.363281 465.988281 638.898438 465.988281 622.34375 L 465.988281 531.511719 C 465.988281 526.550781 469.992188 522.546875 474.984375 522.546875 L 484.15625 522.546875 C 505.480469 522.546875 522.78125 505.167969 522.78125 483.789062 C 522.78125 478.84375 526.785156 474.824219 531.714844 474.824219 L 537.183594 474.824219 L 537.183594 179.292969 C 537.183594 175.195312 533.839844 171.863281 529.714844 171.863281 L 510.035156 171.863281 L 510.035156 181.9375 C 510.035156 192.8125 501.234375 201.660156 490.296875 201.660156 L 203.671875 201.660156 C 192.792969 201.660156 183.933594 192.8125 183.933594 181.9375 L 183.933594 171.863281 L 164.253906 171.863281 C 160.191406 171.863281 156.84375 175.195312 156.84375 179.292969 L 156.84375 663.433594 C 156.84375 667.527344 160.191406 670.859375 164.253906 670.859375 Z M 581.9375 164.335938 C 581.9375 135.542969 558.550781 112.128906 529.699219 112.128906 L 442.1875 112.128906 C 451.242188 119.089844 461.863281 124.15625 473.398438 124.15625 L 490.28125 124.15625 C 501.21875 124.15625 510.019531 133 510.019531 143.878906 L 510.019531 153.949219 L 529.699219 153.949219 C 543.730469 153.949219 555.085938 165.320312 555.085938 179.304688 L 555.085938 474.839844 L 581.9375 474.839844 Z M 706.863281 522.546875 L 697.628906 522.546875 C 676.367188 522.546875 659.066406 505.167969 659.066406 483.789062 C 659.066406 478.84375 655.058594 474.824219 650.070312 474.824219 L 599.835938 474.824219 L 599.835938 164.335938 C 599.835938 125.664062 568.367188 94.199219 529.683594 94.199219 L 424.121094 94.199219 C 420.96875 90.34375 418.292969 86.59375 416.097656 83.335938 C 400.421875 59.953125 373.273438 44.847656 346.976562 44.847656 C 320.679688 44.847656 293.472656 59.953125 277.796875 83.335938 C 275.617188 86.59375 272.941406 90.34375 269.773438 94.199219 L 164.210938 94.199219 C 125.527344 94.199219 94.058594 125.664062 94.058594 164.335938 L 94.058594 663.449219 C 94.058594 702.132812 125.527344 733.582031 164.210938 733.582031 L 519.570312 733.582031 C 538.695312 748.691406 562.199219 759.34375 589.046875 764.855469 C 589.660156 764.976562 590.257812 765.035156 590.871094 765.035156 C 591.484375 765.035156 592.082031 764.976562 592.632812 764.855469 C 632.902344 756.578125 665.699219 736.8125 687.5 707.703125 C 705.710938 683.304688 715.796875 652.988281 715.796875 622.359375 L 715.796875 531.527344 C 715.796875 526.566406 711.734375 522.5625 706.804688 522.5625 Z M 457.054688 642.09375 C 457.054688 637.136719 453.046875 633.128906 448.058594 633.128906 L 195.167969 633.128906 C 190.195312 633.128906 186.175781 637.136719 186.175781 642.09375 C 186.175781 647.054688 190.179688 651.0625 195.167969 651.0625 L 448.074219 651.0625 C 453.046875 651.0625 457.066406 647.042969 457.066406 642.09375 Z M 457.054688 602.230469 C 457.054688 597.285156 453.046875 593.265625 448.058594 593.265625 L 195.167969 593.265625 C 190.195312 593.265625 186.175781 597.285156 186.175781 602.230469 C 186.175781 607.175781 190.179688 611.195312 195.167969 611.195312 L 448.074219 611.195312 C 453.046875 611.195312 457.066406 607.175781 457.066406 602.230469 Z M 457.054688 562.382812 C 457.054688 557.421875 453.046875 553.417969 448.058594 553.417969 L 195.167969 553.417969 C 190.195312 553.417969 186.175781 557.421875 186.175781 562.382812 C 186.175781 567.34375 190.179688 571.347656 195.167969 571.347656 L 448.074219 571.347656 C 453.046875 571.347656 457.066406 567.328125 457.066406 562.382812 Z M 466.167969 351.015625 C 466.660156 351.242188 467.257812 351.046875 467.496094 350.566406 L 491.238281 305.101562 C 491.480469 304.621094 491.417969 304.1875 491.058594 303.84375 L 439.375 259.363281 C 431.667969 252.730469 420.730469 251.773438 409.792969 251.339844 L 392.175781 301.410156 C 391.265625 303.933594 389.320312 305.921875 386.828125 306.847656 C 385.796875 307.222656 384.765625 307.402344 383.734375 307.402344 C 382.148438 307.402344 380.582031 306.984375 379.238281 306.191406 L 377.59375 305.234375 L 373.46875 316.050781 L 383.734375 415.863281 C 383.972656 418.296875 383.242188 420.71875 381.671875 422.570312 L 353.789062 455.445312 C 352.085938 457.460938 349.605469 458.613281 346.992188 458.613281 C 344.378906 458.613281 341.824219 457.445312 340.132812 455.445312 L 312.253906 422.570312 C 310.667969 420.71875 309.953125 418.285156 310.191406 415.863281 L 320.457031 316.050781 L 316.390625 305.234375 L 314.75 306.191406 C 312.371094 307.535156 309.652344 307.773438 307.097656 306.847656 C 304.601562 305.921875 302.660156 303.933594 301.75 301.410156 L 284.132812 251.339844 C 273.253906 251.757812 262.273438 252.714844 254.621094 259.363281 L 202.9375 303.84375 C 202.519531 304.203125 202.445312 304.621094 202.699219 305.101562 L 226.503906 350.566406 C 226.683594 351.046875 227.292969 351.253906 227.773438 351.015625 L 249.09375 341.273438 L 249.09375 328.484375 C 249.09375 323.523438 253.097656 319.519531 258.03125 319.519531 C 262.960938 319.519531 267.023438 323.539062 267.023438 328.484375 L 267.023438 428.011719 C 275.109375 446.058594 290.960938 459.808594 310.386719 464.945312 C 314.328125 465.976562 317.0625 469.546875 317.0625 473.613281 C 317.0625 474.0625 317.003906 474.507812 316.945312 474.941406 L 421.65625 474.941406 C 424.570312 474.941406 426.945312 472.550781 426.945312 469.625 L 426.945312 328.46875 C 426.945312 323.507812 430.949219 319.503906 435.941406 319.503906 C 440.929688 319.503906 444.933594 323.523438 444.933594 328.46875 L 444.933594 341.257812 L 466.195312 351 Z M 254.816406 503.765625 C 262.109375 491.304688 272.492188 480.890625 284.9375 473.597656 C 272.492188 466.304688 262.109375 455.90625 254.816406 443.429688 C 247.464844 455.890625 237.082031 466.304688 224.632812 473.597656 C 237.082031 480.890625 247.464844 491.289062 254.816406 503.765625 Z M 378.894531 285.226562 L 392.984375 245.035156 L 387.273438 240.222656 L 359.574219 274.023438 Z M 358.183594 305.890625 L 361.890625 296.089844 L 347.007812 287.4375 L 332.066406 296.089844 L 335.769531 305.890625 Z M 337.652344 323.824219 L 328.417969 413.875 L 347.007812 435.765625 L 365.535156 413.875 L 356.300781 323.824219 Z M 347.007812 261.066406 L 367.105469 236.472656 L 326.835938 236.472656 Z M 306.738281 240.207031 L 300.972656 245.019531 L 315.0625 285.214844 L 334.441406 274.007812 Z M 483.351562 358.859375 C 478.671875 367.796875 467.855469 371.5 458.695312 367.300781 L 444.90625 360.980469 L 444.90625 469.609375 C 444.90625 482.429688 434.460938 492.859375 421.640625 492.859375 L 288.269531 492.859375 C 276.304688 501.660156 267.382812 514.390625 263.4375 529.195312 C 262.40625 533.125 258.820312 535.875 254.816406 535.875 C 250.8125 535.875 247.167969 533.140625 246.136719 529.195312 C 240.070312 506.304688 222.078125 488.316406 199.1875 482.265625 C 195.246094 481.21875 192.511719 477.664062 192.511719 473.597656 C 192.511719 469.535156 195.246094 465.960938 199.1875 464.933594 C 222.078125 458.878906 240.070312 440.90625 246.136719 418 C 246.628906 416.132812 247.660156 414.5625 249.109375 413.382812 L 249.109375 360.984375 L 235.257812 367.304688 C 232.703125 368.46875 230.027344 369.019531 227.429688 369.019531 C 220.570312 369.019531 213.953125 365.300781 210.605469 358.847656 L 186.800781 313.394531 C 182.738281 305.535156 184.5625 296.015625 191.238281 290.234375 L 242.921875 245.753906 C 256.222656 234.320312 273.226562 233.738281 286.898438 233.289062 C 286.957031 233.289062 287.015625 233.289062 287.074219 233.289062 L 302.195312 220.648438 C 303.78125 219.304688 305.84375 218.558594 307.90625 218.558594 L 386.066406 218.558594 C 388.125 218.558594 390.1875 219.304688 391.773438 220.648438 L 406.894531 233.289062 C 407.011719 233.289062 407.074219 233.289062 407.132812 233.289062 C 420.804688 233.753906 437.808594 234.335938 451.046875 245.753906 L 502.730469 290.234375 C 509.46875 296.015625 511.292969 305.535156 507.167969 313.394531 L 483.363281 358.859375 Z M 347.007812 95.167969 C 335.414062 95.167969 326 104.582031 326 116.148438 C 326 127.710938 335.414062 137.125 347.007812 137.125 C 358.601562 137.125 367.957031 127.710938 367.957031 116.148438 C 367.957031 104.582031 358.542969 95.167969 347.007812 95.167969 Z M 347.007812 155.054688 C 368.449219 155.054688 385.871094 137.605469 385.871094 116.148438 C 385.871094 94.691406 368.433594 77.238281 347.007812 77.238281 C 325.582031 77.238281 308.070312 94.691406 308.070312 116.148438 C 308.070312 137.605469 325.507812 155.054688 347.007812 155.054688 Z M 347.007812 155.054688 " fill-opacity="1" fill-rule="evenodd"/></g></svg>