<svg xmlns="http://www.w3.org/2000/svg" xmlns:xlink="http://www.w3.org/1999/xlink" width="1080" zoomAndPan="magnify" viewBox="0 0 810 817.92" height="1080" preserveAspectRatio="xMidYMid meet" version="1.0"><defs><clipPath id="8de4d35750"><path d="M 145.503906 53.421875 L 664.453125 53.421875 L 664.453125 756.855469 L 145.503906 756.855469 Z M 145.503906 53.421875 " clip-rule="nonzero"/></clipPath></defs><g clip-path="url(#8de4d35750)"><path fill="#395a87" d="M 638.484375 338.449219 L 602.625 338.449219 L 602.625 251.265625 C 602.765625 142.152344 514.039062 53.421875 404.925781 53.421875 C 295.808594 53.421875 207.082031 142.152344 207.082031 251.265625 L 207.082031 338.449219 L 171.363281 338.449219 C 157.164062 338.449219 145.632812 349.976562 145.632812 364.179688 L 145.632812 730.898438 C 145.632812 744.960938 157.164062 756.492188 171.363281 756.492188 L 638.625 756.492188 C 652.824219 756.492188 664.355469 744.960938 664.355469 730.757812 L 664.355469 364.179688 C 664.214844 349.976562 652.683594 338.449219 638.484375 338.449219 Z M 258.546875 251.265625 C 258.546875 170.554688 324.210938 104.886719 404.925781 104.886719 C 485.636719 104.886719 551.300781 170.554688 551.300781 251.265625 L 551.300781 338.449219 L 258.546875 338.449219 Z M 430.65625 565.960938 L 430.65625 633.59375 C 430.65625 647.796875 419.125 659.328125 404.925781 659.328125 C 390.722656 659.328125 379.191406 647.796875 379.191406 633.59375 L 379.191406 565.960938 C 361.472656 556.679688 349.382812 538.117188 349.382812 516.886719 C 349.382812 486.234375 374.269531 461.484375 404.785156 461.484375 C 435.4375 461.484375 460.183594 486.375 460.183594 516.886719 C 460.464844 538.117188 448.375 556.679688 430.65625 565.960938 Z M 430.65625 565.960938 " fill-opacity="1" fill-rule="nonzero"/></g></svg>