<svg xmlns="http://www.w3.org/2000/svg" xmlns:xlink="http://www.w3.org/1999/xlink" width="1080" zoomAndPan="magnify" viewBox="0 0 810 817.92" height="1080" preserveAspectRatio="xMidYMid meet" version="1.0"><defs><clipPath id="ad894be953"><path d="M 53.050781 390 L 757 390 L 757 718 L 53.050781 718 Z M 53.050781 390 " clip-rule="nonzero"/></clipPath></defs><g clip-path="url(#ad894be953)"><path fill="#395a87" d="M 529.382812 390.363281 C 492.355469 419.496094 445.734375 436.9375 395.078125 436.9375 C 345.683594 436.9375 300.085938 420.363281 263.523438 392.511719 C 144.199219 411.800781 53.050781 515.253906 53.050781 640.03125 C 53.050781 778.546875 165.332031 688.496094 303.832031 688.496094 L 506.144531 688.496094 C 644.65625 688.496094 756.941406 778.546875 756.941406 640.03125 C 756.941406 509.375 656.988281 402.085938 529.382812 390.363281 Z M 529.382812 390.363281 " fill-opacity="1" fill-rule="nonzero"/></g><path fill="#395a87" d="M 395.078125 407.746094 C 498.980469 407.746094 583.503906 323.210938 583.503906 219.300781 C 583.503906 115.398438 498.980469 30.863281 395.078125 30.863281 C 291.179688 30.863281 206.648438 115.398438 206.648438 219.300781 C 206.65625 323.210938 291.1875 407.746094 395.078125 407.746094 Z M 395.078125 407.746094 " fill-opacity="1" fill-rule="nonzero"/></svg>