<?xml version="1.0" standalone="no"?>
<!DOCTYPE svg PUBLIC "-//W3C//DTD SVG 20010904//EN"
 "http://www.w3.org/TR/2001/REC-SVG-20010904/DTD/svg10.dtd">
<svg version="1.0" xmlns="http://www.w3.org/2000/svg"
 width="1254.000000pt" height="1254.000000pt" viewBox="0 0 1254.000000 1254.000000"
 preserveAspectRatio="xMidYMid meet">

<g transform="translate(0.000000,1254.000000) scale(0.100000,-0.100000)"
fill="#000000" stroke="none">
<path d="M1823 8533 c4 -2843 3 -2779 47 -3134 88 -708 317 -1327 678 -1838
248 -350 665 -740 1112 -1038 451 -301 822 -497 1835 -970 77 -36 289 -139
471 -229 l332 -163 248 123 c137 68 348 170 469 226 440 204 546 255 885 425
190 95 428 220 530 277 695 394 1183 789 1542 1249 444 570 714 1358 778 2269
6 93 10 1119 10 2838 l0 2692 -4470 0 -4471 0 4 -2727z m5517 917 l0 -1720
1667 -2 1667 -3 2 -755 c2 -686 -7 -1194 -22 -1292 l-6 -38 -1654 0 -1654 0
-2 -1941 -3 -1940 -365 -172 c-201 -95 -434 -208 -518 -252 l-153 -80 -362
180 c-199 99 -429 212 -512 250 -82 38 -156 73 -162 78 -10 8 -13 408 -13
1943 l0 1934 -1654 0 c-1313 0 -1656 3 -1663 13 -4 6 -9 477 -11 1045 l-3
1032 1665 0 1666 0 0 1720 0 1720 1045 0 1045 0 0 -1720z m-4125 1425 c262 15
377 1 491 -58 33 -17 137 -107 131 -113 -2 -2 -50 16 -107 41 -57 25 -106 43
-108 40 -3 -3 12 -24 34 -48 22 -23 53 -59 68 -79 38 -54 136 -157 158 -169
17 -9 18 -7 12 17 -6 23 -5 25 12 16 11 -6 52 -38 91 -71 40 -34 77 -61 82
-61 4 0 11 39 15 86 6 74 5 91 -13 127 -29 60 -84 109 -176 156 -83 44 -150
90 -142 98 4 4 85 -23 160 -52 25 -10 22 15 -8 59 -13 20 -21 36 -16 36 20 0
132 -84 161 -119 33 -42 80 -137 80 -162 0 -27 11 -29 42 -6 23 17 43 22 96
22 60 0 72 -3 115 -34 26 -19 47 -38 47 -43 0 -4 -14 -8 -30 -8 -19 0 -40 -9
-55 -24 -21 -21 -23 -29 -15 -58 5 -18 19 -41 31 -50 36 -30 42 -79 19 -145
-12 -32 -23 -65 -26 -74 -4 -10 11 -29 40 -53 59 -48 76 -82 76 -148 0 -95 13
-120 103 -200 163 -145 217 -213 225 -284 3 -29 1 -44 -7 -44 -6 0 -11 -6 -11
-13 0 -8 -21 -36 -47 -64 -71 -75 -75 -81 -110 -160 -17 -40 -41 -86 -53 -103
-12 -16 -18 -30 -13 -31 4 0 23 -2 41 -3 60 -6 107 53 131 164 18 86 33 130
44 130 10 0 9 -4 -18 -110 -37 -145 -47 -170 -74 -198 l-29 -28 19 -35 c31
-58 25 -98 -29 -177 -27 -39 -77 -102 -113 -139 -62 -66 -64 -67 -67 -40 -2
15 -7 27 -11 27 -14 0 -31 -24 -31 -44 0 -12 -11 -39 -25 -61 -13 -22 -25 -46
-25 -52 0 -26 20 -12 40 27 11 22 22 40 25 40 10 0 -18 -59 -38 -81 -12 -13
-39 -50 -60 -84 -63 -97 -250 -306 -263 -293 -3 4 2 21 11 39 11 20 19 66 22
118 5 81 4 85 -11 64 -9 -12 -30 -51 -46 -88 -37 -83 -81 -147 -139 -202 -52
-50 -66 -55 -45 -15 17 33 18 122 2 191 -12 55 -28 68 -28 24 0 -30 -39 -114
-95 -204 -49 -81 -192 -207 -154 -138 12 24 5 78 -18 124 -23 46 -82 103 -148
142 -189 114 -294 242 -369 452 -39 109 -48 118 -42 43 8 -87 61 -241 109
-315 46 -72 167 -218 200 -241 12 -8 36 -27 52 -41 l30 -25 -70 24 c-264 90
-411 220 -621 547 -42 66 -78 119 -79 117 -2 -2 -8 -45 -14 -96 -12 -96 -41
-174 -77 -203 -16 -13 -17 -12 -9 6 4 11 13 54 18 96 8 66 6 92 -13 185 -13
60 -25 134 -27 164 -3 30 -7 57 -9 59 -2 2 -11 -13 -21 -35 -11 -26 -17 -69
-17 -131 -1 -51 -4 -93 -7 -93 -9 0 -44 111 -64 204 -18 79 -17 214 1 321 7
37 6 39 -10 25 -24 -19 -93 -122 -106 -156 -17 -44 -18 -24 -4 61 20 114 41
182 76 245 43 76 145 229 176 262 50 54 1 46 -110 -19 -65 -38 -124 -102 -174
-188 l-35 -60 4 100 c7 149 59 265 178 391 l51 53 -44 11 c-56 15 -111 31
-121 38 -5 2 13 12 40 21 66 22 203 114 203 135 0 3 -19 10 -42 16 l-41 12 40
36 c22 20 68 71 101 112 33 41 81 95 106 120 25 24 46 47 46 50 0 3 -29 5 -65
5 -59 1 -96 12 -69 22 7 2 99 56 205 120 106 63 213 125 236 136 40 20 56 37
33 37 -9 0 -60 68 -60 81 0 4 17 -2 38 -13 33 -18 49 -19 157 -13z m6714 -154
c84 -26 137 -59 202 -127 71 -75 100 -126 140 -244 30 -87 33 -108 37 -252 6
-208 -15 -338 -93 -588 -79 -251 -229 -505 -461 -780 -78 -93 -263 -293 -276
-298 -4 -2 21 38 56 90 262 385 450 853 502 1243 21 158 14 378 -14 487 -41
154 -97 229 -209 285 -72 35 -83 38 -162 37 -122 -1 -259 -43 -359 -110 -30
-19 -56 -34 -58 -31 -8 8 156 157 212 193 166 106 338 140 483 95z m-997 -552
c25 -13 50 -72 41 -96 -22 -64 -93 -84 -138 -38 -35 34 -33 78 4 116 31 31 59
36 93 18z m562 -20 c55 -65 15 -158 -62 -145 -46 7 -72 38 -72 85 1 39 13 61
45 79 34 19 62 13 89 -19z m-330 -88 c43 -44 137 -94 206 -110 69 -16 142 -13
212 9 34 11 65 20 66 20 2 0 -20 -27 -50 -61 -119 -135 -155 -214 -143 -313 5
-41 12 -55 26 -59 28 -7 43 -54 28 -89 -6 -15 -18 -28 -25 -28 -8 0 -14 -10
-14 -21 0 -39 51 -250 90 -372 22 -67 37 -123 35 -125 -10 -11 -168 287 -208
393 -9 22 -19 49 -23 60 -7 20 -12 -10 -32 -195 l-8 -75 -13 59 c-14 62 -9
120 15 188 8 22 14 50 14 61 0 11 7 29 17 39 9 10 12 18 6 18 -15 0 -40 -33
-40 -51 0 -8 -10 -29 -22 -46 -31 -41 -36 -96 -17 -187 23 -110 21 -130 -19
-201 -57 -102 -87 -115 -40 -17 17 36 25 69 25 107 0 58 -13 73 -25 28 -11
-45 -47 -123 -56 -123 -5 0 -9 8 -9 18 0 14 -3 14 -18 -5 -17 -22 -17 -21 -18
55 -1 42 -8 102 -16 133 -21 77 -1 209 31 209 11 0 29 -45 40 -100 6 -28 9
-35 10 -19 1 14 -6 49 -14 77 -13 44 -19 52 -40 52 -29 0 -40 -19 -64 -104
-17 -61 -17 -63 3 -101 14 -28 21 -64 24 -129 4 -86 3 -90 -13 -75 -11 11 -21
46 -28 98 -6 45 -14 81 -17 81 -12 0 -30 -76 -30 -125 0 -30 9 -65 25 -96 30
-60 15 -65 -19 -6 -49 83 -71 252 -48 365 19 91 -6 112 -40 35 -62 -146 -203
-401 -244 -443 -13 -13 -13 -9 0 28 19 53 107 385 132 497 10 47 18 123 18
185 1 87 -3 113 -20 151 -27 58 -79 116 -167 187 -38 29 -67 56 -65 58 2 2 48
-10 103 -26 118 -36 200 -39 282 -10 74 26 129 70 125 101 -2 20 11 38 28 39
3 0 23 -18 44 -39z m-751 -192 c76 -14 88 -29 24 -29 -104 0 -230 -54 -308
-131 -143 -141 -110 -379 92 -664 70 -99 272 -306 389 -401 179 -145 398 -278
565 -344 44 -18 82 -34 85 -37 6 -6 -97 5 -170 19 -324 60 -759 314 -1020 595
-174 188 -260 384 -260 593 0 211 103 346 310 406 53 16 193 12 293 -7z
m-4428 -4637 c22 -16 60 -58 83 -93 30 -44 53 -66 72 -72 62 -16 91 -103 53
-156 -13 -19 -14 -28 -4 -43 6 -10 14 -39 18 -63 3 -25 11 -45 17 -45 6 0 43
12 81 26 87 31 298 45 384 24 87 -21 141 -81 141 -157 -1 -87 -96 -249 -221
-374 l-76 -76 47 -41 c43 -37 51 -40 89 -35 55 8 86 -10 111 -63 20 -40 20
-45 5 -73 -8 -17 -24 -37 -35 -44 -22 -13 -27 -42 -9 -53 6 -3 16 -1 22 5 6 6
14 11 18 11 15 0 44 -98 44 -150 0 -70 -29 -114 -94 -143 -57 -26 -235 -31
-333 -10 -35 7 -84 18 -111 23 -26 5 -56 14 -67 20 -16 8 -20 7 -21 -5 -5 -56
-9 -77 -24 -130 -41 -145 -127 -294 -194 -336 -80 -51 -152 -33 -222 55 -38
47 -109 182 -109 207 0 6 -6 25 -14 42 -18 39 -32 90 -41 140 -5 31 -9 37 -23
32 -58 -24 -71 -27 -88 -20 -17 7 -16 9 11 21 17 7 40 13 52 14 30 0 40 20 19
36 -14 10 -16 21 -11 58 5 28 3 51 -3 59 -6 7 -12 50 -14 96 -2 71 -6 84 -23
94 -11 6 -67 46 -123 89 -116 88 -104 88 -179 9 -34 -35 -40 -48 -33 -62 33
-60 -12 -139 -85 -151 -18 -3 -20 -11 -20 -69 0 -56 4 -71 27 -101 15 -20 49
-47 75 -59 41 -21 64 -24 163 -25 90 -1 115 -4 115 -15 0 -20 -152 -41 -258
-35 -157 9 -233 68 -225 176 2 30 14 76 27 102 21 44 21 49 7 70 -26 36 -21
101 10 131 29 29 56 36 98 25 25 -6 36 -1 93 50 l64 57 -64 60 c-144 134 -237
286 -240 389 -1 67 18 99 84 136 42 24 52 25 194 24 140 -1 156 -3 240 -31 50
-17 91 -30 92 -29 2 2 7 23 12 47 16 73 46 173 62 204 9 17 29 56 45 88 38 78
84 130 136 156 53 27 97 22 153 -17z m4876 -414 c12 -252 14 -277 25 -237 7
24 20 71 29 104 9 33 29 102 45 153 17 51 30 100 30 109 0 9 12 55 26 102 18
60 28 80 35 70 12 -19 11 -101 -1 -134 -5 -14 -17 -69 -25 -123 -27 -170 -46
-261 -60 -296 -8 -18 -12 -36 -8 -39 8 -9 50 57 101 158 58 117 223 407 229
401 3 -2 -2 -17 -10 -33 -9 -16 -46 -116 -82 -223 -37 -107 -85 -230 -107
-274 -41 -82 -38 -96 9 -34 29 38 190 226 227 265 12 11 48 55 81 97 33 41 63
75 67 76 14 0 -125 -236 -202 -345 -33 -46 -120 -192 -120 -201 0 -14 18 1 37
30 12 19 80 80 152 137 72 57 167 133 212 169 44 36 95 76 112 90 18 14 -20
-31 -83 -99 -194 -210 -302 -319 -342 -347 -55 -39 -37 -48 21 -11 27 18 98
58 158 90 137 74 315 172 373 205 53 30 47 22 -35 -41 -208 -162 -383 -286
-453 -321 -128 -64 -9 -29 408 122 107 39 196 70 197 69 1 -2 -169 -96 -386
-213 -42 -23 -109 -53 -149 -66 -75 -26 -110 -47 -57 -33 17 4 44 8 60 10 17
2 73 13 125 24 52 11 160 30 240 41 80 11 161 22 180 25 48 7 -162 -69 -280
-101 -52 -15 -131 -37 -175 -50 l-80 -23 75 -1 c116 -3 143 -18 34 -19 -66 -1
-95 -5 -103 -15 -11 -12 -92 -15 -524 -15 -299 -1 -545 3 -592 9 -138 18 -301
24 -309 11 -8 -13 -234 -14 -306 -2 -40 8 -35 9 40 10 153 2 465 22 473 30 4
5 -25 18 -65 31 -40 12 -113 35 -163 50 -49 16 -103 31 -120 35 -50 10 -167
47 -162 51 4 5 248 -21 332 -35 76 -13 200 -38 288 -57 38 -9 71 -13 74 -11 2
3 -6 8 -19 12 -49 13 -622 294 -615 301 1 1 88 -26 192 -61 216 -72 435 -159
451 -181 13 -16 24 -18 24 -4 0 5 -13 16 -30 25 -16 8 -65 46 -107 83 -43 38
-114 95 -158 128 -152 114 -190 143 -220 169 l-30 26 30 -15 c102 -49 406
-223 509 -292 31 -20 60 -33 64 -29 4 4 0 10 -8 13 -23 8 -105 96 -235 252
-44 52 -109 129 -145 170 l-65 74 65 -49 c98 -74 245 -202 353 -307 54 -52 99
-92 102 -90 5 6 -32 71 -103 182 -31 47 -89 143 -129 214 -41 71 -83 142 -95
158 -11 16 -18 31 -16 34 3 2 28 -26 56 -63 29 -38 72 -93 97 -123 69 -82 252
-326 257 -341 3 -8 9 -11 13 -6 5 4 3 17 -3 30 -42 85 -217 576 -208 584 4 4
235 -454 265 -525 12 -30 24 -52 27 -50 2 3 -1 38 -6 79 -6 41 -19 144 -29
229 -11 85 -24 166 -29 180 -5 14 -12 54 -16 90 l-6 65 26 -65 c25 -64 110
-361 134 -470 25 -110 21 -133 49 330 6 96 14 193 18 215 l7 40 12 -53 c7 -29
18 -179 25 -334z m1060 -715 c118 -7 121 -8 59 -14 -102 -10 -270 -10 -270 0
0 6 -15 12 -32 14 -60 7 117 7 243 0z m-1845 -189 c119 -74 231 -160 257 -198
22 -31 22 -35 17 -314 l-5 -282 -42 49 c-58 67 -171 140 -288 187 l-97 38 5
51 c3 27 16 157 28 288 13 130 26 237 29 237 4 0 47 -25 96 -56z m694 -116 c5
-90 12 -218 16 -284 l7 -122 -24 -7 c-13 -4 -76 -32 -139 -63 -99 -48 -126
-67 -191 -133 l-77 -77 5 291 5 292 47 48 c25 26 78 70 117 97 76 53 216 131
222 125 2 -2 8 -77 12 -167z m-823 85 c-3 -10 -5 -2 -5 17 0 19 2 27 5 18 2
-10 2 -26 0 -35z m868 -363 l8 -165 -64 -19 c-104 -30 -108 -29 -29 11 l75 38
0 55 c0 30 -3 154 -7 275 -4 141 -3 175 2 95 4 -69 11 -199 15 -290z m-905
228 c-6 -78 -15 -165 -20 -193 -5 -27 -12 -87 -16 -132 -5 -66 -4 -84 7 -87 8
-3 49 -15 92 -27 42 -12 76 -24 74 -25 -2 -2 -37 3 -77 12 -41 8 -84 13 -96
10 -30 -8 -33 6 -31 129 2 103 37 439 45 431 6 -6 -17 -267 -29 -330 -5 -27
-8 -72 -7 -100 l1 -51 7 60 c4 33 14 114 23 180 9 66 19 155 23 198 3 43 8 76
11 74 2 -3 -1 -70 -7 -149z m924 15 c3 -70 10 -198 15 -283 5 -85 8 -156 7
-158 -3 -2 -47 -10 -146 -27 l-35 -5 40 14 c22 8 60 20 84 26 l44 12 -8 131
c-14 246 -20 425 -14 421 3 -2 9 -61 13 -131z m25 0 c0 -54 -2 -93 -4 -88 -8
25 -12 185 -4 185 5 0 9 -44 8 -97z m-922 5 c-2 -18 -4 -6 -4 27 0 33 2 48 4
33 2 -15 2 -42 0 -60z m-80 -15 c-2 -16 -4 -3 -4 27 0 30 2 43 4 28 2 -16 2
-40 0 -55z m1020 30 c-3 -10 -5 -4 -5 12 0 17 2 24 5 18 2 -7 2 -21 0 -30z
m30 -263 c6 -33 6 -34 13 -10 7 23 8 23 9 3 1 -12 8 -29 17 -37 12 -12 17 -48
22 -152 4 -75 4 -138 1 -140 -4 -2 -12 3 -19 11 -10 12 -40 14 -151 13 -76 -1
-141 1 -144 4 -3 3 52 8 121 11 70 4 129 9 132 11 2 3 -3 112 -12 243 -17 252
-19 331 -4 173 5 -52 12 -111 15 -130z m-980 148 c-2 -13 -4 -5 -4 17 -1 22 1
32 4 23 2 -10 2 -28 0 -40z m-134 -45 c-1 -61 1 -79 6 -58 6 19 9 23 10 11 2
-35 14 -7 27 61 l13 68 -5 -70 c-3 -38 -10 -87 -15 -108 -6 -22 -7 -82 -3
-141 l7 -103 46 4 c25 2 69 -3 96 -10 l50 -15 -80 4 c-55 3 -72 1 -55 -5 14
-5 40 -9 58 -10 18 -1 31 -5 28 -9 -7 -11 -125 5 -142 19 -13 11 -34 5 -34
-10 0 -4 33 -14 73 -21 39 -7 81 -17 92 -21 18 -7 17 -8 -5 -8 -14 0 -59 6
-100 13 -65 12 -77 12 -92 -1 -23 -20 -26 -7 -17 62 10 83 11 157 0 151 -4 -3
-14 -56 -21 -118 -7 -62 -16 -121 -20 -133 -12 -29 -12 -14 5 115 14 119 22
150 35 150 4 0 10 33 14 73 15 165 19 197 25 197 3 0 5 -39 4 -87z m1164 -93
l0 -55 -7 60 c-4 33 -8 85 -7 115 l0 55 7 -60 c4 -33 8 -85 7 -115z m-1140 98
c-2 -13 -4 -5 -4 17 -1 22 1 32 4 23 2 -10 2 -28 0 -40z m1057 -55 c4 -49 11
-134 16 -191 13 -137 11 -139 -86 -141 -42 -1 -80 -4 -85 -7 -5 -3 -16 -1 -25
4 -11 6 6 11 58 15 125 12 118 5 117 111 -1 50 -4 137 -8 194 -3 56 -3 102 1
102 3 0 9 -39 12 -87z m-962 -68 c-5 -60 -7 -115 -5 -121 2 -6 33 -21 69 -33
60 -22 104 -51 55 -37 -11 3 -29 8 -38 10 -107 27 -103 25 -103 58 0 50 24
265 27 248 2 -8 0 -64 -5 -125z m944 -213 c-3 -5 -32 -13 -63 -16 -32 -4 -71
-9 -88 -12 -23 -4 -26 -3 -15 5 8 6 29 11 45 12 17 0 50 6 75 13 48 13 55 13
46 -2z m-829 -58 c-3 -3 -12 -4 -19 -1 -8 3 -5 6 6 6 11 1 17 -2 13 -5z m103
-4 c8 -5 11 -10 5 -10 -5 0 -17 5 -25 10 -8 5 -10 10 -5 10 6 0 17 -5 25 -10z
m-270 -35 l65 -14 -76 2 c-56 1 -75 5 -72 15 6 14 1 14 83 -3z m910 -16 c-25
-4 -70 -7 -100 -7 l-55 1 60 7 c33 4 78 7 100 7 l40 0 -45 -8z m90 1 c-8 -5
-19 -10 -25 -10 -5 0 -3 5 5 10 8 5 20 10 25 10 6 0 3 -5 -5 -10z m85 0 c3 -6
-5 -10 -19 -10 -13 0 -33 -3 -43 -6 -16 -5 -16 -4 1 10 22 18 52 21 61 6z
m-734 -26 c30 -9 73 -27 97 -40 l42 -25 -49 -39 -49 -39 -53 13 c-85 21 -394
107 -398 112 -10 9 25 2 195 -41 183 -47 268 -57 134 -17 -156 47 -180 55
-176 59 4 4 197 -39 233 -52 7 -2 15 0 18 6 7 11 6 11 -103 35 -46 9 -85 21
-87 25 -3 4 23 7 57 8 33 0 63 3 66 6 8 7 13 7 73 -11z m597 5 c-10 -5 -48
-12 -85 -16 -94 -8 -114 -22 -33 -23 82 -1 64 -11 -60 -34 -102 -19 -146 -35
-97 -36 34 0 146 24 239 52 37 11 75 18 85 16 10 -2 -31 -16 -92 -31 -169 -42
-279 -72 -290 -79 -6 -3 -31 13 -57 38 l-47 44 26 20 c30 23 121 53 136 43 13
-8 148 -4 217 6 76 12 77 12 58 0z m-915 -6 c-7 -2 -19 -2 -25 0 -7 3 -2 5 12
5 14 0 19 -2 13 -5z m-106 -9 c-3 -3 -12 -4 -19 -1 -8 3 -5 6 6 6 11 1 17 -2
13 -5z m1038 -4 c-3 -5 -12 -10 -18 -10 -7 0 -6 4 3 10 19 12 23 12 15 0z m82
-16 c-3 -3 -12 -4 -19 -1 -8 3 -5 6 6 6 11 1 17 -2 13 -5z"/>
<path d="M5807 10862 c-22 -24 -21 -55 1 -75 37 -34 92 -11 92 38 0 50 -60 73
-93 37z"/>
<path d="M6846 10864 c-33 -33 -7 -94 41 -94 25 0 53 30 53 57 0 44 -63 69
-94 37z"/>
<path d="M5676 10734 c-22 -21 -20 -50 4 -74 24 -24 38 -25 68 -4 24 17 30 62
10 82 -17 17 -64 15 -82 -4z"/>
<path d="M5936 10734 c-25 -24 -20 -61 10 -81 24 -15 29 -15 53 -2 49 28 32
99 -24 99 -13 0 -31 -7 -39 -16z"/>
<path d="M6720 10730 c-11 -11 -20 -27 -20 -35 0 -22 37 -55 60 -55 25 0 60
34 60 58 0 25 -31 52 -58 52 -12 0 -31 -9 -42 -20z"/>
<path d="M6970 10729 c-17 -30 -8 -62 21 -78 24 -13 29 -13 53 2 28 19 36 63
14 85 -20 20 -76 15 -88 -9z"/>
<path d="M5831 10698 c-5 -18 -24 -88 -41 -155 -39 -159 -81 -273 -130 -358
-22 -37 -39 -70 -36 -72 8 -8 81 28 119 58 40 32 41 32 52 -33 3 -20 14 -47
24 -60 19 -22 20 -22 40 -4 11 10 25 42 32 72 l12 53 36 -28 c41 -32 101 -65
107 -58 2 2 -16 46 -40 98 -30 63 -56 143 -80 244 -57 235 -68 275 -76 275 -5
0 -13 -15 -19 -32z"/>
<path d="M6877 10723 c-4 -6 -21 -75 -38 -154 -36 -164 -70 -264 -128 -375
-22 -43 -38 -80 -36 -82 8 -8 68 21 111 55 l43 32 7 -50 c4 -28 15 -60 24 -72
18 -21 19 -21 39 -3 11 10 25 42 31 72 6 30 14 54 16 54 3 0 17 -12 32 -26 25
-25 110 -70 117 -62 2 1 -16 42 -39 90 -41 82 -81 211 -126 395 -21 90 -43
142 -53 126z"/>
<path d="M6332 9843 c-7 -3 -18 -16 -23 -30 -13 -36 12 -73 49 -73 36 0 52 17
52 55 0 47 -32 67 -78 48z"/>
<path d="M6197 9712 c-47 -52 11 -115 74 -82 23 13 26 62 3 84 -21 21 -57 20
-77 -2z"/>
<path d="M6447 9712 c-22 -24 -21 -55 1 -75 37 -34 92 -11 92 38 0 50 -60 73
-93 37z"/>
<path d="M6351 9678 c-5 -14 -19 -66 -31 -115 -36 -153 -80 -281 -127 -374
-25 -49 -43 -92 -39 -96 9 -10 69 21 110 57 39 35 40 34 50 -34 3 -22 15 -49
26 -60 l21 -21 23 27 c13 14 27 47 30 72 l7 46 42 -34 c41 -34 95 -61 104 -52
2 2 -12 32 -31 67 -53 98 -74 160 -117 343 -46 195 -53 213 -68 174z"/>
<path d="M5812 8773 c-7 -3 -18 -16 -23 -30 -19 -52 40 -94 83 -60 52 39 1
115 -60 90z"/>
<path d="M6847 8762 c-22 -25 -21 -55 2 -76 26 -24 62 -17 80 15 13 24 13 29
-2 53 -21 31 -56 34 -80 8z"/>
<path d="M5676 8644 c-19 -18 -21 -65 -4 -82 20 -20 65 -14 82 10 21 30 20 44
-4 68 -24 24 -53 26 -74 4z"/>
<path d="M5942 8644 c-41 -28 -22 -94 28 -94 35 0 60 23 60 55 0 23 -32 55
-55 55 -6 0 -21 -7 -33 -16z"/>
<path d="M6720 8640 c-24 -24 -25 -38 -4 -68 29 -42 104 -17 104 35 0 20 -38
53 -60 53 -11 0 -29 -9 -40 -20z"/>
<path d="M6977 8642 c-34 -37 -11 -92 38 -92 50 0 73 60 37 93 -24 22 -55 21
-75 -1z"/>
<path d="M5826 8589 c-9 -24 -25 -83 -36 -130 -30 -135 -76 -266 -125 -359
-24 -46 -42 -86 -40 -88 8 -8 68 21 111 54 l42 33 7 -42 c9 -53 31 -97 50 -97
22 0 44 40 51 92 6 47 17 61 27 35 7 -19 96 -77 118 -77 14 0 11 12 -21 78
-48 100 -72 173 -115 361 -44 190 -47 197 -69 140z"/>
<path d="M6877 8623 c-3 -5 -20 -72 -37 -148 -36 -157 -80 -286 -134 -393 -28
-56 -33 -72 -21 -72 25 0 67 25 99 59 37 38 46 39 46 4 0 -47 20 -102 40 -113
27 -14 51 25 58 91 2 27 8 49 11 49 4 0 20 -13 35 -29 27 -28 102 -69 110 -60
3 3 -8 31 -24 64 -40 82 -72 182 -118 366 -39 156 -54 199 -65 182z"/>
<path d="M3602 7261 l-72 -68 15 -29 c9 -17 15 -55 15 -94 -1 -77 -55 -462
-62 -440 -3 8 -16 94 -28 190 -26 205 -42 300 -47 283 -2 -6 5 -76 16 -155 44
-306 58 -428 47 -417 -2 2 -18 105 -36 229 -45 331 -49 350 -69 350 -14 0 -21
-35 -49 -222 -18 -123 -32 -234 -32 -247 0 -15 -4 -21 -9 -15 -11 12 -46 282
-46 354 0 30 4 63 9 73 5 10 4 17 -2 17 -5 0 -15 -13 -22 -29 -10 -25 -7 -66
19 -246 29 -202 37 -284 27 -274 -4 4 -27 153 -60 393 -15 104 -14 110 4 147
11 21 20 41 20 44 0 3 -36 5 -80 5 -44 0 -80 -3 -80 -6 0 -3 11 -27 24 -53 19
-35 30 -85 45 -206 12 -88 33 -241 48 -339 l27 -179 -22 -38 c-14 -23 -18 -40
-12 -44 6 -4 39 -5 74 -4 34 1 68 -1 74 -5 29 -18 6 -26 -69 -26 -72 0 -80 -2
-69 -15 18 -21 170 -20 170 2 0 7 -11 41 -25 74 l-24 60 26 191 c17 121 29
183 33 167 4 -13 18 -100 30 -193 l24 -169 -21 -38 c-12 -22 -18 -41 -14 -43
4 -3 40 -3 79 -1 63 4 73 2 82 -15 10 -19 7 -20 -70 -20 -57 0 -81 -3 -78 -12
3 -7 32 -10 88 -9 47 1 86 4 88 6 2 2 -10 35 -27 74 l-31 70 40 282 c46 316
76 470 114 579 28 83 27 107 -3 39 -43 -97 -81 -293 -137 -701 -16 -113 -32
-204 -36 -202 -4 2 -5 19 -2 37 88 642 114 780 179 940 13 31 -9 17 -83 -52z
m-240 -541 c-6 -30 -21 -133 -33 -227 -13 -95 -27 -169 -31 -165 -5 5 8 118
27 251 19 134 36 249 37 255 0 6 3 -5 5 -24 3 -19 0 -60 -5 -90z"/>
<path d="M4015 7133 c-86 -22 -149 -165 -170 -388 -13 -144 25 -368 77 -454
61 -99 183 -91 229 15 12 25 26 88 32 140 9 82 9 97 -5 110 -13 14 -16 8 -21
-53 -13 -135 -52 -213 -107 -213 -84 0 -127 170 -117 460 6 196 35 298 88 315
22 7 55 -9 69 -34 9 -18 8 -18 -20 -8 -38 14 -59 3 -82 -44 -28 -56 -38 -131
-38 -288 0 -194 20 -315 60 -363 17 -20 16 -16 -5 37 -55 139 -59 499 -7 605
37 75 107 39 133 -68 l15 -66 32 124 c17 69 29 126 27 129 -3 2 -11 -2 -20 -9
-12 -10 -23 -7 -62 18 -54 34 -79 42 -108 35z"/>
<path d="M8524 7130 c-54 -22 -106 -115 -135 -245 -20 -88 -18 -361 4 -448 35
-140 95 -217 169 -217 33 0 47 7 78 38 43 42 58 87 70 202 5 55 4 79 -5 88
-10 11 -14 -4 -23 -72 -21 -163 -91 -233 -156 -156 -57 69 -87 284 -68 493 13
140 33 209 69 237 34 26 45 25 77 -6 30 -30 36 -56 7 -30 -11 10 -31 16 -48
14 -22 -2 -33 -13 -50 -48 -59 -120 -51 -518 12 -640 26 -51 25 -31 -2 50 -23
66 -27 95 -31 251 -7 257 18 369 82 369 42 0 86 -73 86 -143 0 -51 15 -18 43
93 33 128 33 134 8 118 -16 -9 -24 -8 -46 8 -72 51 -101 60 -141 44z"/>
<path d="M5446 7115 c-21 -7 -58 -33 -82 -56 l-43 -42 20 -25 c16 -21 19 -41
19 -143 0 -114 -1 -118 -22 -121 -16 -2 -24 -12 -29 -36 -6 -31 -5 -33 19 -30
19 2 28 -2 30 -14 2 -13 -3 -18 -17 -18 -12 0 -21 -6 -21 -14 0 -9 7 -12 20
-9 19 5 20 0 20 -139 0 -136 -1 -145 -25 -180 -14 -20 -25 -39 -25 -42 0 -4
60 -6 133 -6 106 0 139 4 167 18 93 46 119 265 47 393 l-21 36 27 32 c14 17
30 48 34 69 13 60 7 174 -11 212 -9 19 -13 26 -10 15 14 -41 16 -193 4 -229
-14 -43 -58 -99 -71 -90 -5 3 4 21 20 40 92 104 53 331 -66 380 -40 17 -67 17
-117 -1z m118 -86 c37 -43 34 -70 -3 -30 -32 35 -56 39 -89 15 -21 -14 -22
-22 -22 -150 0 -87 -4 -134 -10 -134 -7 0 -10 49 -10 143 2 129 4 144 23 165
31 33 79 30 111 -9z m-9 -45 c14 -15 25 -32 25 -38 0 -8 3 -7 8 1 12 18 13
-99 1 -134 -14 -42 -63 -83 -100 -83 l-29 0 0 130 c0 112 2 130 18 139 28 17
52 12 77 -15z m-17 -325 c17 -6 41 -26 52 -44 29 -47 25 -51 -15 -16 -29 25
-45 31 -80 31 l-45 0 0 -160 c0 -100 -4 -160 -10 -160 -11 0 -14 276 -4 329 6
27 11 31 39 31 17 0 46 -5 63 -11z m44 -88 c24 -27 28 -39 28 -96 0 -112 -34
-165 -107 -165 l-43 0 0 151 0 152 47 -6 c37 -4 54 -12 75 -36z"/>
<path d="M5921 7120 c-35 -8 -109 -57 -125 -83 -7 -11 -5 -21 7 -35 14 -16 17
-42 17 -175 0 -150 -1 -157 -20 -157 -11 0 -20 -6 -20 -14 0 -7 -3 -29 -6 -47
-6 -28 -4 -32 7 -21 19 18 39 15 39 -7 0 -11 -9 -23 -20 -26 -11 -3 -20 -11
-20 -16 0 -6 9 -7 20 -4 19 6 20 2 20 -100 0 -86 -4 -113 -20 -145 -11 -22
-20 -42 -20 -45 0 -4 36 -5 81 -4 68 3 82 1 90 -14 9 -15 3 -17 -71 -17 -71 0
-97 -9 -71 -24 4 -3 45 -3 89 1 l80 6 -29 64 c-27 60 -29 74 -29 184 l0 118
30 16 c16 8 31 15 33 15 12 0 41 -204 53 -362 4 -54 9 -97 13 -97 3 1 30 28
60 60 l53 58 -36 83 c-19 46 -52 140 -71 210 l-37 126 44 44 c55 54 72 109 66
210 -5 89 -28 141 -77 173 -43 28 -84 36 -130 25z m67 -64 c24 -12 41 -35 60
-81 3 -5 -9 5 -26 23 -31 32 -71 42 -99 24 -9 -6 -13 -56 -16 -172 l-3 -165
-2 182 c-2 164 0 183 16 192 23 14 38 13 70 -3z m28 -80 c31 -31 34 -39 34
-92 0 -75 -28 -137 -72 -164 -58 -35 -58 -34 -58 128 0 82 3 152 7 155 16 17
57 5 89 -27z m-36 -345 c0 -13 -11 -24 -35 -32 l-35 -13 0 -135 c0 -93 -3
-132 -10 -125 -7 7 -10 64 -8 150 l3 139 35 17 c45 22 50 22 50 -1z"/>
<path d="M8072 7110 c-71 -44 -107 -188 -77 -315 8 -38 17 -83 18 -100 5 -50
28 -74 114 -116 111 -54 126 -75 121 -161 -3 -58 -8 -72 -33 -98 -28 -29 -66
-39 -91 -22 -18 11 -43 67 -59 129 l-15 58 4 -47 c2 -26 13 -66 26 -89 13 -27
16 -38 7 -31 -22 18 -54 99 -63 157 l-7 50 -28 -112 c-15 -61 -30 -120 -33
-131 -6 -19 -5 -20 23 -9 27 10 38 8 84 -16 64 -32 119 -35 164 -7 81 49 115
234 71 384 -16 52 -80 116 -138 139 -42 16 -46 21 -64 75 -20 63 -16 113 12
145 35 40 85 10 120 -73 l19 -44 26 107 c32 127 32 120 8 105 -16 -10 -28 -7
-69 15 -59 32 -96 34 -140 7z m98 -63 c8 -7 22 -21 30 -32 15 -19 15 -19 -12
-2 -64 41 -109 9 -116 -82 -3 -42 1 -67 13 -92 16 -30 16 -32 2 -20 -38 31
-44 138 -11 203 20 38 63 50 94 25z m-44 -417 c71 -35 87 -47 104 -80 13 -24
13 -24 -20 4 -19 15 -58 39 -87 51 -51 23 -103 67 -103 88 0 6 10 1 23 -11 13
-12 50 -35 83 -52z"/>
<path d="M7040 7109 c-96 -38 -155 -178 -166 -394 -9 -181 31 -343 105 -427
l39 -43 135 -3 c106 -3 137 -7 141 -18 8 -21 -256 -21 -274 1 -7 8 -17 15 -23
15 -6 0 0 -11 13 -25 23 -24 27 -25 167 -25 92 0 143 4 143 10 0 6 -11 33 -25
60 -24 47 -25 58 -25 212 0 139 3 169 20 206 21 46 12 59 -11 15 -10 -20 -16
-81 -19 -203 l-6 -175 -2 180 c-2 164 0 183 18 213 11 18 20 35 20 37 0 3 -51
5 -114 5 l-114 0 5 40 c5 32 2 41 -12 46 -37 15 -58 -56 -33 -111 10 -23 16
-25 80 -25 61 0 68 -2 68 -20 0 -17 -7 -20 -52 -20 -34 0 -58 6 -70 17 -24 22
-32 13 -12 -15 13 -18 25 -22 75 -22 l59 0 0 -170 0 -170 -42 0 c-56 0 -62 5
-93 72 -37 81 -52 241 -37 398 15 161 47 230 106 230 30 0 71 -48 86 -101 l16
-53 23 89 c37 140 37 143 9 138 -12 -2 -48 7 -78 21 -59 28 -81 30 -120 15z
m88 -75 c12 -8 27 -25 33 -36 l12 -21 -28 21 c-36 29 -67 28 -97 -3 -41 -40
-59 -123 -65 -285 -6 -159 6 -267 37 -339 20 -45 20 -46 1 -21 -67 85 -82 442
-25 602 18 52 60 98 89 98 11 0 31 -7 43 -16z"/>
<path d="M9346 7089 c-77 -67 -115 -205 -115 -419 -1 -189 35 -321 106 -397
96 -102 214 -13 254 192 20 98 17 341 -4 428 -38 153 -92 227 -167 227 -30 0
-48 -8 -74 -31z m127 -61 c23 -27 22 -46 -1 -25 -35 32 -75 19 -102 -33 -33
-64 -43 -157 -37 -353 4 -181 20 -275 49 -293 8 -5 9 -1 4 12 -33 80 -40 135
-41 324 0 222 14 296 61 327 24 16 28 15 59 -1 27 -15 36 -27 44 -65 24 -112
19 -411 -9 -523 -22 -88 -83 -123 -127 -75 -37 39 -54 121 -60 287 -8 228 15
369 68 422 32 33 61 31 92 -4z"/>
<path d="M9804 7100 c-148 -95 -176 -616 -43 -800 92 -126 216 -70 265 122 27
103 27 403 0 497 -24 87 -48 132 -91 169 -42 38 -85 41 -131 12z m94 -56 c12
-8 27 -24 33 -35 10 -20 10 -20 -15 -4 -55 36 -104 -7 -128 -113 -19 -89 -16
-401 5 -481 10 -36 22 -70 28 -78 7 -7 7 -13 2 -13 -5 0 -17 16 -26 35 -30 64
-40 158 -34 358 5 219 18 279 68 321 36 30 38 31 67 10z m22 -64 c42 -30 54
-117 47 -344 -5 -194 -20 -270 -60 -314 -24 -26 -68 -27 -74 -2 -1 8 -12 47
-22 85 -16 56 -20 103 -20 243 -1 293 39 396 129 332z"/>
<path d="M2259 7074 c20 -34 21 -47 21 -372 -1 -348 -5 -388 -44 -431 -9 -10
-16 -21 -16 -24 0 -4 36 -7 79 -7 61 0 80 -3 85 -15 4 -13 -8 -15 -81 -15 -74
0 -84 -2 -73 -15 9 -11 29 -13 93 -8 45 3 83 7 85 8 2 2 -12 34 -30 71 l-32
69 -4 255 c-2 140 -2 253 1 250 5 -5 62 -214 127 -465 17 -66 35 -124 39 -128
5 -5 19 -7 32 -5 l24 3 5 385 5 385 28 48 28 47 -76 0 -77 0 24 -37 c22 -36
23 -47 26 -268 2 -126 1 -227 -3 -223 -7 6 -86 297 -107 395 -11 46 -10 54 6
72 10 11 16 25 14 31 -2 6 -14 -3 -27 -21 l-23 -31 52 -197 c29 -108 61 -226
71 -262 18 -62 25 -119 14 -108 -4 5 -15 43 -110 411 l-43 166 24 36 25 36
-92 0 -91 0 21 -36z m73 -494 c2 -145 0 -251 -3 -235 -4 17 -6 154 -6 305 0
151 2 257 4 235 1 -22 4 -159 5 -305z"/>
<path d="M2695 7073 c24 -36 25 -44 25 -180 0 -129 -2 -143 -19 -152 -15 -9
-51 -76 -51 -97 0 -3 12 4 26 15 32 25 44 26 44 6 0 -8 -4 -15 -9 -15 -13 0
-41 -29 -41 -42 0 -6 8 -4 18 5 10 10 22 17 25 17 4 0 7 -67 7 -149 0 -140 -1
-150 -24 -184 -13 -19 -22 -38 -18 -41 7 -7 367 -8 374 -1 2 3 -8 42 -24 87
-15 46 -28 93 -28 106 0 37 -15 25 -28 -24 -17 -62 -60 -104 -106 -104 l-36 0
0 156 0 155 43 -3 c35 -2 43 -7 45 -25 2 -13 7 -23 12 -23 4 0 11 -10 16 -22
5 -15 9 32 11 126 3 113 0 151 -9 158 -20 12 -22 11 -38 -40 -14 -42 -19 -47
-48 -50 l-32 -3 0 125 0 126 41 0 c31 0 47 -6 70 -29 16 -16 29 -40 29 -52 0
-13 4 -19 8 -13 8 8 62 182 62 197 0 4 -83 7 -185 7 l-186 0 26 -37z m229 -44
c33 -26 34 -45 2 -24 -15 10 -40 15 -68 13 l-43 -3 -5 -135 -6 -135 -2 153 -2
152 49 0 c34 0 56 -6 75 -21z m-27 -366 c3 -8 -11 -13 -39 -15 l-43 -3 -5
-165 -6 -165 -2 183 -2 183 47 -3 c25 -2 48 -8 50 -15z"/>
<path d="M4420 7105 c0 -4 7 -20 16 -36 14 -29 14 -40 -8 -155 -13 -68 -26
-124 -30 -124 -4 0 -10 9 -13 20 -3 11 -11 20 -16 20 -13 0 -12 -4 12 -44 12
-20 16 -36 10 -36 -6 0 -11 4 -11 8 0 5 -6 17 -14 27 -12 17 -15 14 -29 -36
l-17 -54 25 -18 c31 -23 31 -33 -1 -176 -24 -107 -69 -221 -94 -236 -26 -16 8
-26 82 -24 66 2 82 -1 90 -14 8 -15 0 -17 -77 -17 -50 0 -85 -4 -85 -10 0 -6
38 -10 95 -10 52 0 95 1 95 3 0 2 -12 32 -26 68 -24 58 -26 72 -21 159 3 52
10 106 15 120 8 22 11 17 32 -45 12 -39 26 -74 30 -78 4 -5 17 20 29 55 21 62
41 102 41 83 0 -5 -13 -46 -30 -89 -16 -44 -27 -82 -25 -84 2 -3 9 6 14 19 5
13 18 46 29 73 l19 49 18 -98 17 -97 -22 -39 c-27 -49 -20 -53 84 -47 63 3 76
1 85 -14 10 -17 5 -18 -81 -18 -74 0 -89 -2 -79 -12 16 -17 371 -19 371 -2 0
7 -12 38 -26 69 -26 57 -27 64 -29 271 -1 118 2 211 6 208 5 -3 9 -15 9 -27 1
-45 78 -459 88 -469 15 -15 17 -5 47 157 45 254 85 458 90 463 11 12 3 -51
-24 -188 -16 -80 -42 -214 -57 -299 -16 -85 -35 -160 -43 -168 -9 -10 -11 -17
-3 -25 18 -18 28 19 77 277 26 138 49 252 51 254 2 2 4 -85 4 -195 0 -181 -2
-202 -20 -232 -32 -52 -28 -55 60 -50 76 4 90 0 90 -28 0 -2 -36 -4 -80 -4
-73 0 -97 -9 -70 -25 5 -3 48 -3 94 1 l84 7 -29 64 -29 65 0 342 c0 295 2 345
16 364 8 12 14 28 12 34 -2 6 -13 -2 -23 -18 -19 -27 -20 -48 -20 -371 0 -188
-3 -345 -7 -349 -5 -4 -8 149 -8 340 l0 347 25 49 25 50 -90 0 -90 0 22 -45
22 -45 -37 -197 c-21 -109 -37 -206 -37 -215 0 -10 -4 -18 -10 -18 -5 0 -10 7
-10 16 0 10 -17 102 -37 206 -35 181 -36 191 -20 218 26 44 19 60 -7 17 -13
-21 -21 -48 -19 -60 2 -12 21 -118 44 -236 22 -118 39 -224 37 -235 -3 -20
-45 184 -84 406 l-17 96 27 46 27 46 -91 0 c-49 0 -90 -2 -90 -5 0 -3 9 -24
21 -46 20 -39 20 -54 17 -368 l-3 -328 -32 -62 -32 -62 77 2 c65 2 78 0 80
-14 3 -15 -8 -17 -80 -17 l-83 0 -33 60 c-24 44 -39 93 -57 191 -14 72 -25
138 -25 145 0 9 11 14 31 14 27 0 31 3 26 23 -3 12 -11 48 -18 80 -7 31 -15
57 -19 57 -4 0 -1 -26 6 -57 18 -78 18 -81 -13 -85 -33 -4 -33 -1 -4 -161 12
-65 21 -126 19 -135 -2 -9 -17 57 -33 147 -28 158 -28 164 -11 177 11 7 23 15
28 16 6 2 5 29 -3 66 -12 55 -15 61 -26 46 -7 -10 -14 -16 -16 -13 -2 2 -13
55 -25 118 -19 103 -20 116 -6 143 8 16 14 34 12 40 -2 6 -12 -8 -22 -30 -18
-39 -18 -42 6 -166 14 -70 22 -128 19 -131 -4 -2 -17 58 -30 132 -24 136 -24
138 4 206 6 15 -1 17 -74 17 -45 0 -81 -2 -81 -5z m40 -293 l-24 -119 28 -65
c16 -37 27 -71 24 -78 -2 -6 -18 24 -35 66 l-32 77 26 124 c15 68 29 121 31
118 3 -3 -5 -58 -18 -123z m417 -335 c-1 -73 -3 -10 -3 138 0 149 2 208 3 132
2 -76 2 -198 0 -270z m-364 288 c15 -84 16 -113 7 -140 -6 -19 -15 -35 -18
-35 -4 0 -17 25 -29 56 -21 54 -21 57 -5 140 9 46 19 84 22 84 3 0 14 -47 23
-105z m-117 -284 c-8 -55 -13 -117 -11 -138 l5 -38 -10 35 c-11 37 -6 105 12
205 18 94 21 48 4 -64z"/>
<path d="M6220 7105 c0 -3 11 -23 25 -45 l25 -40 0 -347 0 -348 -25 -37 -25
-37 32 -5 c18 -3 55 -5 83 -3 40 2 50 -1 53 -15 3 -16 -6 -18 -79 -18 -63 0
-80 -3 -72 -11 10 -10 171 -14 181 -5 1 2 -10 30 -25 62 l-28 59 -3 337 c-3
327 -3 337 18 378 25 49 21 63 -6 23 -17 -26 -19 -57 -24 -383 l-6 -355 -2
355 -2 355 25 43 24 42 -85 0 c-46 0 -84 -2 -84 -5z"/>
<path d="M6450 7105 c0 -3 9 -23 20 -45 19 -37 20 -59 20 -387 l0 -348 -25
-38 c-33 -48 -25 -51 95 -45 100 6 141 24 177 77 96 142 96 570 0 712 -43 65
-78 79 -188 79 -55 0 -99 -2 -99 -5z m197 -80 c13 -9 23 -20 23 -26 0 -8 -4
-8 -14 0 -8 7 -30 11 -48 9 l-33 -3 -5 -350 -5 -350 -3 374 -2 374 32 -7 c18
-3 42 -13 55 -21z m9 -47 c42 -15 52 -42 67 -185 8 -85 8 -141 0 -225 -18
-173 -52 -252 -113 -260 l-25 -3 0 335 c0 184 1 338 3 343 5 10 31 9 68 -5z"/>
<path d="M7366 7098 c4 -7 16 -25 26 -40 15 -22 18 -47 18 -166 0 -117 -3
-141 -16 -146 -17 -6 -59 -94 -50 -104 4 -3 13 4 22 16 17 25 44 29 44 7 0 -8
-4 -15 -9 -15 -13 0 -41 -29 -41 -42 0 -6 8 -4 18 5 10 10 22 17 25 17 4 0 7
-65 7 -146 0 -138 -1 -147 -25 -181 -13 -20 -22 -40 -19 -44 6 -10 374 -12
374 -1 0 4 -9 35 -19 68 -11 32 -25 79 -31 103 l-12 45 -18 -54 c-22 -66 -58
-100 -106 -100 l-34 0 0 155 0 155 39 0 c35 0 41 -4 52 -32 13 -32 14 -32 17
40 1 39 1 105 0 145 l-3 72 -24 -52 c-21 -46 -27 -53 -52 -53 l-29 0 0 125 0
125 31 0 c41 0 86 -28 102 -62 14 -32 27 -37 27 -9 0 16 30 124 47 167 4 12
-27 14 -182 14 -146 0 -185 -3 -179 -12z m242 -64 c28 -19 30 -39 2 -24 -12 6
-40 10 -63 8 l-42 -3 -5 -135 c-3 -74 -8 -130 -11 -125 -4 6 -4 74 -1 153 l5
142 46 0 c26 0 56 -7 69 -16z m-23 -369 c0 -5 -19 -11 -42 -13 l-43 -3 0 -166
c0 -92 -3 -163 -7 -159 -9 9 -14 265 -6 319 l5 38 46 -3 c26 -2 47 -7 47 -13z"/>
<path d="M8790 7103 c0 -5 9 -21 20 -38 18 -27 20 -47 20 -182 0 -91 -4 -154
-10 -158 -15 -9 -36 -55 -45 -94 l-7 -34 31 34 c17 19 31 28 31 20 0 -7 -11
-24 -25 -37 -14 -13 -25 -29 -25 -35 0 -7 11 -2 25 11 l25 23 0 -149 c0 -132
-3 -152 -20 -174 -37 -47 -28 -53 59 -46 67 6 79 5 85 -9 3 -9 6 -19 6 -21 0
-2 -36 -4 -81 -4 -60 0 -80 -3 -76 -12 3 -9 29 -12 93 -11 49 1 90 2 91 2 1 1
-11 31 -27 67 -29 63 -30 73 -30 203 l0 136 60 1 c48 1 60 -2 61 -15 0 -9 1
-70 2 -137 0 -109 -2 -125 -22 -157 l-22 -36 23 -6 c13 -2 50 -6 82 -7 37 -2
61 -8 64 -15 3 -10 -16 -13 -72 -13 -44 0 -76 -4 -76 -10 0 -6 37 -10 90 -10
101 0 97 -9 51 90 -19 43 -21 63 -21 378 0 317 1 335 21 373 24 48 20 62 -7
22 -17 -26 -19 -57 -24 -383 l-5 -355 -3 354 -2 354 25 44 26 43 -85 0 -85 0
21 -36 c19 -32 21 -50 20 -186 -1 -164 -2 -168 -59 -168 -63 0 -63 -1 -63 147
0 119 3 140 20 169 12 18 17 35 12 38 -22 14 -37 -54 -42 -194 l-6 -145 -2
150 c-2 135 0 153 18 180 11 17 20 33 20 38 0 4 -36 7 -80 7 -44 0 -80 -3 -80
-7z m260 -470 c0 -16 -71 -26 -103 -14 l-27 10 -3 -162 -3 -162 -2 170 -2 170
70 0 c46 0 70 -4 70 -12z"/>
<path d="M10120 7105 c0 -3 9 -23 20 -45 19 -37 20 -59 20 -387 0 -330 -1
-350 -20 -381 -11 -18 -20 -37 -20 -42 0 -6 68 -10 175 -10 134 0 175 3 175
13 -1 31 -57 237 -63 230 -4 -3 -7 -16 -7 -27 0 -78 -55 -156 -109 -156 l-31
0 0 353 c0 331 1 354 19 381 11 17 17 34 14 39 -3 6 -14 -5 -24 -24 -17 -31
-18 -66 -19 -393 0 -198 -3 -356 -7 -353 -3 4 -5 169 -4 367 2 339 3 363 21
393 11 18 20 35 20 40 0 4 -36 7 -80 7 -44 0 -80 -2 -80 -5z"/>
<path d="M9554 7035 c95 -196 94 -563 -2 -740 -29 -54 -81 -95 -119 -95 -23 0
-71 25 -85 44 -4 6 -10 7 -14 4 -4 -4 8 -21 26 -38 63 -58 147 -31 201 66 90
160 104 506 29 708 -12 30 -30 65 -41 78 -17 19 -16 15 5 -27z"/>
<path d="M2622 7058 c-40 -48 -42 -75 -42 -468 l0 -380 -31 0 c-20 0 -29 -4
-27 -12 3 -7 20 -12 39 -13 l34 0 5 405 c5 370 7 408 23 434 20 30 19 58 -1
34z"/>
<path d="M3036 7028 c-31 -88 -48 -149 -42 -155 6 -7 6 -7 44 110 28 87 27
124 -2 45z"/>
<path d="M7736 7061 c-12 -19 -56 -174 -51 -179 6 -6 9 2 40 103 22 73 26 101
11 76z"/>
<path d="M8296 7018 c-26 -92 -38 -146 -35 -157 2 -5 18 40 35 100 17 60 27
109 23 109 -4 0 -14 -24 -23 -52z"/>
<path d="M9996 7041 c76 -157 95 -426 45 -623 -24 -92 -43 -132 -84 -175 -51
-54 -105 -54 -166 1 l-24 21 12 -22 c18 -35 65 -63 107 -63 31 0 44 7 80 44
83 88 119 240 111 481 -4 137 -8 172 -31 242 -14 44 -35 92 -47 105 l-20 23
17 -34z"/>
<path d="M4216 7043 c-28 -95 -57 -216 -54 -225 2 -5 19 45 37 111 18 67 31
124 28 127 -3 3 -8 -3 -11 -13z"/>
<path d="M8712 6938 c-18 -66 -30 -123 -27 -126 5 -6 6 -5 40 118 14 52 28
103 31 113 3 9 2 17 -3 17 -5 0 -23 -55 -41 -122z"/>
<path d="M7271 7027 c-20 -53 -59 -207 -52 -207 9 0 73 221 67 228 -3 3 -10
-7 -15 -21z"/>
<path d="M6137 6977 c17 -62 11 -167 -12 -223 -9 -22 -30 -53 -46 -70 l-30
-31 20 -86 c21 -91 66 -212 105 -286 l23 -44 -71 -68 c-39 -37 -68 -70 -65
-73 3 -3 30 18 60 47 30 29 64 59 76 67 l23 15 -50 100 c-30 60 -61 142 -77
205 l-27 105 32 44 c40 56 62 127 62 205 0 62 -14 131 -29 140 -4 3 -2 -18 6
-47z"/>
<path d="M6775 6995 c35 -104 47 -178 47 -305 1 -228 -41 -387 -117 -446 -35
-26 -46 -29 -141 -32 -57 -3 -104 -8 -104 -13 0 -5 43 -9 97 -9 124 0 165 21
210 107 51 95 68 193 68 383 0 142 -4 175 -23 235 -12 39 -27 77 -33 85 -9 12
-10 11 -4 -5z"/>
<path d="M7644 6695 c0 -82 2 -115 3 -72 2 43 2 110 0 150 -1 40 -3 5 -3 -78z"/>
<path d="M8315 6618 c3 -13 9 -58 12 -102 12 -169 -51 -305 -149 -321 -31 -6
-51 -1 -105 25 -55 27 -70 30 -90 21 -13 -6 -21 -16 -18 -22 5 -7 11 -6 21 2
11 9 28 4 81 -21 54 -26 75 -31 110 -27 100 11 165 134 164 309 0 73 -15 158
-28 158 -3 0 -2 -10 2 -22z"/>
<path d="M5695 6589 c19 -54 19 -201 0 -265 -8 -29 -28 -62 -45 -79 l-31 -30
-150 -3 c-82 -2 -149 -8 -149 -13 0 -5 62 -9 143 -9 123 0 146 3 174 20 77 46
116 229 78 358 -9 28 -20 54 -25 57 -5 3 -3 -13 5 -36z"/>
<path d="M4207 6495 c-4 -22 -14 -78 -22 -124 -9 -55 -23 -98 -40 -123 -42
-63 -111 -77 -165 -32 -43 37 -48 24 -5 -15 47 -41 76 -47 122 -24 29 13 45
32 66 74 29 58 61 209 55 257 -4 23 -5 22 -11 -13z"/>
<path d="M8727 6451 c-9 -78 -39 -186 -60 -211 -43 -54 -104 -64 -161 -25 -33
23 -36 23 -26 4 14 -24 68 -59 93 -59 11 0 34 7 53 16 61 29 122 197 112 310
-2 31 -5 23 -11 -35z"/>
<path d="M10441 6450 c-1 -9 10 -56 25 -104 40 -139 50 -131 -158 -134 -157
-2 -198 -8 -170 -26 4 -2 86 -1 182 2 l174 7 7 30 c6 22 0 57 -26 135 -18 58
-34 98 -34 90z"/>
<path d="M3021 6424 c-1 -12 12 -55 29 -95 18 -44 27 -82 24 -96 l-6 -23 -190
0 c-123 0 -187 -3 -183 -10 4 -6 80 -10 195 -10 l189 0 7 36 c6 33 -11 95 -56
199 -8 19 -9 19 -9 -1z"/>
<path d="M7711 6420 c0 -14 12 -56 28 -95 45 -112 48 -109 -168 -113 -138 -2
-182 -5 -178 -15 4 -14 356 -11 372 4 17 17 8 84 -23 164 -19 49 -31 70 -31
55z"/>
<path d="M6044 5545 c11 -8 24 -15 28 -15 5 0 8 -28 6 -62 -3 -59 -5 -63 -28
-66 -83 -9 -96 -28 -18 -25 51 1 52 1 13 -6 l-40 -8 38 -2 37 -1 0 -48 c0 -44
-2 -49 -32 -62 -32 -14 -27 -15 92 -20 l125 -6 -115 -5 -115 -5 140 -2 140 -2
-42 26 c-41 24 -43 27 -43 73 l0 49 123 4 c102 3 130 8 170 27 33 16 49 31 54
49 8 32 -16 76 -42 78 -11 1 -38 10 -60 20 -33 14 -77 18 -245 21 -186 4 -203
3 -186 -12z m315 -24 c8 -5 -18 -8 -65 -7 l-79 1 -3 -52 c-4 -73 -22 -67 -22
7 l0 60 78 0 c42 0 83 -4 91 -9z m47 -28 c8 -3 14 -16 14 -30 0 -32 -50 -53
-130 -53 l-60 0 0 51 0 52 81 -8 c45 -3 88 -9 95 -12z m157 -25 c4 -14 -3 -29
-21 -48 -33 -33 -117 -50 -245 -50 l-87 0 0 -56 c0 -34 -4 -53 -10 -49 -5 3
-10 31 -10 61 l0 54 83 0 c108 0 206 16 237 39 19 14 25 27 24 55 -1 28 2 34
11 26 7 -6 15 -20 18 -32z"/>
<path d="M6160 5034 c0 -4 7 -12 17 -19 15 -11 13 -16 -17 -54 -30 -36 -38
-41 -64 -36 -29 5 -29 4 -8 -7 12 -6 22 -15 22 -20 0 -5 -14 -1 -31 7 -29 15
-32 15 -50 -1 -26 -24 -24 -29 17 -40 l36 -9 -37 -47 c-25 -31 -56 -57 -91
-73 -30 -14 -54 -28 -54 -31 0 -3 53 -5 118 -4 156 3 166 -3 17 -10 l-120 -6
138 -2 c86 -1 137 2 137 8 0 6 -6 10 -13 10 -18 0 -57 42 -57 62 0 9 8 26 19
39 l19 23 42 -29 c37 -26 44 -27 63 -15 73 46 75 46 92 25 39 -50 49 -69 39
-72 -6 -2 -20 -11 -30 -19 -17 -14 -7 -15 108 -10 78 4 129 3 133 -4 4 -6 -38
-11 -112 -13 l-118 -3 143 -2 c78 -1 142 2 142 6 0 4 -22 16 -50 26 -38 14
-57 29 -85 68 -20 27 -39 48 -42 45 -3 -3 7 -22 22 -42 15 -19 26 -38 23 -40
-3 -3 -24 20 -47 51 -46 61 -44 74 12 74 27 0 27 0 10 26 -13 20 -22 25 -43
20 -23 -4 -33 2 -60 35 -17 22 -30 42 -29 43 2 2 15 9 27 15 13 7 21 15 19 18
-3 2 -19 -3 -37 -12 -30 -16 -31 -17 -16 -38 43 -58 48 -68 44 -72 -2 -2 -21
18 -42 46 -30 40 -35 53 -25 60 8 5 17 9 22 9 4 0 7 5 7 10 0 6 -42 10 -105
10 -58 0 -105 -3 -105 -6z m49 -109 l-33 -45 35 -31 c33 -30 33 -30 4 -13 -68
39 -67 35 -28 87 19 26 39 47 45 47 5 0 -5 -20 -23 -45z m71 -19 l30 -45 -21
-15 c-24 -17 -42 -11 -73 23 -18 20 -18 21 5 50 13 16 25 30 26 30 1 1 16 -19
33 -43z m-140 -70 c0 -3 -9 -21 -21 -41 -12 -19 -18 -42 -15 -50 3 -8 1 -15
-4 -15 -20 0 -20 40 1 74 18 30 39 48 39 32z"/>
<path d="M6510 4914 c0 -6 9 -19 20 -29 30 -27 25 -35 -26 -35 -25 0 -43 -3
-41 -7 6 -10 117 -4 117 6 0 4 -16 22 -35 41 -19 19 -35 29 -35 24z"/>
<path d="M6296 4784 c-21 -14 -35 -28 -33 -31 3 -3 20 6 39 19 18 12 35 24 37
25 2 2 2 5 0 8 -3 2 -22 -7 -43 -21z"/>
<path d="M5943 4492 l28 -17 -3 -125 -3 -124 -40 -23 -40 -23 110 -2 110 -2
-115 -6 -115 -6 135 -1 c108 -2 131 1 116 10 -64 40 -67 47 -64 131 l3 79 69
-101 c45 -66 76 -102 88 -102 17 0 31 16 148 180 24 34 46 57 48 51 2 -6 -21
-44 -51 -84 -29 -39 -66 -91 -81 -114 -16 -23 -38 -44 -49 -46 -18 -4 -17 -5
5 -6 23 -1 35 11 88 87 74 107 86 122 94 122 3 0 6 -34 6 -75 l0 -75 -37 -20
-38 -20 115 1 c158 0 168 -4 25 -11 l-120 -6 138 -2 c75 -1 137 0 137 3 0 2
-18 14 -40 25 l-40 20 0 125 0 124 28 15 c32 18 14 21 -23 4 -25 -11 -25 -12
-25 -140 0 -84 -4 -127 -10 -123 -6 4 -10 58 -10 130 l0 125 38 19 37 20 -127
1 c-71 0 -128 -2 -128 -5 0 -2 11 -10 25 -17 l25 -14 -63 -86 c-34 -48 -64
-87 -67 -87 -3 0 -31 36 -63 81 l-57 82 32 18 c18 9 27 17 20 18 -7 0 -26 -7
-43 -15 l-29 -16 47 -67 c26 -37 55 -78 65 -91 10 -13 15 -27 12 -32 -3 -5
-36 37 -75 93 l-69 102 33 18 c32 17 31 17 -98 17 -127 0 -129 0 -102 -17z
m99 -180 c2 -84 1 -99 -9 -85 -8 11 -13 52 -13 112 0 128 17 106 22 -27z"/>
<path d="M6048 3973 c31 -16 32 -19 32 -75 0 -57 -1 -58 -27 -58 -16 -1 -41
-7 -58 -15 l-30 -13 40 -2 c36 -2 37 -3 15 -10 -21 -8 -19 -9 15 -7 l40 2 3
-42 c3 -39 0 -44 -30 -63 l-33 -20 125 0 c123 0 125 1 101 19 -20 15 -23 25
-20 64 2 26 1 47 -3 47 -5 0 -8 -25 -8 -56 0 -34 -4 -53 -10 -49 -5 3 -10 30
-10 60 0 58 7 66 63 64 27 0 29 -2 12 -9 -19 -7 -19 -8 -2 -15 26 -11 216 10
260 28 48 21 67 59 47 95 -8 14 -22 28 -30 30 -11 4 -11 0 3 -16 28 -31 19
-72 -23 -96 -27 -16 -55 -21 -130 -22 l-95 -3 86 9 c129 12 179 48 149 106
-26 47 -77 57 -305 61 -202 3 -209 2 -177 -14z m317 -23 c14 -6 16 -9 5 -10
-8 -2 -1 -5 15 -9 21 -4 31 -13 33 -28 5 -34 -38 -55 -124 -61 l-75 -5 3 49 3
49 65 6 65 6 -72 1 -73 2 0 -55 c0 -30 -4 -55 -10 -55 -6 0 -10 27 -10 60 l0
60 78 -1 c42 0 86 -4 97 -9z"/>
<path d="M6150 3661 c-142 -7 -106 -17 45 -13 71 2 104 7 95 13 -8 5 -17 8
-20 7 -3 -1 -57 -4 -120 -7z"/>
<path d="M6044 3455 c11 -8 23 -15 28 -15 4 0 8 -61 8 -135 l0 -135 -25 -6
c-69 -17 -3 -24 235 -24 143 0 260 2 260 4 0 3 -21 25 -47 50 -46 43 -49 44
-63 26 -23 -30 -84 -50 -150 -50 l-60 0 0 130 0 130 26 11 c15 5 24 12 21 15
-3 3 -19 -2 -36 -11 l-31 -16 0 -129 c0 -80 -4 -130 -10 -130 -6 0 -10 50 -10
130 l0 130 33 20 32 20 -115 0 c-103 -1 -113 -2 -96 -15z"/>
<path d="M6509 3212 c6 -11 25 -30 42 -43 17 -12 27 -25 22 -30 -5 -5 -126
-10 -268 -12 l-260 -2 266 -3 c313 -2 319 -1 238 68 -32 27 -47 35 -40 22z"/>
<path d="M6147 2940 c-126 -32 -196 -118 -167 -205 14 -43 54 -78 117 -101 26
-10 51 -23 55 -28 12 -18 199 -20 260 -2 172 50 226 170 123 273 -23 24 -48
43 -56 43 -7 0 5 -13 27 -30 47 -34 64 -66 64 -118 0 -60 -31 -99 -108 -135
-61 -28 -77 -32 -172 -33 l-105 -2 101 8 c183 14 259 69 251 180 -4 48 -8 58
-45 90 -22 20 -57 42 -79 49 -49 16 -217 23 -266 11z m158 -20 c25 -6 21 -8
-25 -9 -107 -2 -165 -59 -157 -154 2 -28 13 -60 26 -78 28 -38 10 -38 -22 0
-67 80 -26 216 71 237 15 3 32 7 37 9 15 5 37 4 70 -5z m34 -27 c49 -6 54 -9
68 -42 23 -55 13 -134 -22 -171 -37 -39 -120 -59 -165 -40 -53 22 -80 64 -80
123 0 66 16 97 60 119 38 20 58 21 139 11z"/>
<path d="M6023 2404 l28 -15 -3 -127 -3 -127 -45 -22 -45 -22 120 -3 120 -2
-115 -6 -115 -6 140 -1 140 -2 -42 21 c-56 28 -64 49 -61 145 l3 82 120 -114
c119 -114 120 -115 165 -112 l45 2 3 143 3 143 42 19 42 20 -110 0 -110 0 35
-18 35 -17 3 -89 3 -89 -97 89 -96 89 28 12 c35 15 16 17 -22 3 l-27 -11 106
-100 c59 -55 107 -105 107 -111 0 -5 -52 39 -115 98 -63 59 -115 110 -115 115
0 4 12 12 28 17 21 8 -2 11 -98 11 -117 0 -123 -1 -97 -15z m98 -86 c0 -18 4
-70 7 -115 7 -74 6 -81 -8 -67 -19 18 -29 214 -11 214 6 0 11 -15 12 -32z"/>
<path d="M6540 2392 l-35 -17 -3 -147 -3 -147 -52 -4 -52 -3 63 -2 62 -2 0
151 0 151 30 11 c17 6 30 15 30 19 0 11 0 11 -40 -10z"/>
<path d="M6174 1885 c19 -15 18 -19 -22 -72 -20 -27 -27 -31 -44 -22 -10 6
-24 8 -31 5 -7 -2 -2 -8 11 -11 12 -4 22 -11 22 -16 0 -5 -13 -3 -29 5 -27 14
-30 14 -51 -9 l-22 -24 36 -6 c20 -4 36 -10 36 -13 0 -20 -79 -95 -125 -117
-30 -15 -55 -28 -55 -29 0 0 56 0 125 2 69 2 125 -1 125 -6 0 -4 -51 -9 -112
-11 -163 -3 -146 -11 23 -10 138 0 143 1 120 17 -68 47 -67 46 -48 86 9 20 20
36 24 36 5 -1 26 -13 47 -29 l40 -28 49 31 49 30 33 -39 c41 -48 42 -53 10
-61 -54 -14 -19 -19 107 -16 74 1 127 -1 121 -6 -7 -4 -59 -9 -115 -11 -152
-4 -132 -11 30 -11 78 0 142 4 142 8 0 4 -23 16 -51 27 -35 14 -63 35 -90 66
-21 26 -39 50 -39 53 0 3 20 6 46 6 l45 0 -27 35 c-15 20 -33 34 -40 31 -7 -3
-16 -1 -20 5 -3 6 -18 7 -33 4 -24 -5 -32 0 -54 29 -33 42 -33 50 -4 64 14 7
17 11 6 11 -8 1 -24 -5 -34 -13 -19 -14 -19 -16 13 -60 42 -58 28 -60 -15 -2
-39 51 -40 59 -10 74 17 8 -3 11 -93 11 -101 0 -113 -1 -96 -14z m66 -53 c0
-4 -13 -23 -30 -42 -16 -19 -29 -38 -30 -42 0 -3 16 -16 36 -28 19 -12 33 -24
30 -27 -4 -5 -86 46 -86 54 0 2 15 24 33 48 30 42 47 55 47 37z m44 -56 c31
-42 32 -52 6 -66 -19 -10 -35 -4 -89 36 -4 4 42 63 50 63 4 1 18 -14 33 -33z
m266 -48 c0 -4 -18 -8 -40 -8 -46 0 -49 -8 -17 -47 44 -55 49 -63 40 -63 -5 0
-28 27 -51 59 l-42 60 38 3 c31 2 36 6 33 23 -3 20 -3 20 18 1 12 -11 21 -23
21 -28z m-429 -66 c-13 -25 -17 -43 -11 -47 6 -3 10 -11 10 -17 0 -7 -6 -6
-15 2 -21 17 -19 47 6 82 29 40 35 29 10 -20z"/>
<path d="M6303 1658 c-18 -11 -33 -24 -33 -29 0 -5 18 3 40 17 58 39 52 49 -7
12z"/>
<path d="M3260 10759 c-107 -31 -168 -51 -189 -63 l-24 -13 23 -13 24 -13 -22
-8 c-45 -17 -311 -199 -358 -246 -50 -48 -111 -140 -100 -150 3 -3 35 22 72
56 56 51 102 79 279 166 189 94 217 105 266 105 30 0 72 7 94 15 22 8 66 14
98 15 61 0 77 17 37 42 -11 7 -20 16 -20 20 0 13 70 9 99 -6 55 -29 124 -160
125 -238 1 -45 3 -48 27 -48 14 0 34 -6 44 -14 18 -13 16 -15 -22 -39 -22 -14
-67 -49 -99 -79 -74 -67 -147 -118 -169 -118 -9 0 -61 -42 -114 -94 -61 -59
-109 -97 -127 -101 -195 -44 -325 -126 -440 -278 -55 -73 -117 -198 -139 -282
-23 -86 -30 -240 -16 -332 15 -97 30 -153 39 -153 4 0 8 51 9 113 0 61 5 126
10 142 9 27 11 21 22 -54 7 -47 28 -132 47 -189 48 -147 162 -375 219 -439 26
-29 50 -53 54 -53 4 0 0 24 -10 53 -36 108 -50 203 -56 377 -6 198 7 295 56
429 38 100 72 174 77 168 3 -3 -2 -32 -10 -65 -21 -79 -21 -319 -1 -435 22
-128 61 -242 112 -332 47 -82 153 -225 193 -260 22 -18 23 -19 17 -2 -12 33
-19 67 -14 67 3 0 17 -21 32 -46 25 -43 157 -196 174 -202 9 -3 -13 120 -29
162 -15 41 -6 43 23 4 38 -50 66 -123 79 -205 6 -40 14 -73 17 -73 3 0 16 25
29 55 38 95 25 221 -36 323 -14 24 -68 96 -119 160 -52 65 -104 135 -116 157
-26 49 -31 32 -19 -59 5 -37 5 -65 1 -64 -17 7 -135 147 -174 207 -73 114 -96
218 -76 337 13 71 44 154 58 154 4 0 6 -34 5 -77 -4 -88 20 -246 49 -322 23
-63 77 -171 84 -171 3 0 3 28 -1 63 -4 45 0 84 15 146 11 46 22 85 24 87 2 3
7 -20 11 -50 5 -48 57 -203 86 -257 10 -18 14 -14 41 41 17 33 34 60 39 60 5
0 14 -16 19 -36 15 -56 81 -158 177 -278 73 -90 89 -105 95 -90 11 28 10 129
-1 159 -8 20 -7 26 2 23 7 -3 28 -34 46 -71 40 -80 66 -214 59 -304 -2 -35 -1
-63 3 -63 13 0 61 138 70 202 23 158 -55 368 -190 516 -65 72 -81 32 -29 -72
17 -33 36 -67 41 -74 6 -7 7 -16 3 -20 -12 -12 -94 88 -129 158 -44 86 -58
132 -60 191 0 27 -5 50 -10 52 -12 3 -44 -89 -45 -130 -1 -53 -16 -38 -39 40
-15 52 -22 109 -26 209 -2 75 -7 142 -11 148 -5 8 -16 3 -34 -13 -14 -14 -40
-32 -57 -41 -18 -8 -57 -44 -87 -78 -31 -34 -59 -60 -62 -56 -3 3 21 57 54
121 33 63 67 141 76 173 9 33 23 76 32 97 9 20 13 40 10 43 -8 8 -77 -32 -153
-90 -40 -29 -70 -62 -88 -96 -15 -28 -30 -49 -32 -47 -6 5 68 148 99 192 52
74 165 198 215 236 75 55 79 56 87 17 4 -18 14 -47 23 -65 14 -30 14 -33 -11
-63 -37 -43 -42 -71 -22 -129 16 -48 15 -51 -6 -101 -16 -38 -20 -57 -13 -68
17 -27 29 -24 39 10 13 41 32 47 39 10 4 -15 25 -51 48 -78 22 -27 52 -74 65
-104 36 -83 59 -124 73 -128 11 -4 10 10 -7 56 -9 22 17 13 45 -16 15 -16 44
-41 65 -57 l37 -27 0 36 c0 20 3 36 6 36 3 0 16 -13 29 -28 31 -37 116 -82
122 -64 8 20 44 14 86 -15 55 -39 120 -37 209 6 97 47 154 121 174 225 5 30 1
42 -26 76 -17 22 -58 61 -91 86 -32 26 -59 50 -59 53 0 8 56 14 115 12 145 -3
183 -7 209 -24 33 -22 40 -18 32 20 -9 39 -68 109 -151 180 -89 76 -163 158
-171 190 -4 13 -4 45 0 69 4 32 1 55 -10 77 -31 61 -259 267 -296 267 -5 0
-11 -7 -14 -15 -9 -23 -21 -18 -63 24 -54 54 -138 85 -212 77 -36 -3 -60 -1
-67 6 -17 17 -15 28 4 28 15 0 14 3 -2 28 -10 15 -37 62 -61 104 -83 146 -182
207 -353 214 -52 2 -111 -1 -130 -7z m-133 -95 c-3 -3 -12 -4 -19 -1 -8 3 -5
6 6 6 11 1 17 -2 13 -5z m559 -512 c-4 -56 -40 -112 -109 -173 -45 -39 -67
-52 -87 -51 -15 1 -44 -5 -65 -14 -20 -8 -40 -12 -43 -9 -3 3 25 34 63 68 39
34 104 96 145 139 41 43 80 78 87 78 7 0 11 -14 9 -38z m623 -59 c21 -25 31
-49 31 -70 0 -40 -15 -44 -24 -7 -4 15 -18 43 -32 63 -42 62 -24 73 25 14z
m-154 -52 c3 -10 3 -25 0 -33 -8 -21 48 -139 80 -168 26 -25 55 -80 55 -106 0
-10 -9 -8 -34 8 -23 15 -31 25 -23 30 17 12 -66 88 -96 88 -13 0 -36 -13 -52
-30 -21 -22 -38 -30 -62 -30 -30 0 -32 2 -22 18 10 16 4 29 -35 82 -66 91 -64
97 40 105 75 7 87 10 101 31 18 29 39 31 48 5z m-920 -179 c-6 -4 -23 -18 -39
-32 -29 -25 -29 -25 -17 -2 7 13 22 27 34 32 28 11 33 12 22 2z m-168 -154
c-116 -134 -170 -236 -207 -391 -25 -101 -36 -273 -22 -345 17 -93 -6 -42 -37
83 -41 165 -47 227 -27 303 30 119 87 204 199 300 63 53 135 109 145 111 2 1
-21 -27 -51 -61z m835 -16 c-30 -26 -50 -51 -46 -55 13 -13 39 -7 74 17 l35
24 29 -25 c16 -13 34 -22 40 -20 36 14 53 16 66 7 12 -8 7 -18 -31 -57 -26
-26 -50 -58 -54 -70 -8 -29 -20 -29 -38 -2 -9 13 -27 21 -47 22 -27 2 -39 11
-73 60 l-41 58 26 26 c29 28 100 72 108 65 3 -2 -19 -25 -48 -50z m388 -141
c0 -12 -69 -35 -78 -26 -4 4 2 13 12 21 22 16 66 19 66 5z m25 -175 c28 -12
55 -41 55 -60 0 -3 -16 6 -36 19 -50 34 -76 32 -113 -10 -32 -37 -34 -70 -8
-103 16 -20 31 2 18 27 -9 16 -9 21 0 21 6 0 8 7 5 16 -3 8 -2 12 4 9 6 -3 10
-13 10 -21 0 -8 4 -14 10 -14 6 0 6 -9 0 -26 -15 -39 -13 -44 20 -44 33 0 38
11 15 30 -12 10 -15 10 -15 0 0 -8 -3 -11 -6 -7 -3 3 -3 10 0 16 9 14 34 3 41
-18 3 -9 17 -22 33 -29 l27 -12 -27 5 c-15 3 -30 1 -33 -5 -14 -23 -62 -10
-103 28 -56 52 -58 94 -6 152 39 43 57 48 109 26z m-10 -66 c16 -16 25 -30 19
-30 -10 1 -64 46 -64 55 0 13 18 3 45 -25z m-5 -41 c28 -28 50 -52 48 -55 -5
-4 -74 59 -97 89 -25 32 -4 18 49 -34z m49 17 c-3 -3 -11 5 -18 17 -13 21 -12
21 5 5 10 -10 16 -20 13 -22z"/>
<path d="M4008 9973 c-50 -4 -58 -12 -33 -33 11 -9 22 -9 46 -1 56 19 78 14
100 -24 12 -19 25 -35 30 -35 15 0 10 31 -12 66 -22 36 -18 36 -131 27z"/>
<path d="M4010 9886 c0 -22 27 -38 52 -31 l22 8 -23 18 c-27 22 -51 25 -51 5z"/>
<path d="M4213 10573 c-40 -37 -47 -67 -40 -155 5 -54 11 -76 28 -94 24 -26
39 -31 39 -13 0 6 16 33 35 59 19 26 35 57 35 68 0 37 -22 37 -53 -1 -16 -21
-33 -37 -38 -37 -13 0 -11 74 3 88 7 7 24 12 39 12 31 0 106 67 91 82 -5 5
-31 11 -58 14 -45 6 -52 4 -81 -23z"/>
<path d="M3325 10531 c-83 -38 -126 -132 -104 -229 14 -67 34 -92 69 -92 16 0
32 5 35 10 4 6 -3 36 -15 66 -24 66 -17 104 28 146 39 37 65 48 111 48 36 0
41 -3 47 -27 17 -75 25 -100 38 -118 14 -20 15 -19 46 10 27 26 31 35 27 67
-7 51 -39 92 -92 117 -56 26 -135 27 -190 2z"/>
<path d="M3022 10443 c-74 -38 -120 -72 -225 -166 -145 -130 -227 -193 -299
-228 -27 -13 -48 -27 -48 -31 0 -14 115 -8 164 8 26 9 49 14 52 11 3 -2 -21
-26 -51 -53 -142 -123 -175 -158 -207 -219 -33 -64 -33 -92 0 -62 26 23 114
61 227 96 55 17 103 31 107 31 5 0 -8 -17 -28 -37 -55 -54 -178 -249 -202
-318 -32 -93 -62 -237 -69 -328 -3 -45 -3 -79 1 -76 4 4 16 40 28 80 31 111
163 403 224 496 85 128 147 181 348 297 100 58 202 144 187 159 -5 5 -40 10
-78 10 -58 1 -77 -3 -132 -32 -34 -18 -65 -30 -67 -28 -3 3 25 31 62 63 45 39
75 76 90 109 22 46 31 95 19 95 -16 0 -86 -43 -129 -80 -53 -44 -75 -46 -34
-2 55 58 176 254 156 252 -2 0 -45 -22 -96 -47z"/>
<path d="M4475 9034 c-38 -20 -78 -45 -88 -57 -13 -15 -33 -22 -70 -24 -101
-8 -142 -7 -159 1 -15 7 -18 3 -18 -18 0 -51 44 -107 70 -91 5 3 12 -5 15 -17
17 -56 28 -57 114 -15 67 33 83 38 107 30 25 -8 29 -15 32 -51 2 -23 7 -42 11
-42 34 0 155 134 170 188 12 40 -2 84 -24 80 -8 -2 -21 8 -28 22 -18 37 -53
35 -132 -6z"/>
<path d="M4273 8521 c-40 -46 -63 -81 -63 -97 0 -13 4 -24 9 -24 14 0 79 76
101 120 39 76 18 76 -47 1z"/>
<path d="M3770 8208 c1 -87 16 -92 20 -8 4 67 1 90 -10 90 -6 0 -10 -34 -10
-82z"/>
<path d="M9144 9975 c-18 -15 -18 -15 10 -13 16 2 31 9 34 16 5 17 -20 15 -44
-3z"/>
<path d="M9127 9917 c-52 -44 -97 -178 -97 -291 0 -37 -5 -65 -14 -75 -20 -23
-24 -130 -5 -142 24 -15 75 -10 100 10 23 18 24 18 49 -1 39 -29 108 -27 131
3 24 31 24 71 -1 100 l-19 24 -1 -37 c0 -26 -6 -41 -21 -52 -26 -18 -42 -13
-59 18 -16 31 2 66 34 66 20 0 24 6 30 49 11 82 -17 232 -57 303 -26 47 -38
51 -70 25z m-59 -379 c31 -31 0 -105 -33 -78 -25 21 -14 90 15 90 3 0 11 -5
18 -12z"/>
<path d="M8910 9519 c0 -6 5 -20 11 -31 6 -11 12 -31 14 -45 1 -13 12 -34 23
-46 11 -12 30 -42 41 -67 15 -34 20 -39 20 -22 1 30 -14 59 -51 99 -17 17 -28
36 -24 41 3 5 -1 26 -9 46 -15 36 -25 46 -25 25z"/>
<path d="M9181 9204 c0 -11 3 -14 6 -6 3 7 2 16 -1 19 -3 4 -6 -2 -5 -13z"/>
<path d="M9172 9160 c0 -14 2 -19 5 -12 2 6 2 18 0 25 -3 6 -5 1 -5 -13z"/>
<path d="M9162 9100 c0 -14 2 -19 5 -12 2 6 2 18 0 25 -3 6 -5 1 -5 -13z"/>
<path d="M3848 5138 c-54 -14 -111 -69 -151 -145 -35 -67 -68 -157 -82 -220
-6 -29 -4 -32 29 -43 41 -13 52 -46 12 -36 -13 3 -31 9 -39 12 -12 4 -18 -7
-26 -48 -17 -84 -33 -220 -27 -226 3 -2 24 7 46 22 22 15 51 31 63 37 54 24
171 96 175 107 2 8 -29 27 -77 49 -45 20 -81 40 -81 45 0 13 45 -1 121 -38 38
-19 74 -34 80 -34 6 0 48 20 95 44 46 25 109 53 140 63 l56 17 -7 41 c-4 22
-8 51 -9 65 -1 23 -4 25 -43 22 -51 -4 -78 9 -103 51 -26 42 -25 67 4 110 l24
35 -21 20 c-51 46 -121 66 -179 50z"/>
<path d="M4065 5080 c-3 -5 -1 -10 4 -10 6 0 11 5 11 10 0 6 -2 10 -4 10 -3 0
-8 -4 -11 -10z"/>
<path d="M4355 4764 c-38 -9 -75 -20 -82 -26 -7 -5 -22 -7 -34 -3 -19 6 -21 4
-15 -16 3 -13 9 -60 13 -104 4 -51 11 -83 19 -88 9 -5 14 -28 14 -66 0 -58 1
-59 43 -86 23 -16 78 -55 122 -88 l79 -60 46 50 c68 74 108 139 130 211 41
132 16 206 -84 257 -72 36 -149 41 -251 19z"/>
<path d="M3201 4756 c-51 -17 -98 -58 -117 -103 -39 -92 15 -225 150 -370 l52
-56 120 87 c129 95 138 109 130 187 -2 25 0 64 5 88 5 23 11 54 12 69 2 15 9
37 16 50 10 18 9 22 -3 22 -8 0 -16 -5 -18 -11 -3 -8 -19 -2 -45 15 -37 24
-52 28 -149 32 -78 3 -121 0 -153 -10z"/>
<path d="M4142 4710 c-18 -4 -41 -14 -50 -23 -16 -14 -103 -56 -146 -71 -24
-8 -16 -16 54 -54 114 -62 156 -86 186 -109 17 -13 34 -23 39 -23 8 0 0 121
-16 223 -6 39 -16 67 -22 66 -7 -1 -27 -5 -45 -9z"/>
<path d="M3848 4565 c-25 -12 -60 -32 -77 -45 -18 -12 -42 -25 -54 -28 -12 -4
-52 -27 -89 -52 l-68 -45 -2 -70 c-1 -38 -2 -83 -3 -100 0 -16 -4 -36 -9 -43
-4 -8 -3 -26 4 -43 7 -16 10 -49 8 -74 l-5 -44 71 -53 c39 -29 82 -58 96 -64
14 -6 58 -32 99 -57 l74 -45 101 58 c55 31 106 59 111 61 6 2 36 22 68 43 l57
39 0 198 0 198 -82 50 c-46 27 -121 70 -168 94 l-85 45 -47 -23z m91 -141 c49
-41 41 -49 -49 -49 -81 0 -92 6 -67 37 34 43 74 47 116 12z m58 -76 c112 -48
172 -163 129 -246 -62 -120 -220 -113 -277 12 -24 52 -24 83 0 129 11 23 15
37 8 34 -19 -6 -47 -69 -47 -107 0 -44 33 -118 56 -127 16 -6 16 -7 -2 -14
-37 -15 -96 -9 -131 13 -96 58 -80 219 27 288 40 25 54 29 127 29 45 1 95 -4
110 -11z"/>
<path d="M3475 4339 c-82 -62 -155 -124 -154 -134 0 -14 188 -165 204 -165 3
0 5 74 5 165 0 91 -3 165 -7 164 -5 0 -26 -14 -48 -30z"/>
<path d="M4270 4276 c0 -66 -4 -96 -12 -100 -10 -5 -10 -7 0 -12 7 -4 12 -27
12 -65 0 -32 3 -59 8 -59 9 0 172 131 192 155 13 16 11 21 -25 52 -42 36 -163
123 -170 123 -3 0 -5 -42 -5 -94z"/>
<path d="M4445 4135 c-38 -30 -86 -67 -105 -83 -19 -16 -44 -34 -56 -40 -22
-12 -22 -11 -43 -215 -6 -54 -14 -84 -26 -95 -17 -16 -17 -14 -11 38 4 30 11
87 16 125 5 39 9 75 10 80 7 31 -6 29 -62 -8 -35 -23 -105 -65 -157 -94 l-95
-52 50 -21 c27 -12 64 -28 82 -35 37 -16 45 -40 10 -30 -13 4 -56 22 -95 41
l-73 35 -61 -31 c-33 -17 -66 -29 -72 -27 -6 2 -27 -7 -45 -20 -19 -12 -49
-25 -68 -29 -19 -3 -34 -8 -34 -11 0 -15 47 -147 68 -188 74 -149 159 -209
261 -183 86 22 183 150 228 301 16 55 12 77 -15 77 -24 0 -58 25 -45 33 10 6
51 -3 98 -23 95 -39 279 -55 361 -32 91 26 154 94 154 167 0 85 -7 100 -56
113 -70 19 -93 68 -70 147 4 14 -6 33 -37 66 l-42 47 -70 -53z"/>
<path d="M3550 3971 c0 -5 4 -21 10 -35 5 -15 16 -72 25 -127 8 -55 17 -104
20 -108 6 -11 226 66 246 86 6 6 -8 19 -43 38 -72 38 -222 136 -226 146 -5 12
-32 11 -32 0z"/>
<path d="M3030 3900 c0 -5 7 -10 16 -10 8 0 12 5 9 10 -3 6 -10 10 -16 10 -5
0 -9 -4 -9 -10z"/>
<path d="M8816 4840 c-4 -69 -9 -162 -10 -207 -3 -82 -3 -83 21 -83 l25 0 -7
168 c-10 240 -19 278 -29 122z m14 -256 c0 -14 -4 -23 -9 -20 -5 3 -7 15 -4
26 7 28 13 25 13 -6z"/>
<path d="M8655 4855 c2 -17 9 -70 15 -120 5 -49 15 -92 20 -93 13 -5 40 -68
40 -93 0 -11 5 -19 10 -19 6 0 10 3 10 8 0 6 -39 159 -71 282 -14 53 -32 78
-24 35z"/>
<path d="M8967 4793 c-22 -53 -28 -86 -18 -102 5 -8 0 -36 -15 -72 -25 -62
-30 -89 -15 -89 16 0 81 233 81 291 0 22 -18 6 -33 -28z"/>
<path d="M8500 4805 c0 -42 85 -244 103 -245 10 0 9 46 -2 68 -78 158 -101
198 -101 177z"/>
<path d="M9117 4760 c-21 -32 -39 -74 -43 -100 -4 -25 -12 -52 -18 -60 -24
-31 -45 -89 -35 -96 6 -3 12 -4 13 -3 10 12 106 221 116 252 19 62 6 65 -33 7z"/>
<path d="M8340 4755 c0 -25 96 -175 112 -175 5 0 11 7 14 15 4 9 -16 42 -51
85 -56 69 -75 87 -75 75z"/>
<path d="M9255 4683 c-27 -31 -58 -71 -69 -87 -10 -17 -36 -50 -57 -73 -36
-40 -51 -69 -30 -61 5 2 30 29 55 61 26 31 52 57 58 57 13 0 44 39 80 99 49
82 33 83 -37 4z"/>
<path d="M9404 4617 c-67 -49 -233 -227 -212 -227 7 0 38 25 68 56 30 31 73
69 96 84 40 28 120 117 112 125 -2 3 -31 -15 -64 -38z"/>
<path d="M8220 4641 c0 -10 115 -157 128 -163 4 -2 19 -19 34 -39 33 -45 81
-65 99 -43 10 13 -5 32 -95 118 -104 100 -166 147 -166 127z m172 -153 c56
-50 85 -85 75 -94 -5 -6 -125 104 -138 127 -16 30 -2 23 63 -33z"/>
<path d="M8470 4567 c0 -9 5 -19 10 -22 6 -4 24 -30 40 -58 21 -37 31 -47 35
-35 6 15 -40 93 -70 118 -12 10 -15 10 -15 -3z"/>
<path d="M8700 4551 c0 -12 5 -21 10 -21 6 0 10 6 10 14 0 8 -4 18 -10 21 -5
3 -10 -3 -10 -14z"/>
<path d="M9161 4505 c-24 -31 -41 -61 -39 -67 4 -11 51 50 77 100 20 37 6 25
-38 -33z"/>
<path d="M8610 4541 c0 -21 13 -41 26 -41 17 0 17 10 0 33 -14 19 -26 22 -26
8z"/>
<path d="M8986 4541 c-4 -7 -5 -15 -2 -18 9 -9 19 4 14 18 -4 11 -6 11 -12 0z"/>
<path d="M8119 4502 c19 -15 55 -48 80 -73 25 -25 68 -58 95 -74 26 -16 59
-39 72 -52 13 -12 28 -23 34 -23 20 0 9 15 -28 39 -42 28 -142 100 -157 114
-16 15 36 -13 80 -43 88 -60 124 -79 130 -70 3 5 -7 16 -23 24 -15 8 -55 35
-88 60 -110 82 -289 173 -195 98z"/>
<path d="M9430 4462 c-101 -55 -201 -134 -188 -147 6 -6 108 41 108 50 0 3
-18 -4 -40 -15 -55 -28 -50 -17 12 24 53 36 72 40 47 9 -17 -20 39 11 112 64
111 79 82 88 -51 15z"/>
<path d="M8000 4389 c0 -11 134 -79 157 -79 10 0 33 -9 51 -20 18 -11 38 -20
45 -20 6 0 36 -11 65 -25 30 -14 52 -21 50 -15 -2 5 -59 37 -128 71 -128 62
-240 104 -240 88z"/>
<path d="M9589 4376 c-2 -2 -18 -6 -35 -9 -17 -3 -39 -10 -50 -16 -10 -5 -54
-24 -96 -41 -42 -17 -82 -38 -89 -46 -6 -8 -18 -14 -25 -14 -8 0 -14 -5 -14
-11 0 -18 71 -3 164 36 74 31 186 92 186 101 0 5 -36 5 -41 0z m-167 -92 c-67
-30 -108 -41 -98 -25 4 6 15 11 24 11 9 0 35 9 57 19 22 11 47 19 55 19 8 0
-9 -10 -38 -24z"/>
<path d="M7970 4231 c0 -23 355 -99 374 -80 3 3 -52 21 -122 42 -125 35 -252
55 -252 38z"/>
<path d="M9566 4233 c-1 -2 -38 -13 -82 -27 -43 -13 -95 -29 -114 -36 -19 -7
-41 -15 -49 -17 -8 -2 -12 -6 -9 -8 12 -12 332 55 351 74 5 5 -13 10 -43 12
-28 2 -53 3 -54 2z"/>
<path d="M8255 4110 c29 -13 94 -13 75 0 -8 5 -33 9 -55 9 -31 0 -36 -2 -20
-9z"/>
<path d="M9328 4113 c12 -2 30 -2 40 0 9 3 -1 5 -23 4 -22 0 -30 -2 -17 -4z"/>
</g>
</svg>
